<?xml version="1.0" encoding="ISO-8859-1"?>
<!DOCTYPE svg PUBLIC "-//W3C//DTD SVG 1.0//EN" "http://www.w3.org/TR/2001/REC-SVG-20010904/DTD/svg10.dtd">
<!-- generated by Grace-5.1.25 -->
<svg xml:space="preserve" width="11.0000in" height="8.5000in" viewBox="0.0000 0.0000 792.0000 612.0000">
 <g transform="translate(0,612.0000) scale(1,-1)">
 <desc></desc>
  <g style="fill:#FFFFFF; fill-rule:nonzero">
   <path  d="M0.0000,0.0000L0.0000,612.0000L792.0000,612.0000L792.0000,0.0000z"/>
  </g>
  <g style="fill:none; stroke:#FF0000; stroke-width:  0.9180; stroke-linecap:butt; stroke-linejoin:miter; stroke-dasharray:none">
   <path d="M91.8000,91.8000L91.8000,91.8000L94.8600,91.8000L94.8600,91.8000L97.9200,91.8000L97.9200,91.8000L100.9800,91.8000L100.9800,91.8000L104.0400,91.8000L104.0400,91.8000
            L107.1000,91.8000L107.1000,91.8000L110.1600,91.8000L110.1600,91.8000L113.2200,91.8000L113.2200,91.8000L116.2800,91.8000L116.2800,91.8000L119.3400,91.8000L119.3400,91.8000
            L122.4000,91.8000L122.4000,91.8000L125.4600,91.8000L125.4600,91.8000L128.5200,91.8000L128.5200,91.8000L131.5800,91.8000L131.5800,91.8000L134.6400,91.8000L134.6400,91.8000
            L137.7000,91.8000L137.7000,91.8000L140.7600,91.8000L140.7600,93.2279L143.8200,93.2279L143.8200,91.8000L146.8800,91.8000L146.8800,91.8000L149.9400,91.8000L149.9400,91.8000
            L153.0000,91.8000L153.0000,91.8000L156.0600,91.8000L156.0600,91.8000L159.1200,91.8000L159.1200,91.8000L162.1800,91.8000L162.1800,91.8000L165.2400,91.8000L165.2400,91.8000
            L168.3000,91.8000L168.3000,93.2279L171.3600,93.2279L171.3600,91.8000L174.4200,91.8000L174.4200,91.8000L177.4800,91.8000L177.4800,91.8000L180.5400,91.8000L180.5400,94.6557
            L183.6000,94.6557L183.6000,93.2279L186.6600,93.2279L186.6600,93.2279L189.7200,93.2279L189.7200,94.6557L192.7800,94.6557L192.7800,94.6557L195.8400,94.6557L195.8400,93.2279
            L198.9000,93.2279L198.9000,94.6557L201.9600,94.6557L201.9600,93.2279L205.0200,93.2279L205.0200,91.8000L208.0800,91.8000L208.0800,94.6557L211.1400,94.6557L211.1400,97.5114
            L214.2000,97.5114L214.2000,94.6557L217.2600,94.6557L217.2600,104.6507L220.3200,104.6507L220.3200,101.7950L223.3800,101.7950L223.3800,107.5064L226.4400,107.5064L226.4400,101.7950
            L229.5000,101.7950L229.5000,104.6507L232.5600,104.6507L232.5600,101.7950L235.6200,101.7950L235.6200,101.7950L238.6800,101.7950L238.6800,114.6457L241.7400,114.6457L241.7400,108.9343
            L244.8000,108.9343L244.8000,117.5014L247.8600,117.5014L247.8600,127.4964L250.9200,127.4964L250.9200,120.3571L253.9800,120.3571L253.9800,110.3621L257.0400,110.3621L257.0400,117.5014
            L260.1000,117.5014L260.1000,130.3521L263.1600,130.3521L263.1600,121.7850L266.2200,121.7850L266.2200,147.4864L269.2800,147.4864L269.2800,136.0636L272.3400,136.0636L272.3400,127.4964
            L275.4000,127.4964L275.4000,153.1979L278.4600,153.1979L278.4600,157.4814L281.5200,157.4814L281.5200,157.4814L284.5800,157.4814L284.5800,146.0586L287.6400,146.0586L287.6400,188.8943
            L290.7000,188.8943L290.7000,181.7550L293.7600,181.7550L293.7600,180.3271L296.8200,180.3271L296.8200,196.0336L299.8800,196.0336L299.8800,193.1779L302.9400,193.1779L302.9400,193.1779
            L306.0000,193.1779L306.0000,204.6007L309.0600,204.6007L309.0600,186.0386L312.1200,186.0386L312.1200,228.8743L315.1800,228.8743L315.1800,221.7350L318.2400,221.7350L318.2400,260.2872
            L321.3000,260.2872L321.3000,264.5707L324.3600,264.5707L324.3600,278.8493L327.4200,278.8493L327.4200,277.4214L330.4800,277.4214L330.4800,280.2772L333.5400,280.2772L333.5400,308.8343
            L336.6000,308.8343L336.6000,314.5457L339.6600,314.5457L339.6600,315.9736L342.7200,315.9736L342.7200,311.6900L345.7800,311.6900L345.7800,315.9736L348.8400,315.9736L348.8400,323.1129
            L351.9000,323.1129L351.9000,317.4014L354.9600,317.4014L354.9600,318.8293L358.0200,318.8293L358.0200,347.3864L361.0800,347.3864L361.0800,368.8043L364.1400,368.8043L364.1400,394.5057
            L367.2000,394.5057L367.2000,374.5157L370.2600,374.5157L370.2600,375.9436L373.3200,375.9436L373.3200,371.6600L376.3800,371.6600L376.3800,387.3664L379.4400,387.3664L379.4400,348.8143
            L382.5000,348.8143L382.5000,373.0879L385.5600,373.0879L385.5600,388.7943L388.6200,388.7943L388.6200,381.6550L391.6800,381.6550L391.6800,327.3964L394.7400,327.3964L394.7400,350.2422
            L397.8000,350.2422L397.8000,373.0879L400.8600,373.0879L400.8600,355.9536L403.9200,355.9536L403.9200,363.0929L406.9800,363.0929L406.9800,320.2572L410.0400,320.2572L410.0400,310.2622
            L413.1000,310.2622L413.1000,383.0829L416.1600,383.0829L416.1600,315.9736L419.2200,315.9736L419.2200,295.9836L422.2800,295.9836L422.2800,331.6800L425.3400,331.6800L425.3400,357.3814
            L428.4000,357.3814L428.4000,343.1029L431.4600,343.1029L431.4600,297.4114L434.5200,297.4114L434.5200,297.4114L437.5800,297.4114L437.5800,285.9886L440.6400,285.9886L440.6400,273.1379
            L443.7000,273.1379L443.7000,270.2822L446.7600,270.2822L446.7600,277.4214L449.8200,277.4214L449.8200,267.4264L452.8800,267.4264L452.8800,264.5707L455.9400,264.5707L455.9400,248.8643
            L459.0000,248.8643L459.0000,210.3121L462.0600,210.3121L462.0600,236.0136L465.1200,236.0136L465.1200,211.7400L468.1800,211.7400L468.1800,194.6057L471.2400,194.6057L471.2400,194.6057
            L474.3000,194.6057L474.3000,198.8893L477.3600,198.8893L477.3600,186.0386L480.4200,186.0386L480.4200,176.0436L483.4800,176.0436L483.4800,167.4764L486.5400,167.4764L486.5400,156.0536
            L489.6000,156.0536L489.6000,154.6257L492.6600,154.6257L492.6600,157.4814L495.7200,157.4814L495.7200,150.3421L498.7800,150.3421L498.7800,140.3471L501.8400,140.3471L501.8400,151.7700
            L504.9000,151.7700L504.9000,144.6307L507.9600,144.6307L507.9600,140.3471L511.0200,140.3471L511.0200,133.2079L514.0800,133.2079L514.0800,126.0686L517.1400,126.0686L517.1400,123.2129
            L520.2000,123.2129L520.2000,134.6357L523.2600,134.6357L523.2600,118.9293L526.3200,118.9293L526.3200,118.9293L529.3800,118.9293L529.3800,101.7950L532.4400,101.7950L532.4400,116.0736
            L535.5000,116.0736L535.5000,111.7900L538.5600,111.7900L538.5600,110.3621L541.6200,110.3621L541.6200,110.3621L544.6800,110.3621L544.6800,103.2229L547.7400,103.2229L547.7400,98.9393
            L550.8000,98.9393L550.8000,104.6507L553.8600,104.6507L553.8600,100.3671L556.9200,100.3671L556.9200,94.6557L559.9800,94.6557L559.9800,101.7950L563.0400,101.7950L563.0400,94.6557
            L566.1000,94.6557L566.1000,100.3671L569.1600,100.3671L569.1600,96.0836L572.2200,96.0836L572.2200,91.8000L575.2800,91.8000L575.2800,97.5114L578.3400,97.5114L578.3400,91.8000
            L581.4000,91.8000L581.4000,91.8000L584.4600,91.8000L584.4600,94.6557L587.5200,94.6557L587.5200,94.6557L590.5800,94.6557L590.5800,97.5114L593.6400,97.5114L593.6400,91.8000
            L596.7000,91.8000L596.7000,93.2279L599.7600,93.2279L599.7600,94.6557L602.8200,94.6557L602.8200,93.2279L605.8800,93.2279L605.8800,91.8000L608.9400,91.8000L608.9400,91.8000
            L612.0000,91.8000L612.0000,91.8000L615.0600,91.8000L615.0600,91.8000L618.1200,91.8000L618.1200,91.8000L621.1800,91.8000L621.1800,91.8000L624.2400,91.8000L624.2400,91.8000
            L627.3000,91.8000L627.3000,91.8000L630.3600,91.8000L630.3600,91.8000L633.4200,91.8000L633.4200,91.8000L636.4800,91.8000L636.4800,91.8000L639.5400,91.8000L639.5400,91.8000
            L642.6000,91.8000L642.6000,91.8000L645.6600,91.8000L645.6600,91.8000L648.7200,91.8000L648.7200,91.8000L651.7800,91.8000L651.7800,91.8000L654.8400,91.8000L654.8400,91.8000
            L657.9000,91.8000L657.9000,91.8000L660.9600,91.8000L660.9600,91.8000L664.0200,91.8000L664.0200,91.8000L667.0800,91.8000L667.0800,91.8000L670.1400,91.8000L670.1400,91.8000
            L673.2000,91.8000L673.2000,91.8000L676.2600,91.8000L676.2600,91.8000L679.3200,91.8000L679.3200,91.8000L682.3800,91.8000L682.3800,91.8000L685.4400,91.8000L685.4400,91.8000
            L688.5000,91.8000L688.5000,91.8000L691.5600,91.8000L691.5600,91.8000L694.6200,91.8000L694.6200,91.8000L697.6800,91.8000L697.6800,91.8000L700.7400,91.8000L700.7400,91.8000
            L703.8000,91.8000"/>
   <path d="M91.8000,91.8000L91.8000,91.8000"/>
   <path d="M94.8600,91.8000L94.8600,91.8000"/>
   <path d="M97.9200,91.8000L97.9200,91.8000"/>
   <path d="M100.9800,91.8000L100.9800,91.8000"/>
   <path d="M104.0400,91.8000L104.0400,91.8000"/>
   <path d="M107.1000,91.8000L107.1000,91.8000"/>
   <path d="M110.1600,91.8000L110.1600,91.8000"/>
   <path d="M113.2200,91.8000L113.2200,91.8000"/>
   <path d="M116.2800,91.8000L116.2800,91.8000"/>
   <path d="M119.3400,91.8000L119.3400,91.8000"/>
   <path d="M122.4000,91.8000L122.4000,91.8000"/>
   <path d="M125.4600,91.8000L125.4600,91.8000"/>
   <path d="M128.5200,91.8000L128.5200,91.8000"/>
   <path d="M131.5800,91.8000L131.5800,91.8000"/>
   <path d="M134.6400,91.8000L134.6400,91.8000"/>
   <path d="M137.7000,91.8000L137.7000,91.8000"/>
   <path d="M140.7600,91.8000L140.7600,91.8000"/>
   <path d="M143.8200,91.8000L143.8200,93.2279"/>
   <path d="M146.8800,91.8000L146.8800,91.8000"/>
   <path d="M149.9400,91.8000L149.9400,91.8000"/>
   <path d="M153.0000,91.8000L153.0000,91.8000"/>
   <path d="M156.0600,91.8000L156.0600,91.8000"/>
   <path d="M159.1200,91.8000L159.1200,91.8000"/>
   <path d="M162.1800,91.8000L162.1800,91.8000"/>
   <path d="M165.2400,91.8000L165.2400,91.8000"/>
   <path d="M168.3000,91.8000L168.3000,91.8000"/>
   <path d="M171.3600,91.8000L171.3600,93.2279"/>
   <path d="M174.4200,91.8000L174.4200,91.8000"/>
   <path d="M177.4800,91.8000L177.4800,91.8000"/>
   <path d="M180.5400,91.8000L180.5400,91.8000"/>
   <path d="M183.6000,91.8000L183.6000,94.6557"/>
   <path d="M186.6600,91.8000L186.6600,93.2279"/>
   <path d="M189.7200,91.8000L189.7200,93.2279"/>
   <path d="M192.7800,91.8000L192.7800,94.6557"/>
   <path d="M195.8400,91.8000L195.8400,94.6557"/>
   <path d="M198.9000,91.8000L198.9000,93.2279"/>
   <path d="M201.9600,91.8000L201.9600,94.6557"/>
   <path d="M205.0200,91.8000L205.0200,93.2279"/>
   <path d="M208.0800,91.8000L208.0800,91.8000"/>
   <path d="M211.1400,91.8000L211.1400,94.6557"/>
   <path d="M214.2000,91.8000L214.2000,97.5114"/>
   <path d="M217.2600,91.8000L217.2600,94.6557"/>
   <path d="M220.3200,91.8000L220.3200,104.6507"/>
   <path d="M223.3800,91.8000L223.3800,101.7950"/>
   <path d="M226.4400,91.8000L226.4400,107.5064"/>
   <path d="M229.5000,91.8000L229.5000,101.7950"/>
   <path d="M232.5600,91.8000L232.5600,104.6507"/>
   <path d="M235.6200,91.8000L235.6200,101.7950"/>
   <path d="M238.6800,91.8000L238.6800,101.7950"/>
   <path d="M241.7400,91.8000L241.7400,114.6457"/>
   <path d="M244.8000,91.8000L244.8000,108.9343"/>
   <path d="M247.8600,91.8000L247.8600,117.5014"/>
   <path d="M250.9200,91.8000L250.9200,127.4964"/>
   <path d="M253.9800,91.8000L253.9800,120.3571"/>
   <path d="M257.0400,91.8000L257.0400,110.3621"/>
   <path d="M260.1000,91.8000L260.1000,117.5014"/>
   <path d="M263.1600,91.8000L263.1600,130.3521"/>
   <path d="M266.2200,91.8000L266.2200,121.7850"/>
   <path d="M269.2800,91.8000L269.2800,147.4864"/>
   <path d="M272.3400,91.8000L272.3400,136.0636"/>
   <path d="M275.4000,91.8000L275.4000,127.4964"/>
   <path d="M278.4600,91.8000L278.4600,153.1979"/>
   <path d="M281.5200,91.8000L281.5200,157.4814"/>
   <path d="M284.5800,91.8000L284.5800,157.4814"/>
   <path d="M287.6400,91.8000L287.6400,146.0586"/>
   <path d="M290.7000,91.8000L290.7000,188.8943"/>
   <path d="M293.7600,91.8000L293.7600,181.7550"/>
   <path d="M296.8200,91.8000L296.8200,180.3271"/>
   <path d="M299.8800,91.8000L299.8800,196.0336"/>
   <path d="M302.9400,91.8000L302.9400,193.1779"/>
   <path d="M306.0000,91.8000L306.0000,193.1779"/>
   <path d="M309.0600,91.8000L309.0600,204.6007"/>
   <path d="M312.1200,91.8000L312.1200,186.0386"/>
   <path d="M315.1800,91.8000L315.1800,228.8743"/>
   <path d="M318.2400,91.8000L318.2400,221.7350"/>
   <path d="M321.3000,91.8000L321.3000,260.2872"/>
   <path d="M324.3600,91.8000L324.3600,264.5707"/>
   <path d="M327.4200,91.8000L327.4200,278.8493"/>
   <path d="M330.4800,91.8000L330.4800,277.4214"/>
   <path d="M333.5400,91.8000L333.5400,280.2772"/>
   <path d="M336.6000,91.8000L336.6000,308.8343"/>
   <path d="M339.6600,91.8000L339.6600,314.5457"/>
   <path d="M342.7200,91.8000L342.7200,315.9736"/>
   <path d="M345.7800,91.8000L345.7800,311.6900"/>
   <path d="M348.8400,91.8000L348.8400,315.9736"/>
   <path d="M351.9000,91.8000L351.9000,323.1129"/>
   <path d="M354.9600,91.8000L354.9600,317.4014"/>
   <path d="M358.0200,91.8000L358.0200,318.8293"/>
   <path d="M361.0800,91.8000L361.0800,347.3864"/>
   <path d="M364.1400,91.8000L364.1400,368.8043"/>
   <path d="M367.2000,91.8000L367.2000,394.5057"/>
   <path d="M370.2600,91.8000L370.2600,374.5157"/>
   <path d="M373.3200,91.8000L373.3200,375.9436"/>
   <path d="M376.3800,91.8000L376.3800,371.6600"/>
   <path d="M379.4400,91.8000L379.4400,387.3664"/>
   <path d="M382.5000,91.8000L382.5000,348.8143"/>
   <path d="M385.5600,91.8000L385.5600,373.0879"/>
   <path d="M388.6200,91.8000L388.6200,388.7943"/>
   <path d="M391.6800,91.8000L391.6800,381.6550"/>
   <path d="M394.7400,91.8000L394.7400,327.3964"/>
   <path d="M397.8000,91.8000L397.8000,350.2422"/>
   <path d="M400.8600,91.8000L400.8600,373.0879"/>
   <path d="M403.9200,91.8000L403.9200,355.9536"/>
   <path d="M406.9800,91.8000L406.9800,363.0929"/>
   <path d="M410.0400,91.8000L410.0400,320.2572"/>
   <path d="M413.1000,91.8000L413.1000,310.2622"/>
   <path d="M416.1600,91.8000L416.1600,383.0829"/>
   <path d="M419.2200,91.8000L419.2200,315.9736"/>
   <path d="M422.2800,91.8000L422.2800,295.9836"/>
   <path d="M425.3400,91.8000L425.3400,331.6800"/>
   <path d="M428.4000,91.8000L428.4000,357.3814"/>
   <path d="M431.4600,91.8000L431.4600,343.1029"/>
   <path d="M434.5200,91.8000L434.5200,297.4114"/>
   <path d="M437.5800,91.8000L437.5800,297.4114"/>
   <path d="M440.6400,91.8000L440.6400,285.9886"/>
   <path d="M443.7000,91.8000L443.7000,273.1379"/>
   <path d="M446.7600,91.8000L446.7600,270.2822"/>
   <path d="M449.8200,91.8000L449.8200,277.4214"/>
   <path d="M452.8800,91.8000L452.8800,267.4264"/>
   <path d="M455.9400,91.8000L455.9400,264.5707"/>
   <path d="M459.0000,91.8000L459.0000,248.8643"/>
   <path d="M462.0600,91.8000L462.0600,210.3121"/>
   <path d="M465.1200,91.8000L465.1200,236.0136"/>
   <path d="M468.1800,91.8000L468.1800,211.7400"/>
   <path d="M471.2400,91.8000L471.2400,194.6057"/>
   <path d="M474.3000,91.8000L474.3000,194.6057"/>
   <path d="M477.3600,91.8000L477.3600,198.8893"/>
   <path d="M480.4200,91.8000L480.4200,186.0386"/>
   <path d="M483.4800,91.8000L483.4800,176.0436"/>
   <path d="M486.5400,91.8000L486.5400,167.4764"/>
   <path d="M489.6000,91.8000L489.6000,156.0536"/>
   <path d="M492.6600,91.8000L492.6600,154.6257"/>
   <path d="M495.7200,91.8000L495.7200,157.4814"/>
   <path d="M498.7800,91.8000L498.7800,150.3421"/>
   <path d="M501.8400,91.8000L501.8400,140.3471"/>
   <path d="M504.9000,91.8000L504.9000,151.7700"/>
   <path d="M507.9600,91.8000L507.9600,144.6307"/>
   <path d="M511.0200,91.8000L511.0200,140.3471"/>
   <path d="M514.0800,91.8000L514.0800,133.2079"/>
   <path d="M517.1400,91.8000L517.1400,126.0686"/>
   <path d="M520.2000,91.8000L520.2000,123.2129"/>
   <path d="M523.2600,91.8000L523.2600,134.6357"/>
   <path d="M526.3200,91.8000L526.3200,118.9293"/>
   <path d="M529.3800,91.8000L529.3800,118.9293"/>
   <path d="M532.4400,91.8000L532.4400,101.7950"/>
   <path d="M535.5000,91.8000L535.5000,116.0736"/>
   <path d="M538.5600,91.8000L538.5600,111.7900"/>
   <path d="M541.6200,91.8000L541.6200,110.3621"/>
   <path d="M544.6800,91.8000L544.6800,110.3621"/>
   <path d="M547.7400,91.8000L547.7400,103.2229"/>
   <path d="M550.8000,91.8000L550.8000,98.9393"/>
   <path d="M553.8600,91.8000L553.8600,104.6507"/>
   <path d="M556.9200,91.8000L556.9200,100.3671"/>
   <path d="M559.9800,91.8000L559.9800,94.6557"/>
   <path d="M563.0400,91.8000L563.0400,101.7950"/>
   <path d="M566.1000,91.8000L566.1000,94.6557"/>
   <path d="M569.1600,91.8000L569.1600,100.3671"/>
   <path d="M572.2200,91.8000L572.2200,96.0836"/>
   <path d="M575.2800,91.8000L575.2800,91.8000"/>
   <path d="M578.3400,91.8000L578.3400,97.5114"/>
   <path d="M581.4000,91.8000L581.4000,91.8000"/>
   <path d="M584.4600,91.8000L584.4600,91.8000"/>
   <path d="M587.5200,91.8000L587.5200,94.6557"/>
   <path d="M590.5800,91.8000L590.5800,94.6557"/>
   <path d="M593.6400,91.8000L593.6400,97.5114"/>
   <path d="M596.7000,91.8000L596.7000,91.8000"/>
   <path d="M599.7600,91.8000L599.7600,93.2279"/>
   <path d="M602.8200,91.8000L602.8200,94.6557"/>
   <path d="M605.8800,91.8000L605.8800,93.2279"/>
   <path d="M608.9400,91.8000L608.9400,91.8000"/>
   <path d="M612.0000,91.8000L612.0000,91.8000"/>
   <path d="M615.0600,91.8000L615.0600,91.8000"/>
   <path d="M618.1200,91.8000L618.1200,91.8000"/>
   <path d="M621.1800,91.8000L621.1800,91.8000"/>
   <path d="M624.2400,91.8000L624.2400,91.8000"/>
   <path d="M627.3000,91.8000L627.3000,91.8000"/>
   <path d="M630.3600,91.8000L630.3600,91.8000"/>
   <path d="M633.4200,91.8000L633.4200,91.8000"/>
   <path d="M636.4800,91.8000L636.4800,91.8000"/>
   <path d="M639.5400,91.8000L639.5400,91.8000"/>
   <path d="M642.6000,91.8000L642.6000,91.8000"/>
   <path d="M645.6600,91.8000L645.6600,91.8000"/>
   <path d="M648.7200,91.8000L648.7200,91.8000"/>
   <path d="M651.7800,91.8000L651.7800,91.8000"/>
   <path d="M654.8400,91.8000L654.8400,91.8000"/>
   <path d="M657.9000,91.8000L657.9000,91.8000"/>
   <path d="M660.9600,91.8000L660.9600,91.8000"/>
   <path d="M664.0200,91.8000L664.0200,91.8000"/>
   <path d="M667.0800,91.8000L667.0800,91.8000"/>
   <path d="M670.1400,91.8000L670.1400,91.8000"/>
   <path d="M673.2000,91.8000L673.2000,91.8000"/>
   <path d="M676.2600,91.8000L676.2600,91.8000"/>
   <path d="M679.3200,91.8000L679.3200,91.8000"/>
   <path d="M682.3800,91.8000L682.3800,91.8000"/>
   <path d="M685.4400,91.8000L685.4400,91.8000"/>
   <path d="M688.5000,91.8000L688.5000,91.8000"/>
   <path d="M691.5600,91.8000L691.5600,91.8000"/>
   <path d="M694.6200,91.8000L694.6200,91.8000"/>
   <path d="M697.6800,91.8000L697.6800,91.8000"/>
   <path d="M700.7400,91.8000L700.7400,91.8000"/>
   <path d="M703.8000,91.8000L703.8000,91.8000"/>
  </g>
  <g style="fill:none; stroke:#00FF00; stroke-width:  0.9180; stroke-linecap:butt; stroke-linejoin:miter; stroke-dasharray:none">
   <path d="M91.8000,91.8032L94.8600,91.8040L97.9200,91.8051L100.9800,91.8064L104.0400,91.8080L107.1000,91.8100L110.1600,91.8124L113.2200,91.8155L116.2800,91.8192L119.3400,91.8238
            L122.4000,91.8294L125.4600,91.8363L128.5200,91.8447L131.5800,91.8548L134.6400,91.8671L137.7000,91.8819L140.7600,91.8997L143.8200,91.9212L146.8800,91.9469L149.9400,91.9776
            L153.0000,92.0143L156.0600,92.0578L159.1200,92.1095L162.1800,92.1707L165.2400,92.2429L168.3000,92.3278L171.3600,92.4275L174.4200,92.5443L177.4800,92.6806L180.5400,92.8394
            L183.6000,93.0239L186.6600,93.2376L189.7200,93.4846L192.7800,93.7692L195.8400,94.0963L198.9000,94.4713L201.9600,94.9001L205.0200,95.3889L208.0800,95.9449L211.1400,96.5753
            L214.2000,97.2884L217.2600,98.0927L220.3200,98.9974L223.3800,100.0123L226.4400,101.1477L229.5000,102.4143L232.5600,103.8234L235.6200,105.3867L238.6800,107.1161L241.7400,109.0239
            L244.8000,111.1226L247.8600,113.4245L250.9200,115.9423L253.9800,118.6880L257.0400,121.6736L260.1000,124.9105L263.1600,128.4095L266.2200,132.1804L269.2800,136.2321L272.3400,140.5721
            L275.4000,145.2067L278.4600,150.1404L281.5200,155.3758L284.5800,160.9136L287.6400,166.7521L290.7000,172.8875L293.7600,179.3130L296.8200,186.0195L299.8800,192.9947L302.9400,200.2236
            L306.0000,207.6882L309.0600,215.3674L312.1200,223.2370L315.1800,231.2698L318.2400,239.4360L321.3000,247.7025L324.3600,256.0341L327.4200,264.3927L330.4800,272.7384L333.5400,281.0293
            L336.6000,289.2217L339.6600,297.2710L342.7200,305.1317L345.7800,312.7578L348.8400,320.1035L351.9000,327.1232L354.9600,333.7725L358.0200,340.0084L361.0800,345.7896L364.1400,351.0774
            L367.2000,355.8356L370.2600,360.0313L373.3200,363.6350L376.3800,366.6214L379.4400,368.9691L382.5000,370.6613L385.5600,371.6858L388.6200,372.0350L391.6800,371.7066L394.7400,370.7029
            L397.8000,369.0312L400.8600,366.7035L403.9200,363.7365L406.9800,360.1514L410.0400,355.9735L413.1000,351.2322L416.1600,345.9603L419.2200,340.1937L422.2800,333.9712L425.3400,327.3340
            L428.4000,320.3250L431.4600,312.9888L434.5200,305.3706L437.5800,297.5165L440.6400,289.4723L443.7000,281.2836L446.7600,272.9951L449.8200,264.6505L452.8800,256.2916L455.9400,247.9587
            L459.0000,239.6896L462.0600,231.5198L465.1200,223.4824L468.1800,215.6074L471.2400,207.9220L474.3000,200.4504L477.3600,193.2139L480.4200,186.2306L483.4800,179.5157L486.5400,173.0813
            L489.6000,166.9369L492.6600,161.0891L495.7200,155.5420L498.7800,150.2973L501.8400,145.3544L504.9000,140.7106L507.9600,136.3616L511.0200,132.3011L514.0800,128.5217L517.1400,125.0145
            L520.2000,121.7696L523.2600,118.7764L526.3200,116.0235L529.3800,113.4989L532.4400,111.1904L535.5000,109.0857L538.5600,107.1722L541.6200,105.4375L544.6800,103.8692L547.7400,102.4556
            L550.8000,101.1847L553.8600,100.0455L556.9200,99.0270L559.9800,98.1190L563.0400,97.3118L566.1000,96.5960L569.1600,95.9632L572.2200,95.4051L575.2800,94.9142L578.3400,94.4837
            L581.4000,94.1071L584.4600,93.7786L587.5200,93.4928L590.5800,93.2447L593.6400,93.0300L596.7000,92.8447L599.7600,92.6852L602.8200,92.5482L605.8800,92.4309L608.9400,92.3307
            L612.0000,92.2453L615.0600,92.1727L618.1200,92.1113L621.1800,92.0593L624.2400,92.0155L627.3000,91.9787L630.3600,91.9478L633.4200,91.9219L636.4800,91.9003L639.5400,91.8824
            L642.6000,91.8675L645.6600,91.8551L648.7200,91.8449L651.7800,91.8365L654.8400,91.8296L657.9000,91.8240L660.9600,91.8194L664.0200,91.8156L667.0800,91.8125L670.1400,91.8100
            L673.2000,91.8080L676.2600,91.8064L679.3200,91.8051L682.3800,91.8040L685.4400,91.8032L688.5000,91.8025L691.5600,91.8020L694.6200,91.8016L697.6800,91.8012L700.7400,91.8010
            L703.8000,91.8007"/>
  </g>
  <g style="fill:none; stroke:#000000; stroke-width:  0.9180; stroke-linecap:butt; stroke-linejoin:miter; stroke-dasharray:none">
   <path d="M91.8000,91.8000L703.8000,91.8000"/>
   <path d="M91.8000,520.2000L703.8000,520.2000"/>
   <path d="M142.8000,91.8000L142.8000,97.9200"/>
   <path d="M142.8000,520.2000L142.8000,514.0800"/>
   <path d="M244.8000,91.8000L244.8000,97.9200"/>
   <path d="M244.8000,520.2000L244.8000,514.0800"/>
   <path d="M346.8000,91.8000L346.8000,97.9200"/>
   <path d="M346.8000,520.2000L346.8000,514.0800"/>
   <path d="M448.8000,91.8000L448.8000,97.9200"/>
   <path d="M448.8000,520.2000L448.8000,514.0800"/>
   <path d="M550.8000,91.8000L550.8000,97.9200"/>
   <path d="M550.8000,520.2000L550.8000,514.0800"/>
   <path d="M652.8000,91.8000L652.8000,97.9200"/>
   <path d="M652.8000,520.2000L652.8000,514.0800"/>
   <path d="M91.8000,91.8000L91.8000,104.0400"/>
   <path d="M91.8000,520.2000L91.8000,507.9600"/>
   <path d="M193.8000,91.8000L193.8000,104.0400"/>
   <path d="M193.8000,520.2000L193.8000,507.9600"/>
   <path d="M295.8000,91.8000L295.8000,104.0400"/>
   <path d="M295.8000,520.2000L295.8000,507.9600"/>
   <path d="M397.8000,91.8000L397.8000,104.0400"/>
   <path d="M397.8000,520.2000L397.8000,507.9600"/>
   <path d="M499.8000,91.8000L499.8000,104.0400"/>
   <path d="M499.8000,520.2000L499.8000,507.9600"/>
   <path d="M601.8000,91.8000L601.8000,104.0400"/>
   <path d="M601.8000,520.2000L601.8000,507.9600"/>
   <path d="M703.8000,91.8000L703.8000,104.0400"/>
   <path d="M703.8000,520.2000L703.8000,507.9600"/>
  </g>
  <g style="fill:#000000; fill-rule:nonzero">
   <text   style="font-family:'Times','Nimbus Roman'; font-style:normal; font-weight:normal; font-size:612.0000" transform="matrix(0.0280,0.0000,-0.0000,-0.0280,79.3000,73.6800)">300</text>
   <text   style="font-family:'Times','Nimbus Roman'; font-style:normal; font-weight:normal; font-size:612.0000" transform="matrix(0.0280,0.0000,-0.0000,-0.0280,181.3000,73.6800)">305</text>
   <text   style="font-family:'Times','Nimbus Roman'; font-style:normal; font-weight:normal; font-size:612.0000" transform="matrix(0.0280,0.0000,-0.0000,-0.0280,283.3000,73.6800)">310</text>
   <text   style="font-family:'Times','Nimbus Roman'; font-style:normal; font-weight:normal; font-size:612.0000" transform="matrix(0.0280,0.0000,-0.0000,-0.0280,385.3000,73.6800)">315</text>
   <text   style="font-family:'Times','Nimbus Roman'; font-style:normal; font-weight:normal; font-size:612.0000" transform="matrix(0.0280,0.0000,-0.0000,-0.0280,487.3000,73.6800)">320</text>
   <text   style="font-family:'Times','Nimbus Roman'; font-style:normal; font-weight:normal; font-size:612.0000" transform="matrix(0.0280,0.0000,-0.0000,-0.0280,589.3000,73.6800)">325</text>
   <text   style="font-family:'Times','Nimbus Roman'; font-style:normal; font-weight:normal; font-size:612.0000" transform="matrix(0.0280,0.0000,-0.0000,-0.0280,691.3000,73.6800)">330</text>
  </g>
  <g style="fill:none; stroke:#000000; stroke-width:  0.9180; stroke-linecap:butt; stroke-linejoin:miter; stroke-dasharray:none">
   <path d="M91.8000,91.8000L91.8000,520.2000"/>
   <path d="M703.8000,91.8000L703.8000,520.2000"/>
   <path d="M91.8000,145.3500L97.9200,145.3500"/>
   <path d="M703.8000,145.3500L697.6800,145.3500"/>
   <path d="M91.8000,252.4500L97.9200,252.4500"/>
   <path d="M703.8000,252.4500L697.6800,252.4500"/>
   <path d="M91.8000,359.5500L97.9200,359.5500"/>
   <path d="M703.8000,359.5500L697.6800,359.5500"/>
   <path d="M91.8000,466.6500L97.9200,466.6500"/>
   <path d="M703.8000,466.6500L697.6800,466.6500"/>
   <path d="M91.8000,91.8000L104.0400,91.8000"/>
   <path d="M703.8000,91.8000L691.5600,91.8000"/>
   <path d="M91.8000,198.9000L104.0400,198.9000"/>
   <path d="M703.8000,198.9000L691.5600,198.9000"/>
   <path d="M91.8000,306.0000L104.0400,306.0000"/>
   <path d="M703.8000,306.0000L691.5600,306.0000"/>
   <path d="M91.8000,413.1000L104.0400,413.1000"/>
   <path d="M703.8000,413.1000L691.5600,413.1000"/>
   <path d="M91.8000,520.2000L104.0400,520.2000"/>
   <path d="M703.8000,520.2000L691.5600,520.2000"/>
  </g>
  <g style="fill:#000000; fill-rule:nonzero">
   <text   style="font-family:'Times','Nimbus Roman'; font-style:normal; font-weight:normal; font-size:612.0000" transform="matrix(0.0280,0.0000,-0.0000,-0.0280,77.6800,85.8000)">0</text>
   <text   style="font-family:'Times','Nimbus Roman'; font-style:normal; font-weight:normal; font-size:612.0000" transform="matrix(0.0280,0.0000,-0.0000,-0.0280,56.6800,192.9000)">0.05</text>
   <text   style="font-family:'Times','Nimbus Roman'; font-style:normal; font-weight:normal; font-size:612.0000" transform="matrix(0.0280,0.0000,-0.0000,-0.0280,65.6800,300.0000)">0.1</text>
   <text   style="font-family:'Times','Nimbus Roman'; font-style:normal; font-weight:normal; font-size:612.0000" transform="matrix(0.0280,0.0000,-0.0000,-0.0280,56.6800,407.1000)">0.15</text>
   <text   style="font-family:'Times','Nimbus Roman'; font-style:normal; font-weight:normal; font-size:612.0000" transform="matrix(0.0280,0.0000,-0.0000,-0.0280,63.6800,514.2000)">0.2</text>
   <text   style="font-family:'Times','Nimbus Roman'; font-style:normal; font-weight:normal; font-size:612.0000" transform="matrix(0.0000,0.0280,0.0280,-0.0000,46.5600,239.0000)">Relative Frequency</text>
  </g>
  <g style="fill:none; stroke:#000000; stroke-width:  0.9180; stroke-linecap:butt; stroke-linejoin:miter; stroke-dasharray:none">
   <path d="M91.8000,91.8000L91.8000,520.2000L703.8000,520.2000L703.8000,91.8000z"/>
  </g>
  <g style="fill:#000000; fill-rule:nonzero">
   <text   style="font-family:'Times','Nimbus Roman'; font-style:normal; font-weight:normal; font-size:612.0000" transform="matrix(0.0420,0.0000,-0.0000,-0.0420,275.8000,562.9200)">Temperature Flucations</text>
   <text   style="font-family:'Times','Nimbus Roman'; font-style:normal; font-weight:normal; font-size:612.0000" transform="matrix(0.0280,0.0000,-0.0000,-0.0280,196.8000,536.4400)">Ubiquitin in Water Sphere (Non-Periodic, NVE ensemble)</text>
  </g>
 </g>
</svg>
