<?xml version="1.0" encoding="ISO-8859-1"?>
<!DOCTYPE svg PUBLIC "-//W3C//DTD SVG 1.0//EN" "http://www.w3.org/TR/2001/REC-SVG-20010904/DTD/svg10.dtd">
<!-- generated by Grace-5.1.25 -->
<svg xml:space="preserve" width="11.0000in" height="8.5000in" viewBox="0.0000 0.0000 792.0000 612.0000">
 <g transform="translate(0,612.0000) scale(1,-1)">
  <g style="fill:#FFFFFF; fill-rule:nonzero">
   <path  d="M0.0000,0.0000L0.0000,612.0000L792.0000,612.0000L792.0000,0.0000z"/>
  </g>
  <g style="fill:none; stroke:#000000; stroke-width:  0.9180; stroke-linecap:butt; stroke-linejoin:miter; stroke-dasharray:none">
   <path d="M91.8000,116.1564L92.0040,124.3614L92.2080,144.8951L92.4120,145.7449L92.6160,155.2476L92.8200,161.6578L93.0240,167.8381L93.2280,176.9382L93.4320,183.5821L93.6360,189.9487
            L93.8400,190.6479L94.0440,192.8494L94.2480,196.9535L94.4520,199.6525L94.6560,202.1336L94.8600,205.5274L95.0640,207.0711L95.2680,207.2224L95.4720,208.0127L95.6760,208.6986
            L95.8800,209.0398L96.0840,209.0477L96.2880,209.3358L96.4920,210.1319L96.6960,211.2209L96.9000,212.4719L97.1040,213.6131L97.3080,214.6315L97.5120,215.8680L97.7160,218.2867
            L97.9200,220.8952L98.1240,223.6285L98.3280,223.6643L98.5320,223.6073L98.7360,223.7576L98.9400,224.0207L99.1440,224.4104L99.3480,224.7845L99.5520,225.3057L99.7560,225.7813
            L99.9600,226.3683L100.1640,226.8114L100.3680,227.2062L100.5720,227.0442L100.7760,226.9499L100.9800,226.8587L101.1840,226.8266L101.3880,226.8304L101.5920,226.9356L101.7960,227.0001
            L102.0000,226.9501L102.2040,226.8813L102.4080,226.8210L102.6120,226.7516L102.8160,226.7273L103.0200,226.8636L103.2240,226.9076L103.4280,226.8860L103.6320,227.0356L103.8360,227.4927
            L104.0400,228.2177L104.2440,228.5919L104.4480,229.1580L104.6520,229.1295L104.8560,228.9825L105.0600,228.7734L105.2640,228.8066L105.4680,229.1400L105.6720,229.5722L105.8760,229.9466
            L106.0800,230.4105L106.2840,230.3182L106.4880,230.4432L106.6920,230.5085L106.8960,230.5864L107.1000,230.8332L107.3040,230.8707L107.5080,230.8719L107.7120,231.0082L107.9160,231.1266
            L108.1200,231.1888L108.3240,231.1665L108.5280,231.2013L108.7320,231.2358L108.9360,231.3315L109.1400,231.3531L109.3440,231.3864L109.5480,231.4156L109.7520,231.4524L109.9560,231.4772
            L110.1600,231.5759L110.3640,231.6613L110.5680,231.6721L110.7720,231.7181L110.9760,231.8344L111.1800,231.9556L111.3840,231.9681L111.5880,231.8967L111.7920,231.7683L111.9960,231.7755
            L112.2000,231.8399L112.4040,231.8544L112.6080,231.9271L112.8120,232.0203L113.0160,232.0113L113.2200,231.9569L113.4240,231.9093L113.6280,231.8724L113.8320,231.8674L114.0360,231.8997
            L114.2400,231.9238L114.4440,231.9944L114.6480,232.0271L114.8520,232.0427L115.0560,232.0733L115.2600,232.1468L115.4640,232.2265L115.6680,232.1738L115.8720,232.0841L116.0760,231.9944
            L116.2800,231.8491L116.4840,231.8604L116.6880,231.8345L116.8920,231.8018L117.0960,231.7678L117.3000,231.8232L117.5040,231.8985L117.7080,231.9654L117.9120,232.0391L118.1160,232.1451
            L118.3200,232.1395L118.5240,232.1311L118.7280,232.1221L118.9320,232.1313L119.1360,232.1783L119.3400,232.2196L119.5440,232.2697L119.7480,232.2851L119.9520,232.2903L120.1560,232.3024
            L120.3600,232.4086L120.5640,232.4603L120.7680,232.5750L120.9720,232.7275L121.1760,232.8607L121.3800,232.8652L121.5840,233.0270L121.7880,233.3016L121.9920,233.5959L122.1960,233.8841
            L122.4000,233.8711L122.6040,233.8543L122.8080,233.8082L123.0120,233.8266L123.2160,233.8751L123.4200,233.8659L123.6240,233.8360L123.8280,233.6714L124.0320,233.5046L124.2360,233.3226
            L124.4400,233.2244L124.6440,233.1174L124.8480,232.9120L125.0520,232.7898L125.2560,232.7891L125.4600,232.8024L125.6640,232.7560L125.8680,232.6541L126.0720,232.3193L126.2760,232.2770
            L126.4800,232.6034L126.6840,232.5868L126.8880,232.5204L127.0920,232.5743L127.2960,232.5527L127.5000,232.5258L127.7040,232.4599L127.9080,232.4880L128.1120,232.4907L128.3160,232.4606
            L128.5200,232.3891L128.7240,232.3282L128.9280,232.3751L129.1320,232.3505L129.3360,232.2074L129.5400,232.0902L129.7440,231.9872L129.9480,231.9679L130.1520,231.9352L130.3560,231.8100
            L130.5600,231.8158L130.7640,231.7534L130.9680,231.7108L131.1720,231.6581L131.3760,231.6053L131.5800,231.5637L131.7840,231.5613L131.9880,231.5295L132.1920,231.5116L132.3960,236.3429
            L132.6000,245.0653L132.8040,248.6650L133.0080,249.2425L133.2120,243.9291L133.4160,241.6945L133.6200,238.4548L133.8240,243.2877L134.0280,237.6469L134.2320,239.4798L134.4360,242.8706
            L134.6400,241.3646L134.8440,238.7654L135.0480,237.8135L135.2520,234.4718L135.4560,237.2440L135.6600,235.7476L135.8640,234.1436L136.0680,240.0988L136.2720,239.4652L136.4760,238.4040
            L136.6800,235.4870L136.8840,232.5689L137.0880,233.0948L137.2920,232.8626L137.4960,230.6033L137.7000,224.3651L137.9040,225.4590L138.1080,226.3083L138.3120,229.4561L138.5160,230.7585
            L138.7200,231.2752L138.9240,226.7393L139.1280,226.3711L139.3320,227.8897L139.5360,229.1263L139.7400,223.8642L139.9440,219.7236L140.1480,217.3867L140.3520,218.2774L140.5560,221.4846
            L140.7600,222.4464L140.9640,219.6582L141.1680,223.8582L141.3720,227.9665L141.5760,228.3624L141.7800,231.6717L141.9840,234.1303L142.1880,242.7799L142.3920,251.3381L142.5960,255.6884
            L142.8000,251.0124L143.0040,233.5806L143.2080,222.0879L143.4120,217.4066L143.6160,220.1846L143.8200,218.2477L144.0240,216.6400L144.2280,216.1429L144.4320,216.0690L144.6360,223.2479
            L144.8400,223.5303L145.0440,221.1142L145.2480,224.4819L145.4520,231.0465L145.6560,234.7953L145.8600,236.9716L146.0640,241.6646L146.2680,242.7180L146.4720,243.6904L146.6760,250.1906
            L146.8800,252.8147L147.0840,255.5120L147.2880,254.3782L147.4920,255.1776L147.6960,254.0133L147.9000,249.3634L148.1040,251.8863L148.3080,251.4892L148.5120,253.7134L148.7160,254.3332
            L148.9200,254.3580L149.1240,249.3792L149.3280,240.9467L149.5320,234.2093L149.7360,230.1013L149.9400,232.2251L150.1440,230.2387L150.3480,225.9205L150.5520,224.6902L150.7560,226.7215
            L150.9600,227.6387L151.1640,223.8660L151.3680,224.3171L151.5720,228.1563L151.7760,226.2098L151.9800,224.5756L152.1840,221.1014L152.3880,220.9029L152.5920,227.2115L152.7960,234.4889
            L153.0000,237.7424L153.2040,236.0964L153.4080,229.0984L153.6120,229.0491L153.8160,228.8671L154.0200,231.6777L154.2240,238.0096L154.4280,241.8605L154.6320,244.7550L154.8360,245.4396
            L155.0400,245.5906L155.2440,245.7619L155.4480,243.3618L155.6520,243.1033L155.8560,251.5120L156.0600,253.5297L156.2640,249.3830L156.4680,247.1481L156.6720,250.9438L156.8760,250.0780
            L157.0800,251.8371L157.2840,255.2971L157.4880,259.2066L157.6920,260.3637L157.8960,259.6921L158.1000,258.7118L158.3040,253.5451L158.5080,239.0772L158.7120,239.2017L158.9160,240.4006
            L159.1200,241.9689L159.3240,244.7451L159.5280,243.7069L159.7320,244.5589L159.9360,242.7308L160.1400,248.6257L160.3440,252.0166L160.5480,255.2619L160.7520,255.0408L160.9560,261.2635
            L161.1600,264.3792L161.3640,259.7390L161.5680,258.7335L161.7720,259.5903L161.9760,260.1567L162.1800,264.8004L162.3840,265.9002L162.5880,261.1939L162.7920,259.6287L162.9960,258.3008
            L163.2000,261.7467L163.4040,259.0797L163.6080,254.6393L163.8120,250.4471L164.0160,247.4160L164.2200,247.7809L164.4240,243.2532L164.6280,240.0973L164.8320,240.7239L165.0360,243.1894
            L165.2400,250.6242L165.4440,256.5164L165.6480,264.2807L165.8520,268.5110L166.0560,269.8990L166.2600,271.3068L166.4640,268.5812L166.6680,256.9148L166.8720,256.3094L167.0760,260.4868
            L167.2800,266.2168L167.4840,271.1377L167.6880,273.0096L167.8920,268.4536L168.0960,267.5481L168.3000,269.1902L168.5040,272.3237L168.7080,272.6833L168.9120,275.4068L169.1160,275.6059
            L169.3200,281.2445L169.5240,286.4363L169.7280,283.2494L169.9320,281.4208L170.1360,283.3563L170.3400,278.5424L170.5440,276.2281L170.7480,273.1243L170.9520,272.1713L171.1560,267.5139
            L171.3600,265.9267L171.5640,263.2090L171.7680,262.4394L171.9720,264.7911L172.1760,263.5351L172.3800,264.3433L172.5840,259.7964L172.7880,258.1102L172.9920,257.7889L173.1960,255.6951
            L173.4000,257.8335L173.6040,259.7145L173.8080,257.5208L174.0120,258.5774L174.2160,262.8399L174.4200,259.9326L174.6240,257.0550L174.8280,258.3994L175.0320,264.1177L175.2360,263.3826
            L175.4400,262.7984L175.6440,260.3608L175.8480,263.5416L176.0520,265.2095L176.2560,268.8870L176.4600,268.8301L176.6640,272.5915L176.8680,274.8802L177.0720,277.8974L177.2760,278.0783
            L177.4800,277.8089L177.6840,275.9898L177.8880,274.3307L178.0920,270.6311L178.2960,269.1989L178.5000,266.2528L178.7040,264.3830L178.9080,263.4520L179.1120,262.0803L179.3160,267.2433
            L179.5200,267.9986L179.7240,275.2353L179.9280,278.0290L180.1320,281.8273L180.3360,282.9796L180.5400,284.5247L180.7440,287.5345L180.9480,287.7183L181.1520,282.3373L181.3560,282.0540
            L181.5600,285.0897L181.7640,287.4888L181.9680,286.7451L182.1720,284.9814L182.3760,285.4523L182.5800,285.7845L182.7840,287.7462L182.9880,289.5439L183.1920,295.6303L183.3960,293.4528
            L183.6000,291.3219L183.8040,290.3806L184.0080,291.1052L184.2120,289.4913L184.4160,287.6842L184.6200,291.3285L184.8240,287.6090L185.0280,287.5871L185.2320,285.0783L185.4360,279.5579
            L185.6400,277.4873L185.8440,275.8871L186.0480,276.5780L186.2520,276.3732L186.4560,280.8842L186.6600,279.4539L186.8640,282.0743L187.0680,284.0727L187.2720,285.2732L187.4760,280.6170
            L187.6800,271.2075L187.8840,273.3829L188.0880,281.2451L188.2920,287.0787L188.4960,294.3105L188.7000,299.9204L188.9040,301.3382L189.1080,302.7617L189.3120,312.6435L189.5160,318.7092
            L189.7200,315.5014L189.9240,310.6727L190.1280,311.7995L190.3320,314.8316L190.5360,311.8515L190.7400,309.5144L190.9440,310.3933L191.1480,312.1008L191.3520,319.2571L191.5560,320.6842
            L191.7600,328.1777L191.9640,329.2844L192.1680,329.8936L192.3720,328.7499L192.5760,323.0462L192.7800,315.5312L192.9840,315.4011L193.1880,318.6883L193.3920,317.8811L193.5960,310.3217
            L193.8000,309.3846L194.0040,300.2035L194.2080,292.1667L194.4120,291.4081L194.6160,289.6697L194.8200,290.5470L195.0240,285.6925L195.2280,283.7482L195.4320,288.0456L195.6360,286.4921
            L195.8400,282.5135L196.0440,275.0014L196.2480,276.0842L196.4520,275.7195L196.6560,281.2520L196.8600,283.1694L197.0640,283.4874L197.2680,283.7298L197.4720,287.5037L197.6760,295.0648
            L197.8800,291.2532L198.0840,286.6141L198.2880,285.3336L198.4920,282.4048L198.6960,283.4838L198.9000,278.7509L199.1040,273.8259L199.3080,277.1857L199.5120,278.6494L199.7160,274.7091
            L199.9200,278.7850L200.1240,277.7025L200.3280,282.0898L200.5320,284.6656L200.7360,293.2641L200.9400,294.8232L201.1440,300.8223L201.3480,300.3611L201.5520,303.4788L201.7560,301.3615
            L201.9600,292.8979L202.1640,289.8392L202.3680,292.0945L202.5720,293.3061L202.7760,295.0453L202.9800,295.5062L203.1840,296.5636L203.3880,300.1207L203.5920,301.7557L203.7960,295.2908
            L204.0000,295.0616L204.2040,300.1703L204.4080,301.1588L204.6120,299.8548L204.8160,297.5970L205.0200,293.3561L205.2240,285.7074L205.4280,295.1705L205.6320,300.9854L205.8360,304.7457
            L206.0400,309.3664L206.2440,309.5049L206.4480,312.0470L206.6520,319.1785L206.8560,322.2726L207.0600,323.3258L207.2640,328.1942L207.4680,334.1817L207.6720,329.3138L207.8760,329.9900
            L208.0800,326.6868L208.2840,326.0537L208.4880,324.7162L208.6920,323.8042L208.8960,322.2378L209.1000,323.0199L209.3040,323.5485L209.5080,324.2706L209.7120,327.4714L209.9160,331.2828
            L210.1200,335.5576L210.3240,341.0095L210.5280,343.8442L210.7320,342.7106L210.9360,340.2776L211.1400,342.8798L211.3440,341.1628L211.5480,341.0912L211.7520,338.8531L211.9560,339.9698
            L212.1600,347.6158L212.3640,349.9182L212.5680,347.7321L212.7720,347.7546L212.9760,347.7040L213.1800,345.9792L213.3840,353.8836L213.5880,353.6104L213.7920,348.7327L213.9960,348.0330
            L214.2000,354.3512L214.4040,349.6638L214.6080,350.0501L214.8120,346.5919L215.0160,342.7271L215.2200,330.8587L215.4240,326.2031L215.6280,325.3808L215.8320,320.2801L216.0360,322.3611
            L216.2400,326.1157L216.4440,327.4503L216.6480,334.8896L216.8520,337.0742L217.0560,327.6096L217.2600,324.8257L217.4640,328.4780L217.6680,329.8708L217.8720,328.7724L218.0760,322.1705
            L218.2800,318.2108L218.4840,322.0612L218.6880,321.9654L218.8920,321.7947L219.0960,321.2280L219.3000,314.7118L219.5040,321.5553L219.7080,327.7483L219.9120,331.6015L220.1160,333.7155
            L220.3200,333.0054L220.5240,331.0431L220.7280,333.1253L220.9320,333.1635L221.1360,334.8220L221.3400,335.6687L221.5440,337.6283L221.7480,331.1588L221.9520,328.9409L222.1560,323.6094
            L222.3600,327.4999L222.5640,333.5837L222.7680,335.8841L222.9720,331.4023L223.1760,328.8483L223.3800,317.7129L223.5840,307.7474L223.7880,304.6443L223.9920,304.6422L224.1960,304.7699
            L224.4000,307.0515L224.6040,312.7570L224.8080,306.1491L225.0120,301.5746L225.2160,303.8621L225.4200,300.9544L225.6240,300.5260L225.8280,300.7650L226.0320,298.3006L226.2360,301.7198
            L226.4400,302.9974L226.6440,301.2046L226.8480,302.4943L227.0520,301.1220L227.2560,300.5658L227.4600,309.7819L227.6640,314.7604L227.8680,319.7325L228.0720,324.9006L228.2760,332.3746
            L228.4800,331.6814L228.6840,326.2531L228.8880,319.1529L229.0920,316.2870L229.2960,315.0237L229.5000,307.7407L229.7040,307.2569L229.9080,307.3346L230.1120,307.9623L230.3160,306.4711
            L230.5200,311.2614L230.7240,315.4523L230.9280,319.8050L231.1320,322.2669L231.3360,323.0496L231.5400,318.1366L231.7440,317.9037L231.9480,316.8454L232.1520,321.3589L232.3560,323.1089
            L232.5600,320.6306L232.7640,317.3120L232.9680,316.0255L233.1720,317.1265L233.3760,316.3329L233.5800,318.0317L233.7840,320.9933L233.9880,321.0572L234.1920,315.0485L234.3960,311.4610
            L234.6000,316.6198L234.8040,315.8094L235.0080,312.3262L235.2120,316.6408L235.4160,317.5454L235.6200,320.6770L235.8240,321.6902L236.0280,320.6481L236.2320,314.2678L236.4360,309.2841
            L236.6400,315.6160L236.8440,319.4896L237.0480,318.6798L237.2520,312.5780L237.4560,308.1562L237.6600,307.9118L237.8640,307.8004L238.0680,306.8217L238.2720,310.0991L238.4760,308.2191
            L238.6800,311.0420L238.8840,319.5151L239.0880,327.3344L239.2920,332.1682L239.4960,332.3962L239.7000,331.9496L239.9040,335.4301L240.1080,330.1857L240.3120,323.0662L240.5160,318.3280
            L240.7200,323.1912L240.9240,326.8967L241.1280,325.0373L241.3320,326.6059L241.5360,329.5000L241.7400,330.4879L241.9440,322.7036L242.1480,323.7366L242.3520,325.1792L242.5560,324.5304
            L242.7600,324.7531L242.9640,331.8958L243.1680,329.8509L243.3720,329.2190L243.5760,330.8884L243.7800,332.9360L243.9840,328.0960L244.1880,325.2009L244.3920,318.0044L244.5960,308.1993
            L244.8000,300.5086L245.0040,300.5423L245.2080,299.7966L245.4120,301.9943L245.6160,303.8556L245.8200,306.7225L246.0240,308.8233L246.2280,310.5503L246.4320,308.1144L246.6360,312.6512
            L246.8400,310.5719L247.0440,315.5145L247.2480,319.4218L247.4520,325.5397L247.6560,329.2354L247.8600,333.0481L248.0640,337.8245L248.2680,338.6133L248.4720,332.9650L248.6760,329.9751
            L248.8800,328.0327L249.0840,327.7138L249.2880,322.9926L249.4920,321.7334L249.6960,322.6699L249.9000,320.1920L250.1040,317.0113L250.3080,315.4874L250.5120,322.6873L250.7160,320.6024
            L250.9200,325.4829L251.1240,326.6944L251.3280,324.5142L251.5320,325.7798L251.7360,333.5681L251.9400,333.1934L252.1440,330.9246L252.3480,336.8246L252.5520,339.5824L252.7560,344.7451
            L252.9600,351.6335L253.1640,360.7463L253.3680,357.2689L253.5720,356.3914L253.7760,358.8791L253.9800,359.1834L254.1840,356.2004L254.3880,354.8244L254.5920,354.3368L254.7960,355.5690
            L255.0000,355.8228L255.2040,352.8435L255.4080,356.1790L255.6120,350.9401L255.8160,345.5422L256.0200,340.0406L256.2240,340.3965L256.4280,338.9700L256.6320,342.6623L256.8360,350.2643
            L257.0400,347.8921L257.2440,345.7806L257.4480,351.7646L257.6520,358.4291L257.8560,357.5046L258.0600,355.9459L258.2640,353.4544L258.4680,352.5095L258.6720,349.7554L258.8760,351.7438
            L259.0800,349.5423L259.2840,343.0371L259.4880,343.7639L259.6920,344.3663L259.8960,347.8514L260.1000,351.3419L260.3040,354.1955L260.5080,359.9921L260.7120,355.7168L260.9160,356.5922
            L261.1200,357.6825L261.3240,355.3768L261.5280,349.4117L261.7320,340.3230L261.9360,339.6099L262.1400,338.0047L262.3440,337.5489L262.5480,336.2373L262.7520,330.1820L262.9560,331.6846
            L263.1600,328.1347L263.3640,320.7227L263.5680,315.9982L263.7720,310.9734L263.9760,307.8059L264.1800,309.6123L264.3840,316.9586L264.5880,321.1380L264.7920,325.5627L264.9960,329.9813
            L265.2000,330.3012L265.4040,334.2279L265.6080,336.7158L265.8120,335.1048L266.0160,336.7222L266.2200,342.6126L266.4240,341.7885L266.6280,336.9028L266.8320,336.8005L267.0360,332.4214
            L267.2400,329.9446L267.4440,325.9611L267.6480,320.4563L267.8520,315.9641L268.0560,314.0646L268.2600,310.6279L268.4640,303.2620L268.6680,296.9256L268.8720,297.5137L269.0760,297.9711
            L269.2800,296.2114L269.4840,296.2622L269.6880,296.7023L269.8920,297.1842L270.0960,299.0084L270.3000,303.6408L270.5040,304.8846L270.7080,310.0519L270.9120,311.6177L271.1160,311.3698
            L271.3200,310.9575L271.5240,304.1971L271.7280,299.5331L271.9320,299.8706L272.1360,302.0237L272.3400,297.6344L272.5440,299.1288L272.7480,301.0695L272.9520,299.5124L273.1560,299.0075
            L273.3600,298.0892L273.5640,298.1534L273.7680,301.3865L273.9720,303.7906L274.1760,303.6143L274.3800,302.8309L274.5840,303.2068L274.7880,304.1687L274.9920,306.7645L275.1960,307.9506
            L275.4000,303.6528L275.6040,296.6274L275.8080,293.8123L276.0120,295.0706L276.2160,298.6184L276.4200,303.3631L276.6240,310.7603L276.8280,317.0685L277.0320,312.4229L277.2360,315.1800
            L277.4400,315.9917L277.6440,318.9219L277.8480,319.9681L278.0520,310.7526L278.2560,307.4587L278.4600,309.2945L278.6640,310.1358L278.8680,307.7023L279.0720,312.6200L279.2760,309.0515
            L279.4800,306.9372L279.6840,310.8736L279.8880,313.1805L280.0920,309.3593L280.2960,313.2094L280.5000,315.9424L280.7040,318.1275L280.9080,317.4165L281.1120,314.6082L281.3160,315.5998
            L281.5200,311.6255L281.7240,311.7778L281.9280,309.4672L282.1320,307.4339L282.3360,312.9744L282.5400,312.5394L282.7440,314.8862L282.9480,318.0085L283.1520,323.2973L283.3560,327.1045
            L283.5600,325.1130L283.7640,325.4400L283.9680,329.3024L284.1720,331.7542L284.3760,334.3168L284.5800,339.4276L284.7840,341.1422L284.9880,336.4594L285.1920,335.9960L285.3960,333.7426
            L285.6000,328.3255L285.8040,326.1954L286.0080,323.4169L286.2120,324.6788L286.4160,320.5190L286.6200,320.7548L286.8240,319.1507L287.0280,312.5391L287.2320,308.3729L287.4360,300.8832
            L287.6400,301.2202L287.8440,302.6262L288.0480,308.5618L288.2520,313.8256L288.4560,316.4585L288.6600,321.8624L288.8640,320.2852L289.0680,317.2337L289.2720,319.1526L289.4760,319.9184
            L289.6800,320.0964L289.8840,326.6314L290.0880,332.2163L290.2920,335.1351L290.4960,332.3606L290.7000,333.3248L290.9040,337.2248L291.1080,330.8386L291.3120,332.8232L291.5160,343.8645
            L291.7200,350.7427L291.9240,349.8745L292.1280,348.1270L292.3320,348.8558L292.5360,349.0025L292.7400,350.5776L292.9440,352.4503L293.1480,349.7705L293.3520,347.6779L293.5560,347.9979
            L293.7600,353.9720L293.9640,351.5131L294.1680,349.5263L294.3720,346.1899L294.5760,345.4554L294.7800,338.2527L294.9840,336.0646L295.1880,333.2496L295.3920,328.6131L295.5960,333.6382
            L295.8000,336.1279L296.0040,338.5461L296.2080,335.9848L296.4120,334.7728L296.6160,335.6878L296.8200,340.4608L297.0240,344.0252L297.2280,341.0968L297.4320,341.6100L297.6360,340.8081
            L297.8400,340.6106L298.0440,337.9255L298.2480,340.0943L298.4520,339.0378L298.6560,339.0237L298.8600,340.4322L299.0640,341.5507L299.2680,342.2759L299.4720,341.7995L299.6760,343.2599
            L299.8800,347.0802L300.0840,349.5590L300.2880,344.8809L300.4920,341.0864L300.6960,340.7903L300.9000,346.3309L301.1040,349.4313L301.3080,359.1766L301.5120,367.1803L301.7160,369.6519
            L301.9200,369.9167L302.1240,366.7620L302.3280,359.9445L302.5320,356.3669L302.7360,359.4522L302.9400,360.3784L303.1440,361.6801L303.3480,358.1262L303.5520,355.7031L303.7560,348.3806
            L303.9600,345.5897L304.1640,342.4472L304.3680,346.3992L304.5720,346.3876L304.7760,346.7473L304.9800,347.4358L305.1840,347.8846L305.3880,349.7977L305.5920,350.5013L305.7960,348.3664
            L306.0000,350.7907L306.2040,350.2022L306.4080,344.5958L306.6120,347.2229L306.8160,351.4156L307.0200,344.1477L307.2240,341.4365L307.4280,343.5040L307.6320,351.1250L307.8360,353.6033
            L308.0400,352.6160L308.2440,348.6057L308.4480,347.8025L308.6520,354.8666L308.8560,353.9331L309.0600,352.6525L309.2640,353.1072L309.4680,356.4376L309.6720,361.3948L309.8760,365.5133
            L310.0800,363.9219L310.2840,362.4950L310.4880,364.2718L310.6920,367.4452L310.8960,367.2458L311.1000,365.2667L311.3040,360.3855L311.5080,358.3388L311.7120,354.7659L311.9160,355.5626
            L312.1200,355.3476L312.3240,358.6086L312.5280,364.2240L312.7320,362.8906L312.9360,359.4594L313.1400,362.0734L313.3440,360.3291L313.5480,364.4122L313.7520,362.2039L313.9560,360.4455
            L314.1600,362.4628L314.3640,363.9752L314.5680,361.8622L314.7720,356.9601L314.9760,359.6662L315.1800,362.9975L315.3840,353.5334L315.5880,348.3573L315.7920,349.7679L315.9960,360.0596
            L316.2000,368.6101L316.4040,372.8241L316.6080,373.0726L316.8120,371.4359L317.0160,374.7195L317.2200,375.3474L317.4240,376.0424L317.6280,373.9312L317.8320,373.5095L318.0360,372.6905
            L318.2400,369.7289L318.4440,370.3817L318.6480,370.6006L318.8520,377.6925L319.0560,383.9815L319.2600,383.9804L319.4640,384.3619L319.6680,381.9023L319.8720,383.7447L320.0760,382.7179
            L320.2800,382.8029L320.4840,379.6996L320.6880,376.7896L320.8920,372.9068L321.0960,365.3583L321.3000,360.5999L321.5040,361.0835L321.7080,367.6184L321.9120,371.7975L322.1160,375.3584
            L322.3200,374.0186L322.5240,371.4086L322.7280,367.3076L322.9320,364.0220L323.1360,354.7523L323.3400,350.4492L323.5440,343.5561L323.7480,335.5029L323.9520,332.7906L324.1560,341.7768
            L324.3600,343.8090L324.5640,339.3358L324.7680,339.0476L324.9720,336.3897L325.1760,339.8059L325.3800,342.8498L325.5840,346.1620L325.7880,348.7642L325.9920,350.4526L326.1960,352.1100
            L326.4000,344.9615L326.6040,338.2030L326.8080,345.6378L327.0120,350.6205L327.2160,362.4853L327.4200,367.1369L327.6240,371.4361L327.8280,369.8317L328.0320,365.6392L328.2360,362.5898
            L328.4400,358.9134L328.6440,357.4587L328.8480,358.6302L329.0520,357.0985L329.2560,351.2580L329.4600,350.0936L329.6640,349.6546L329.8680,351.4264L330.0720,349.4979L330.2760,356.4793
            L330.4800,356.3175L330.6840,355.0431L330.8880,351.5834L331.0920,349.2245L331.2960,341.8914L331.5000,344.2185L331.7040,343.0397L331.9080,343.4153L332.1120,346.0431L332.3160,349.1271
            L332.5200,350.9662L332.7240,350.7484L332.9280,349.7696L333.1320,353.6837L333.3360,349.1056L333.5400,348.5180L333.7440,337.1171L333.9480,337.4994L334.1520,337.9725L334.3560,342.6326
            L334.5600,350.9323L334.7640,353.5403L334.9680,347.3940L335.1720,340.2178L335.3760,335.3593L335.5800,339.6871L335.7840,342.2390L335.9880,336.1609L336.1920,338.8282L336.3960,339.2422
            L336.6000,343.2562L336.8040,339.0556L337.0080,331.6314L337.2120,332.2890L337.4160,336.2107L337.6200,340.8822L337.8240,345.9950L338.0280,351.6713L338.2320,358.6579L338.4360,361.0382
            L338.6400,364.4432L338.8440,371.0689L339.0480,369.4211L339.2520,365.2517L339.4560,356.8586L339.6600,353.3229L339.8640,351.6586L340.0680,347.0131L340.2720,349.5406L340.4760,350.0164
            L340.6800,352.0518L340.8840,358.6345L341.0880,361.3055L341.2920,360.8038L341.4960,356.8382L341.7000,346.1921L341.9040,336.1934L342.1080,333.3300L342.3120,339.8198L342.5160,348.7051
            L342.7200,353.3264L342.9240,353.5959L343.1280,353.3370L343.3320,350.1823L343.5360,345.0634L343.7400,338.3642L343.9440,337.1544L344.1480,330.6345L344.3520,326.4634L344.5560,324.7634
            L344.7600,329.0293L344.9640,333.5032L345.1680,331.1888L345.3720,328.2261L345.5760,330.4510L345.7800,333.0953L345.9840,331.7146L346.1880,332.8713L346.3920,327.6356L346.5960,331.0565
            L346.8000,329.1594L347.0040,332.3100L347.2080,333.8376L347.4120,334.7823L347.6160,337.3826L347.8200,332.9187L348.0240,336.2408L348.2280,344.1522L348.4320,343.8447L348.6360,348.0889
            L348.8400,351.5298L349.0440,355.4659L349.2480,363.3227L349.4520,362.8875L349.6560,360.9120L349.8600,357.0396L350.0640,352.8766L350.2680,349.9490L350.4720,347.6499L350.6760,338.4008
            L350.8800,338.8247L351.0840,338.2551L351.2880,338.2595L351.4920,340.4834L351.6960,335.7155L351.9000,333.5788L352.1040,332.5927L352.3080,335.4198L352.5120,332.3029L352.7160,328.7035
            L352.9200,322.6782L353.1240,321.3820L353.3280,331.0048L353.5320,334.7184L353.7360,335.6170L353.9400,329.7754L354.1440,325.5249L354.3480,315.7891L354.5520,321.5019L354.7560,320.1115
            L354.9600,321.8250L355.1640,316.5164L355.3680,312.1606L355.5720,315.0293L355.7760,315.4028L355.9800,319.2851L356.1840,316.3684L356.3880,314.9006L356.5920,311.9380L356.7960,312.1354
            L357.0000,316.3503L357.2040,318.7662L357.4080,320.6952L357.6120,315.8528L357.8160,307.0613L358.0200,303.1369L358.2240,301.2742L358.4280,304.3784L358.6320,309.2842L358.8360,314.9081
            L359.0400,313.7883L359.2440,311.0119L359.4480,313.0891L359.6520,313.6409L359.8560,315.6679L360.0600,312.6013L360.2640,304.9238L360.4680,301.0371L360.6720,295.5087L360.8760,293.2421
            L361.0800,295.1577L361.2840,302.9925L361.4880,306.8808L361.6920,310.9683L361.8960,304.2065L362.1000,305.8009L362.3040,302.5603L362.5080,300.9332L362.7120,305.2476L362.9160,313.5159
            L363.1200,314.2988L363.3240,318.4291L363.5280,319.0266L363.7320,320.5941L363.9360,318.4162L364.1400,317.9589L364.3440,317.4680L364.5480,319.0743L364.7520,317.6972L364.9560,317.5324
            L365.1600,319.1350L365.3640,310.4415L365.5680,309.7491L365.7720,310.3230L365.9760,315.9271L366.1800,318.7460L366.3840,313.0383L366.5880,306.6462L366.7920,303.1169L366.9960,304.3187
            L367.2000,302.8295L367.4040,298.1875L367.6080,297.7448L367.8120,302.0320L368.0160,306.3342L368.2200,309.8063L368.4240,309.8139L368.6280,308.2048L368.8320,301.8186L369.0360,303.6545
            L369.2400,307.3280L369.4440,314.4199L369.6480,319.0341L369.8520,325.4605L370.0560,327.7784L370.2600,325.6297L370.4640,328.5040L370.6680,334.6480L370.8720,336.0001L371.0760,334.9812
            L371.2800,329.0201L371.4840,325.6435L371.6880,320.8119L371.8920,319.9282L372.0960,322.8349L372.3000,328.4034L372.5040,332.7527L372.7080,337.2735L372.9120,340.2909L373.1160,341.9847
            L373.3200,339.9197L373.5240,339.8897L373.7280,343.5385L373.9320,350.8355L374.1360,357.2684L374.3400,360.9476L374.5440,363.5925L374.7480,365.7165L374.9520,364.3113L375.1560,363.9728
            L375.3600,360.4393L375.5640,358.8997L375.7680,359.5489L375.9720,354.0079L376.1760,350.9280L376.3800,350.9667L376.5840,347.9135L376.7880,344.6007L376.9920,341.0340L377.1960,344.7413
            L377.4000,344.3815L377.6040,340.2054L377.8080,341.2017L378.0120,338.2406L378.2160,336.7850L378.4200,335.3651L378.6240,336.0083L378.8280,338.6012L379.0320,336.9899L379.2360,335.4644
            L379.4400,335.5578L379.6440,334.7047L379.8480,331.9547L380.0520,334.9827L380.2560,339.4183L380.4600,335.8599L380.6640,336.9817L380.8680,333.0234L381.0720,332.9043L381.2760,336.4581
            L381.4800,336.6231L381.6840,337.0943L381.8880,340.0305L382.0920,342.1672L382.2960,339.5409L382.5000,341.2909L382.7040,343.8252L382.9080,340.4043L383.1120,338.3642L383.3160,338.3127
            L383.5200,336.8503L383.7240,334.7330L383.9280,331.4700L384.1320,326.0494L384.3360,327.7860L384.5400,328.2585L384.7440,324.4519L384.9480,332.5317L385.1520,339.9048L385.3560,342.0179
            L385.5600,341.2703L385.7640,335.3348L385.9680,337.8433L386.1720,336.6993L386.3760,338.1463L386.5800,338.9893L386.7840,338.9294L386.9880,336.0458L387.1920,331.9671L387.3960,331.7436
            L387.6000,334.7767L387.8040,335.7726L388.0080,331.9687L388.2120,331.1600L388.4160,333.8337L388.6200,335.1277L388.8240,337.4522L389.0280,342.5540L389.2320,345.4594L389.4360,346.1212
            L389.6400,345.4666L389.8440,350.9365L390.0480,351.5345L390.2520,349.2742L390.4560,349.9190L390.6600,353.7391L390.8640,351.4628L391.0680,355.6296L391.2720,360.7742L391.4760,365.7289
            L391.6800,374.2495L391.8840,376.6151L392.0880,376.5461L392.2920,374.4754L392.4960,373.8994L392.7000,368.3208L392.9040,360.8244L393.1080,360.5888L393.3120,355.3057L393.5160,342.4009
            L393.7200,339.0544L393.9240,343.6378L394.1280,347.2899L394.3320,351.9657L394.5360,357.8283L394.7400,364.5103L394.9440,360.4549L395.1480,352.1350L395.3520,350.7684L395.5560,349.9829
            L395.7600,351.8858L395.9640,359.5146L396.1680,361.6881L396.3720,360.2700L396.5760,364.3493L396.7800,359.1027L396.9840,355.9926L397.1880,356.2224L397.3920,365.4069L397.5960,369.8808
            L397.8000,370.8157L398.0040,370.0109L398.2080,370.7278L398.4120,370.3511L398.6160,363.7197L398.8200,361.5869L399.0240,360.5375L399.2280,368.3385L399.4320,375.0049L399.6360,378.7729
            L399.8400,372.2014L400.0440,369.8134L400.2480,371.0096L400.4520,371.9300L400.6560,373.5169L400.8600,372.4189L401.0640,372.2167L401.2680,370.1782L401.4720,366.0595L401.6760,358.7429
            L401.8800,355.0645L402.0840,354.9625L402.2880,359.0154L402.4920,355.4990L402.6960,354.6612L402.9000,356.5607L403.1040,358.8647L403.3080,354.8399L403.5120,351.3121L403.7160,349.3623
            L403.9200,341.0122L404.1240,342.8080L404.3280,344.3370L404.5320,348.2040L404.7360,344.4307L404.9400,343.7925L405.1440,343.8555L405.3480,348.3564L405.5520,349.4816L405.7560,354.0922
            L405.9600,355.5098L406.1640,354.9789L406.3680,358.0390L406.5720,358.1434L406.7760,358.1253L406.9800,361.4421L407.1840,358.6014L407.3880,353.4139L407.5920,350.5977L407.7960,349.3857
            L408.0000,350.5190L408.2040,351.3423L408.4080,355.3053L408.6120,356.4145L408.8160,356.3334L409.0200,354.0558L409.2240,357.4731L409.4280,361.6297L409.6320,356.9070L409.8360,362.3321
            L410.0400,364.9400L410.2440,358.4485L410.4480,356.8500L410.6520,353.6463L410.8560,352.0787L411.0600,360.4328L411.2640,362.2730L411.4680,359.2806L411.6720,354.5812L411.8760,354.7914
            L412.0800,353.4721L412.2840,352.2514L412.4880,345.3182L412.6920,343.9174L412.8960,344.5813L413.1000,349.3347L413.3040,354.6783L413.5080,356.0675L413.7120,360.4772L413.9160,360.0282
            L414.1200,359.7158L414.3240,358.9857L414.5280,359.6322L414.7320,361.6577L414.9360,358.0878L415.1400,350.9276L415.3440,349.6832L415.5480,349.2262L415.7520,349.7062L415.9560,354.8856
            L416.1600,360.1182L416.3640,364.4110L416.5680,365.1055L416.7720,363.8563L416.9760,358.7030L417.1800,353.9235L417.3840,353.6193L417.5880,352.5057L417.7920,349.4591L417.9960,350.5103
            L418.2000,345.8193L418.4040,347.9987L418.6080,348.6171L418.8120,347.8457L419.0160,343.0111L419.2200,340.2012L419.4240,337.7362L419.6280,330.2122L419.8320,331.4406L420.0360,331.0852
            L420.2400,329.0861L420.4440,327.3548L420.6480,325.8947L420.8520,317.7403L421.0560,312.4808L421.2600,310.7700L421.4640,314.6910L421.6680,320.1396L421.8720,324.1478L422.0760,329.0708
            L422.2800,333.5786L422.4840,333.4588L422.6880,333.8797L422.8920,327.0181L423.0960,320.3414L423.3000,319.3160L423.5040,319.5855L423.7080,321.2165L423.9120,328.0629L424.1160,327.1458
            L424.3200,329.5954L424.5240,335.1708L424.7280,334.8549L424.9320,333.2137L425.1360,335.3622L425.3400,331.6333L425.5440,335.7634L425.7480,341.2480L425.9520,344.2729L426.1560,346.0396
            L426.3600,346.9803L426.5640,347.6394L426.7680,355.0235L426.9720,357.0879L427.1760,353.9273L427.3800,357.7168L427.5840,361.4251L427.7880,366.9096L427.9920,371.3400L428.1960,378.3890
            L428.4000,385.5925L428.6040,384.7395L428.8080,388.9171L429.0120,397.3541L429.2160,394.2795L429.4200,394.4631L429.6240,393.1873L429.8280,392.0389L430.0320,391.0671L430.2360,383.1957
            L430.4400,380.8948L430.6440,379.3871L430.8480,377.2602L431.0520,376.8152L431.2560,376.6558L431.4600,385.4049L431.6640,387.8894L431.8680,388.7905L432.0720,389.7341L432.2760,397.2206
            L432.4800,402.5896L432.6840,410.0802L432.8880,408.4887L433.0920,405.9387L433.2960,401.7983L433.5000,397.1764L433.7040,395.1033L433.9080,392.3783L434.1120,392.3644L434.3160,391.7140
            L434.5200,396.4763L434.7240,402.4302L434.9280,412.4531L435.1320,419.6862L435.3360,420.3721L435.5400,416.6375L435.7440,408.9043L435.9480,402.2894L436.1520,402.6973L436.3560,404.7668
            L436.5600,406.1478L436.7640,406.3572L436.9680,408.1476L437.1720,406.9968L437.3760,403.3143L437.5800,398.2470L437.7840,399.2190L437.9880,404.0152L438.1920,404.4426L438.3960,401.2655
            L438.6000,399.4918L438.8040,404.2806L439.0080,400.5896L439.2120,394.4945L439.4160,389.8812L439.6200,383.4653L439.8240,377.0843L440.0280,378.5494L440.2320,379.5561L440.4360,379.7539
            L440.6400,384.7255L440.8440,387.2221L441.0480,384.5878L441.2520,378.9531L441.4560,379.2976L441.6600,373.8787L441.8640,373.1140L442.0680,374.4071L442.2720,375.4369L442.4760,379.1404
            L442.6800,375.1610L442.8840,371.3146L443.0880,369.7336L443.2920,368.3694L443.4960,363.5953L443.7000,365.2938L443.9040,365.3751L444.1080,361.3778L444.3120,358.5526L444.5160,356.3681
            L444.7200,356.0817L444.9240,352.4086L445.1280,354.8018L445.3320,356.3033L445.5360,361.1929L445.7400,365.0463L445.9440,364.0738L446.1480,365.7286L446.3520,364.1922L446.5560,362.7247
            L446.7600,362.4224L446.9640,367.4874L447.1680,367.0790L447.3720,363.8006L447.5760,363.0094L447.7800,363.5230L447.9840,358.1799L448.1880,355.8566L448.3920,359.0244L448.5960,360.8801
            L448.8000,357.9669L449.0040,363.0474L449.2080,366.5036L449.4120,364.7016L449.6160,366.7658L449.8200,367.5504L450.0240,369.5641L450.2280,371.5110L450.4320,372.3733L450.6360,370.0852
            L450.8400,372.7601L451.0440,370.4220L451.2480,366.6247L451.4520,374.3060L451.6560,380.6992L451.8600,381.4056L452.0640,379.6486L452.2680,380.5760L452.4720,377.6975L452.6760,371.0382
            L452.8800,368.2802L453.0840,363.8900L453.2880,365.6052L453.4920,368.8155L453.6960,373.7094L453.9000,383.0954L454.1040,391.5107L454.3080,385.7906L454.5120,375.9401L454.7160,364.1800
            L454.9200,353.2692L455.1240,347.2428L455.3280,343.2990L455.5320,342.5869L455.7360,339.9499L455.9400,336.7707L456.1440,336.3044L456.3480,333.1693L456.5520,329.9573L456.7560,332.6258
            L456.9600,335.7086L457.1640,333.5573L457.3680,328.7882L457.5720,327.7106L457.7760,328.4400L457.9800,322.0831L458.1840,316.8557L458.3880,319.2985L458.5920,319.1859L458.7960,322.2504
            L459.0000,317.6572L459.2040,318.8587L459.4080,319.5321L459.6120,321.8252L459.8160,319.5492L460.0200,315.4177L460.2240,318.5671L460.4280,324.3825L460.6320,326.8968L460.8360,323.3290
            L461.0400,323.8672L461.2440,326.9115L461.4480,327.2818L461.6520,321.4211L461.8560,322.7301L462.0600,322.4325L462.2640,315.0851L462.4680,321.0971L462.6720,325.8268L462.8760,326.2999
            L463.0800,326.7932L463.2840,319.1506L463.4880,316.5069L463.6920,315.9820L463.8960,315.7901L464.1000,312.9781L464.3040,315.4430L464.5080,315.8557L464.7120,316.9897L464.9160,312.5198
            L465.1200,308.9015L465.3240,311.1863L465.5280,312.0103L465.7320,318.2925L465.9360,323.4799L466.1400,327.2635L466.3440,323.8029L466.5480,313.4969L466.7520,306.6475L466.9560,305.0631
            L467.1600,306.8571L467.3640,308.5577L467.5680,310.9228L467.7720,314.1064L467.9760,318.9172L468.1800,322.3682L468.3840,324.1928L468.5880,321.1984L468.7920,319.7632L468.9960,312.3129
            L469.2000,306.3787L469.4040,301.9852L469.6080,307.1027L469.8120,311.2940L470.0160,311.5828L470.2200,314.4311L470.4240,316.7674L470.6280,310.9966L470.8320,309.2865L471.0360,308.7363
            L471.2400,305.6647L471.4440,297.6846L471.6480,294.3067L471.8520,293.3547L472.0560,298.0810L472.2600,298.2036L472.4640,302.2005L472.6680,304.2432L472.8720,307.6699L473.0760,309.4268
            L473.2800,307.7583L473.4840,307.6561L473.6880,298.0751L473.8920,295.9973L474.0960,296.3257L474.3000,298.9838L474.5040,293.9451L474.7080,288.0759L474.9120,289.6742L475.1160,293.6787
            L475.3200,296.9215L475.5240,294.0970L475.7280,284.6595L475.9320,283.3381L476.1360,281.0267L476.3400,287.2409L476.5440,290.3653L476.7480,294.0320L476.9520,304.2855L477.1560,305.1965
            L477.3600,305.2540L477.5640,303.0303L477.7680,298.3473L477.9720,297.2891L478.1760,292.3869L478.3800,286.3216L478.5840,291.3638L478.7880,291.1470L478.9920,289.2679L479.1960,287.8121
            L479.4000,289.7945L479.6040,293.6872L479.8080,293.5418L480.0120,293.8940L480.2160,297.7275L480.4200,305.7530L480.6240,309.2003L480.8280,308.7300L481.0320,315.8202L481.2360,318.5748
            L481.4400,323.6429L481.6440,321.2282L481.8480,320.0876L482.0520,320.4212L482.2560,316.8925L482.4600,317.0429L482.6640,308.6069L482.8680,306.8862L483.0720,298.8673L483.2760,297.1886
            L483.4800,299.6008L483.6840,299.2162L483.8880,300.2909L484.0920,304.5174L484.2960,310.2612L484.5000,310.2394L484.7040,309.6195L484.9080,310.4764L485.1120,311.2898L485.3160,311.1030
            L485.5200,310.8696L485.7240,315.5900L485.9280,313.8311L486.1320,317.8312L486.3360,319.1722L486.5400,313.0045L486.7440,308.7673L486.9480,308.8374L487.1520,302.9132L487.3560,301.0498
            L487.5600,301.2865L487.7640,294.3098L487.9680,293.6983L488.1720,295.0947L488.3760,299.2675L488.5800,298.5332L488.7840,298.3201L488.9880,297.9826L489.1920,296.4291L489.3960,287.3595
            L489.6000,282.9614L489.8040,278.0467L490.0080,274.7646L490.2120,275.6694L490.4160,276.2440L490.6200,275.8278L490.8240,275.7914L491.0280,273.1285L491.2320,275.0266L491.4360,276.3495
            L491.6400,277.1479L491.8440,277.9674L492.0480,282.7142L492.2520,279.5930L492.4560,283.4374L492.6600,292.5606L492.8640,295.6714L493.0680,294.8484L493.2720,295.4560L493.4760,294.0151
            L493.6800,296.8209L493.8840,302.1439L494.0880,308.8629L494.2920,310.1270L494.4960,304.9014L494.7000,306.9359L494.9040,304.3980L495.1080,305.3742L495.3120,303.2199L495.5160,306.0169
            L495.7200,300.4861L495.9240,298.8601L496.1280,300.8120L496.3320,303.5385L496.5360,304.5571L496.7400,297.5610L496.9440,299.0829L497.1480,302.9984L497.3520,293.3132L497.5560,295.4147
            L497.7600,297.9158L497.9640,290.2297L498.1680,289.2179L498.3720,287.6495L498.5760,290.8612L498.7800,291.6740L498.9840,288.6667L499.1880,286.6851L499.3920,281.6021L499.5960,282.6647
            L499.8000,289.1999L500.0040,292.6390L500.2080,295.5030L500.4120,299.3900L500.6160,301.8677L500.8200,304.7589L501.0240,303.8735L501.2280,300.7701L501.4320,293.0351L501.6360,290.8631
            L501.8400,294.3196L502.0440,294.6325L502.2480,301.2720L502.4520,307.1171L502.6560,310.2454L502.8600,313.0304L503.0640,314.8002L503.2680,318.2150L503.4720,320.7901L503.6760,323.5502
            L503.8800,321.1198L504.0840,315.4148L504.2880,312.7615L504.4920,308.4467L504.6960,299.8081L504.9000,302.0217L505.1040,300.7117L505.3080,300.6874L505.5120,305.6644L505.7160,305.4995
            L505.9200,306.5010L506.1240,304.6118L506.3280,300.1133L506.5320,298.3885L506.7360,302.8750L506.9400,303.3883L507.1440,302.1494L507.3480,306.9932L507.5520,309.3971L507.7560,304.6009
            L507.9600,306.2474L508.1640,305.4824L508.3680,303.5602L508.5720,305.9979L508.7760,310.9713L508.9800,310.1953L509.1840,309.7508L509.3880,308.1077L509.5920,305.5036L509.7960,307.6846
            L510.0000,314.6345L510.2040,313.9072L510.4080,308.7640L510.6120,305.0267L510.8160,307.4994L511.0200,309.0362L511.2240,314.6096L511.4280,319.2813L511.6320,319.4210L511.8360,319.0928
            L512.0400,317.0158L512.2440,317.5334L512.4480,321.3048L512.6520,319.6837L512.8560,318.7473L513.0600,316.8097L513.2640,315.4432L513.4680,317.9363L513.6720,324.3360L513.8760,331.6772
            L514.0800,333.9482L514.2840,330.4789L514.4880,325.4008L514.6920,326.7189L514.8960,317.5424L515.1000,309.6720L515.3040,304.1925L515.5080,307.8544L515.7120,310.1603L515.9160,314.9430
            L516.1200,324.7625L516.3240,326.1294L516.5280,332.3326L516.7320,330.5600L516.9360,331.9977L517.1400,330.3883L517.3440,329.6040L517.5480,330.4063L517.7520,324.2762L517.9560,318.5338
            L518.1600,315.7739L518.3640,309.2728L518.5680,310.7431L518.7720,307.8413L518.9760,305.7899L519.1800,302.1381L519.3840,305.2503L519.5880,305.5274L519.7920,309.7691L519.9960,316.0920
            L520.2000,316.3073L520.4040,317.1026L520.6080,319.5969L520.8120,322.0714L521.0160,324.1683L521.2200,325.1589L521.4240,320.7044L521.6280,314.8384L521.8320,313.6636L522.0360,320.9471
            L522.2400,325.5466L522.4440,324.7096L522.6480,327.1152L522.8520,323.7639L523.0560,319.2241L523.2600,317.8844L523.4640,317.2348L523.6680,319.5996L523.8720,317.0701L524.0760,319.0032
            L524.2800,321.9914L524.4840,324.1938L524.6880,317.0771L524.8920,312.8265L525.0960,313.4370L525.3000,310.4319L525.5040,315.5893L525.7080,321.5614L525.9120,328.5550L526.1160,333.2647
            L526.3200,331.4578L526.5240,325.5568L526.7280,324.9759L526.9320,324.8347L527.1360,324.6106L527.3400,328.8075L527.5440,328.5210L527.7480,324.4427L527.9520,323.2136L528.1560,325.2026
            L528.3600,326.4093L528.5640,328.6836L528.7680,331.3727L528.9720,333.8886L529.1760,330.5815L529.3800,328.5054L529.5840,332.4789L529.7880,328.2568L529.9920,327.2531L530.1960,320.9157
            L530.4000,320.0427L530.6040,320.2596L530.8080,320.5671L531.0120,327.3845L531.2160,328.8811L531.4200,332.4015L531.6240,329.5241L531.8280,329.5296L532.0320,334.6320L532.2360,336.4781
            L532.4400,333.7188L532.6440,335.8226L532.8480,344.3842L533.0520,351.4027L533.2560,356.5176L533.4600,350.6455L533.6640,340.9413L533.8680,333.7413L534.0720,330.6798L534.2760,327.2858
            L534.4800,325.3193L534.6840,321.5912L534.8880,323.2041L535.0920,319.9855L535.2960,316.3350L535.5000,309.3103L535.7040,305.2614L535.9080,308.7074L536.1120,313.4796L536.3160,306.3823
            L536.5200,299.7644L536.7240,295.6774L536.9280,293.4933L537.1320,295.1393L537.3360,292.6375L537.5400,289.6795L537.7440,291.2810L537.9480,296.1443L538.1520,295.0208L538.3560,294.1896
            L538.5600,298.6961L538.7640,298.8683L538.9680,299.8451L539.1720,303.4892L539.3760,306.8217L539.5800,307.5402L539.7840,308.3534L539.9880,310.6180L540.1920,315.4470L540.3960,315.4470"/>
   <path d="M91.8000,91.8000L703.8000,91.8000"/>
   <path d="M91.8000,520.2000L703.8000,520.2000"/>
   <path d="M142.8000,91.8000L142.8000,97.9200"/>
   <path d="M142.8000,520.2000L142.8000,514.0800"/>
   <path d="M244.8000,91.8000L244.8000,97.9200"/>
   <path d="M244.8000,520.2000L244.8000,514.0800"/>
   <path d="M346.8000,91.8000L346.8000,97.9200"/>
   <path d="M346.8000,520.2000L346.8000,514.0800"/>
   <path d="M448.8000,91.8000L448.8000,97.9200"/>
   <path d="M448.8000,520.2000L448.8000,514.0800"/>
   <path d="M550.8000,91.8000L550.8000,97.9200"/>
   <path d="M550.8000,520.2000L550.8000,514.0800"/>
   <path d="M652.8000,91.8000L652.8000,97.9200"/>
   <path d="M652.8000,520.2000L652.8000,514.0800"/>
   <path d="M91.8000,91.8000L91.8000,104.0400"/>
   <path d="M91.8000,520.2000L91.8000,507.9600"/>
   <path d="M193.8000,91.8000L193.8000,104.0400"/>
   <path d="M193.8000,520.2000L193.8000,507.9600"/>
   <path d="M295.8000,91.8000L295.8000,104.0400"/>
   <path d="M295.8000,520.2000L295.8000,507.9600"/>
   <path d="M397.8000,91.8000L397.8000,104.0400"/>
   <path d="M397.8000,520.2000L397.8000,507.9600"/>
   <path d="M499.8000,91.8000L499.8000,104.0400"/>
   <path d="M499.8000,520.2000L499.8000,507.9600"/>
   <path d="M601.8000,91.8000L601.8000,104.0400"/>
   <path d="M601.8000,520.2000L601.8000,507.9600"/>
   <path d="M703.8000,91.8000L703.8000,104.0400"/>
   <path d="M703.8000,520.2000L703.8000,507.9600"/>
  </g>
  <g style="fill:#000000; fill-rule:nonzero">
   <text   style="font-family:'Times','Nimbus Roman'; font-style:normal; font-weight:normal; font-size:612.0000" transform="matrix(0.0280,0.0000,-0.0000,-0.0280,87.8000,74.6800)">0</text>
   <text   style="font-family:'Times','Nimbus Roman'; font-style:normal; font-weight:normal; font-size:612.0000" transform="matrix(0.0280,0.0000,-0.0000,-0.0280,185.3000,73.6800)">50</text>
   <text   style="font-family:'Times','Nimbus Roman'; font-style:normal; font-weight:normal; font-size:612.0000" transform="matrix(0.0280,0.0000,-0.0000,-0.0280,283.3000,73.6800)">100</text>
   <text   style="font-family:'Times','Nimbus Roman'; font-style:normal; font-weight:normal; font-size:612.0000" transform="matrix(0.0280,0.0000,-0.0000,-0.0280,385.3000,73.6800)">150</text>
   <text   style="font-family:'Times','Nimbus Roman'; font-style:normal; font-weight:normal; font-size:612.0000" transform="matrix(0.0280,0.0000,-0.0000,-0.0280,487.3000,74.6800)">200</text>
   <text   style="font-family:'Times','Nimbus Roman'; font-style:normal; font-weight:normal; font-size:612.0000" transform="matrix(0.0280,0.0000,-0.0000,-0.0280,589.3000,73.6800)">250</text>
   <text   style="font-family:'Times','Nimbus Roman'; font-style:normal; font-weight:normal; font-size:612.0000" transform="matrix(0.0280,0.0000,-0.0000,-0.0280,691.3000,74.6800)">300</text>
   <text   style="font-family:'Times','Nimbus Roman'; font-style:normal; font-weight:normal; font-size:612.0000" transform="matrix(0.0280,0.0000,-0.0000,-0.0280,364.8000,54.5600)">Time (ps)</text>
  </g>
  <g style="fill:none; stroke:#000000; stroke-width:  0.9180; stroke-linecap:butt; stroke-linejoin:miter; stroke-dasharray:none">
   <path d="M91.8000,91.8000L91.8000,520.2000"/>
   <path d="M703.8000,91.8000L703.8000,520.2000"/>
   <path d="M91.8000,145.3500L97.9200,145.3500"/>
   <path d="M703.8000,145.3500L697.6800,145.3500"/>
   <path d="M91.8000,252.4500L97.9200,252.4500"/>
   <path d="M703.8000,252.4500L697.6800,252.4500"/>
   <path d="M91.8000,359.5500L97.9200,359.5500"/>
   <path d="M703.8000,359.5500L697.6800,359.5500"/>
   <path d="M91.8000,466.6500L97.9200,466.6500"/>
   <path d="M703.8000,466.6500L697.6800,466.6500"/>
   <path d="M91.8000,91.8000L104.0400,91.8000"/>
   <path d="M703.8000,91.8000L691.5600,91.8000"/>
   <path d="M91.8000,198.9000L104.0400,198.9000"/>
   <path d="M703.8000,198.9000L691.5600,198.9000"/>
   <path d="M91.8000,306.0000L104.0400,306.0000"/>
   <path d="M703.8000,306.0000L691.5600,306.0000"/>
   <path d="M91.8000,413.1000L104.0400,413.1000"/>
   <path d="M703.8000,413.1000L691.5600,413.1000"/>
   <path d="M91.8000,520.2000L104.0400,520.2000"/>
   <path d="M703.8000,520.2000L691.5600,520.2000"/>
  </g>
  <g style="fill:#000000; fill-rule:nonzero">
   <text   style="font-family:'Times','Nimbus Roman'; font-style:normal; font-weight:normal; font-size:612.0000" transform="matrix(0.0280,0.0000,-0.0000,-0.0280,77.6800,86.3000)">0</text>
   <text   style="font-family:'Times','Nimbus Roman'; font-style:normal; font-weight:normal; font-size:612.0000" transform="matrix(0.0280,0.0000,-0.0000,-0.0280,64.6800,192.9000)">0.5</text>
   <text   style="font-family:'Times','Nimbus Roman'; font-style:normal; font-weight:normal; font-size:612.0000" transform="matrix(0.0280,0.0000,-0.0000,-0.0280,78.6800,300.0000)">1</text>
   <text   style="font-family:'Times','Nimbus Roman'; font-style:normal; font-weight:normal; font-size:612.0000" transform="matrix(0.0280,0.0000,-0.0000,-0.0280,64.6800,407.1000)">1.5</text>
   <text   style="font-family:'Times','Nimbus Roman'; font-style:normal; font-weight:normal; font-size:612.0000" transform="matrix(0.0280,0.0000,-0.0000,-0.0280,77.6800,514.7000)">2</text>
   <text   style="font-family:'Times','Nimbus Roman'; font-style:normal; font-weight:normal; font-size:612.0000" transform="matrix(0.0000,0.0280,0.0280,-0.0000,58.5600,282.0000)">RMSD</text>
  </g>
  <g style="fill:none; stroke:#000000; stroke-width:  0.9180; stroke-linecap:butt; stroke-linejoin:miter; stroke-dasharray:none">
   <path d="M91.8000,91.8000L91.8000,520.2000L703.8000,520.2000L703.8000,91.8000z"/>
  </g>
  <g style="fill:#000000; fill-rule:nonzero">
   <text   style="font-family:'Times','Nimbus Roman'; font-style:normal; font-weight:normal; font-size:612.0000" transform="matrix(0.0420,0.0000,-0.0000,-0.0420,187.8000,562.9200)">Equilibriation of Ubiquitin in Water Box</text>
   <text   style="font-family:'Times','Nimbus Roman'; font-style:normal; font-weight:normal; font-size:612.0000" transform="matrix(0.0280,0.0000,-0.0000,-0.0280,251.3000,536.4400)">Periodic, 1fs/step, minimized for first 20ps</text>
  </g>
 </g>
</svg>
