<?xml version="1.0" encoding="ISO-8859-1"?>
<!DOCTYPE svg PUBLIC "-//W3C//DTD SVG 1.0//EN" "http://www.w3.org/TR/2001/REC-SVG-20010904/DTD/svg10.dtd">
<!-- generated by Grace-5.1.25 -->
<svg xml:space="preserve" width="11.0000in" height="8.5000in" viewBox="0.0000 0.0000 792.0000 612.0000">
 <g transform="translate(0,612.0000) scale(1,-1)">
 <desc></desc>
  <g style="fill:#FFFFFF; fill-rule:nonzero">
   <path  d="M0.0000,0.0000L0.0000,612.0000L792.0000,612.0000L792.0000,0.0000z"/>
  </g>
  <g style="fill:none; stroke:#000000; stroke-width:  0.9180; stroke-linecap:butt; stroke-linejoin:miter; stroke-dasharray:none">
   <path d="M91.8000,104.8930L92.0448,110.7547L92.2896,123.0772L92.5344,128.4178L92.7792,133.3997L93.0240,144.8247L93.2688,149.6346L93.5136,156.5048L93.7584,161.0365L94.0032,160.8944
            L94.2480,159.8744L94.4928,158.3697L94.7376,156.2572L94.9824,156.0929L95.2272,157.0290L95.4720,160.2529L95.7168,162.3426L95.9616,167.3652L96.2064,171.7810L96.4512,176.3295
            L96.6960,177.9513L96.9408,181.2283L97.1856,185.8093L97.4304,188.3036L97.6752,190.8575L97.9200,187.9822L98.1648,186.6183L98.4096,185.4380L98.6544,184.7754L98.8992,183.4354
            L99.1440,182.4148L99.3888,182.3662L99.6336,183.1938L99.8784,182.8874L100.1232,183.7337L100.3680,184.8328L100.6128,186.3224L100.8576,187.3454L101.1024,188.4589L101.3472,189.1488
            L101.5920,189.0404L101.8368,188.6862L102.0816,188.6929L102.3264,189.3473L102.5712,189.5156L102.8160,189.8569L103.0608,190.8136L103.3056,192.2125L103.5504,192.3661L103.7952,194.0124
            L104.0400,195.7835L104.2848,197.2826L104.5296,198.5486L104.7744,199.8989L105.0192,201.4785L105.2640,203.0538L105.5088,204.4849L105.7536,205.6630L105.9984,206.7401L106.2432,208.1642
            L106.4880,209.6856L106.7328,211.3760L106.9776,212.8591L107.2224,214.3439L107.4672,215.3019L107.7120,215.1231L107.9568,214.8197L108.2016,214.8718L108.4464,215.0143L108.6912,215.1022
            L108.9360,215.1135L109.1808,215.2754L109.4256,215.6343L109.6704,216.2250L109.9152,216.2539L110.1600,216.7248L110.4048,217.2932L110.6496,217.9795L110.8944,218.0024L111.1392,218.7575
            L111.3840,221.3266L111.6288,221.2876L111.8736,221.3434L112.1184,223.9149L112.3632,223.2165L112.6080,224.7267L112.8528,226.3095L113.0976,228.2178L113.3424,228.7827L113.5872,228.6241
            L113.8320,228.9957L114.0768,229.4992L114.3216,230.0420L114.5664,231.4635L114.8112,231.5247L115.0560,232.2782L115.3008,233.0611L115.5456,234.2192L115.7904,234.2603L116.0352,236.1727
            L116.2800,235.5413L116.5248,236.4570L116.7696,237.4676L117.0144,238.7178L117.2592,239.0350L117.5040,241.2189L117.7488,242.7204L117.9936,243.0122L118.2384,243.2258L118.4832,244.6088
            L118.7280,245.9917L118.9728,247.8499L119.2176,249.4210L119.4624,250.8126L119.7072,253.1839L119.9520,253.3391L120.1968,255.1735L120.4416,257.7594L120.6864,259.5189L120.9312,259.8197
            L121.1760,261.6798L121.4208,263.9688L121.6656,263.4688L121.9104,263.0497L122.1552,262.3836L122.4000,262.4460L122.6448,262.3187L122.8896,262.0791L123.1344,262.0548L123.3792,262.0758
            L123.6240,262.0603L123.8688,262.1059L124.1136,262.3007L124.3584,262.4664L124.6032,262.6519L124.8480,262.9360L125.0928,263.2569L125.3376,263.6096L125.5824,263.5616L125.8272,263.9673
            L126.0720,264.7110L126.3168,264.7955L126.5616,265.3271L126.8064,266.4696L127.0512,266.0989L127.2960,266.7511L127.5408,267.2127L127.7856,268.0575L128.0304,268.1458L128.2752,268.9215
            L128.5200,269.7604L128.7648,271.3501L129.0096,271.1370L129.2544,272.0907L129.4992,273.0201L129.7440,273.9577L129.9888,274.8147L130.2336,275.6443L130.4784,276.5118L130.7232,277.7638
            L130.9680,277.8824L131.2128,280.1916L131.4576,279.4288L131.7024,280.5402L131.9472,282.0486L132.1920,282.2371L132.4368,284.7215L132.6816,284.9504L132.9264,286.1933L133.1712,286.0179
            L133.4160,286.7295L133.6608,286.7618L133.9056,286.6835L134.1504,286.7478L134.3952,286.7807L134.6400,286.9810L134.8848,286.9222L135.1296,286.9716L135.3744,287.1693L135.6192,287.2032
            L135.8640,287.3154L136.1088,287.4804L136.3536,287.6459L136.5984,287.9395L136.8432,287.9238L137.0880,288.2801L137.3328,289.0067L137.5776,288.7570L137.8224,289.1054L138.0672,289.3044
            L138.3120,289.6884L138.5568,290.0566L138.8016,290.3861L139.0464,290.7604L139.2912,291.2753L139.5360,291.2500L139.7808,291.6052L140.0256,292.0861L140.2704,292.1226L140.5152,292.4777
            L140.7600,292.8191L141.0048,293.2035L141.2496,293.8686L141.4944,293.7893L141.7392,294.1700L141.9840,294.5378L142.2288,294.9196L142.4736,295.7532L142.7184,295.4249L142.9632,295.7589
            L143.2080,296.5870L143.4528,296.5923L143.6976,296.5527L143.9424,296.8162L144.1872,297.0759L144.4320,297.1700L144.6768,296.9470L144.9216,296.9332L145.1664,296.8766L145.4112,296.8714
            L145.6560,296.8431L145.9008,297.0117L146.1456,296.8989L146.3904,296.9582L146.6352,296.9913L146.8800,297.0479L147.1248,297.0596L147.3696,297.0887L147.6144,297.1069L147.8592,297.1207
            L148.1040,297.1521L148.3488,297.2526L148.5936,297.3443L148.8384,297.4252L149.0832,297.7290L149.3280,297.9642L149.5728,298.1298L149.8176,298.3351L150.0624,298.2944L150.3072,298.6524
            L150.5520,299.0194L150.7968,299.3928L151.0416,299.7583L151.2864,300.1610L151.5312,300.6244L151.7760,301.2257L152.0208,301.6503L152.2656,302.0950L152.5104,302.5390L152.7552,302.9767
            L153.0000,303.5141L153.2448,303.9283L153.4896,304.3799L153.7344,304.7639L153.9792,305.7343L154.2240,306.2884L154.4688,306.0813L154.7136,306.6994L154.9584,307.3662L155.2032,307.9511
            L155.4480,309.0513L155.6928,308.9324L155.9376,309.6560L156.1824,310.4014L156.4272,311.1276L156.6720,311.4825L156.9168,312.3423L157.1616,312.7267L157.4064,312.6394L157.6512,312.5188
            L157.8960,312.3667L158.1408,312.4310L158.3856,312.4208L158.6304,312.4774L158.8752,312.4534L159.1200,312.4682L159.3648,312.5125L159.6096,312.5216L159.8544,312.4997L160.0992,312.4732
            L160.3440,312.4465L160.5888,312.4361L160.8336,312.3996L161.0784,312.3294L161.3232,312.2502L161.5680,312.2273L161.8128,312.1668L162.0576,312.1684L162.3024,312.1641L162.5472,312.1390
            L162.7920,312.0915L163.0368,312.0413L163.2816,312.0458L163.5264,312.0566L163.7712,312.0468L164.0160,312.0217L164.2608,312.0477L164.5056,312.0930L164.7504,312.0819L164.9952,312.1337
            L165.2400,312.2014L165.4848,312.2544L165.7296,312.3776L165.9744,312.5220L166.2192,312.7507L166.4640,312.7072L166.7088,312.8563L166.9536,312.9760L167.1984,313.1048L167.4432,313.2284
            L167.6880,313.4024L167.9328,313.6085L168.1776,313.9224L168.4224,313.8902L168.6672,314.6009L168.9120,314.2909L169.1568,314.7164L169.4016,314.7225L169.6464,314.8698L169.8912,315.1642
            L170.1360,315.7992L170.3808,315.5601L170.6256,315.7988L170.8704,316.1735L171.1152,316.1835L171.3600,316.3902L171.6048,316.6037L171.8496,316.6874L172.0944,316.9186L172.3392,317.1186
            L172.5840,317.3228L172.8288,317.5282L173.0736,317.7193L173.3184,317.9648L173.5632,318.0414L173.8080,318.2444L174.0528,318.4357L174.2976,318.6097L174.5424,318.8131L174.7872,318.8102
            L175.0320,318.7934L175.2768,318.7827L175.5216,318.7309L175.7664,318.6995L176.0112,318.7007L176.2560,318.7294L176.5008,318.7246L176.7456,318.7269L176.9904,318.7366L177.2352,318.7430
            L177.4800,318.7751L177.7248,318.8068L177.9696,318.8164L178.2144,318.8191L178.4592,318.8372L178.7040,318.8907L178.9488,318.9679L179.1936,319.0394L179.4384,319.1246L179.6832,319.2294
            L179.9280,319.2657L180.1728,319.3682L180.4176,319.5030L180.6624,319.6211L180.9072,319.8495L181.1520,319.9006L181.3968,319.8960L181.6416,320.0494L181.8864,320.2080L182.1312,320.2805
            L182.3760,320.5561L182.6208,320.5116L182.8656,320.6706L183.1104,320.8737L183.3552,321.4279L183.6000,321.1617L183.8448,321.3693L184.0896,321.5586L184.3344,321.6512L184.5792,321.8644
            L184.8240,322.0837L185.0688,322.2480L185.3136,322.2953L185.5584,322.4157L185.8032,322.5162L186.0480,322.6085L186.2928,322.7954L186.5376,322.7228L186.7824,322.7608L187.0272,322.7725
            L187.2720,322.8009L187.5168,322.8655L187.7616,322.9208L188.0064,322.9672L188.2512,323.1055L188.4960,323.0575L188.7408,323.1238L188.9856,323.2096L189.2304,323.3205L189.4752,327.0886
            L189.7200,331.9995L189.9648,335.7626L190.2096,340.3890L190.4544,342.3081L190.6992,344.1588L190.9440,345.1410L191.1888,343.8501L191.4336,341.7852L191.6784,339.4946L191.9232,338.7725
            L192.1680,339.3395L192.4128,340.1676L192.6576,341.6975L192.9024,341.4170L193.1472,339.8094L193.3920,339.3097L193.6368,340.1308L193.8816,341.5159L194.1264,344.0976L194.3712,347.2798
            L194.6160,350.5250L194.8608,353.5806L195.1056,356.5439L195.3504,359.2406L195.5952,362.5238L195.8400,364.2121L196.0848,365.1593L196.3296,367.1257L196.5744,367.1413L196.8192,367.3133
            L197.0640,367.0103L197.3088,367.3988L197.5536,367.8317L197.7984,367.3260L198.0432,366.1478L198.2880,361.5971L198.5328,358.9801L198.7776,356.1067L199.0224,352.9453L199.2672,349.9299
            L199.5120,345.7988L199.7568,341.1616L200.0016,338.4728L200.2464,337.0253L200.4912,336.2298L200.7360,334.3056L200.9808,333.9999L201.2256,332.9520L201.4704,331.0784L201.7152,328.7645
            L201.9600,326.6132L202.2048,325.7386L202.4496,325.7060L202.6944,324.6600L202.9392,324.4233L203.1840,325.2462L203.4288,325.9132L203.6736,327.3805L203.9184,329.6462L204.1632,330.4431
            L204.4080,330.2659L204.6528,328.2322L204.8976,326.2707L205.1424,324.8639L205.3872,325.7609L205.6320,327.0905L205.8768,328.5817L206.1216,329.0657L206.3664,330.3622L206.6112,330.9437
            L206.8560,331.2336L207.1008,331.8826L207.3456,330.8710L207.5904,329.8924L207.8352,328.6240L208.0800,327.8051L208.3248,326.1412L208.5696,327.8167L208.8144,329.9299L209.0592,331.3077
            L209.3040,331.5462L209.5488,332.6375L209.7936,335.2350L210.0384,337.8163L210.2832,339.6224L210.5280,340.7784L210.7728,341.8145L211.0176,342.0679L211.2624,344.6324L211.5072,346.3211
            L211.7520,347.5846L211.9968,348.4340L212.2416,349.3546L212.4864,349.1591L212.7312,349.6930L212.9760,349.1802L213.2208,350.3702L213.4656,352.3973L213.7104,355.0297L213.9552,356.7729
            L214.2000,355.7407L214.4448,354.6507L214.6896,354.7777L214.9344,352.4379L215.1792,350.7943L215.4240,348.2937L215.6688,346.1307L215.9136,345.2427L216.1584,344.6357L216.4032,345.1038
            L216.6480,344.8189L216.8928,344.5802L217.1376,343.8865L217.3824,342.7931L217.6272,343.3368L217.8720,344.5626L218.1168,345.4324L218.3616,344.8745L218.6064,343.0198L218.8512,341.8899
            L219.0960,340.0260L219.3408,337.7818L219.5856,334.8177L219.8304,333.2499L220.0752,330.6176L220.3200,331.6537L220.5648,329.1495L220.8096,327.8087L221.0544,328.2621L221.2992,329.6179
            L221.5440,332.2381L221.7888,336.0976L222.0336,339.7821L222.2784,340.7336L222.5232,340.7892L222.7680,339.3263L223.0128,336.8430L223.2576,335.6573L223.5024,335.3467L223.7472,332.7606
            L223.9920,329.5070L224.2368,329.1518L224.4816,328.8341L224.7264,330.0326L224.9712,331.9957L225.2160,332.8416L225.4608,333.4685L225.7056,334.0321L225.9504,334.4187L226.1952,335.1161
            L226.4400,335.7195L226.6848,336.7611L226.9296,338.7601L227.1744,340.3808L227.4192,342.2076L227.6640,344.1160L227.9088,345.5545L228.1536,345.1928L228.3984,343.6334L228.6432,343.4017
            L228.8880,344.5300L229.1328,343.7069L229.3776,340.3888L229.6224,338.9131L229.8672,337.4750L230.1120,336.8370L230.3568,335.6040L230.6016,334.9360L230.8464,334.5790L231.0912,334.0417
            L231.3360,333.0127L231.5808,332.1899L231.8256,331.2485L232.0704,331.1203L232.3152,330.4510L232.5600,329.9033L232.8048,331.0682L233.0496,334.1222L233.2944,337.7880L233.5392,340.2366
            L233.7840,343.0572L234.0288,344.1610L234.2736,344.7904L234.5184,345.0304L234.7632,346.1840L235.0080,345.7586L235.2528,346.9521L235.4976,346.7555L235.7424,345.3391L235.9872,345.2889
            L236.2320,346.0583L236.4768,349.2736L236.7216,351.0085L236.9664,352.8406L237.2112,352.3956L237.4560,351.9267L237.7008,353.0075L237.9456,353.0759L238.1904,351.1082L238.4352,349.7524
            L238.6800,350.8315L238.9248,352.6055L239.1696,353.5258L239.4144,354.2549L239.6592,354.6286L239.9040,356.7128L240.1488,359.3353L240.3936,360.8370L240.6384,361.4430L240.8832,360.8064
            L241.1280,360.3704L241.3728,359.3941L241.6176,358.6714L241.8624,359.2603L242.1072,359.2448L242.3520,359.0162L242.5968,357.8995L242.8416,355.1722L243.0864,350.6125L243.3312,346.8308
            L243.5760,345.9342L243.8208,345.8946L244.0656,345.4699L244.3104,344.6820L244.5552,342.7422L244.8000,342.6170L245.0448,344.0422L245.2896,347.3284L245.5344,347.8681L245.7792,346.1425
            L246.0240,344.0621L246.2688,342.9432L246.5136,340.8764L246.7584,339.8904L247.0032,339.7051L247.2480,336.4290L247.4928,333.7514L247.7376,331.1500L247.9824,328.2629L248.2272,327.1459
            L248.4720,326.5562L248.7168,327.8189L248.9616,328.9247L249.2064,330.1200L249.4512,331.7212L249.6960,333.0384L249.9408,334.7271L250.1856,331.6741L250.4304,328.0062L250.6752,325.7407
            L250.9200,324.4347L251.1648,321.5215L251.4096,321.4430L251.6544,323.0626L251.8992,323.8762L252.1440,325.4550L252.3888,326.4488L252.6336,327.8976L252.8784,327.9451L253.1232,327.7542
            L253.3680,325.5218L253.6128,322.3397L253.8576,320.6258L254.1024,318.9937L254.3472,318.6776L254.5920,319.9249L254.8368,322.6133L255.0816,325.0000L255.3264,329.2056L255.5712,332.3653
            L255.8160,333.9944L256.0608,335.7427L256.3056,335.7155L256.5504,335.9019L256.7952,334.7586L257.0400,335.0234L257.2848,337.2804L257.5296,340.1131L257.7744,340.0775L258.0192,339.7549
            L258.2640,338.9430L258.5088,337.9073L258.7536,337.6006L258.9984,336.9055L259.2432,336.5410L259.4880,338.3656L259.7328,340.9375L259.9776,341.3710L260.2224,341.4434L260.4672,340.7773
            L260.7120,342.5323L260.9568,345.7553L261.2016,345.9443L261.4464,345.0773L261.6912,344.5746L261.9360,343.9083L262.1808,345.1674L262.4256,344.0319L262.6704,343.9132L262.9152,345.0473
            L263.1600,344.6260L263.4048,344.4020L263.6496,345.8503L263.8944,346.7361L264.1392,346.2579L264.3840,346.1822L264.6288,346.3903L264.8736,346.1357L265.1184,345.0681L265.3632,346.3420
            L265.6080,347.5839L265.8528,347.0814L266.0976,345.4363L266.3424,345.6406L266.5872,347.0096L266.8320,348.1811L267.0768,347.5253L267.3216,346.8714L267.5664,348.0659L267.8112,349.0709
            L268.0560,349.6480L268.3008,350.2240L268.5456,352.8253L268.7904,357.0843L269.0352,359.2422L269.2800,358.7187L269.5248,358.4438L269.7696,358.4533L270.0144,359.0807L270.2592,359.4829
            L270.5040,359.5134L270.7488,359.3272L270.9936,360.8351L271.2384,361.2093L271.4832,362.6455L271.7280,363.8628L271.9728,363.0337L272.2176,363.5594L272.4624,362.8415L272.7072,360.4177
            L272.9520,358.2621L273.1968,355.9008L273.4416,354.5464L273.6864,355.3646L273.9312,355.5716L274.1760,355.3640L274.4208,354.4444L274.6656,354.0139L274.9104,353.0753L275.1552,353.4129
            L275.4000,355.1855L275.6448,356.8814L275.8896,357.3982L276.1344,356.4770L276.3792,355.4801L276.6240,354.3019L276.8688,352.0763L277.1136,349.7648L277.3584,347.3805L277.6032,343.9634
            L277.8480,340.2471L278.0928,338.4250L278.3376,338.9243L278.5824,340.6574L278.8272,343.8328L279.0720,344.8010L279.3168,344.3492L279.5616,344.6009L279.8064,348.1681L280.0512,350.7092
            L280.2960,352.4004L280.5408,353.1985L280.7856,352.9997L281.0304,354.4087L281.2752,356.3076L281.5200,357.2608L281.7648,357.2711L282.0096,356.4949L282.2544,357.2445L282.4992,358.6518
            L282.7440,360.1199L282.9888,361.4703L283.2336,362.3776L283.4784,363.3386L283.7232,363.6062L283.9680,362.0857L284.2128,363.3879L284.4576,366.8752L284.7024,370.5741L284.9472,373.4364
            L285.1920,375.3830L285.4368,375.3973L285.6816,373.4588L285.9264,369.9678L286.1712,368.6742L286.4160,367.9848L286.6608,367.6860L286.9056,366.5048L287.1504,364.9147L287.3952,365.9970
            L287.6400,366.8260L287.8848,368.7490L288.1296,367.7352L288.3744,366.8754L288.6192,366.0142L288.8640,364.8178L289.1088,363.0761L289.3536,361.6448L289.5984,362.7428L289.8432,364.0239
            L290.0880,364.7379L290.3328,367.4996L290.5776,369.3633L290.8224,370.1777L291.0672,371.1423L291.3120,371.6158L291.5568,372.4823L291.8016,372.4572L292.0464,371.4864L292.2912,370.1889
            L292.5360,368.0090L292.7808,364.9667L293.0256,363.1668L293.2704,360.2954L293.5152,360.1248L293.7600,361.6254L294.0048,362.3213L294.2496,363.4449L294.4944,362.7589L294.7392,363.0847
            L294.9840,362.7035L295.2288,361.8593L295.4736,361.1842L295.7184,360.7753L295.9632,360.7411L296.2080,363.1911L296.4528,364.9251L296.6976,364.8383L296.9424,363.8699L297.1872,364.6715
            L297.4320,366.1701L297.6768,367.3152L297.9216,366.2144L298.1664,363.7386L298.4112,363.6222L298.6560,365.0004L298.9008,366.4596L299.1456,367.3071L299.3904,367.8228L299.6352,366.1620
            L299.8800,364.2657L300.1248,363.5582L300.3696,363.1243L300.6144,363.9965L300.8592,363.1717L301.1040,363.7044L301.3488,364.0711L301.5936,365.1310L301.8384,366.7762L302.0832,366.2055
            L302.3280,365.0418L302.5728,364.0226L302.8176,364.1714L303.0624,363.4144L303.3072,363.1152L303.5520,362.3472L303.7968,360.9613L304.0416,358.1023L304.2864,355.9870L304.5312,353.3262
            L304.7760,351.1030L305.0208,351.2930L305.2656,351.3558L305.5104,349.9185L305.7552,348.9871L306.0000,348.7967L306.2448,348.6734L306.4896,346.3574L306.7344,348.0223L306.9792,350.4069
            L307.2240,352.2892L307.4688,355.1512L307.7136,357.7246L307.9584,359.1837L308.2032,360.3048L308.4480,360.0211L308.6928,360.1820L308.9376,361.4290L309.1824,359.6313L309.4272,359.9684
            L309.6720,359.1497L309.9168,361.1927L310.1616,362.7828L310.4064,362.3283L310.6512,364.8806L310.8960,364.7523L311.1408,363.6254L311.3856,360.6804L311.6304,359.2396L311.8752,358.8017
            L312.1200,356.3273L312.3648,352.9107L312.6096,348.1041L312.8544,343.6034L313.0992,341.4161L313.3440,341.6035L313.5888,339.7762L313.8336,337.7282L314.0784,337.3096L314.3232,336.3619
            L314.5680,334.2369L314.8128,334.3585L315.0576,336.3062L315.3024,337.1986L315.5472,334.8113L315.7920,330.4647L316.0368,327.2330L316.2816,325.4863L316.5264,324.8874L316.7712,325.2062
            L317.0160,326.3933L317.2608,325.8350L317.5056,324.2739L317.7504,320.5022L317.9952,318.2908L318.2400,317.5480L318.4848,319.4570L318.7296,321.2895L318.9744,321.4093L319.2192,321.2282
            L319.4640,320.7645L319.7088,319.5236L319.9536,319.2284L320.1984,318.4115L320.4432,317.4266L320.6880,317.2148L320.9328,315.9967L321.1776,315.7125L321.4224,316.2517L321.6672,315.6610
            L321.9120,315.6602L322.1568,316.0350L322.4016,316.7986L322.6464,316.2645L322.8912,316.2601L323.1360,314.4099L323.3808,314.4485L323.6256,314.3802L323.8704,315.3749L324.1152,315.7011
            L324.3600,314.8953L324.6048,314.2201L324.8496,313.3348L325.0944,312.1884L325.3392,312.8746L325.5840,316.6479L325.8288,322.0634L326.0736,327.1058L326.3184,329.2248L326.5632,328.7519
            L326.8080,326.5597L327.0528,327.1142L327.2976,327.8190L327.5424,331.7722L327.7872,336.9866L328.0320,341.6292L328.2768,343.9093L328.5216,343.9477L328.7664,344.1401L329.0112,342.7517
            L329.2560,341.1943L329.5008,339.6902L329.7456,338.4723L329.9904,337.1187L330.2352,337.1964L330.4800,336.1725L330.7248,334.1688L330.9696,330.5255L331.2144,326.3110L331.4592,324.3166
            L331.7040,321.9888L331.9488,319.7812L332.1936,317.6328L332.4384,317.8711L332.6832,319.6511L332.9280,321.7833L333.1728,324.7670L333.4176,328.2559L333.6624,329.5350L333.9072,327.8897
            L334.1520,326.2223L334.3968,325.0013L334.6416,324.2321L334.8864,323.8649L335.1312,321.8292L335.3760,321.8342L335.6208,321.6126L335.8656,320.9166L336.1104,319.8601L336.3552,318.7052
            L336.6000,317.9804L336.8448,316.6582L337.0896,315.2267L337.3344,313.2147L337.5792,313.6622L337.8240,316.7517L338.0688,318.5034L338.3136,318.3718L338.5584,317.8195L338.8032,315.8439
            L339.0480,315.4169L339.2928,316.2271L339.5376,316.2200L339.7824,317.0440L340.0272,317.4549L340.2720,319.8361L340.5168,321.7988L340.7616,324.6982L341.0064,327.4576L341.2512,329.5426
            L341.4960,332.1814L341.7408,333.9075L341.9856,335.5253L342.2304,336.2421L342.4752,336.5996L342.7200,337.3854L342.9648,340.0928L343.2096,343.4354L343.4544,346.4648L343.6992,348.2753
            L343.9440,349.3933L344.1888,349.7784L344.4336,348.7163L344.6784,344.9017L344.9232,341.1300L345.1680,338.0731L345.4128,335.9893L345.6576,337.1040L345.9024,339.6252L346.1472,342.0650
            L346.3920,343.4617L346.6368,342.9430L346.8816,342.9340L347.1264,344.7010L347.3712,347.2110L347.6160,347.9979L347.8608,348.0704L348.1056,349.2324L348.3504,351.8528L348.5952,354.5443
            L348.8400,357.0517L349.0848,359.2855L349.3296,359.3804L349.5744,357.9412L349.8192,356.2459L350.0640,356.3798L350.3088,357.2391L350.5536,358.1261L350.7984,357.4732L351.0432,358.9320
            L351.2880,361.7006L351.5328,362.8660L351.7776,365.5104L352.0224,366.2132L352.2672,368.0934L352.5120,370.1397L352.7568,372.2916L353.0016,373.8644L353.2464,376.7762L353.4912,378.6285
            L353.7360,378.8595L353.9808,377.5567L354.2256,377.9496L354.4704,378.8436L354.7152,379.1728L354.9600,378.1827L355.2048,377.3906L355.4496,376.1075L355.6944,375.0567L355.9392,374.8793
            L356.1840,374.2995L356.4288,372.7519L356.6736,372.5770L356.9184,373.5509L357.1632,373.2717L357.4080,372.8967L357.6528,373.8775L357.8976,374.6684L358.1424,376.6510L358.3872,376.7430
            L358.6320,377.3366L358.8768,376.4406L359.1216,375.6509L359.3664,374.5856L359.6112,374.4819L359.8560,374.4474L360.1008,375.9157L360.3456,377.2492L360.5904,377.9030L360.8352,377.1367
            L361.0800,378.0286L361.3248,377.8565L361.5696,377.1792L361.8144,374.1651L362.0592,371.4795L362.3040,368.6732L362.5488,365.5592L362.7936,365.5922L363.0384,363.7737L363.2832,363.8760
            L363.5280,361.4740L363.7728,360.1188L364.0176,357.8458L364.2624,357.1246L364.5072,357.4929L364.7520,358.8096L364.9968,360.1360L365.2416,359.3158L365.4864,359.3643L365.7312,359.7891
            L365.9760,359.6045L366.2208,358.7323L366.4656,359.6251L366.7104,361.5784L366.9552,363.9125L367.2000,366.2280L367.4448,366.2816L367.6896,367.6425L367.9344,368.6492L368.1792,369.1479
            L368.4240,369.7101L368.6688,368.7853L368.9136,368.6677L369.1584,369.0895L369.4032,367.5511L369.6480,365.8992L369.8928,364.9885L370.1376,365.9338L370.3824,365.8639L370.6272,364.1808
            L370.8720,361.0874L371.1168,357.9568L371.3616,356.6231L371.6064,356.0323L371.8512,353.9000L372.0960,351.6438L372.3408,347.0394L372.5856,342.8181L372.8304,342.8355L373.0752,344.2376
            L373.3200,345.4925L373.5648,346.9786L373.8096,346.9832L374.0544,345.6569L374.2992,345.2511L374.5440,345.4867L374.7888,346.6653L375.0336,349.4659L375.2784,350.9304L375.5232,353.6534
            L375.7680,354.6519L376.0128,355.3938L376.2576,354.0482L376.5024,352.3943L376.7472,349.8906L376.9920,346.3204L377.2368,345.0269L377.4816,344.3084L377.7264,341.8981L377.9712,339.0146
            L378.2160,338.1315L378.4608,338.1353L378.7056,340.5314L378.9504,342.2314L379.1952,341.4778L379.4400,338.4174L379.6848,334.0932L379.9296,332.4438L380.1744,332.1247L380.4192,330.3983
            L380.6640,331.3429L380.9088,332.4921L381.1536,334.0949L381.3984,335.7589L381.6432,334.3081L381.8880,333.1352L382.1328,330.5603L382.3776,329.3964L382.6224,326.8413L382.8672,324.7908
            L383.1120,326.7877L383.3568,328.6961L383.6016,331.7574L383.8464,334.1313L384.0912,334.9847L384.3360,334.7615L384.5808,336.4512L384.8256,339.3131L385.0704,340.1783L385.3152,338.8874
            L385.5600,338.1183L385.8048,338.4733L386.0496,338.9670L386.2944,337.7072L386.5392,336.8739L386.7840,336.1307L387.0288,334.5619L387.2736,333.4378L387.5184,330.7941L387.7632,326.4330
            L388.0080,324.1073L388.2528,324.1271L388.4976,323.7700L388.7424,321.3567L388.9872,319.9360L389.2320,316.9374L389.4768,315.4577L389.7216,314.5021L389.9664,314.6998L390.2112,314.0282
            L390.4560,312.2478L390.7008,311.8583L390.9456,311.6781L391.1904,312.5303L391.4352,314.8918L391.6800,317.7708L391.9248,319.4335L392.1696,320.5737L392.4144,321.5037L392.6592,323.7148
            L392.9040,323.8876L393.1488,323.4769L393.3936,323.3771L393.6384,322.6848L393.8832,320.8089L394.1280,320.7684L394.3728,320.0494L394.6176,319.9430L394.8624,320.7285L395.1072,322.6450
            L395.3520,325.1973L395.5968,326.4230L395.8416,327.5758L396.0864,330.0763L396.3312,331.4172L396.5760,332.5319L396.8208,335.2239L397.0656,338.5047L397.3104,340.5231L397.5552,341.7504
            L397.8000,342.0714L398.0448,344.1959L398.2896,346.5327L398.5344,349.5509L398.7792,353.2042L399.0240,355.4047L399.2688,355.5844L399.5136,353.1508L399.7584,350.9812L400.0032,349.2994
            L400.2480,345.6466L400.4928,340.9541L400.7376,337.8302L400.9824,333.6764L401.2272,330.6799L401.4720,328.4060L401.7168,325.8230L401.9616,323.1234L402.2064,320.5935L402.4512,320.6030
            L402.6960,321.2556L402.9408,321.5154L403.1856,320.9966L403.4304,320.7378L403.6752,317.9433L403.9200,317.1908L404.1648,315.4889L404.4096,313.7559L404.6544,312.3998L404.8992,312.9533
            L405.1440,314.2430L405.3888,314.3002L405.6336,314.8901L405.8784,315.5329L406.1232,319.3353L406.3680,323.7490L406.6128,327.0815L406.8576,330.2626L407.1024,332.8064L407.3472,335.7724
            L407.5920,337.6979L407.8368,338.2496L408.0816,337.9503L408.3264,338.9703L408.5712,341.0972L408.8160,342.6764L409.0608,342.7232L409.3056,341.0771L409.5504,338.3782L409.7952,338.3020
            L410.0400,338.2288L410.2848,337.8586L410.5296,337.3892L410.7744,337.5719L411.0192,338.8580L411.2640,336.5822L411.5088,333.6506L411.7536,331.2281L411.9984,328.8626L412.2432,328.1105
            L412.4880,327.3446L412.7328,328.6478L412.9776,329.0031L413.2224,329.0491L413.4672,329.0351L413.7120,328.6806L413.9568,327.8173L414.2016,325.2250L414.4464,323.7295L414.6912,322.8235
            L414.9360,324.7171L415.1808,325.3546L415.4256,323.9460L415.6704,323.0371L415.9152,323.5249L416.1600,325.6495L416.4048,327.1207L416.6496,329.5610L416.8944,330.9959L417.1392,333.4975
            L417.3840,336.6837L417.6288,339.2742L417.8736,339.9848L418.1184,338.9716L418.3632,340.5193L418.6080,342.9049L418.8528,346.4377L419.0976,348.0612L419.3424,350.5190L419.5872,351.5366
            L419.8320,353.9372L420.0768,354.9096L420.3216,353.7975L420.5664,352.3867L420.8112,349.2087L421.0560,346.8200L421.3008,344.9921L421.5456,343.7479L421.7904,342.5760L422.0352,342.3722
            L422.2800,342.7116L422.5248,338.2768L422.7696,332.8283L423.0144,328.7919L423.2592,326.4309L423.5040,323.7235L423.7488,320.5485L423.9936,315.0977L424.2384,312.4068L424.4832,311.9346
            L424.7280,312.6398L424.9728,314.8540L425.2176,316.8362L425.4624,319.4002L425.7072,319.9383L425.9520,323.5713L426.1968,324.0016L426.4416,322.5708L426.6864,320.9607L426.9312,320.8724
            L427.1760,321.6915L427.4208,323.1187L427.6656,325.0525L427.9104,325.2105L428.1552,322.7019L428.4000,321.7834L428.6448,323.0432L428.8896,324.9587L429.1344,326.4237L429.3792,326.9881
            L429.6240,327.3355L429.8688,325.5779L430.1136,324.6121L430.3584,326.0027L430.6032,327.5492L430.8480,329.4846L431.0928,332.2445L431.3376,334.7252L431.5824,338.1899L431.8272,339.6880
            L432.0720,342.0307L432.3168,343.1055L432.5616,345.0518L432.8064,344.1703L433.0512,343.1413L433.2960,341.9573L433.5408,342.3916L433.7856,346.2688L434.0304,348.4029L434.2752,351.1061
            L434.5200,351.6179L434.7648,352.8184L435.0096,354.0289L435.2544,353.5358L435.4992,352.8501L435.7440,351.2214L435.9888,350.1157L436.2336,349.0056L436.4784,347.3710L436.7232,346.9327
            L436.9680,346.4528L437.2128,347.3135L437.4576,350.5986L437.7024,353.6537L437.9472,356.8864L438.1920,357.8651L438.4368,359.6532L438.6816,360.4074L438.9264,360.4660L439.1712,360.6606
            L439.4160,362.1735L439.6608,362.2473L439.9056,364.4361L440.1504,366.5323L440.3952,369.0567L440.6400,371.3349L440.8848,371.2056L441.1296,371.2756L441.3744,369.5930L441.6192,367.1460
            L441.8640,363.3035L442.1088,360.3171L442.3536,356.1853L442.5984,351.8190L442.8432,346.9489L443.0880,341.9522L443.3328,338.3654L443.5776,336.2696L443.8224,335.5223L444.0672,333.7153
            L444.3120,332.0309L444.5568,330.2355L444.8016,329.7820L445.0464,327.1519L445.2912,325.2362L445.5360,323.7249L445.7808,323.5974L446.0256,324.2778L446.2704,324.0541L446.5152,323.8946
            L446.7600,324.3539L447.0048,323.6114L447.2496,323.0772L447.4944,322.7555L447.7392,321.1922L447.9840,320.6449L448.2288,321.0286L448.4736,323.7718L448.7184,327.3502L448.9632,330.7609
            L449.2080,333.5854L449.4528,335.6141L449.6976,335.8768L449.9424,335.7239L450.1872,336.8565L450.4320,337.6018L450.6768,339.7049L450.9216,339.2513L451.1664,340.1801L451.4112,337.9947
            L451.6560,336.9570L451.9008,333.6487L452.1456,331.1369L452.3904,329.6126L452.6352,329.0454L452.8800,328.8365L453.1248,328.3162L453.3696,329.2638L453.6144,330.7284L453.8592,330.5556
            L454.1040,331.0738L454.3488,332.2176L454.5936,333.1400L454.8384,336.3203L455.0832,334.8982L455.3280,335.8213L455.5728,337.8092L455.8176,338.6003L456.0624,335.3640L456.3072,333.1752
            L456.5520,330.4914L456.7968,328.3067L457.0416,327.7976L457.2864,327.0247L457.5312,326.4472L457.7760,322.8395L458.0208,320.4225L458.2656,315.7515L458.5104,312.7018L458.7552,310.4375
            L459.0000,308.5609L459.2448,307.0347L459.4896,308.2544L459.7344,311.8784L459.9792,315.9536L460.2240,321.9433L460.4688,325.7741L460.7136,330.7888L460.9584,333.1418L461.2032,333.3981
            L461.4480,335.7904L461.6928,340.3411L461.9376,344.4072L462.1824,345.4489L462.4272,345.5279L462.6720,346.7997L462.9168,349.0823L463.1616,351.6920L463.4064,353.2940L463.6512,353.3694
            L463.8960,354.3383L464.1408,356.6511L464.3856,358.7373L464.6304,358.8543L464.8752,357.9930L465.1200,357.1808L465.3648,359.2962L465.6096,361.5065L465.8544,362.4344L466.0992,362.3775
            L466.3440,359.4052L466.5888,356.7337L466.8336,353.1729L467.0784,349.4604L467.3232,346.5713L467.5680,344.9252L467.8128,343.8132L468.0576,343.0049L468.3024,343.5813L468.5472,343.5936
            L468.7920,344.2207L469.0368,343.2670L469.2816,339.8931L469.5264,340.0992L469.7712,338.2993L470.0160,337.6714L470.2608,337.2494L470.5056,334.7983L470.7504,333.3360L470.9952,331.9267
            L471.2400,331.6010L471.4848,330.9761L471.7296,330.9368L471.9744,330.6677L472.2192,326.6733L472.4640,321.7480L472.7088,316.9249L472.9536,314.5411L473.1984,312.7112L473.4432,312.5730
            L473.6880,315.5835L473.9328,315.0259L474.1776,315.9865L474.4224,316.6308L474.6672,314.8569L474.9120,317.0915L475.1568,319.2694L475.4016,318.4350L475.6464,316.7759L475.8912,317.3862
            L476.1360,317.6249L476.3808,318.2724L476.6256,318.4535L476.8704,318.5222L477.1152,318.4855L477.3600,320.6006L477.6048,325.5040L477.8496,328.1250L478.0944,329.0166L478.3392,327.8546
            L478.5840,326.7902L478.8288,325.7688L479.0736,322.8890L479.3184,319.4502L479.5632,315.5215L479.8080,312.6626L480.0528,312.9357L480.2976,311.2751L480.5424,309.9168L480.7872,309.2224
            L481.0320,310.3647L481.2768,311.9612L481.5216,312.1775L481.7664,310.4456L482.0112,309.2811L482.2560,308.9185L482.5008,306.8242L482.7456,305.3841L482.9904,304.4415L483.2352,306.6944
            L483.4800,309.0795L483.7248,310.6949L483.9696,311.7347L484.2144,312.9949L484.4592,314.7695L484.7040,316.1179L484.9488,318.2057L485.1936,320.1508L485.4384,322.4461L485.6832,321.4364
            L485.9280,321.5807L486.1728,322.8643L486.4176,323.8257L486.6624,324.7093L486.9072,325.4981L487.1520,325.7492L487.3968,325.8260L487.6416,325.9388L487.8864,327.3073L488.1312,329.8829
            L488.3760,331.8943L488.6208,335.1203L488.8656,338.6703L489.1104,343.9235L489.3552,349.2018L489.6000,352.4328L489.8448,354.5198L490.0896,355.1473L490.3344,357.1922L490.5792,359.3651
            L490.8240,357.4521L491.0688,356.2611L491.3136,356.6709L491.5584,356.9893L491.8032,352.9304L492.0480,350.3046L492.2928,347.1702L492.5376,344.0202L492.7824,343.1240L493.0272,345.6616
            L493.2720,347.6759L493.5168,348.5935L493.7616,347.9719L494.0064,346.2343L494.2512,344.6451L494.4960,342.7244L494.7408,340.7398L494.9856,339.5623L495.2304,338.4166L495.4752,339.1760
            L495.7200,338.9904L495.9648,336.5287L496.2096,332.5810L496.4544,331.6802L496.6992,331.9092L496.9440,333.5721L497.1888,335.6820L497.4336,336.8368L497.6784,337.7632L497.9232,338.7966
            L498.1680,341.3785L498.4128,346.7013L498.6576,352.7039L498.9024,358.8195L499.1472,362.2619L499.3920,365.7082L499.6368,368.6631L499.8816,373.8606L500.1264,377.5442L500.3712,380.6088
            L500.6160,382.6343L500.8608,383.5812L501.1056,382.4856L501.3504,381.1250L501.5952,379.9047L501.8400,379.0317L502.0848,377.2619L502.3296,375.2743L502.5744,374.5939L502.8192,373.1998
            L503.0640,375.3533L503.3088,375.7941L503.5536,374.6602L503.7984,374.3877L504.0432,374.4426L504.2880,378.1215L504.5328,380.8692L504.7776,383.5612L505.0224,386.5935L505.2672,388.3649
            L505.5120,390.9298L505.7568,391.9754L506.0016,394.7706L506.2464,396.9615L506.4912,398.7306L506.7360,399.8216L506.9808,398.8651L507.2256,397.7810L507.4704,398.2088L507.7152,398.0143
            L507.9600,397.5155L508.2048,396.8372L508.4496,397.8780L508.6944,399.1474L508.9392,399.2789L509.1840,397.4162L509.4288,394.4346L509.6736,394.0949L509.9184,393.4486L510.1632,393.6145
            L510.4080,393.7761L510.6528,392.5014L510.8976,390.8997L511.1424,392.6961L511.3872,394.0737L511.6320,393.8659L511.8768,392.8877L512.1216,394.6784L512.3664,395.5484L512.6112,395.0096
            L512.8560,391.3902L513.1008,390.2722L513.3456,390.3019L513.5904,386.7127L513.8352,385.1416L514.0800,383.5937L514.3248,381.0858L514.5696,379.1019L514.8144,379.2218L515.0592,378.5381
            L515.3040,377.3223L515.5488,374.6577L515.7936,370.4292L516.0384,366.7323L516.2832,365.0564L516.5280,365.8806L516.7728,366.9275L517.0176,369.4144L517.2624,372.7365L517.5072,373.2208
            L517.7520,372.2267L517.9968,371.0783L518.2416,373.4894L518.4864,373.6076L518.7312,371.5529L518.9760,369.7456L519.2208,368.5608L519.4656,366.8154L519.7104,367.7720L519.9552,369.0794
            L520.2000,368.9587L520.4448,367.0456L520.6896,364.6808L520.9344,360.2639L521.1792,357.8755L521.4240,358.4672L521.6688,362.1639L521.9136,366.7653L522.1584,369.7520L522.4032,371.4828
            L522.6480,373.3994L522.8928,373.1865L523.1376,372.6737L523.3824,373.7865L523.6272,375.7088L523.8720,377.4097L524.1168,379.5728L524.3616,379.9796L524.6064,380.0342L524.8512,379.9093
            L525.0960,381.9722L525.3408,383.8233L525.5856,384.4028L525.8304,384.5135L526.0752,386.5035L526.3200,386.3089L526.5648,389.1349L526.8096,390.8263L527.0544,391.7592L527.2992,392.1120
            L527.5440,390.8421L527.7888,388.2382L528.0336,385.6594L528.2784,384.3669L528.5232,384.1021L528.7680,383.6854L529.0128,383.7685L529.2576,383.5093L529.5024,383.6938L529.7472,384.0873
            L529.9920,382.6065L530.2368,380.8230L530.4816,377.9890L530.7264,374.9295L530.9712,373.2325L531.2160,372.4293L531.4608,370.8787L531.7056,369.0399L531.9504,365.7613L532.1952,361.7894
            L532.4400,358.6637L532.6848,357.3126L532.9296,357.2237L533.1744,357.2426L533.4192,355.2168L533.6640,353.6482L533.9088,354.7004L534.1536,356.7278L534.3984,358.0930L534.6432,359.0113
            L534.8880,359.0304L535.1328,359.1262L535.3776,360.9482L535.6224,363.1126L535.8672,364.7530L536.1120,365.0436L536.3568,365.9627L536.6016,366.3371L536.8464,369.2834L537.0912,371.4968
            L537.3360,371.0021L537.5808,366.9643L537.8256,364.2830L538.0704,364.3263L538.3152,364.2364L538.5600,366.6800L538.8048,368.6192L539.0496,369.2870L539.2944,368.8590L539.5392,368.1291
            L539.7840,369.0567L540.0288,370.7753L540.2736,373.7169L540.5184,378.9130L540.7632,381.9758L541.0080,384.2546L541.2528,386.1276L541.4976,386.0849L541.7424,386.1305L541.9872,384.6332
            L542.2320,383.4350L542.4768,382.7490L542.7216,381.6094L542.9664,380.3265L543.2112,375.8367L543.4560,372.3082L543.7008,372.9481L543.9456,373.7194L544.1904,373.7834L544.4352,372.9372
            L544.6800,372.5743L544.9248,372.5867L545.1696,372.3946L545.4144,373.1041L545.6592,373.2330L545.9040,372.3964L546.1488,372.5417L546.3936,372.9045L546.6384,371.9463L546.8832,372.6340
            L547.1280,374.6941L547.3728,373.5971L547.6176,371.6019L547.8624,370.1929L548.1072,371.6449L548.3520,370.2100L548.5968,368.5078L548.8416,368.2947L549.0864,367.9738L549.3312,368.8520
            L549.5760,370.1619L549.8208,370.1364L550.0656,370.2393L550.3104,370.0077L550.5552,370.2673L550.8000,370.2764L551.0448,370.9616L551.2896,370.4032L551.5344,368.5156L551.7792,366.4188
            L552.0240,365.1898L552.2688,365.7802L552.5136,366.6847L552.7584,366.3232L553.0032,366.0839L553.2480,364.7853L553.4928,364.4773L553.7376,363.9501L553.9824,364.5453L554.2272,364.9687
            L554.4720,365.9683L554.7168,367.2376L554.9616,367.6134L555.2064,367.4006L555.4512,368.4415L555.6960,369.6738L555.9408,369.0239L556.1856,366.4202L556.4304,362.1830L556.6752,358.9709
            L556.9200,356.4105L557.1648,355.6482L557.4096,356.9187L557.6544,359.6059L557.8992,361.3220L558.1440,362.1483L558.3888,362.9296L558.6336,362.8519L558.8784,364.1232L559.1232,363.7560
            L559.3680,362.1939L559.6128,360.2797L559.8576,357.4136L560.1024,355.0441L560.3472,353.9011L560.5920,354.8787L560.8368,353.3772L561.0816,351.0574L561.3264,349.2760L561.5712,349.1796
            L561.8160,351.0696L562.0608,354.5098L562.3056,356.3742L562.5504,358.3862L562.7952,359.0060L563.0400,358.1819L563.2848,355.3703L563.5296,351.9285L563.7744,350.1038L564.0192,348.6947
            L564.2640,348.5978L564.5088,347.6714L564.7536,346.1511L564.9984,345.2244L565.2432,345.4720L565.4880,344.6608L565.7328,345.4090L565.9776,344.9424L566.2224,343.1169L566.4672,341.8909
            L566.7120,343.6740L566.9568,342.9899L567.2016,342.1643L567.4464,341.2246L567.6912,340.0336L567.9360,339.8250L568.1808,339.9761L568.4256,342.1681L568.6704,345.6861L568.9152,349.5143
            L569.1600,350.7557L569.4048,351.3642L569.6496,352.8177L569.8944,356.8289L570.1392,358.8644L570.3840,360.9282L570.6288,363.4715L570.8736,368.0511L571.1184,372.0660L571.3632,375.6438
            L571.6080,379.6591L571.8528,381.8657L572.0976,383.5187L572.3424,384.0362L572.5872,384.2207L572.8320,383.4947L573.0768,383.7246L573.3216,383.1664L573.5664,384.1356L573.8112,385.4000
            L574.0560,385.3714L574.3008,385.5410L574.5456,388.9612L574.7904,391.8803L575.0352,395.0995L575.2800,397.4221L575.5248,398.1717L575.7696,398.8986L576.0144,398.7897L576.2592,400.2078
            L576.5040,401.2130L576.7488,401.3491L576.9936,402.0041L577.2384,401.9671L577.4832,400.7499L577.7280,399.4372L577.9728,401.6477L578.2176,404.2007L578.4624,405.9538L578.7072,407.4765
            L578.9520,407.2256L579.1968,407.9833L579.4416,410.0153L579.6864,413.4802L579.9312,415.9654L580.1760,417.7696L580.4208,419.0112L580.6656,421.7052L580.9104,423.9642L581.1552,423.2465
            L581.4000,423.3332L581.6448,422.5097L581.8896,419.8020L582.1344,417.0053L582.3792,414.1066L582.6240,413.0792L582.8688,413.6119L583.1136,412.9655L583.3584,409.9627L583.6032,407.9403
            L583.8480,405.2298L584.0928,402.3022L584.3376,401.8861L584.5824,402.6769L584.8272,403.6442L585.0720,402.0761L585.3168,400.1511L585.5616,398.5635L585.8064,395.3963L586.0512,392.8830
            L586.2960,390.5883L586.5408,390.5833L586.7856,389.2678L587.0304,388.8733L587.2752,387.5314L587.5200,385.0955L587.7648,382.9816L588.0096,381.3438L588.2544,383.2324L588.4992,385.2671
            L588.7440,386.5730L588.9888,385.8343L589.2336,385.8051L589.4784,385.8397L589.7232,384.4784L589.9680,381.4501L590.2128,377.0514L590.4576,372.6522L590.7024,369.2932L590.9472,365.8244
            L591.1920,363.6581L591.4368,362.6651L591.6816,361.7528L591.9264,361.0757L592.1712,359.8081L592.4160,358.0244L592.6608,356.6721L592.9056,358.4702L593.1504,360.6784L593.3952,362.2542
            L593.6400,361.2280L593.8848,361.0090L594.1296,361.5799L594.3744,361.9074L594.6192,362.6600L594.8640,363.5580L595.1088,366.0843L595.3536,369.8403L595.5984,371.7155L595.8432,370.4792
            L596.0880,368.9887L596.3328,366.8116L596.5776,365.5871L596.8224,365.2845L597.0672,367.3826L597.3120,366.9703L597.5568,366.8475L597.8016,365.6704L598.0464,365.2797L598.2912,365.8095
            L598.5360,366.2430L598.7808,366.6161L599.0256,367.5454L599.2704,369.2323L599.5152,369.1784L599.7600,370.7645L600.0048,370.9909L600.2496,372.5142L600.4944,373.5125L600.7392,373.2268
            L600.9840,371.5320L601.2288,368.9065L601.4736,367.5253L601.7184,365.7346L601.9632,363.3075L602.2080,361.8621L602.4528,359.9397L602.6976,360.1017L602.9424,358.3123L603.1872,355.9100
            L603.4320,353.2522L603.6768,353.2311L603.9216,353.6545L604.1664,357.3354L604.4112,358.0022L604.6560,356.5433L604.9008,354.8890L605.1456,355.6471L605.3904,357.5147L605.6352,356.5379
            L605.8800,355.5822L606.1248,355.6443L606.3696,354.4671L606.6144,353.8993L606.8592,351.5546L607.1040,348.7411L607.3488,345.8507L607.5936,344.5168L607.8384,343.8928L608.0832,342.2240
            L608.3280,341.7078L608.5728,341.8302L608.8176,342.2697L609.0624,340.6902L609.3072,341.5698L609.5520,342.2889L609.7968,345.2031L610.0416,347.0746L610.2864,348.1926L610.5312,349.5707
            L610.7760,351.3864L611.0208,353.3148L611.2656,354.4354L611.5104,354.1612L611.7552,353.4681L612.0000,353.3023L612.2448,354.9404L612.4896,355.7589L612.7344,355.9007L612.9792,354.6341
            L613.2240,352.6315L613.4688,351.1677L613.7136,349.8970L613.9584,349.5561L614.2032,350.1396L614.4480,349.4557L614.6928,348.7206L614.9376,348.2735L615.1824,346.8850L615.4272,346.3246
            L615.6720,347.7318L615.9168,348.5302L616.1616,348.7613L616.4064,345.8854L616.6512,345.7904L616.8960,348.7334L617.1408,350.4453L617.3856,351.5992L617.6304,352.0974L617.8752,351.3767
            L618.1200,351.7927L618.3648,350.7256L618.6096,350.5086L618.8544,350.7908L619.0992,349.2122L619.3440,347.7930L619.5888,347.9008L619.8336,346.7478L620.0784,345.4438L620.3232,342.7433
            L620.5680,342.4793L620.8128,342.7183L621.0576,343.5076L621.3024,344.9031L621.5472,343.6053L621.7920,341.1527L622.0368,338.2489L622.2816,338.8811L622.5264,338.3287L622.7712,336.7525
            L623.0160,334.7952L623.2608,334.3070L623.5056,335.0398L623.7504,335.6561L623.9952,334.5428L624.2400,334.9485L624.4848,334.3428L624.7296,334.3843L624.9744,337.2550L625.2192,337.3753
            L625.4640,336.9710L625.7088,337.3389L625.9536,337.6569L626.1984,337.1299L626.4432,338.5322L626.6880,339.3330L626.9328,340.9972L627.1776,342.4131L627.4224,342.9095L627.6672,342.6643
            L627.9120,339.7655L628.1568,335.3009L628.4016,332.3462L628.6464,328.3199L628.8912,324.4240L629.1360,320.9362L629.3808,319.3541L629.6256,318.4345L629.8704,317.1327L630.1152,316.6628
            L630.3600,315.2605L630.6048,313.6866L630.8496,313.8426L631.0944,313.6730L631.3392,312.9019L631.5840,313.0451L631.8288,312.9181L632.0736,314.6923L632.3184,316.3011L632.5632,316.5015
            L632.8080,314.5614L633.0528,313.1896L633.2976,311.5552L633.5424,310.9002L633.7872,306.7299L634.0320,304.6459L634.2768,300.9257L634.5216,298.6692L634.7664,296.6946L635.0112,296.5881
            L635.2560,297.1236L635.5008,300.4361L635.7456,304.0443L635.9904,307.7791L636.2352,310.0661L636.4800,311.8783L636.7248,312.0057L636.9696,309.7775L637.2144,308.0429L637.4592,309.5126
            L637.7040,311.7656L637.9488,314.2940L638.1936,315.9951L638.4384,317.7480L638.6832,319.0338L638.9280,320.5918L639.1728,323.7108L639.4176,324.8789L639.6624,323.7232L639.9072,324.1840
            L640.1520,325.1438L640.3968,325.3304L640.6416,325.7208L640.8864,325.3770L641.1312,323.9220L641.3760,322.1550L641.6208,321.1549L641.8656,321.1307L642.1104,320.5794L642.3552,322.1211
            L642.6000,322.9174L642.8448,324.7849L643.0896,325.7975L643.3344,326.9082L643.5792,327.6362L643.8240,330.0574L644.0688,332.7773L644.3136,334.4824L644.5584,333.4456L644.8032,332.9232
            L645.0480,333.1220L645.2928,334.7002L645.5376,335.0622L645.7824,335.8615L646.0272,337.2844L646.2720,339.4955L646.5168,340.6942L646.7616,340.2911L647.0064,340.3576L647.2512,339.7310
            L647.4960,340.9753L647.7408,341.2637L647.9856,339.6931L648.2304,339.4993L648.4752,338.7345L648.7200,338.5461L648.9648,337.5440L649.2096,336.6447L649.4544,335.5136L649.6992,334.0946
            L649.9440,333.3029L650.1888,331.3701L650.4336,329.2099L650.6784,323.3142L650.9232,318.2764L651.1680,315.0073L651.4128,315.8842L651.6576,315.3177L651.9024,316.7065L652.1472,318.7560
            L652.3920,319.7483L652.6368,322.2345L652.8816,323.8166L653.1264,324.6092L653.3712,326.1378L653.6160,327.4216L653.8608,329.8444L654.1056,330.8838L654.3504,333.2135L654.5952,333.4521
            L654.8400,335.1386L655.0848,334.9069L655.3296,335.1001L655.5744,334.2700L655.8192,331.8484L656.0640,330.6871L656.3088,329.7792L656.5536,330.8735L656.7984,328.7008L657.0432,326.6233
            L657.2880,325.8691L657.5328,328.7984L657.7776,331.2549L658.0224,333.1739L658.2672,334.4603L658.5120,334.2390L658.7568,333.9891L659.0016,335.1391L659.2464,337.1510L659.4912,338.1174
            L659.7360,337.0353L659.9808,336.1311L660.2256,334.3458L660.4704,332.3268L660.7152,330.4686L660.9600,330.2932L661.2048,329.7431L661.4496,329.3369L661.6944,328.1789L661.9392,325.5142
            L662.1840,323.9552L662.4288,322.3059L662.6736,322.8170L662.9184,324.9694L663.1632,323.0832L663.4080,322.2600L663.6528,320.4482L663.8976,319.3138L664.1424,321.4660L664.3872,323.8334
            L664.6320,327.1502L664.8768,328.0240L665.1216,328.3190L665.3664,329.2334L665.6112,329.5255L665.8560,331.1640L666.1008,333.3966L666.3456,335.5222L666.5904,334.8873L666.8352,334.0453
            L667.0800,334.2917L667.3248,335.7215L667.5696,337.2296L667.8144,337.8403L668.0592,337.7169L668.3040,332.2539L668.5488,327.6461L668.7936,324.9454L669.0384,323.8894L669.2832,323.4752
            L669.5280,323.0563L669.7728,323.0195L670.0176,324.1281L670.2624,325.7626L670.5072,328.9861L670.7520,328.4744L670.9968,327.6943L671.2416,329.9495L671.4864,331.1257L671.7312,332.5948
            L671.9760,332.6111L672.2208,331.5216L672.4656,329.3839L672.7104,329.1046L672.9552,328.0770L673.2000,327.0487L673.4448,326.7377L673.6896,327.2908L673.9344,328.9952L674.1792,331.4727
            L674.4240,332.8875L674.6688,335.7676L674.9136,337.8505L675.1584,337.0581L675.4032,335.5699L675.6480,334.5222L675.8928,335.8326L676.1376,336.0773L676.3824,334.5248L676.6272,333.8320
            L676.8720,334.0974L677.1168,336.6572L677.3616,339.9520L677.6064,344.2607L677.8512,349.3492L678.0960,351.9124L678.3408,352.2739L678.5856,351.4612L678.8304,350.1026"/>
   <path d="M91.8000,91.8000L703.8000,91.8000"/>
   <path d="M91.8000,520.2000L703.8000,520.2000"/>
   <path d="M153.0000,91.8000L153.0000,97.9200"/>
   <path d="M153.0000,520.2000L153.0000,514.0800"/>
   <path d="M275.4000,91.8000L275.4000,97.9200"/>
   <path d="M275.4000,520.2000L275.4000,514.0800"/>
   <path d="M397.8000,91.8000L397.8000,97.9200"/>
   <path d="M397.8000,520.2000L397.8000,514.0800"/>
   <path d="M520.2000,91.8000L520.2000,97.9200"/>
   <path d="M520.2000,520.2000L520.2000,514.0800"/>
   <path d="M642.6000,91.8000L642.6000,97.9200"/>
   <path d="M642.6000,520.2000L642.6000,514.0800"/>
   <path d="M91.8000,91.8000L91.8000,104.0400"/>
   <path d="M91.8000,520.2000L91.8000,507.9600"/>
   <path d="M214.2000,91.8000L214.2000,104.0400"/>
   <path d="M214.2000,520.2000L214.2000,507.9600"/>
   <path d="M336.6000,91.8000L336.6000,104.0400"/>
   <path d="M336.6000,520.2000L336.6000,507.9600"/>
   <path d="M459.0000,91.8000L459.0000,104.0400"/>
   <path d="M459.0000,520.2000L459.0000,507.9600"/>
   <path d="M581.4000,91.8000L581.4000,104.0400"/>
   <path d="M581.4000,520.2000L581.4000,507.9600"/>
   <path d="M703.8000,91.8000L703.8000,104.0400"/>
   <path d="M703.8000,520.2000L703.8000,507.9600"/>
  </g>
  <g style="fill:#000000; fill-rule:nonzero">
   <text   style="font-family:'Times','Nimbus Roman'; font-style:normal; font-weight:normal; font-size:612.0000" transform="matrix(0.0280,0.0000,-0.0000,-0.0280,87.8000,73.6800)">0</text>
   <text   style="font-family:'Times','Nimbus Roman'; font-style:normal; font-weight:normal; font-size:612.0000" transform="matrix(0.0280,0.0000,-0.0000,-0.0280,201.7000,73.6800)">500</text>
   <text   style="font-family:'Times','Nimbus Roman'; font-style:normal; font-weight:normal; font-size:612.0000" transform="matrix(0.0280,0.0000,-0.0000,-0.0280,319.6000,73.6800)">1000</text>
   <text   style="font-family:'Times','Nimbus Roman'; font-style:normal; font-weight:normal; font-size:612.0000" transform="matrix(0.0280,0.0000,-0.0000,-0.0280,442.0000,73.6800)">1500</text>
   <text   style="font-family:'Times','Nimbus Roman'; font-style:normal; font-weight:normal; font-size:612.0000" transform="matrix(0.0280,0.0000,-0.0000,-0.0280,564.4000,73.6800)">2000</text>
   <text   style="font-family:'Times','Nimbus Roman'; font-style:normal; font-weight:normal; font-size:612.0000" transform="matrix(0.0280,0.0000,-0.0000,-0.0280,686.8000,73.6800)">2500</text>
   <text   style="font-family:'Times','Nimbus Roman'; font-style:normal; font-weight:normal; font-size:612.0000" transform="matrix(0.0280,0.0000,-0.0000,-0.0280,375.8000,55.5600)">Frame</text>
  </g>
  <g style="fill:none; stroke:#000000; stroke-width:  0.9180; stroke-linecap:butt; stroke-linejoin:miter; stroke-dasharray:none">
   <path d="M91.8000,91.8000L91.8000,520.2000"/>
   <path d="M703.8000,91.8000L703.8000,520.2000"/>
   <path d="M91.8000,134.6400L97.9200,134.6400"/>
   <path d="M703.8000,134.6400L697.6800,134.6400"/>
   <path d="M91.8000,220.3200L97.9200,220.3200"/>
   <path d="M703.8000,220.3200L697.6800,220.3200"/>
   <path d="M91.8000,306.0000L97.9200,306.0000"/>
   <path d="M703.8000,306.0000L697.6800,306.0000"/>
   <path d="M91.8000,391.6800L97.9200,391.6800"/>
   <path d="M703.8000,391.6800L697.6800,391.6800"/>
   <path d="M91.8000,477.3600L97.9200,477.3600"/>
   <path d="M703.8000,477.3600L697.6800,477.3600"/>
   <path d="M91.8000,91.8000L104.0400,91.8000"/>
   <path d="M703.8000,91.8000L691.5600,91.8000"/>
   <path d="M91.8000,177.4800L104.0400,177.4800"/>
   <path d="M703.8000,177.4800L691.5600,177.4800"/>
   <path d="M91.8000,263.1600L104.0400,263.1600"/>
   <path d="M703.8000,263.1600L691.5600,263.1600"/>
   <path d="M91.8000,348.8400L104.0400,348.8400"/>
   <path d="M703.8000,348.8400L691.5600,348.8400"/>
   <path d="M91.8000,434.5200L104.0400,434.5200"/>
   <path d="M703.8000,434.5200L691.5600,434.5200"/>
   <path d="M91.8000,520.2000L104.0400,520.2000"/>
   <path d="M703.8000,520.2000L691.5600,520.2000"/>
  </g>
  <g style="fill:#000000; fill-rule:nonzero">
   <text   style="font-family:'Times','Nimbus Roman'; font-style:normal; font-weight:normal; font-size:612.0000" transform="matrix(0.0280,0.0000,-0.0000,-0.0280,77.6800,85.8000)">0</text>
   <text   style="font-family:'Times','Nimbus Roman'; font-style:normal; font-weight:normal; font-size:612.0000" transform="matrix(0.0280,0.0000,-0.0000,-0.0280,63.6800,171.4800)">0.2</text>
   <text   style="font-family:'Times','Nimbus Roman'; font-style:normal; font-weight:normal; font-size:612.0000" transform="matrix(0.0280,0.0000,-0.0000,-0.0280,64.6800,257.1600)">0.4</text>
   <text   style="font-family:'Times','Nimbus Roman'; font-style:normal; font-weight:normal; font-size:612.0000" transform="matrix(0.0280,0.0000,-0.0000,-0.0280,64.6800,342.8400)">0.6</text>
   <text   style="font-family:'Times','Nimbus Roman'; font-style:normal; font-weight:normal; font-size:612.0000" transform="matrix(0.0280,0.0000,-0.0000,-0.0280,64.6800,428.5200)">0.8</text>
   <text   style="font-family:'Times','Nimbus Roman'; font-style:normal; font-weight:normal; font-size:612.0000" transform="matrix(0.0280,0.0000,-0.0000,-0.0280,78.6800,514.2000)">1</text>
   <text   style="font-family:'Times','Nimbus Roman'; font-style:normal; font-weight:normal; font-size:612.0000" transform="matrix(0.0000,0.0280,0.0280,-0.0000,53.5600,188.0000)">RMSD (excluding residues 72-76)</text>
  </g>
  <g style="fill:none; stroke:#000000; stroke-width:  0.9180; stroke-linecap:butt; stroke-linejoin:miter; stroke-dasharray:none">
   <path d="M91.8000,91.8000L91.8000,520.2000L703.8000,520.2000L703.8000,91.8000z"/>
  </g>
  <g style="fill:#000000; fill-rule:nonzero">
   <text   style="font-family:'Times','Nimbus Roman'; font-style:normal; font-weight:normal; font-size:612.0000" transform="matrix(0.0420,0.0000,-0.0000,-0.0420,181.3000,562.9200)">Ubiquitin in Water Sphere (Non-Periodic)</text>
   <text   style="font-family:'Times','Nimbus Roman'; font-style:normal; font-weight:normal; font-size:612.0000" transform="matrix(0.0280,0.0000,-0.0000,-0.0280,170.3000,536.4400)">RMSD for each Frame excluding last 5 residues (frame-time 20fs)</text>
  </g>
 </g>
</svg>
