<?xml version="1.0" encoding="ISO-8859-1"?>
<!DOCTYPE svg PUBLIC "-//W3C//DTD SVG 1.0//EN" "http://www.w3.org/TR/2001/REC-SVG-20010904/DTD/svg10.dtd">
<!-- generated by Grace-5.1.25 -->
<svg xml:space="preserve" width="11.0000in" height="8.5000in" viewBox="0.0000 0.0000 792.0000 612.0000">
 <g transform="translate(0,612.0000) scale(1,-1)">
 <desc></desc>
  <g style="fill:#FFFFFF; fill-rule:nonzero">
   <path  d="M0.0000,0.0000L0.0000,612.0000L792.0000,612.0000L792.0000,0.0000z"/>
  </g>
  <g style="fill:none; stroke:#000000; stroke-width:  0.9180; stroke-linecap:butt; stroke-linejoin:miter; stroke-dasharray:none">
   <path d="M91.8000,91.8000L92.0448,100.5846L92.2896,104.4492L92.5344,113.0768L92.7792,116.5152L93.0240,119.7129L93.2688,127.4081L93.5136,130.6656L93.7584,135.3458L94.0032,138.4753
            L94.2480,138.4298L94.4928,137.9823L94.7376,137.1701L94.9824,136.3197L95.2272,136.4356L95.4720,137.6640L95.7168,141.0214L95.9616,143.1944L96.2064,147.8227L96.4512,151.7375
            L96.6960,155.2434L96.9408,156.4339L97.1856,159.1361L97.4304,163.9524L97.6752,167.1434L97.9200,170.4637L98.1648,167.6361L98.4096,167.4741L98.6544,167.3287L98.8992,167.3985
            L99.1440,167.8299L99.3888,168.8727L99.6336,169.0854L99.8784,172.2954L100.1232,172.4761L100.3680,174.7162L100.6128,177.2780L100.8576,180.3141L101.1024,182.7843L101.3472,185.3089
            L101.5920,186.6869L101.8368,186.7538L102.0816,186.8791L102.3264,187.6901L102.5712,189.3502L102.8160,189.5643L103.0608,190.0921L103.3056,191.5555L103.5504,193.7168L103.7952,193.9533
            L104.0400,196.0918L104.2848,198.5440L104.5296,200.8788L104.7744,203.0694L105.0192,205.7442L105.2640,208.6186L105.5088,211.2984L105.7536,214.2232L105.9984,217.1234L106.2432,219.8649
            L106.4880,222.8472L106.7328,225.5694L106.9776,228.3347L107.2224,230.7233L107.4672,232.9387L107.7120,233.9783L107.9568,233.7220L108.2016,233.4291L108.4464,233.2094L108.6912,233.1270
            L108.9360,233.1035L109.1808,233.4035L109.4256,233.9514L109.6704,234.8691L109.9152,236.4527L110.1600,236.6274L110.4048,238.0066L110.6496,239.1589L110.8944,240.4775L111.1392,240.5498
            L111.3840,241.9338L111.6288,245.2383L111.8736,245.0898L112.1184,245.1739L112.3632,247.9006L112.6080,247.1958L112.8528,248.6321L113.0976,249.9814L113.3424,251.5457L113.5872,252.0449
            L113.8320,252.1512L114.0768,252.4388L114.3216,252.9840L114.5664,253.1472L114.8112,253.7932L115.0560,253.8129L115.3008,254.2321L115.5456,254.7093L115.7904,255.3560L116.0352,255.3976
            L116.2800,256.6327L116.5248,256.2388L116.7696,256.8584L117.0144,257.5967L117.2592,258.5139L117.5040,258.7713L117.7488,260.5050L117.9936,261.8125L118.2384,262.0205L118.4832,262.1853
            L118.7280,263.2930L118.9728,264.3877L119.2176,265.7733L119.4624,266.9283L119.7072,267.9055L119.9520,269.4401L120.1968,269.4930L120.4416,270.4906L120.6864,271.8278L120.9312,272.6423
            L121.1760,272.7887L121.4208,273.7166L121.6656,274.8440L121.9104,274.6817L122.1552,274.4769L122.4000,273.8965L122.6448,273.9978L122.8896,273.7158L123.1344,273.2950L123.3792,272.8281
            L123.6240,272.5028L123.8688,272.4913L124.1136,272.3029L124.3584,272.0846L124.6032,271.9357L124.8480,271.8447L125.0928,271.8990L125.3376,272.0029L125.5824,272.1443L125.8272,272.1215
            L126.0720,272.2538L126.3168,272.5054L126.5616,272.5299L126.8064,272.7225L127.0512,273.0942L127.2960,272.9716L127.5408,273.1781L127.7856,273.3717L128.0304,273.8047L128.2752,273.8562
            L128.5200,274.2739L128.7648,274.7489L129.0096,275.6583L129.2544,275.5270L129.4992,276.0262L129.7440,276.5170L129.9888,277.0263L130.2336,277.4664L130.4784,277.8858L130.7232,278.3040
            L130.9680,278.8753L131.2128,278.9337L131.4576,279.9225L131.7024,279.5835L131.9472,279.9624L132.1920,280.4394L132.4368,280.5190L132.6816,281.5121L132.9264,281.5885L133.1712,282.1373
            L133.4160,282.0694L133.6608,282.3690L133.9056,282.3982L134.1504,282.3697L134.3952,282.3696L134.6400,282.3635L134.8848,282.2793L135.1296,282.2546L135.3744,282.1008L135.6192,281.9416
            L135.8640,281.9682L136.1088,281.9635L136.3536,281.9564L136.5984,282.0118L136.8432,282.1708L137.0880,282.1571L137.3328,282.3253L137.5776,282.6277L137.8224,282.5204L138.0672,282.6316
            L138.3120,282.6857L138.5568,282.7723L138.8016,282.8231L139.0464,282.8760L139.2912,282.9609L139.5360,283.1392L139.7808,283.1397L140.0256,283.3146L140.2704,283.6171L140.5152,283.6370
            L140.7600,283.8596L141.0048,284.0600L141.2496,284.2614L141.4944,284.5292L141.7392,284.4871L141.9840,284.6123L142.2288,284.7056L142.4736,284.7978L142.7184,284.9290L142.9632,284.8688
            L143.2080,284.9205L143.4528,285.0654L143.6976,285.0627L143.9424,285.0675L144.1872,285.1710L144.4320,285.3320L144.6768,285.4209L144.9216,285.7944L145.1664,285.6612L145.4112,285.8471
            L145.6560,285.8507L145.9008,285.9371L146.1456,286.2286L146.3904,286.0809L146.6352,286.1330L146.8800,286.1268L147.1248,286.0724L147.3696,286.0712L147.6144,286.0937L147.8592,286.1336
            L148.1040,286.1938L148.3488,286.2605L148.5936,286.3627L148.8384,286.4608L149.0832,286.5398L149.3280,286.7445L149.5728,286.8463L149.8176,286.8887L150.0624,286.9603L150.3072,286.9502
            L150.5520,287.1001L150.7968,287.2705L151.0416,287.4567L151.2864,287.6434L151.5312,287.8484L151.7760,288.0935L152.0208,288.4305L152.2656,288.6685L152.5104,288.9512L152.7552,289.2312
            L153.0000,289.4964L153.2448,289.8353L153.4896,290.1132L153.7344,290.4435L153.9792,290.7486L154.2240,291.4970L154.4688,291.8882L154.7136,291.7291L154.9584,292.1508L155.2032,292.5910
            L155.4480,292.9701L155.6928,293.6863L155.9376,293.6161L156.1824,294.1133L156.4272,294.6390L156.6720,295.1457L156.9168,295.3993L157.1616,296.0333L157.4064,296.3132L157.6512,296.3543
            L157.8960,296.4414L158.1408,296.6524L158.3856,296.5989L158.6304,296.6861L158.8752,296.9089L159.1200,296.8253L159.3648,296.9157L159.6096,297.0493L159.8544,297.1732L160.0992,297.2725
            L160.3440,297.3810L160.5888,297.4755L160.8336,297.5027L161.0784,297.6293L161.3232,297.7150L161.5680,297.7931L161.8128,297.8065L162.0576,297.9120L162.3024,297.9930L162.5472,298.0438
            L162.7920,298.1526L163.0368,298.2534L163.2816,298.3772L163.5264,298.5200L163.7712,298.5956L164.0160,298.7074L164.2608,298.8198L164.5056,299.0266L164.7504,299.1548L164.9952,299.1094
            L165.2400,299.2430L165.4848,299.3987L165.7296,299.4785L165.9744,299.6573L166.2192,299.8663L166.4640,300.2420L166.7088,300.1624L166.9536,300.3871L167.1984,300.6015L167.4432,300.8245
            L167.6880,301.0135L167.9328,301.2421L168.1776,301.4941L168.4224,301.8552L168.6672,301.8156L168.9120,302.5457L169.1568,302.2345L169.4016,302.6753L169.6464,302.6835L169.8912,302.8380
            L170.1360,303.1470L170.3808,303.8208L170.6256,303.5662L170.8704,303.8273L171.1152,304.2597L171.3600,304.2846L171.6048,304.5611L171.8496,304.8565L172.0944,304.9778L172.3392,305.3009
            L172.5840,305.5667L172.8288,305.8354L173.0736,306.0879L173.3184,306.3242L173.5632,306.5959L173.8080,306.6792L174.0528,306.9138L174.2976,307.1464L174.5424,307.3578L174.7872,307.5874
            L175.0320,307.5825L175.2768,307.5555L175.5216,307.5440L175.7664,307.5097L176.0112,307.4420L176.2560,307.3350L176.5008,307.2576L176.7456,307.2159L176.9904,307.1735L177.2352,307.1229
            L177.4800,307.1308L177.7248,307.1021L177.9696,307.0822L178.2144,307.0560L178.4592,307.0424L178.7040,307.0155L178.9488,307.0143L179.1936,307.0264L179.4384,307.0389L179.6832,307.0531
            L179.9280,307.0872L180.1728,307.0949L180.4176,307.1187L180.6624,307.1519L180.9072,307.1996L181.1520,307.2784L181.3968,307.3037L181.6416,307.2973L181.8864,307.3577L182.1312,307.4124
            L182.3760,307.4344L182.6208,307.5282L182.8656,307.5148L183.1104,307.5707L183.3552,307.6342L183.6000,307.8252L183.8448,307.7312L184.0896,307.7954L184.3344,307.8617L184.5792,307.8952
            L184.8240,307.9892L185.0688,308.0886L185.3136,308.1549L185.5584,308.1704L185.8032,308.2144L186.0480,308.2551L186.2928,308.2830L186.5376,308.3597L186.7824,308.3279L187.0272,308.3506
            L187.2720,308.3536L187.5168,308.3492L187.7616,308.3559L188.0064,308.3597L188.2512,308.3619L188.4960,308.3951L188.7408,308.3831L188.9856,308.3974L189.2304,308.4126L189.4752,308.4335
            L189.7200,309.5107L189.9648,311.0323L190.2096,312.3556L190.4544,314.1513L190.6992,314.8098L190.9440,315.0345L191.1888,314.7338L191.4336,313.3131L191.6784,311.8105L191.9232,310.9814
            L192.1680,311.6327L192.4128,313.1939L192.6576,314.4845L192.9024,315.0037L193.1472,313.9553L193.3920,312.9484L193.6368,312.9165L193.8816,312.8876L194.1264,312.5872L194.3712,312.9252
            L194.6160,314.0281L194.8608,315.8483L195.1056,317.8650L195.3504,319.0529L195.5952,319.9930L195.8400,320.9168L196.0848,322.3267L196.3296,323.8445L196.5744,325.9041L196.8192,326.6027
            L197.0640,327.3225L197.3088,327.2260L197.5536,326.8301L197.7984,326.3501L198.0432,325.8213L198.2880,325.4392L198.5328,323.3365L198.7776,322.3124L199.0224,321.8087L199.2672,321.6079
            L199.5120,320.9264L199.7568,319.0522L200.0016,316.6457L200.2464,315.9913L200.4912,316.5652L200.7360,316.8328L200.9808,315.5184L201.2256,314.3342L201.4704,313.4813L201.7152,312.9159
            L201.9600,311.8769L202.2048,310.4561L202.4496,309.5132L202.6944,309.1842L202.9392,308.4205L203.1840,307.7559L203.4288,308.0679L203.6736,309.3074L203.9184,310.9563L204.1632,312.4522
            L204.4080,313.3578L204.6528,313.7697L204.8976,312.8714L205.1424,311.9057L205.3872,311.1218L205.6320,311.7008L205.8768,312.6539L206.1216,313.9445L206.3664,315.4280L206.6112,316.4486
            L206.8560,316.6743L207.1008,316.4157L207.3456,316.5475L207.5904,315.5443L207.8352,315.1370L208.0800,314.2921L208.3248,313.6520L208.5696,311.5809L208.8144,310.2277L209.0592,309.1541
            L209.3040,309.0008L209.5488,309.0974L209.7936,310.5888L210.0384,313.2599L210.2832,315.6564L210.5280,316.2844L210.7728,315.9755L211.0176,315.7409L211.2624,315.8975L211.5072,318.2684
            L211.7520,320.3783L211.9968,322.6524L212.2416,322.8442L212.4864,322.7771L212.7312,322.1654L212.9760,322.5652L213.2208,322.4028L213.4656,322.6843L213.7104,322.8640L213.9552,323.8919
            L214.2000,324.4529L214.4448,323.9791L214.6896,323.4359L214.9344,324.0743L215.1792,322.8521L215.4240,322.1178L215.6688,320.5103L215.9136,318.7065L216.1584,317.5505L216.4032,317.9954
            L216.6480,319.4728L216.8928,319.9563L217.1376,319.9651L217.3824,320.0230L217.6272,320.0754L217.8720,320.2120L218.1168,321.1340L218.3616,322.0773L218.6064,322.6099L218.8512,321.0715
            L219.0960,319.7695L219.3408,318.5116L219.5856,317.5247L219.8304,316.2452L220.0752,316.2812L220.3200,315.1857L220.5648,314.6223L220.8096,312.9917L221.0544,311.7780L221.2992,311.3286
            L221.5440,311.6425L221.7888,313.3474L222.0336,315.8561L222.2784,317.8041L222.5232,317.5285L222.7680,316.0764L223.0128,314.4124L223.2576,313.2186L223.5024,312.8937L223.7472,312.2720
            L223.9920,310.4175L224.2368,308.8033L224.4816,308.7926L224.7264,307.7980L224.9712,308.1393L225.2160,308.3307L225.4608,307.8883L225.7056,307.2913L225.9504,308.1922L226.1952,309.3066
            L226.4400,310.4416L226.6848,311.3505L226.9296,312.6405L227.1744,313.9429L227.4192,314.4467L227.6640,315.3200L227.9088,316.7749L228.1536,318.2046L228.3984,318.9816L228.6432,319.3807
            L228.8880,320.2892L229.1328,320.9110L229.3776,320.7249L229.6224,319.0523L229.8672,318.2467L230.1120,318.0651L230.3568,319.0981L230.6016,320.0985L230.8464,320.2881L231.0912,320.7305
            L231.3360,320.8779L231.5808,320.4840L231.8256,319.8570L232.0704,318.8926L232.3152,318.0146L232.5600,317.2839L232.8048,318.2337L233.0496,319.7099L233.2944,320.8567L233.5392,321.9608
            L233.7840,323.4405L234.0288,325.5309L234.2736,326.7454L234.5184,326.9626L234.7632,327.0768L235.0080,326.9746L235.2528,325.7434L235.4976,325.7159L235.7424,325.1727L235.9872,324.3580
            L236.2320,323.2605L236.4768,322.7421L236.7216,322.9214L236.9664,322.7634L237.2112,323.8167L237.4560,324.1858L237.7008,324.9058L237.9456,325.8888L238.1904,326.1187L238.4352,324.5458
            L238.6800,322.9336L238.9248,322.5498L239.1696,322.7989L239.4144,323.0655L239.6592,323.2455L239.9040,324.0449L240.1488,324.5164L240.3936,325.7844L240.6384,326.4116L240.8832,327.4432
            L241.1280,329.0883L241.3728,331.8457L241.6176,334.3470L241.8624,334.8726L242.1072,335.0426L242.3520,335.1540L242.5968,336.7254L242.8416,338.5411L243.0864,339.2889L243.3312,338.0839
            L243.5760,337.1755L243.8208,337.5086L244.0656,338.4409L244.3104,338.8464L244.5552,338.6712L244.8000,336.8448L245.0448,335.8799L245.2896,335.5260L245.5344,336.5028L245.7792,336.7298
            L246.0240,337.1265L246.2688,337.6938L246.5136,338.0649L246.7584,336.9871L247.0032,336.1459L247.2480,336.1246L247.4928,335.8531L247.7376,335.7664L247.9824,335.4018L248.2272,335.3983
            L248.4720,336.1172L248.7168,337.0125L248.9616,338.8315L249.2064,340.0253L249.4512,340.5566L249.6960,340.3548L249.9408,339.8669L250.1856,340.8928L250.4304,340.5015L250.6752,340.1844
            L250.9200,339.9750L251.1648,340.2556L251.4096,339.4521L251.6544,339.2660L251.8992,339.0129L252.1440,338.3599L252.3888,337.2092L252.6336,336.2404L252.8784,335.4556L253.1232,333.9389
            L253.3680,331.4650L253.6128,328.2775L253.8576,326.0824L254.1024,324.0925L254.3472,322.2864L254.5920,321.0616L254.8368,320.8384L255.0816,320.9144L255.3264,321.1076L255.5712,322.5146
            L255.8160,323.1281L256.0608,322.2026L256.3056,321.2922L256.5504,320.0235L256.7952,320.0447L257.0400,319.6676L257.2848,320.9839L257.5296,323.1773L257.7744,325.3445L258.0192,324.9298
            L258.2640,323.3225L258.5088,321.1158L258.7536,319.3902L258.9984,318.3942L259.2432,317.8876L259.4880,318.2668L259.7328,320.2008L259.9776,321.6659L260.2224,322.4246L260.4672,323.1200
            L260.7120,322.8681L260.9568,323.1381L261.2016,325.1977L261.4464,326.3240L261.6912,326.3203L261.9360,325.9599L262.1808,325.1118L262.4256,325.1558L262.6704,324.7108L262.9152,325.1120
            L263.1600,326.0979L263.4048,326.9252L263.6496,327.3373L263.8944,327.7464L264.1392,329.1628L264.3840,329.5616L264.6288,329.4284L264.8736,329.1926L265.1184,328.8305L265.3632,327.8551
            L265.6080,328.7198L265.8528,328.5742L266.0976,327.6962L266.3424,326.3972L266.5872,326.2795L266.8320,326.3684L267.0768,326.7486L267.3216,326.2287L267.5664,326.3406L267.8112,327.3124
            L268.0560,328.6965L268.3008,330.2034L268.5456,330.7431L268.7904,331.4308L269.0352,332.4888L269.2800,332.0742L269.5248,330.5942L269.7696,329.0502L270.0144,329.1326L270.2592,330.5745
            L270.5040,331.2460L270.7488,330.5140L270.9936,329.2266L271.2384,328.8225L271.4832,329.2172L271.7280,330.3644L271.9728,331.0570L272.2176,330.0490L272.4624,329.5015L272.7072,328.1762
            L272.9520,326.9483L273.1968,326.4391L273.4416,325.7313L273.6864,324.6713L273.9312,324.3381L274.1760,323.7841L274.4208,324.1277L274.6656,325.2628L274.9104,326.9950L275.1552,327.1745
            L275.4000,326.7033L275.6448,326.3716L275.8896,326.5811L276.1344,326.8081L276.3792,325.9463L276.6240,325.3385L276.8688,324.1605L277.1136,322.6165L277.3584,321.1653L277.6032,320.3087
            L277.8480,318.0860L278.0928,315.7017L278.3376,314.7898L278.5824,315.1598L278.8272,316.1027L279.0720,318.1803L279.3168,319.7661L279.5616,320.4458L279.8064,320.7223L280.0512,322.3538
            L280.2960,322.8847L280.5408,323.1239L280.7856,322.6556L281.0304,323.5357L281.2752,325.1091L281.5200,326.3402L281.7648,326.5606L282.0096,326.3831L282.2544,325.6261L282.4992,325.9815
            L282.7440,326.6726L282.9888,327.9656L283.2336,328.9704L283.4784,329.0671L283.7232,328.3046L283.9680,327.3446L284.2128,326.2418L284.4576,327.6820L284.7024,330.1232L284.9472,331.9439
            L285.1920,333.3592L285.4368,334.0403L285.6816,333.4268L285.9264,332.1352L286.1712,330.8248L286.4160,330.6179L286.6608,330.5435L286.9056,329.9893L287.1504,328.3714L287.3952,326.5227
            L287.6400,326.7385L287.8848,326.8976L288.1296,326.9864L288.3744,325.0452L288.6192,323.0793L288.8640,322.4102L289.1088,322.4668L289.3536,322.5497L289.5984,322.1931L289.8432,323.0684
            L290.0880,324.0481L290.3328,325.4399L290.5776,328.2224L290.8224,330.6689L291.0672,331.9053L291.3120,332.7709L291.5568,332.7843L291.8016,333.0778L292.0464,333.3372L292.2912,333.1112
            L292.5360,333.1596L292.7808,332.6725L293.0256,331.3129L293.2704,331.0416L293.5152,329.4939L293.7600,329.5684L294.0048,331.2982L294.2496,333.3555L294.4944,334.3653L294.7392,333.3892
            L294.9840,332.9144L295.2288,332.3930L295.4736,331.8873L295.7184,330.5433L295.9632,328.9496L296.2080,326.5956L296.4528,325.5139L296.6976,324.4155L296.9424,322.4978L297.1872,320.5632
            L297.4320,319.8702L297.6768,319.0997L297.9216,317.7005L298.1664,315.7404L298.4112,313.8544L298.6560,313.6049L298.9008,314.0109L299.1456,314.2270L299.3904,314.1781L299.6352,314.0413
            L299.8800,313.2814L300.1248,312.8388L300.3696,312.5777L300.6144,312.6857L300.8592,313.6253L301.1040,314.1236L301.3488,315.5767L301.5936,316.4884L301.8384,318.0310L302.0832,319.9645
            L302.3280,320.6468L302.5728,321.1027L302.8176,321.1214L303.0624,321.2046L303.3072,320.4407L303.5520,319.4788L303.7968,318.5316L304.0416,317.9080L304.2864,315.3408L304.5312,312.5125
            L304.7760,309.4826L305.0208,307.5575L305.2656,307.5251L305.5104,306.8483L305.7552,306.0247L306.0000,305.3755L306.2448,305.2110L306.4896,304.9389L306.7344,303.5784L306.9792,304.9586
            L307.2240,307.3207L307.4688,309.3569L307.7136,311.7733L307.9584,314.6034L308.2032,316.6721L308.4480,318.6581L308.6928,318.3133L308.9376,317.8560L309.1824,317.3851L309.4272,316.9747
            L309.6720,317.3114L309.9168,317.4114L310.1616,318.7546L310.4064,318.9954L310.6512,318.8628L310.8960,321.4138L311.1408,323.0841L311.3856,323.7959L311.6304,323.0713L311.8752,322.6828
            L312.1200,323.2140L312.3648,323.3619L312.6096,322.5875L312.8544,320.8115L313.0992,319.3832L313.3440,319.1002L313.5888,319.4162L313.8336,319.2050L314.0784,318.4644L314.3232,317.5956
            L314.5680,315.5901L314.8128,314.2618L315.0576,314.5209L315.3024,316.2993L315.5472,317.1619L315.7920,315.4571L316.0368,313.1482L316.2816,310.8649L316.5264,310.1033L316.7712,309.2952
            L317.0160,308.4367L317.2608,308.5791L317.5056,307.7564L317.7504,307.3098L317.9952,306.4424L318.2400,306.3565L318.4848,306.6215L318.7296,308.1079L318.9744,309.5130L319.2192,310.6205
            L319.4640,310.7975L319.7088,311.3080L319.9536,311.9374L320.1984,312.3269L320.4432,312.0477L320.6880,311.0043L320.9328,309.7896L321.1776,309.7019L321.4224,310.5124L321.6672,311.7153
            L321.9120,311.6197L322.1568,312.1148L322.4016,312.7912L322.6464,313.5050L322.8912,313.2713L323.1360,313.4068L323.3808,313.4604L323.6256,314.6340L323.8704,316.3020L324.1152,318.0404
            L324.3600,319.6222L324.6048,319.9007L324.8496,320.5049L325.0944,320.8260L325.3392,321.0779L325.5840,322.5209L325.8288,325.3596L326.0736,328.8610L326.3184,332.3113L326.5632,334.2507
            L326.8080,335.7745L327.0528,335.5652L327.2976,336.5512L327.5424,336.7123L327.7872,337.4269L328.0320,338.1701L328.2768,340.2131L328.5216,341.1364L328.7664,341.9909L329.0112,342.7118
            L329.2560,342.5120L329.5008,341.6392L329.7456,340.8337L329.9904,340.2247L330.2352,338.8093L330.4800,338.4571L330.7248,338.2076L330.9696,337.8705L331.2144,336.6329L331.4592,335.2731
            L331.7040,334.5077L331.9488,334.0619L332.1936,333.0838L332.4384,332.3427L332.6832,332.1979L332.9280,333.3713L333.1728,334.5262L333.4176,335.8029L333.6624,336.9134L333.9072,337.1086
            L334.1520,336.3692L334.3968,334.6543L334.6416,332.9559L334.8864,332.8949L335.1312,332.7025L335.3760,332.0896L335.6208,331.1734L335.8656,329.3934L336.1104,327.0809L336.3552,324.5681
            L336.6000,322.2127L336.8448,320.1155L337.0896,318.9588L337.3344,318.5092L337.5792,318.4516L337.8240,320.2336L338.0688,323.1230L338.3136,324.4973L338.5584,324.7120L338.8032,324.7780
            L339.0480,324.6022L339.2928,325.8198L339.5376,327.4252L339.7824,329.0521L340.0272,331.1859L340.2720,332.6664L340.5168,333.7679L340.7616,335.1097L341.0064,337.5237L341.2512,340.4273
            L341.4960,342.0494L341.7408,343.4327L341.9856,344.3513L342.2304,344.3924L342.4752,343.6818L342.7200,343.9958L342.9648,345.1303L343.2096,347.7121L343.4544,350.3156L343.6992,352.3723
            L343.9440,353.3207L344.1888,354.3975L344.4336,355.7102L344.6784,356.6014L344.9232,355.8057L345.1680,354.2909L345.4128,353.4276L345.6576,353.3539L345.9024,354.6540L346.1472,356.8180
            L346.3920,358.2129L346.6368,358.9392L346.8816,359.4753L347.1264,359.8087L347.3712,360.6169L347.6160,361.3592L347.8608,361.3544L348.1056,361.0144L348.3504,362.2210L348.5952,364.7470
            L348.8400,367.4935L349.0848,370.1793L349.3296,372.7768L349.5744,373.9892L349.8192,374.2217L350.0640,374.9713L350.3088,376.2710L350.5536,378.3468L350.7984,380.7021L351.0432,382.8393
            L351.2880,385.5123L351.5328,387.4484L351.7776,388.5536L352.0224,390.4221L352.2672,391.9667L352.5120,395.1005L352.7568,399.3534L353.0016,403.4023L353.2464,406.0850L353.4912,408.9408
            L353.7360,410.6542L353.9808,411.6162L354.2256,412.0321L354.4704,412.9044L354.7152,413.8493L354.9600,413.8155L355.2048,412.9218L355.4496,411.8698L355.6944,410.7543L355.9392,410.6888
            L356.1840,410.7948L356.4288,410.2794L356.6736,408.8693L356.9184,407.2745L357.1632,405.2884L357.4080,403.0423L357.6528,401.5386L357.8976,400.2514L358.1424,399.0763L358.3872,398.0673
            L358.6320,395.7849L358.8768,393.9974L359.1216,392.3097L359.3664,391.1358L359.6112,390.0431L359.8560,389.4540L360.1008,389.2378L360.3456,389.5019L360.5904,389.2850L360.8352,388.8647
            L361.0800,388.3268L361.3248,388.6081L361.5696,389.7209L361.8144,389.9746L362.0592,389.0244L362.3040,387.6969L362.5488,386.2187L362.7936,384.7440L363.0384,383.8368L363.2832,382.2596
            L363.5280,380.3872L363.7728,377.9215L364.0176,375.6341L364.2624,373.2835L364.5072,371.7196L364.7520,371.2881L364.9968,371.5780L365.2416,371.7856L365.4864,370.0681L365.7312,368.0902
            L365.9760,365.7773L366.2208,364.0585L366.4656,362.3045L366.7104,361.6577L366.9552,361.8769L367.2000,361.9857L367.4448,361.5420L367.6896,359.7096L367.9344,359.3557L368.1792,360.4501
            L368.4240,361.6247L368.6688,362.4637L368.9136,362.5010L369.1584,363.0122L369.4032,364.8514L369.6480,366.3379L369.8928,366.9904L370.1376,368.3821L370.3824,369.6610L370.6272,370.0814
            L370.8720,369.2841L371.1168,368.0564L371.3616,366.7506L371.6064,366.6411L371.8512,367.7746L372.0960,368.4558L372.3408,369.1709L372.5856,369.4838L372.8304,369.8365L373.0752,370.5728
            L373.3200,370.5418L373.5648,369.9005L373.8096,369.4348L374.0544,369.2125L374.2992,368.7593L374.5440,367.9460L374.7888,366.2371L375.0336,364.8729L375.2784,363.9378L375.5232,364.3792
            L375.7680,365.7591L376.0128,365.9065L376.2576,365.5611L376.5024,364.2450L376.7472,363.4618L376.9920,362.3527L377.2368,360.8436L377.4816,359.1470L377.7264,357.6072L377.9712,356.2779
            L378.2160,355.8045L378.4608,355.8537L378.7056,356.3756L378.9504,357.5254L379.1952,357.7224L379.4400,356.4613L379.6848,352.7157L379.9296,348.1613L380.1744,344.6081L380.4192,341.4627
            L380.6640,338.1484L380.9088,335.8933L381.1536,333.8833L381.3984,332.6269L381.6432,331.8601L381.8880,329.2104L382.1328,325.7538L382.3776,322.1090L382.6224,319.4659L382.8672,317.3875
            L383.1120,315.4834L383.3568,315.1225L383.6016,314.4085L383.8464,314.9889L384.0912,315.2355L384.3360,316.4497L384.5808,316.4549L384.8256,317.5959L385.0704,319.0784L385.3152,320.3617
            L385.5600,320.2613L385.8048,320.5271L386.0496,321.0857L386.2944,321.7051L386.5392,321.5521L386.7840,321.7491L387.0288,322.4167L387.2736,323.0871L387.5184,323.9268L387.7632,323.5277
            L388.0080,322.2566L388.2528,321.9259L388.4976,323.1027L388.7424,325.6099L388.9872,328.0466L389.2320,330.5179L389.4768,330.5666L389.7216,331.1595L389.9664,332.1862L390.2112,334.3947
            L390.4560,336.6576L390.7008,338.1167L390.9456,339.5492L391.1904,339.8312L391.4352,340.1080L391.6800,340.1389L391.9248,342.5921L392.1696,343.9764L392.4144,345.2637L392.6592,345.9158
            L392.9040,347.6771L393.1488,348.7724L393.3936,350.3407L393.6384,352.7384L393.8832,353.9876L394.1280,355.0136L394.3728,356.1195L394.6176,356.3745L394.8624,355.9594L395.1072,355.2396
            L395.3520,355.3934L395.5968,356.2087L395.8416,356.6655L396.0864,357.4000L396.3312,358.9870L396.5760,359.6129L396.8208,359.3458L397.0656,359.3952L397.3104,360.0656L397.5552,360.9088
            L397.8000,362.1782L398.0448,362.6062L398.2896,363.5507L398.5344,364.4137L398.7792,365.9132L399.0240,367.4223L399.2688,369.1229L399.5136,369.4877L399.7584,368.4178L400.0032,367.5344
            L400.2480,366.9399L400.4928,365.5244L400.7376,362.8832L400.9824,360.8096L401.2272,357.8146L401.4720,354.7686L401.7168,351.1823L401.9616,347.3420L402.2064,345.3736L402.4512,344.0881
            L402.6960,344.6114L402.9408,344.4663L403.1856,345.0924L403.4304,345.3069L403.6752,345.9291L403.9200,344.4051L404.1648,343.7985L404.4096,342.3793L404.6544,341.5664L404.8992,340.7827
            L405.1440,341.3264L405.3888,342.4667L405.6336,343.2127L405.8784,343.6950L406.1232,344.1826L406.3680,346.5991L406.6128,349.9715L406.8576,353.2834L407.1024,355.9893L407.3472,357.2409
            L407.5920,357.2322L407.8368,356.3553L408.0816,356.1065L408.3264,355.9198L408.5712,356.2782L408.8160,356.9491L409.0608,357.1902L409.3056,355.6784L409.5504,353.7763L409.7952,352.1230
            L410.0400,351.4140L410.2848,350.2497L410.5296,348.4378L410.7744,347.1870L411.0192,347.4091L411.2640,348.7530L411.5088,348.1708L411.7536,346.2614L411.9984,344.6945L412.2432,343.7676
            L412.4880,343.8378L412.7328,343.8928L412.9776,343.1525L413.2224,342.0500L413.4672,341.4870L413.7120,342.0812L413.9568,342.8107L414.2016,342.7339L414.4464,341.6807L414.6912,340.4744
            L414.9360,339.4700L415.1808,340.5225L415.4256,341.3124L415.6704,340.9563L415.9152,340.6940L416.1600,340.4204L416.4048,341.8328L416.6496,342.9706L416.8944,345.6027L417.1392,348.0983
            L417.3840,350.4082L417.6288,352.8311L417.8736,354.7974L418.1184,355.8100L418.3632,356.1291L418.6080,357.0235L418.8528,358.5704L419.0976,360.6186L419.3424,363.7993L419.5872,366.9680
            L419.8320,368.6355L420.0768,369.6946L420.3216,370.0513L420.5664,370.0281L420.8112,370.4413L421.0560,370.1331L421.3008,368.6201L421.5456,367.5953L421.7904,366.0013L422.0352,365.3128
            L422.2800,363.9819L422.5248,362.6084L422.7696,359.6261L423.0144,357.2426L423.2592,356.4652L423.5040,356.3702L423.7488,355.5058L423.9936,355.3676L424.2384,354.4723L424.4832,353.7784
            L424.7280,352.8112L424.9728,350.7114L425.2176,350.5075L425.4624,351.0670L425.7072,352.2526L425.9520,352.7746L426.1968,354.0860L426.4416,354.2176L426.6864,352.7510L426.9312,351.6004
            L427.1760,352.1097L427.4208,355.0413L427.6656,357.5773L427.9104,359.5997L428.1552,360.4003L428.4000,359.4918L428.6448,359.1958L428.8896,359.8076L429.1344,362.7928L429.3792,365.3239
            L429.6240,365.8895L429.8688,364.9190L430.1136,362.9577L430.3584,361.3297L430.6032,359.9966L430.8480,359.1614L431.0928,359.4314L431.3376,359.7090L431.5824,360.6932L431.8272,362.3092
            L432.0720,362.9008L432.3168,363.2684L432.5616,362.6669L432.8064,362.3687L433.0512,361.7206L433.2960,361.3106L433.5408,361.4668L433.7856,361.7048L434.0304,363.9553L434.2752,365.8759
            L434.5200,367.5453L434.7648,367.7262L435.0096,367.8581L435.2544,368.3076L435.4992,367.8661L435.7440,367.8952L435.9888,367.8881L436.2336,368.2151L436.4784,367.2200L436.7232,365.9465
            L436.9680,365.3561L437.2128,364.7453L437.4576,364.2020L437.7024,365.2393L437.9472,366.2261L438.1920,366.9234L438.4368,367.0911L438.6816,368.7655L438.9264,370.0495L439.1712,370.8465
            L439.4160,371.4813L439.6608,372.2279L439.9056,371.9350L440.1504,372.3196L440.3952,373.1716L440.6400,374.5042L440.8848,375.5490L441.1296,375.3273L441.3744,374.7468L441.6192,373.9277
            L441.8640,372.9745L442.1088,371.6645L442.3536,370.1386L442.5984,367.5464L442.8432,364.5803L443.0880,361.2637L443.3328,357.9893L443.5776,355.5399L443.8224,353.8056L444.0672,353.1589
            L444.3120,353.3437L444.5568,353.1095L444.8016,352.2946L445.0464,351.9100L445.2912,351.1585L445.5360,350.9319L445.7808,352.1391L446.0256,353.6488L446.2704,355.1403L446.5152,355.1263
            L446.7600,354.7962L447.0048,355.9559L447.2496,356.1949L447.4944,357.7524L447.7392,358.0655L447.9840,356.7455L448.2288,355.3205L448.4736,354.4492L448.7184,354.7673L448.9632,355.6234
            L449.2080,357.3574L449.4528,359.4240L449.6976,361.4221L449.9424,361.7091L450.1872,361.2039L450.4320,359.9911L450.6768,359.3091L450.9216,359.3079L451.1664,359.0111L451.4112,359.9539
            L451.6560,358.8830L451.9008,357.2219L452.1456,353.8528L452.3904,350.4474L452.6352,348.4447L452.8800,347.2731L453.1248,346.7329L453.3696,345.9640L453.6144,345.6677L453.8592,344.8594
            L454.1040,342.7676L454.3488,340.1216L454.5936,338.2616L454.8384,337.0333L455.0832,338.0887L455.3280,338.5359L455.5728,340.2304L455.8176,342.1685L456.0624,342.6969L456.3072,341.2392
            L456.5520,340.2638L456.7968,339.8552L457.0416,340.1385L457.2864,340.6944L457.5312,341.0670L457.7760,341.6169L458.0208,340.9104L458.2656,340.0992L458.5104,338.1420L458.7552,337.4700
            L459.0000,337.1334L459.2448,337.0311L459.4896,336.7013L459.7344,336.9866L459.9792,338.1375L460.2240,338.8050L460.4688,340.8500L460.7136,341.4685L460.9584,342.6432L461.2032,343.0445
            L461.4480,343.0573L461.6928,345.0692L461.9376,348.0305L462.1824,351.2429L462.4272,352.5878L462.6720,352.8269L462.9168,352.9167L463.1616,353.8367L463.4064,356.0328L463.6512,358.2429
            L463.8960,359.1242L464.1408,359.6678L464.3856,359.2253L464.6304,358.0020L464.8752,355.9130L465.1200,352.8008L465.3648,350.0374L465.6096,349.4746L465.8544,348.8832L466.0992,347.9047
            L466.3440,346.9877L466.5888,344.6389L466.8336,342.4585L467.0784,340.6270L467.3232,338.4317L467.5680,336.5364L467.8128,334.7382L468.0576,333.0233L468.3024,331.4353L468.5472,331.4869
            L468.7920,330.9570L469.0368,330.7490L469.2816,329.3438L469.5264,326.5595L469.7712,325.9289L470.0160,324.9588L470.2608,325.5770L470.5056,326.8931L470.7504,327.1498L470.9952,326.7477
            L471.2400,325.4712L471.4848,325.2965L471.7296,325.5153L471.9744,325.6149L472.2192,324.1611L472.4640,320.1801L472.7088,316.2417L472.9536,313.3938L473.1984,312.5811L473.4432,311.7134
            L473.6880,310.1383L473.9328,311.4153L474.1776,310.6294L474.4224,310.7968L474.6672,311.5249L474.9120,311.3375L475.1568,313.2903L475.4016,314.4912L475.6464,314.6733L475.8912,314.1688
            L476.1360,314.5810L476.3808,314.1351L476.6256,315.4611L476.8704,315.8797L477.1152,316.8587L477.3600,317.0332L477.6048,317.9923L477.8496,321.2305L478.0944,322.9964L478.3392,324.6996
            L478.5840,324.0717L478.8288,323.7712L479.0736,322.9129L479.3184,321.3683L479.5632,319.9457L479.8080,317.8281L480.0528,316.7908L480.2976,316.6079L480.5424,316.9212L480.7872,317.4664
            L481.0320,319.3159L481.2768,320.7079L481.5216,322.4764L481.7664,323.1865L482.0112,323.7703L482.2560,324.8904L482.5008,326.0244L482.7456,326.7390L482.9904,325.9358L483.2352,324.9303
            L483.4800,323.9602L483.7248,323.7516L483.9696,323.5530L484.2144,323.8444L484.4592,324.4702L484.7040,325.7001L484.9488,327.5873L485.1936,329.6473L485.4384,331.7398L485.6832,332.9895
            L485.9280,332.7707L486.1728,333.2962L486.4176,333.7280L486.6624,334.4382L486.9072,333.9937L487.1520,334.2952L487.3968,334.6041L487.6416,335.1703L487.8864,336.2259L488.1312,337.0576
            L488.3760,338.4169L488.6208,339.0328L488.8656,340.5234L489.1104,341.8608L489.3552,344.2615L489.6000,346.0063L489.8448,346.1297L490.0896,345.8421L490.3344,344.0300L490.5792,343.5204
            L490.8240,343.1638L491.0688,341.9752L491.3136,341.0087L491.5584,340.2160L491.8032,339.2672L492.0480,336.8793L492.2928,335.6929L492.5376,333.5750L492.7824,331.9392L493.0272,330.1749
            L493.2720,330.8211L493.5168,331.8573L493.7616,332.9356L494.0064,333.6833L494.2512,334.3012L494.4960,333.9653L494.7408,332.0298L494.9856,329.1050L495.2304,326.4453L495.4752,324.5153
            L495.7200,323.8011L495.9648,323.4837L496.2096,322.3298L496.4544,319.3009L496.6992,317.3485L496.9440,315.3740L497.1888,314.4845L497.4336,313.7917L497.6784,312.9195L497.9232,311.8064
            L498.1680,311.0841L498.4128,311.6346L498.6576,313.9237L498.9024,316.6358L499.1472,319.1783L499.3920,320.7157L499.6368,321.0633L499.8816,321.7048L500.1264,324.2141L500.3712,327.4706
            L500.6160,329.4013L500.8608,331.0854L501.1056,331.7346L501.3504,331.4758L501.5952,331.4673L501.8400,332.2542L502.0848,333.6768L502.3296,333.3070L502.5744,333.3409L502.8192,333.4949
            L503.0640,333.0301L503.3088,333.9191L503.5536,335.5194L503.7984,336.2689L504.0432,337.8822L504.2880,339.0067L504.5328,341.0689L504.7776,342.6603L505.0224,344.3848L505.2672,345.9622
            L505.5120,344.9275L505.7568,343.7787L506.0016,341.8453L506.2464,342.2037L506.4912,343.1481L506.7360,343.1733L506.9808,342.0019L507.2256,340.0207L507.4704,339.2004L507.7152,338.8490
            L507.9600,338.6402L508.2048,337.8853L508.4496,337.6132L508.6944,337.8787L508.9392,337.6881L509.1840,336.7181L509.4288,335.4273L509.6736,333.7460L509.9184,333.7948L510.1632,334.4095
            L510.4080,335.3477L510.6528,336.0745L510.8976,335.1548L511.1424,333.7875L511.3872,333.7227L511.6320,334.1879L511.8768,334.0285L512.1216,334.1901L512.3664,335.1575L512.6112,335.0443
            L512.8560,334.0670L513.1008,331.8754L513.3456,330.8838L513.5904,330.5553L513.8352,329.0890L514.0800,328.8168L514.3248,328.8442L514.5696,328.2608L514.8144,327.9746L515.0592,328.5083
            L515.3040,328.7360L515.5488,328.6446L515.7936,328.0898L516.0384,326.3921L516.2832,325.2299L516.5280,324.7172L516.7728,324.6570L517.0176,324.4697L517.2624,325.0736L517.5072,325.9491
            L517.7520,325.3002L517.9968,324.2703L518.2416,323.0978L518.4864,323.5498L518.7312,323.4083L518.9760,322.4963L519.2208,321.0022L519.4656,319.8545L519.7104,318.4987L519.9552,319.3533
            L520.2000,320.1407L520.4448,320.4448L520.6896,318.7312L520.9344,317.3851L521.1792,315.2466L521.4240,313.7974L521.6688,313.5864L521.9136,315.0709L522.1584,317.9822L522.4032,319.2109
            L522.6480,321.0493L522.8928,321.7868L523.1376,322.0649L523.3824,320.9621L523.6272,320.4002L523.8720,319.5685L524.1168,319.6124L524.3616,320.8270L524.6064,320.5280L524.8512,321.0355
            L525.0960,320.1634L525.3408,320.8273L525.5856,320.8653L525.8304,322.1103L526.0752,322.4579L526.3200,324.0253L526.5648,324.7353L526.8096,326.1346L527.0544,326.6194L527.2992,327.0004
            L527.5440,327.6276L527.7888,326.8969L528.0336,325.6468L528.2784,323.4099L528.5232,321.9219L528.7680,320.7956L529.0128,319.9531L529.2576,320.4407L529.5024,320.5210L529.7472,320.7888
            L529.9920,318.9208L530.2368,317.1372L530.4816,314.4838L530.7264,312.5155L530.9712,310.5069L531.2160,309.7249L531.4608,309.3212L531.7056,308.0626L531.9504,307.4527L532.1952,304.9590
            L532.4400,302.6049L532.6848,300.2689L532.9296,300.6059L533.1744,301.0717L533.4192,301.4016L533.6640,300.5973L533.9088,299.5600L534.1536,300.3980L534.3984,301.6264L534.6432,303.6672
            L534.8880,305.0188L535.1328,306.0057L535.3776,305.6620L535.6224,306.1467L535.8672,307.7712L536.1120,309.0948L536.3568,309.3215L536.6016,307.6714L536.8464,306.8856L537.0912,307.3478
            L537.3360,308.6729L537.5808,308.3631L537.8256,306.3416L538.0704,306.1997L538.3152,306.4059L538.5600,307.4849L538.8048,308.8620L539.0496,310.2809L539.2944,309.6795L539.5392,309.5625
            L539.7840,308.9057L540.0288,308.7913L540.2736,310.3489L540.5184,311.8681L540.7632,315.3119L541.0080,316.7217L541.2528,318.6279L541.4976,320.4493L541.7424,321.7841L541.9872,322.8742
            L542.2320,322.1741L542.4768,321.9056L542.7216,321.2351L542.9664,320.4033L543.2112,318.5273L543.4560,314.9906L543.7008,312.4295L543.9456,312.5229L544.1904,313.3853L544.4352,313.9738
            L544.6800,314.9500L544.9248,313.8185L545.1696,312.9022L545.4144,312.0261L545.6592,312.7727L545.9040,313.2102L546.1488,313.6566L546.3936,316.0712L546.6384,317.3044L546.8832,317.8284
            L547.1280,318.7649L547.3728,320.7453L547.6176,320.5509L547.8624,319.4614L548.1072,318.7029L548.3520,319.0183L548.5968,318.3453L548.8416,317.2622L549.0864,317.0002L549.3312,316.0961
            L549.5760,315.7249L549.8208,315.3030L550.0656,314.4026L550.3104,314.7727L550.5552,315.1357L550.8000,315.1307L551.0448,313.5681L551.2896,312.0655L551.5344,309.9864L551.7792,308.0749
            L552.0240,306.7919L552.2688,306.0881L552.5136,306.7278L552.7584,307.0576L553.0032,306.2743L553.2480,305.6533L553.4928,304.1094L553.7376,303.0963L553.9824,302.6481L554.2272,303.6772
            L554.4720,303.5191L554.7168,303.5662L554.9616,303.8539L555.2064,303.5933L555.4512,303.0416L555.6960,303.1679L555.9408,303.4921L556.1856,302.2486L556.4304,300.4498L556.6752,298.0512
            L556.9200,296.2983L557.1648,295.0277L557.4096,295.2499L557.6544,297.3890L557.8992,299.5448L558.1440,301.2771L558.3888,301.7717L558.6336,303.0622L558.8784,303.9835L559.1232,306.0070
            L559.3680,307.6409L559.6128,308.6001L559.8576,309.8070L560.1024,310.1368L560.3472,310.3359L560.5920,310.5080L560.8368,311.8627L561.0816,311.4160L561.3264,310.3446L561.5712,308.6058
            L561.8160,306.8496L562.0608,306.5179L562.3056,306.9033L562.5504,307.1274L562.7952,308.0582L563.0400,308.6151L563.2848,308.6799L563.5296,308.5755L563.7744,308.3421L564.0192,308.3824
            L564.2640,308.1691L564.5088,309.0196L564.7536,309.4544L564.9984,309.5025L565.2432,309.9502L565.4880,310.3376L565.7328,309.9833L565.9776,309.8422L566.2224,309.4917L566.4672,308.2978
            L566.7120,307.5256L566.9568,308.0550L567.2016,307.5782L567.4464,307.8341L567.6912,307.2227L567.9360,307.1473L568.1808,306.7168L568.4256,306.6792L568.6704,307.3684L568.9152,308.4673
            L569.1600,310.3712L569.4048,311.1127L569.6496,312.3833L569.8944,313.0750L570.1392,315.6926L570.3840,316.9402L570.6288,317.4156L570.8736,318.3064L571.1184,320.4538L571.3632,323.0235
            L571.6080,325.0127L571.8528,327.0695L572.0976,329.0209L572.3424,330.0030L572.5872,330.2454L572.8320,329.8167L573.0768,330.3693L573.3216,331.0751L573.5664,331.2814L573.8112,332.1225
            L574.0560,332.7216L574.3008,333.3818L574.5456,333.0195L574.7904,334.5416L575.0352,335.0455L575.2800,335.7810L575.5248,336.1036L575.7696,335.9462L576.0144,336.0797L576.2592,335.3416
            L576.5040,335.6053L576.7488,335.6447L576.9936,335.8004L577.2384,336.6519L577.4832,336.8967L577.7280,336.6507L577.9728,335.8482L578.2176,337.7147L578.4624,339.3337L578.7072,340.2194
            L578.9520,340.2470L579.1968,340.1783L579.4416,340.7524L579.6864,341.8782L579.9312,343.5967L580.1760,344.4757L580.4208,345.7029L580.6656,345.9673L580.9104,347.4402L581.1552,348.2253
            L581.4000,347.0540L581.6448,346.6809L581.8896,346.3726L582.1344,345.1180L582.3792,343.0541L582.6240,341.3938L582.8688,340.6160L583.1136,340.8560L583.3584,340.4877L583.6032,338.7537
            L583.8480,338.0945L584.0928,336.3424L584.3376,335.4028L584.5824,334.9571L584.8272,336.2372L585.0720,337.4131L585.3168,336.9463L585.5616,335.2285L585.8064,333.3201L586.0512,331.1255
            L586.2960,330.2183L586.5408,330.1013L586.7856,329.5530L587.0304,329.0516L587.2752,327.5714L587.5200,326.0035L587.7648,324.1310L588.0096,322.1146L588.2544,321.4649L588.4992,321.6880
            L588.7440,322.6377L588.9888,322.1105L589.2336,320.4716L589.4784,319.5883L589.7232,319.8468L589.9680,319.8777L590.2128,318.0358L590.4576,316.7748L590.7024,315.1303L590.9472,314.5905
            L591.1920,313.1533L591.4368,312.7134L591.6816,313.9201L591.9264,314.9926L592.1712,314.5294L592.4160,312.0499L592.6608,309.7710L592.9056,307.1769L593.1504,308.0781L593.3952,309.0710
            L593.6400,309.5848L593.8848,308.2841L594.1296,307.7945L594.3744,307.9774L594.6192,307.3147L594.8640,307.7680L595.1088,307.2857L595.3536,308.5728L595.5984,309.6588L595.8432,310.7681
            L596.0880,310.5329L596.3328,309.9059L596.5776,309.8085L596.8224,309.2266L597.0672,309.8885L597.3120,311.0350L597.5568,312.4383L597.8016,313.1612L598.0464,313.2739L598.2912,314.4272
            L598.5360,315.0639L598.7808,316.6464L599.0256,316.7308L599.2704,317.4084L599.5152,318.2115L599.7600,318.1100L600.0048,318.4797L600.2496,318.8995L600.4944,320.4522L600.7392,321.0426
            L600.9840,321.2196L601.2288,320.5134L601.4736,319.8494L601.7184,319.5052L601.9632,319.5891L602.2080,319.6450L602.4528,319.9126L602.6976,320.1353L602.9424,320.9251L603.1872,321.2378
            L603.4320,320.2552L603.6768,319.0813L603.9216,319.0431L604.1664,319.1482L604.4112,322.3861L604.6560,324.1120L604.9008,325.7331L605.1456,326.0477L605.3904,326.9697L605.6352,328.5224
            L605.8800,328.8976L606.1248,329.5380L606.3696,330.4001L606.6144,330.5066L606.8592,330.0069L607.1040,329.2776L607.3488,328.7692L607.5936,328.2567L607.8384,328.1053L608.0832,327.9448
            L608.3280,325.3828L608.5728,323.6661L608.8176,322.3852L609.0624,321.3408L609.3072,319.5490L609.5520,318.6535L609.7968,318.5062L610.0416,318.9507L610.2864,319.9939L610.5312,321.2086
            L610.7760,322.3867L611.0208,322.4059L611.2656,321.9235L611.5104,320.9120L611.7552,320.1324L612.0000,320.1590L612.2448,319.6398L612.4896,320.1916L612.7344,320.0437L612.9792,320.9755
            L613.2240,322.2724L613.4688,322.7576L613.7136,322.5492L613.9584,322.6103L614.2032,323.1200L614.4480,324.0439L614.6928,325.2864L614.9376,325.7093L615.1824,327.4223L615.4272,325.7634
            L615.6720,324.7285L615.9168,323.3962L616.1616,323.2454L616.4064,324.0786L616.6512,323.6095L616.8960,324.2735L617.1408,324.6717L617.3856,324.7327L617.6304,323.8135L617.8752,324.1600
            L618.1200,325.0164L618.3648,326.4295L618.6096,327.6629L618.8544,327.5440L619.0992,328.1117L619.3440,326.9812L619.5888,326.8785L619.8336,326.2277L620.0784,325.6078L620.3232,324.1798
            L620.5680,322.6017L620.8128,323.3015L621.0576,324.1981L621.3024,324.9566L621.5472,324.0381L621.7920,322.7541L622.0368,320.6681L622.2816,319.0137L622.5264,318.9732L622.7712,318.3178
            L623.0160,317.3175L623.2608,315.3877L623.5056,314.8906L623.7504,312.8355L623.9952,311.5015L624.2400,309.5665L624.4848,309.4701L624.7296,309.3659L624.9744,309.7996L625.2192,311.9267
            L625.4640,313.4224L625.7088,315.7076L625.9536,316.8405L626.1984,317.0745L626.4432,316.3439L626.6880,317.7940L626.9328,319.3813L627.1776,320.9325L627.4224,322.0061L627.6672,322.1193
            L627.9120,322.2639L628.1568,321.2140L628.4016,321.4839L628.6464,321.7087L628.8912,320.7430L629.1360,318.9531L629.3808,318.1264L629.6256,318.8701L629.8704,319.2964L630.1152,319.7670
            L630.3600,318.7526L630.6048,318.4999L630.8496,317.4620L631.0944,318.4194L631.3392,318.7603L631.5840,318.4500L631.8288,318.6661L632.0736,318.4923L632.3184,319.6692L632.5632,321.0242
            L632.8080,323.2139L633.0528,323.8364L633.2976,323.7818L633.5424,321.5385L633.7872,320.3227L634.0320,318.9389L634.2768,317.6086L634.5216,315.8113L634.7664,314.1066L635.0112,312.9422
            L635.2560,312.7339L635.5008,312.6181L635.7456,313.2357L635.9904,313.6947L636.2352,314.8747L636.4800,314.8237L636.7248,314.3843L636.9696,313.8794L637.2144,312.7758L637.4592,311.5903
            L637.7040,311.9294L637.9488,313.6012L638.1936,314.7545L638.4384,315.6988L638.6832,315.9146L638.9280,317.6155L639.1728,319.2232L639.4176,321.9513L639.6624,324.2141L639.9072,326.3043
            L640.1520,327.6272L640.3968,329.0147L640.6416,329.8291L640.8864,329.3363L641.1312,329.3525L641.3760,328.7913L641.6208,329.5322L641.8656,329.9160L642.1104,330.8675L642.3552,332.4054
            L642.6000,334.7472L642.8448,336.8193L643.0896,338.5207L643.3344,339.2277L643.5792,338.3700L643.8240,337.2659L644.0688,335.8734L644.3136,335.2823L644.5584,335.0119L644.8032,333.9368
            L645.0480,331.8359L645.2928,328.7657L645.5376,326.2613L645.7824,324.4626L646.0272,323.0215L646.2720,323.1158L646.5168,323.3820L646.7616,323.3667L647.0064,322.6169L647.2512,321.9874
            L647.4960,322.3830L647.7408,323.2211L647.9856,324.5669L648.2304,324.2616L648.4752,323.7948L648.7200,322.1287L648.9648,321.1517L649.2096,318.9511L649.4544,316.2827L649.6992,313.8085
            L649.9440,313.0790L650.1888,312.1971L650.4336,310.9474L650.6784,310.0200L650.9232,307.8893L651.1680,306.1314L651.4128,304.9551L651.6576,305.6945L651.9024,303.9610L652.1472,303.9524
            L652.3920,304.5243L652.6368,305.8912L652.8816,307.5563L653.1264,309.4500L653.3712,310.1211L653.6160,311.8421L653.8608,313.6940L654.1056,315.1321L654.3504,315.2918L654.5952,315.4257
            L654.8400,315.9837L655.0848,316.4289L655.3296,317.2811L655.5744,318.0897L655.8192,319.0063L656.0640,318.2927L656.3088,318.1652L656.5536,317.7550L656.7984,318.0447L657.0432,317.3395
            L657.2880,316.1364L657.5328,316.0069L657.7776,316.7812L658.0224,318.2134L658.2672,319.2597L658.5120,320.1482L658.7568,319.5039L659.0016,318.5778L659.2464,318.2886L659.4912,318.7112
            L659.7360,319.4270L659.9808,320.0582L660.2256,320.4950L660.4704,320.1659L660.7152,319.6467L660.9600,319.0460L661.2048,319.2323L661.4496,319.4896L661.6944,319.6790L661.9392,319.2553
            L662.1840,318.1612L662.4288,317.6653L662.6736,317.2300L662.9184,319.0581L663.1632,320.2092L663.4080,318.9964L663.6528,318.5198L663.8976,318.4890L664.1424,319.3348L664.3872,321.2604
            L664.6320,323.1125L664.8768,324.7470L665.1216,325.4558L665.3664,324.6985L665.6112,324.3515L665.8560,323.2935L666.1008,323.2536L666.3456,323.6919L666.5904,323.7836L666.8352,322.8856
            L667.0800,322.0528L667.3248,322.9421L667.5696,324.1827L667.8144,324.4260L668.0592,323.7565L668.3040,321.8854L668.5488,318.0363L668.7936,314.9662L669.0384,313.6632L669.2832,312.1136
            L669.5280,310.3262L669.7728,307.7132L670.0176,306.8227L670.2624,306.8966L670.5072,307.6573L670.7520,309.2831L670.9968,308.7620L671.2416,308.2350L671.4864,308.7155L671.7312,308.7475
            L671.9760,308.7648L672.2208,307.9452L672.4656,307.1760L672.7104,305.6932L672.9552,306.0496L673.2000,305.6900L673.4448,304.9465L673.6896,303.7830L673.9344,303.6000L674.1792,304.5497
            L674.4240,306.4975L674.6688,308.3186L674.9136,309.5928L675.1584,309.9982L675.4032,308.3630L675.6480,307.7010L675.8928,307.6555L676.1376,308.5478L676.3824,307.7804L676.6272,306.0187
            L676.8720,304.7553L677.1168,304.0881L677.3616,306.1317L677.6064,308.0669L677.8512,310.0452L678.0960,310.6479L678.3408,310.8616L678.5856,311.1433L678.8304,311.4340L679.0752,311.1955"/>
   <path d="M91.8000,91.8000L703.8000,91.8000"/>
   <path d="M91.8000,520.2000L703.8000,520.2000"/>
   <path d="M153.0000,91.8000L153.0000,97.9200"/>
   <path d="M153.0000,520.2000L153.0000,514.0800"/>
   <path d="M275.4000,91.8000L275.4000,97.9200"/>
   <path d="M275.4000,520.2000L275.4000,514.0800"/>
   <path d="M397.8000,91.8000L397.8000,97.9200"/>
   <path d="M397.8000,520.2000L397.8000,514.0800"/>
   <path d="M520.2000,91.8000L520.2000,97.9200"/>
   <path d="M520.2000,520.2000L520.2000,514.0800"/>
   <path d="M642.6000,91.8000L642.6000,97.9200"/>
   <path d="M642.6000,520.2000L642.6000,514.0800"/>
   <path d="M91.8000,91.8000L91.8000,104.0400"/>
   <path d="M91.8000,520.2000L91.8000,507.9600"/>
   <path d="M214.2000,91.8000L214.2000,104.0400"/>
   <path d="M214.2000,520.2000L214.2000,507.9600"/>
   <path d="M336.6000,91.8000L336.6000,104.0400"/>
   <path d="M336.6000,520.2000L336.6000,507.9600"/>
   <path d="M459.0000,91.8000L459.0000,104.0400"/>
   <path d="M459.0000,520.2000L459.0000,507.9600"/>
   <path d="M581.4000,91.8000L581.4000,104.0400"/>
   <path d="M581.4000,520.2000L581.4000,507.9600"/>
   <path d="M703.8000,91.8000L703.8000,104.0400"/>
   <path d="M703.8000,520.2000L703.8000,507.9600"/>
  </g>
  <g style="fill:#000000; fill-rule:nonzero">
   <text   style="font-family:'Times','Nimbus Roman'; font-style:normal; font-weight:normal; font-size:612.0000" transform="matrix(0.0280,0.0000,-0.0000,-0.0280,87.8000,73.6800)">0</text>
   <text   style="font-family:'Times','Nimbus Roman'; font-style:normal; font-weight:normal; font-size:612.0000" transform="matrix(0.0280,0.0000,-0.0000,-0.0280,201.7000,73.6800)">500</text>
   <text   style="font-family:'Times','Nimbus Roman'; font-style:normal; font-weight:normal; font-size:612.0000" transform="matrix(0.0280,0.0000,-0.0000,-0.0280,319.6000,73.6800)">1000</text>
   <text   style="font-family:'Times','Nimbus Roman'; font-style:normal; font-weight:normal; font-size:612.0000" transform="matrix(0.0280,0.0000,-0.0000,-0.0280,442.0000,73.6800)">1500</text>
   <text   style="font-family:'Times','Nimbus Roman'; font-style:normal; font-weight:normal; font-size:612.0000" transform="matrix(0.0280,0.0000,-0.0000,-0.0280,564.4000,73.6800)">2000</text>
   <text   style="font-family:'Times','Nimbus Roman'; font-style:normal; font-weight:normal; font-size:612.0000" transform="matrix(0.0280,0.0000,-0.0000,-0.0280,686.8000,73.6800)">2500</text>
   <text   style="font-family:'Times','Nimbus Roman'; font-style:normal; font-weight:normal; font-size:612.0000" transform="matrix(0.0280,0.0000,-0.0000,-0.0280,375.8000,55.5600)">Frame</text>
  </g>
  <g style="fill:none; stroke:#000000; stroke-width:  0.9180; stroke-linecap:butt; stroke-linejoin:miter; stroke-dasharray:none">
   <path d="M91.8000,91.8000L91.8000,520.2000"/>
   <path d="M703.8000,91.8000L703.8000,520.2000"/>
   <path d="M91.8000,163.2000L97.9200,163.2000"/>
   <path d="M703.8000,163.2000L697.6800,163.2000"/>
   <path d="M91.8000,306.0000L97.9200,306.0000"/>
   <path d="M703.8000,306.0000L697.6800,306.0000"/>
   <path d="M91.8000,448.8000L97.9200,448.8000"/>
   <path d="M703.8000,448.8000L697.6800,448.8000"/>
   <path d="M91.8000,91.8000L104.0400,91.8000"/>
   <path d="M703.8000,91.8000L691.5600,91.8000"/>
   <path d="M91.8000,234.6000L104.0400,234.6000"/>
   <path d="M703.8000,234.6000L691.5600,234.6000"/>
   <path d="M91.8000,377.4000L104.0400,377.4000"/>
   <path d="M703.8000,377.4000L691.5600,377.4000"/>
   <path d="M91.8000,520.2000L104.0400,520.2000"/>
   <path d="M703.8000,520.2000L691.5600,520.2000"/>
  </g>
  <g style="fill:#000000; fill-rule:nonzero">
   <text   style="font-family:'Times','Nimbus Roman'; font-style:normal; font-weight:normal; font-size:612.0000" transform="matrix(0.0280,0.0000,-0.0000,-0.0280,77.6800,85.8000)">0</text>
   <text   style="font-family:'Times','Nimbus Roman'; font-style:normal; font-weight:normal; font-size:612.0000" transform="matrix(0.0280,0.0000,-0.0000,-0.0280,64.6800,228.6000)">0.5</text>
   <text   style="font-family:'Times','Nimbus Roman'; font-style:normal; font-weight:normal; font-size:612.0000" transform="matrix(0.0280,0.0000,-0.0000,-0.0280,78.6800,371.4000)">1</text>
   <text   style="font-family:'Times','Nimbus Roman'; font-style:normal; font-weight:normal; font-size:612.0000" transform="matrix(0.0280,0.0000,-0.0000,-0.0280,64.6800,514.2000)">1.5</text>
   <text   style="font-family:'Times','Nimbus Roman'; font-style:normal; font-weight:normal; font-size:612.0000" transform="matrix(0.0000,0.0280,0.0280,-0.0000,58.5600,282.0000)">RMSD</text>
  </g>
  <g style="fill:none; stroke:#000000; stroke-width:  0.9180; stroke-linecap:butt; stroke-linejoin:miter; stroke-dasharray:none">
   <path d="M91.8000,91.8000L91.8000,520.2000L703.8000,520.2000L703.8000,91.8000z"/>
  </g>
  <g style="fill:#000000; fill-rule:nonzero">
   <text   style="font-family:'Times','Nimbus Roman'; font-style:normal; font-weight:normal; font-size:612.0000" transform="matrix(0.0420,0.0000,-0.0000,-0.0420,181.3000,562.9200)">Ubiquitin in Water Sphere (Non-Periodic)</text>
   <text   style="font-family:'Times','Nimbus Roman'; font-style:normal; font-weight:normal; font-size:612.0000" transform="matrix(0.0280,0.0000,-0.0000,-0.0280,258.8000,535.4400)">RMSD for each frame (frame-time 20fs)</text>
  </g>
 </g>
</svg>
