<?xml version="1.0" encoding="ISO-8859-1"?>
<!DOCTYPE svg PUBLIC "-//W3C//DTD SVG 1.0//EN" "http://www.w3.org/TR/2001/REC-SVG-20010904/DTD/svg10.dtd">
<!-- generated by Grace-5.1.25 -->
<svg xml:space="preserve" width="11.0000in" height="8.5000in" viewBox="0.0000 0.0000 792.0000 612.0000">
 <g transform="translate(0,612.0000) scale(1,-1)">
  <g style="fill:#FFFFFF; fill-rule:nonzero">
   <path  d="M0.0000,0.0000L0.0000,612.0000L792.0000,612.0000L792.0000,0.0000z"/>
  </g>
  <g style="fill:none; stroke:#000000; stroke-width:  0.9180; stroke-linecap:butt; stroke-linejoin:miter; stroke-dasharray:none">
   <path d="M91.8000,130.0624L92.4120,126.9771L93.0240,133.5553L93.6360,141.5679L94.2480,158.1612L94.8600,174.0284L95.4720,195.4491L96.0840,208.0636L96.6960,220.0048L97.3080,250.7270
            L97.9200,254.2084L98.5320,277.2099L99.1440,277.5809L99.7560,287.8248L100.3680,305.1333L100.9800,311.3607L101.5920,323.0160L102.2040,334.7895L102.8160,349.3895L103.4280,367.1203
            L104.0400,377.9039L104.6520,377.1277L105.2640,376.9773L105.8760,384.9523L106.4880,390.0385L107.1000,376.2163L107.7120,363.6426L108.3240,361.2212L108.9360,364.3214L109.5480,370.8092
            L110.1600,360.0571L110.7720,358.6267L111.3840,352.2576L111.9960,355.4122L112.6080,376.0555L113.2200,365.4495L113.8320,381.4300L114.4440,366.3608L115.0560,373.3253L115.6680,374.2078
            L116.2800,368.5143L116.8920,373.9791L117.5040,353.3318L118.1160,354.0546L118.7280,355.6197L119.3400,363.1840L119.9520,363.3959L120.5640,364.0059L121.1760,360.4325L121.7880,350.8957
            L122.4000,350.0525L123.0120,345.3350L123.6240,335.1768L124.2360,332.1884L124.8480,328.9111L125.4600,345.1710L126.0720,354.6223L126.6840,371.2162L127.2960,380.2005L127.9080,386.8071
            L128.5200,397.1652L129.1320,406.5135L129.7440,391.2347L130.3560,386.8556L130.9680,386.9302L131.5800,385.8522L132.1920,392.1374L132.8040,372.8243L133.4160,383.2461L134.0280,389.4420
            L134.6400,398.5827L135.2520,391.6907L135.8640,378.7427L136.4760,374.2388L137.0880,368.7283L137.7000,378.6796L138.3120,370.8059L138.9240,360.1470L139.5360,363.0265L140.1480,375.0337
            L140.7600,376.2506L141.3720,378.3870L141.9840,377.2965L142.5960,372.7343L143.2080,361.5786L143.8200,352.3823L144.4320,345.5006L145.0440,339.1436L145.6560,347.2422L146.2680,350.9714
            L146.8800,347.0694L147.4920,359.1790L148.1040,374.0269L148.7160,392.7906L149.3280,405.5979L149.9400,419.5971L150.5520,417.2209L151.1640,427.2028L151.7760,417.3926L152.3880,413.4644
            L153.0000,419.8787L153.6120,395.5981L154.2240,381.4768L154.8360,370.3527L155.4480,348.5970L156.0600,345.8716L156.6720,352.5599L157.2840,346.7410L157.8960,359.1784L158.5080,356.7805
            L159.1200,364.3922L159.7320,354.2818L160.3440,368.4984L160.9560,379.5157L161.5680,387.9691L162.1800,408.4142L162.7920,388.0060L163.4040,396.1689L164.0160,405.4769L164.6280,405.3577
            L165.2400,408.5481L165.8520,394.4215L166.4640,396.7104L167.0760,413.9846L167.6880,421.3496L168.3000,416.5815L168.9120,429.9825L169.5240,427.5856L170.1360,441.6253L170.7480,437.9712
            L171.3600,434.7501L171.9720,414.7936L172.5840,413.0886L173.1960,412.8575L173.8080,391.8486L174.4200,378.7232L175.0320,360.0261L175.6440,372.0327L176.2560,368.3383L176.8680,374.1724
            L177.4800,376.4434L178.0920,378.1778L178.7040,401.1452L179.3160,408.7590L179.9280,407.1280L180.5400,412.7040L181.1520,405.2406L181.7640,401.5625L182.3760,399.2445L182.9880,403.0953
            L183.6000,389.4300L184.2120,386.5543L184.8240,382.0074L185.4360,378.1223L186.0480,386.1551L186.6600,404.8576L187.2720,397.4971L187.8840,420.1696L188.4960,423.3722L189.1080,435.3090
            L189.7200,437.8599L190.3320,416.8892L190.9440,408.3803L191.5560,414.0396L192.1680,418.7227L192.7800,386.1539L193.3920,395.3824L194.0040,388.6679L194.6160,397.7874L195.2280,404.0753
            L195.8400,378.6632L196.4520,391.4629L197.0640,402.8878L197.6760,400.3678L198.2880,394.4906L198.9000,390.7554L199.5120,393.8316L200.1240,383.2314L200.7360,383.4346L201.3480,378.5467
            L201.9600,376.3721L202.5720,387.8911L203.1840,388.0949L203.7960,386.2095L204.4080,397.0433L205.0200,389.9050L205.6320,405.7362L206.2440,403.9435L206.8560,388.5841L207.4680,394.4797
            L208.0800,401.3418L208.6920,398.1774L209.3040,401.5760L209.9160,405.1849L210.5280,407.5007L211.1400,424.0972L211.7520,407.4690L212.3640,392.9653L212.9760,398.7559L213.5880,391.4935
            L214.2000,398.4460L214.8120,389.3815L215.4240,389.0900L216.0360,393.1794L216.6480,401.2285L217.2600,421.7221L217.8720,426.0517L218.4840,431.9316L219.0960,426.9375L219.7080,425.5953
            L220.3200,425.0221L220.9320,414.2848L221.5440,402.4705L222.1560,383.3573L222.7680,365.2561L223.3800,355.1388L223.9920,363.0200L224.6040,377.2104L225.2160,384.9364L225.8280,399.3436
            L226.4400,395.7282L227.0520,390.6557L227.6640,395.2516L228.2760,401.4475L228.8880,394.0483L229.5000,396.7944L230.1120,401.5548L230.7240,400.6631L231.3360,404.5536L231.9480,394.1954
            L232.5600,412.1751L233.1720,409.0815L233.7840,390.9733L234.3960,395.8062L235.0080,385.4404L235.6200,383.6389L236.2320,363.4961L236.8440,365.1592L237.4560,341.1221L238.0680,341.1395
            L238.6800,353.0039L239.2920,344.8943L239.9040,378.4791L240.5160,373.9278L241.1280,391.6264L241.7400,397.8354L242.3520,399.2293L242.9640,418.8601L243.5760,431.8064L244.1880,424.5678
            L244.8000,432.6448L245.4120,426.4962L246.0240,413.5532L246.6360,419.7556L247.2480,411.4724L247.8600,418.0125L248.4720,423.9300L249.0840,415.5192L249.6960,413.6688L250.3080,413.1327
            L250.9200,406.4939L251.5320,390.8125L252.1440,390.6867L252.7560,396.0164L253.3680,395.5856L253.9800,392.5214L254.5920,364.9119L255.2040,368.2075L255.8160,382.8071L256.4280,379.9341
            L257.0400,388.2065L257.6520,391.0855L258.2640,408.8843L258.8760,414.0348L259.4880,406.1556L260.1000,400.3924L260.7120,387.2505L261.3240,375.6748L261.9360,382.1050L262.5480,383.6693
            L263.1600,387.7152L263.7720,386.3767L264.3840,386.6856L264.9960,385.7307L265.6080,380.1803L266.2200,390.6938L266.8320,377.3352L267.4440,386.9503L268.0560,373.2638L268.6680,374.2061
            L269.2800,387.7223L269.8920,377.3265L270.5040,385.7252L271.1160,375.8066L271.7280,365.6473L272.3400,374.8773L272.9520,374.0499L273.5640,392.4337L274.1760,380.7998L274.7880,377.4643
            L275.4000,384.8160L276.0120,382.7553L276.6240,375.1241L277.2360,366.8277L277.8480,365.4931L278.4600,372.5692L279.0720,364.4586L279.6840,380.2941L280.2960,368.8154L280.9080,367.6410
            L281.5200,377.4588L282.1320,375.5794L282.7440,394.6007L283.3560,378.3969L283.9680,377.5645L284.5800,384.5611L285.1920,382.8550L285.8040,392.6211L286.4160,386.6939L287.0280,388.8853
            L287.6400,377.7818L288.2520,378.1556L288.8640,385.5994L289.4760,394.5636L290.0880,394.1546L290.7000,381.3123L291.3120,383.5861L291.9240,392.8264L292.5360,388.0148L293.1480,395.3758
            L293.7600,391.0195L294.3720,384.6608L294.9840,398.2521L295.5960,392.8177L296.2080,385.7007L296.8200,391.9696L297.4320,372.2141L298.0440,368.6674L298.6560,360.6324L299.2680,350.8184
            L299.8800,343.7482L300.4920,346.9289L301.1040,353.5791L301.7160,362.3129L302.3280,374.9198L302.9400,380.3819L303.5520,386.7837L304.1640,398.7439L304.7760,395.8111L305.3880,398.6181
            L306.0000,411.7164L306.6120,410.3911L307.2240,426.3584L307.8360,431.7050L308.4480,429.7369L309.0600,430.8885L309.6720,424.3451L310.2840,432.3047L310.8960,424.0989L311.5080,430.9014
            L312.1200,420.2938L312.7320,422.3006L313.3440,421.6432L313.9560,400.6860L314.5680,411.7518L315.1800,405.5880L315.7920,416.0084L316.4040,419.4719L317.0160,409.6905L317.6280,422.8907
            L318.2400,421.9749L318.8520,425.5092L319.4640,418.3430L320.0760,403.8351L320.6880,412.8571L321.3000,414.9782L321.9120,414.6361L322.5240,402.5125L323.1360,405.2433L323.7480,412.7389
            L324.3600,400.2229L324.9720,399.8062L325.5840,396.2736L326.1960,386.5423L326.8080,390.5734L327.4200,392.8200L328.0320,382.0668L328.6440,369.7105L329.2560,373.3341L329.8680,374.3826
            L330.4800,371.0331L331.0920,364.2043L331.7040,373.2011L332.3160,371.7865L332.9280,387.9701L333.5400,387.9439L334.1520,404.4942L334.7640,406.9373L335.3760,407.1831L335.9880,418.5311
            L336.6000,417.2569L337.2120,416.1669L337.8240,401.3614L338.4360,400.5225L339.0480,395.1840L339.6600,402.3627L340.2720,392.2965L340.8840,385.1685L341.4960,374.9154L342.1080,377.4670
            L342.7200,382.2852L343.3320,378.1811L343.9440,379.3888L344.5560,380.8221L345.1680,374.5309L345.7800,381.1222L346.3920,366.8141L347.0040,362.8724L347.6160,350.4131L348.2280,344.9581
            L348.8400,352.0152L349.4520,349.8515L350.0640,352.3960L350.6760,348.8627L351.2880,356.6683L351.9000,382.8882L352.5120,378.0809L353.1240,398.0707L353.7360,399.4315L354.3480,403.6472
            L354.9600,423.5094L355.5720,430.6330L356.1840,448.4857L356.7960,456.0281L357.4080,440.4736L358.0200,438.6668L358.6320,433.9227L359.2440,418.9337L359.8560,410.7451L360.4680,409.7118
            L361.0800,404.9818L361.6920,393.1844L362.3040,383.5484L362.9160,390.2454L363.5280,387.6275L364.1400,386.3343L364.7520,376.7747L365.3640,373.2599L365.9760,378.9564L366.5880,382.8921
            L367.2000,387.0670L367.8120,374.5363L368.4240,369.8417L369.0360,372.2822L369.6480,366.0411L370.2600,368.3960L370.8720,380.4048L371.4840,392.7257L372.0960,401.6664L372.7080,404.3602
            L373.3200,405.9710L373.9320,411.1815L374.5440,404.8195L375.1560,395.8486L375.7680,406.6737L376.3800,405.6643L376.9920,417.9254L377.6040,419.5399L378.2160,412.3195L378.8280,419.1166
            L379.4400,408.3106L380.0520,399.9347L380.6640,396.3863L381.2760,381.3788L381.8880,373.1837L382.5000,360.7789L383.1120,375.2521L383.7240,369.1919L384.3360,364.9124L384.9480,377.1184
            L385.5600,367.8627L386.1720,375.1322L386.7840,367.7347L387.3960,364.4183L388.0080,365.2871L388.6200,360.5496L389.2320,373.5237L389.8440,383.2538L390.4560,373.4223L391.0680,376.5601
            L391.6800,381.8298L392.2920,395.5229L392.9040,395.0075L393.5160,371.6127L394.1280,378.6578L394.7400,368.8144L395.3520,389.4692L395.9640,388.6304L396.5760,384.8340L397.1880,396.7290
            L397.8000,401.4001L398.4120,427.4223L399.0240,402.1452L399.6360,417.1698L400.2480,408.4550L400.8600,413.4013L401.4720,408.9479L402.0840,405.4066L402.6960,396.6380L403.3080,376.5403
            L403.9200,392.1738L404.5320,379.9461L405.1440,382.3397L405.7560,377.0836L406.3680,385.8216L406.9800,380.4598L407.5920,381.8674L408.2040,388.8558L408.8160,401.8969L409.4280,396.6887
            L410.0400,395.9456L410.6520,390.3892L411.2640,402.6149L411.8760,401.5570L412.4880,385.8620L413.1000,397.1811L413.7120,389.3674L414.3240,410.2853L414.9360,401.0231L415.5480,400.6473
            L416.1600,399.9544L416.7720,403.6035L417.3840,414.7096L417.9960,398.3326L418.6080,403.5360L419.2200,394.3164L419.8320,410.2783L420.4440,391.5409L421.0560,378.0537L421.6680,362.8244
            L422.2800,362.0274L422.8920,348.6531L423.5040,338.7061L424.1160,356.1351L424.7280,339.5417L425.3400,351.0156L425.9520,336.2106L426.5640,349.9060L427.1760,364.4865L427.7880,359.4329
            L428.4000,373.3902L429.0120,375.3648L429.6240,380.1650L430.2360,383.2457L430.8480,390.1757L431.4600,398.4514L432.0720,405.6453L432.6840,404.4049L433.2960,432.4557L433.9080,426.2080
            L434.5200,438.2038L435.1320,425.9330L435.7440,436.6556L436.3560,437.4493L436.9680,422.0403L437.5800,442.8955L438.1920,420.9687L438.8040,413.4954L439.4160,398.5463L440.0280,395.2539
            L440.6400,411.6117L441.2520,407.5541L441.8640,406.3169L442.4760,405.9683L443.0880,401.2884L443.7000,399.3295L444.3120,406.0991L444.9240,395.3197L445.5360,393.0143L446.1480,389.3079
            L446.7600,389.3919L447.3720,377.0514L447.9840,368.7452L448.5960,386.4547L449.2080,374.1610L449.8200,394.5925L450.4320,389.8512L451.0440,393.1500L451.6560,407.8541L452.2680,407.7616
            L452.8800,415.0447L453.4920,417.0990L454.1040,418.4934L454.7160,415.8106L455.3280,415.5474L455.9400,397.9144L456.5520,397.4148L457.1640,392.8455L457.7760,382.1462L458.3880,381.5776
            L459.0000,363.8583L459.6120,372.3732L460.2240,373.9741L460.8360,391.0348L461.4480,389.5379L462.0600,385.9639L462.6720,392.1564L463.2840,404.1973L463.8960,406.4449L464.5080,398.8371
            L465.1200,400.7311L465.7320,396.3978L466.3440,403.8520L466.9560,391.4624L467.5680,381.0226L468.1800,369.3755L468.7920,369.1205L469.4040,385.5520L470.0160,383.2532L470.6280,378.3369
            L471.2400,382.5287L471.8520,396.4658L472.4640,412.5209L473.0760,419.6140L473.6880,408.5874L474.3000,409.6257L474.9120,397.3462L475.5240,397.2519L476.1360,396.6140L476.7480,389.4458
            L477.3600,391.1318L477.9720,393.6594L478.5840,405.4688L479.1960,410.0348L479.8080,416.4812L480.4200,405.3141L481.0320,417.4934L481.6440,418.2004L482.2560,415.3160L482.8680,410.2429
            L483.4800,411.1902L484.0920,417.4437L484.7040,423.8368L485.3160,413.9765L485.9280,399.5126L486.5400,387.1661L487.1520,374.0842L487.7640,381.7028L488.3760,364.0468L488.9880,362.3909
            L489.6000,374.5357L490.2120,387.4635L490.8240,408.5874L491.4360,409.5854L492.0480,410.9891L492.6600,406.5779L493.2720,408.2245L493.8840,408.7035L494.4960,402.3539L495.1080,400.9633
            L495.7200,402.1802L496.3320,390.6785L496.9440,392.8140L497.5560,409.0308L498.1680,392.5001L498.7800,393.9045L499.3920,384.9860L500.0040,386.7233L500.6160,394.2455L501.2280,383.5370
            L501.8400,382.0678L502.4520,383.4727L503.0640,384.5497L503.6760,401.8861L504.2880,397.6289L504.9000,389.0710L505.5120,390.8686L506.1240,386.4988L506.7360,398.4019L507.3480,379.6372
            L507.9600,372.2930L508.5720,375.9859L509.1840,367.6568L509.7960,383.7734L510.4080,374.6795L511.0200,372.1128L511.6320,370.4049L512.2440,371.7794L512.8560,389.3989L513.4680,394.9564
            L514.0800,397.9415L514.6920,393.1031L515.3040,390.9901L515.9160,397.1735L516.5280,409.4944L517.1400,410.3959L517.7520,408.2197L518.3640,414.4836L518.9760,415.8662L519.5880,424.6986
            L520.2000,421.4628L520.8120,414.5300L521.4240,407.2783L522.0360,403.2952L522.6480,401.0335L523.2600,401.4971L523.8720,399.1367L524.4840,392.5971L525.0960,390.3360L525.7080,381.9268
            L526.3200,395.1101L526.9320,390.8485L527.5440,391.2123L528.1560,393.2562L528.7680,396.9055L529.3800,403.7932L529.9920,401.2035L530.6040,401.1234L531.2160,390.2166L531.8280,401.8342
            L532.4400,399.6291L533.0520,397.3357L533.6640,396.8074L534.2760,387.4760L534.8880,391.6334L535.5000,384.6827L536.1120,387.3660L536.7240,392.8477L537.3360,396.8569L537.9480,406.0478
            L538.5600,413.5602L539.1720,429.2521L539.7840,432.3657L540.3960,432.2492L541.0080,425.4101L541.6200,417.1545L542.2320,425.3512L542.8440,416.1499L543.4560,400.3341L544.0680,410.5266
            L544.6800,399.5921L545.2920,413.3293L545.9040,414.2440L546.5160,402.5685L547.1280,394.5968L547.7400,388.9926L548.3520,405.7477L548.9640,398.8703L549.5760,402.4880L550.1880,417.9552
            L550.8000,417.4742L551.4120,425.7505L552.0240,414.1563L552.6360,415.3444L553.2480,419.0273L553.8600,421.4699L554.4720,427.9409L555.0840,426.6270L555.6960,411.4184L556.3080,416.4584
            L556.9200,412.8031L557.5320,413.7749L558.1440,400.1069L558.7560,395.6199L559.3680,380.6755L559.9800,378.5864L560.5920,406.8491L561.2040,392.7621L561.8160,408.2497L562.4280,415.7371
            L563.0400,408.5204L563.6520,409.2972L564.2640,411.0671L564.8760,420.7585L565.4880,403.0550L566.1000,409.8653L566.7120,418.6846L567.3240,428.8865L567.9360,420.7095L568.5480,416.5890
            L569.1600,413.6055L569.7720,410.8937L570.3840,404.1537L570.9960,416.1309L571.6080,425.3784L572.2200,422.6346L572.8320,431.0572L573.4440,436.4698L574.0560,430.8666L574.6680,427.9436
            L575.2800,415.1161L575.8920,394.5283L576.5040,385.2758L577.1160,400.4245L577.7280,404.8669L578.3400,414.9123L578.9520,403.1765L579.5640,403.7506L580.1760,409.0983L580.7880,408.1037
            L581.4000,407.8444L582.0120,394.7052L582.6240,397.6937L583.2360,384.1727L583.8480,393.5651L584.4600,399.8056L585.0720,400.3275L585.6840,413.8544L586.2960,392.0006L586.9080,395.0921
            L587.5200,409.4219L588.1320,409.6507L588.7440,411.2467L589.3560,406.0914L589.9680,409.0613L590.5800,411.1215L591.1920,410.6661L591.8040,399.6765L592.4160,400.6815L593.0280,399.6368
            L593.6400,400.7290L594.2520,408.6598L594.8640,423.7372L595.4760,414.5931L596.0880,410.5822L596.7000,406.2565L597.3120,397.5738L597.9240,401.2917L598.5360,395.5829L599.1480,403.5121
            L599.7600,393.6675L600.3720,404.6702L600.9840,412.1157L601.5960,413.8414L602.2080,411.0224L602.8200,401.2836L603.4320,394.9216L604.0440,392.8482L604.6560,380.3241L605.2680,373.2409
            L605.8800,370.3647L606.4920,381.3766L607.1040,391.5049L607.7160,383.4657L608.3280,378.8174L608.9400,382.2902L609.5520,375.1676L610.1640,394.6018L610.7760,383.7599L611.3880,381.5521
            L612.0000,373.5787L612.6120,370.3026L613.2240,381.0013L613.8360,374.4121L614.4480,374.1539L615.0600,355.6987L615.6720,351.9290L616.2840,363.8877L616.8960,368.7637L617.5080,381.8973
            L618.1200,383.7659L618.7320,393.7929L619.3440,406.0875L619.9560,411.9320L620.5680,414.2391L621.1800,413.2372L621.7920,401.2089L622.4040,402.6612L623.0160,415.3972L623.6280,409.9743
            L624.2400,400.2104L624.8520,397.1342L625.4640,397.8610L626.0760,379.3001L626.6880,379.1774L627.3000,359.6181L627.9120,366.9699L628.5240,376.0234L629.1360,371.6824L629.7480,398.7913
            L630.3600,395.1743L630.9720,407.1684L631.5840,413.9258L632.1960,414.3686L632.8080,406.4204L633.4200,416.2649L634.0320,408.2218L634.6440,400.1820L635.2560,392.0044L635.8680,390.8365
            L636.4800,385.1168L637.0920,373.5830L637.7040,368.3883L638.3160,368.0299L638.9280,379.5958L639.5400,377.1548L640.1520,377.1598L640.7640,399.5606L641.3760,407.4124L641.9880,422.1775
            L642.6000,429.5724L643.2120,414.9358L643.8240,419.5437L644.4360,420.7084L645.0480,411.5818L645.6600,397.8544L646.2720,404.3531L646.8840,425.2013L647.4960,422.0331L648.1080,414.8530
            L648.7200,418.8857L649.3320,420.8065L649.9440,424.3391L650.5560,419.9093L651.1680,410.6688L651.7800,415.6440L652.3920,421.1328L653.0040,418.1106L653.6160,422.8699L654.2280,406.5179
            L654.8400,410.7031L655.4520,404.0138L656.0640,398.1943L656.6760,400.8810L657.2880,397.0291L657.9000,406.3273L658.5120,397.0241L659.1240,410.4581L659.7360,412.7579L660.3480,417.3674
            L660.9600,419.7926L661.5720,434.0266L662.1840,435.6053L662.7960,427.3673L663.4080,425.3153L664.0200,418.4400L664.6320,412.1647L665.2440,411.8095L665.8560,406.9183L666.4680,396.3351
            L667.0800,397.7619L667.6920,386.8344L668.3040,400.8760L668.9160,397.8228L669.5280,390.7271L670.1400,390.4084L670.7520,375.8943L671.3640,381.1495L671.9760,373.4512L672.5880,375.5719
            L673.2000,371.2352L673.8120,371.0314L674.4240,370.1168L675.0360,364.2223L675.6480,372.5371L676.2600,375.2204L676.8720,378.1534L677.4840,379.4493L678.0960,393.0656L678.7080,397.7803
            L679.3200,409.7461L679.9320,410.9756L680.5440,406.9031L681.1560,408.0127L681.7680,421.3364L682.3800,412.2006L682.9920,423.0093L683.6040,435.5389L684.2160,435.8880L684.8280,441.2369
            L685.4400,426.0931L686.0520,419.5911L686.6640,408.1026L687.2760,401.6006L687.8880,396.0932L688.5000,398.0816L689.1120,399.4156L689.7240,386.2809L690.3360,390.9504L690.9480,382.3876
            L691.5600,375.5605L692.1720,381.3494L692.7840,385.7705L693.3960,400.3471L694.0080,393.2399L694.6200,386.4759L695.2320,408.8113L695.8440,403.6728L696.4560,414.0947L697.0680,396.3421
            L697.6800,422.3933L698.2920,439.7530L698.9040,452.5549L699.5160,451.4431L700.1280,429.4350L700.7400,424.9290L701.3520,418.4967L701.9640,407.2953L702.5760,395.1786L703.1880,373.5595"/>
   <path d="M91.8000,91.8000L703.8000,91.8000"/>
   <path d="M91.8000,520.2000L703.8000,520.2000"/>
   <path d="M153.0000,91.8000L153.0000,97.9200"/>
   <path d="M153.0000,520.2000L153.0000,514.0800"/>
   <path d="M275.4000,91.8000L275.4000,97.9200"/>
   <path d="M275.4000,520.2000L275.4000,514.0800"/>
   <path d="M397.8000,91.8000L397.8000,97.9200"/>
   <path d="M397.8000,520.2000L397.8000,514.0800"/>
   <path d="M520.2000,91.8000L520.2000,97.9200"/>
   <path d="M520.2000,520.2000L520.2000,514.0800"/>
   <path d="M642.6000,91.8000L642.6000,97.9200"/>
   <path d="M642.6000,520.2000L642.6000,514.0800"/>
   <path d="M91.8000,91.8000L91.8000,104.0400"/>
   <path d="M91.8000,520.2000L91.8000,507.9600"/>
   <path d="M214.2000,91.8000L214.2000,104.0400"/>
   <path d="M214.2000,520.2000L214.2000,507.9600"/>
   <path d="M336.6000,91.8000L336.6000,104.0400"/>
   <path d="M336.6000,520.2000L336.6000,507.9600"/>
   <path d="M459.0000,91.8000L459.0000,104.0400"/>
   <path d="M459.0000,520.2000L459.0000,507.9600"/>
   <path d="M581.4000,91.8000L581.4000,104.0400"/>
   <path d="M581.4000,520.2000L581.4000,507.9600"/>
   <path d="M703.8000,91.8000L703.8000,104.0400"/>
   <path d="M703.8000,520.2000L703.8000,507.9600"/>
  </g>
  <g style="fill:#000000; fill-rule:nonzero">
   <text   style="font-family:'Times','Nimbus Roman'; font-style:normal; font-weight:normal; font-size:612.0000" transform="matrix(0.0280,0.0000,-0.0000,-0.0280,87.8000,74.6800)">0</text>
   <text   style="font-family:'Times','Nimbus Roman'; font-style:normal; font-weight:normal; font-size:612.0000" transform="matrix(0.0280,0.0000,-0.0000,-0.0280,201.7000,74.6800)">200</text>
   <text   style="font-family:'Times','Nimbus Roman'; font-style:normal; font-weight:normal; font-size:612.0000" transform="matrix(0.0280,0.0000,-0.0000,-0.0280,324.1000,74.6800)">400</text>
   <text   style="font-family:'Times','Nimbus Roman'; font-style:normal; font-weight:normal; font-size:612.0000" transform="matrix(0.0280,0.0000,-0.0000,-0.0280,446.5000,73.6800)">600</text>
   <text   style="font-family:'Times','Nimbus Roman'; font-style:normal; font-weight:normal; font-size:612.0000" transform="matrix(0.0280,0.0000,-0.0000,-0.0280,568.9000,74.6800)">800</text>
   <text   style="font-family:'Times','Nimbus Roman'; font-style:normal; font-weight:normal; font-size:612.0000" transform="matrix(0.0280,0.0000,-0.0000,-0.0280,686.8000,73.6800)">1000</text>
   <text   style="font-family:'Times','Nimbus Roman'; font-style:normal; font-weight:normal; font-size:612.0000" transform="matrix(0.0280,0.0000,-0.0000,-0.0280,362.8000,54.5600)">Time Step</text>
  </g>
  <g style="fill:none; stroke:#000000; stroke-width:  0.9180; stroke-linecap:butt; stroke-linejoin:miter; stroke-dasharray:none">
   <path d="M91.8000,91.8000L91.8000,520.2000"/>
   <path d="M703.8000,91.8000L703.8000,520.2000"/>
   <path d="M91.8000,127.5000L97.9200,127.5000"/>
   <path d="M703.8000,127.5000L697.6800,127.5000"/>
   <path d="M91.8000,198.9000L97.9200,198.9000"/>
   <path d="M703.8000,198.9000L697.6800,198.9000"/>
   <path d="M91.8000,270.3000L97.9200,270.3000"/>
   <path d="M703.8000,270.3000L697.6800,270.3000"/>
   <path d="M91.8000,341.7000L97.9200,341.7000"/>
   <path d="M703.8000,341.7000L697.6800,341.7000"/>
   <path d="M91.8000,413.1000L97.9200,413.1000"/>
   <path d="M703.8000,413.1000L697.6800,413.1000"/>
   <path d="M91.8000,484.5000L97.9200,484.5000"/>
   <path d="M703.8000,484.5000L697.6800,484.5000"/>
   <path d="M91.8000,91.8000L104.0400,91.8000"/>
   <path d="M703.8000,91.8000L691.5600,91.8000"/>
   <path d="M91.8000,163.2000L104.0400,163.2000"/>
   <path d="M703.8000,163.2000L691.5600,163.2000"/>
   <path d="M91.8000,234.6000L104.0400,234.6000"/>
   <path d="M703.8000,234.6000L691.5600,234.6000"/>
   <path d="M91.8000,306.0000L104.0400,306.0000"/>
   <path d="M703.8000,306.0000L691.5600,306.0000"/>
   <path d="M91.8000,377.4000L104.0400,377.4000"/>
   <path d="M703.8000,377.4000L691.5600,377.4000"/>
   <path d="M91.8000,448.8000L104.0400,448.8000"/>
   <path d="M703.8000,448.8000L691.5600,448.8000"/>
   <path d="M91.8000,520.2000L104.0400,520.2000"/>
   <path d="M703.8000,520.2000L691.5600,520.2000"/>
  </g>
  <g style="fill:#000000; fill-rule:nonzero">
   <text   style="font-family:'Times','Nimbus Roman'; font-style:normal; font-weight:normal; font-size:612.0000" transform="matrix(0.0280,0.0000,-0.0000,-0.0280,68.6800,86.3000)">37</text>
   <text   style="font-family:'Times','Nimbus Roman'; font-style:normal; font-weight:normal; font-size:612.0000" transform="matrix(0.0280,0.0000,-0.0000,-0.0280,56.6800,157.2000)">37.5</text>
   <text   style="font-family:'Times','Nimbus Roman'; font-style:normal; font-weight:normal; font-size:612.0000" transform="matrix(0.0280,0.0000,-0.0000,-0.0280,69.6800,229.1000)">38</text>
   <text   style="font-family:'Times','Nimbus Roman'; font-style:normal; font-weight:normal; font-size:612.0000" transform="matrix(0.0280,0.0000,-0.0000,-0.0280,56.6800,300.0000)">38.5</text>
   <text   style="font-family:'Times','Nimbus Roman'; font-style:normal; font-weight:normal; font-size:612.0000" transform="matrix(0.0280,0.0000,-0.0000,-0.0280,68.6800,371.9000)">39</text>
   <text   style="font-family:'Times','Nimbus Roman'; font-style:normal; font-weight:normal; font-size:612.0000" transform="matrix(0.0280,0.0000,-0.0000,-0.0280,56.6800,442.8000)">39.5</text>
   <text   style="font-family:'Times','Nimbus Roman'; font-style:normal; font-weight:normal; font-size:612.0000" transform="matrix(0.0280,0.0000,-0.0000,-0.0280,68.6800,514.7000)">40</text>
   <text   style="font-family:'Times','Nimbus Roman'; font-style:normal; font-weight:normal; font-size:612.0000" transform="matrix(0.0000,0.0280,0.0280,-0.0000,46.5600,239.0000)">N-C Seperation (A)</text>
  </g>
  <g style="fill:none; stroke:#000000; stroke-width:  0.9180; stroke-linecap:butt; stroke-linejoin:miter; stroke-dasharray:none">
   <path d="M91.8000,91.8000L91.8000,520.2000L703.8000,520.2000L703.8000,91.8000z"/>
  </g>
  <g style="fill:#FFFFFF; fill-rule:nonzero">
   <path  d="M520.2000,489.6000L520.2000,466.3600L577.6190,466.3600L577.6190,489.6000z"/>
  </g>
  <g style="fill:none; stroke:#000000; stroke-width:  0.9180; stroke-linecap:butt; stroke-linejoin:miter; stroke-dasharray:none">
   <path d="M520.2000,489.6000L520.2000,466.3600L577.6190,466.3600L577.6190,489.6000z"/>
  </g>
  <g style="fill:#000000; fill-rule:nonzero">
   <text   style="font-family:'Times','Nimbus Roman'; font-style:normal; font-weight:normal; font-size:612.0000" transform="matrix(0.0280,0.0000,-0.0000,-0.0280,563.4990,472.4800)">0</text>
  </g>
  <g style="fill:none; stroke:#000000; stroke-width:  0.9180; stroke-linecap:butt; stroke-linejoin:miter; stroke-dasharray:none">
   <path d="M526.7790,477.9800L551.2590,477.9800"/>
  </g>
  <g style="fill:#000000; fill-rule:nonzero">
   <text   style="font-family:'Times','Nimbus Roman'; font-style:normal; font-weight:normal; font-size:612.0000" transform="matrix(0.0420,0.0000,-0.0000,-0.0420,194.8000,556.9200)">N-C Termini Constant Force Pull SMD</text>
   <text   style="font-family:'Times','Nimbus Roman'; font-style:normal; font-weight:normal; font-size:612.0000" transform="matrix(0.0280,0.0000,-0.0000,-0.0280,188.3000,536.4400)">Ubiquitin in Water Sphere (Non-Periodic, 2fs/step, 1400 pN)</text>
  </g>
 </g>
</svg>
