<?xml version="1.0" encoding="ISO-8859-1"?>
<!DOCTYPE svg PUBLIC "-//W3C//DTD SVG 1.0//EN" "http://www.w3.org/TR/2001/REC-SVG-20010904/DTD/svg10.dtd">
<!-- generated by Grace-5.1.25 -->
<svg xml:space="preserve" width="11.0000in" height="8.5000in" viewBox="0.0000 0.0000 792.0000 612.0000">
 <g transform="translate(0,612.0000) scale(1,-1)">
 <desc></desc>
  <g style="fill:#FFFFFF; fill-rule:nonzero">
   <path  d="M0.0000,0.0000L0.0000,612.0000L792.0000,612.0000L792.0000,0.0000z"/>
  </g>
  <g style="fill:none; stroke:#000000; stroke-width:  0.9180; stroke-linecap:butt; stroke-linejoin:miter; stroke-dasharray:none">
   <path d="M99.4500,154.3695L107.1000,221.8925L114.7500,136.1935L122.4000,147.3922L130.0500,133.1177L137.7000,169.3928L145.3500,167.8077L153.0000,213.4626L160.6500,238.9827L168.3000,204.5195
            L175.9500,227.4528L183.6000,161.9533L191.2500,194.3653L198.9000,170.8628L206.5500,148.6037L214.2000,225.7366L221.8500,139.9986L229.5000,183.8529L237.1500,178.5872L244.8000,142.7496
            L252.4500,159.6499L260.1000,139.1582L267.7500,141.0829L275.4000,179.1337L283.0500,164.1385L290.7000,128.8669L298.3500,141.1321L306.0000,138.1655L313.6500,169.6622L321.3000,138.6288
            L328.9500,197.5841L336.6000,173.2262L344.2500,161.8676L351.9000,166.2827L359.5500,147.8856L367.2000,152.1431L374.8500,150.5251L382.5000,147.7128L390.1500,191.3458L397.8000,202.8183
            L405.4500,139.3550L413.1000,279.5016L420.7500,138.1614L428.4000,147.8001L436.0500,169.4316L443.7000,200.0573L451.3500,194.6086L459.0000,269.6681L466.6500,207.0698L474.3000,149.7125
            L481.9500,207.8598L489.6000,187.8910L497.2500,152.8758L504.9000,218.6507L512.5500,146.2092L520.2000,152.0600L527.8500,157.1269L535.5000,191.9668L543.1500,153.0686L550.8000,190.7439
            L558.4500,145.6987L566.1000,225.1470L573.7500,183.7971L581.4000,220.1554L589.0500,150.7766L596.7000,138.5083L604.3500,136.8787L612.0000,171.3218L619.6500,133.7613L627.3000,144.8503
            L634.9500,235.3560L642.6000,270.9846L650.2500,256.2656L657.9000,464.6431L665.5500,339.8101L673.2000,509.8129"/>
   <path d="M91.8000,91.8000L703.8000,91.8000"/>
   <path d="M91.8000,520.2000L703.8000,520.2000"/>
   <path d="M168.3000,91.8000L168.3000,97.9200"/>
   <path d="M168.3000,520.2000L168.3000,514.0800"/>
   <path d="M321.3000,91.8000L321.3000,97.9200"/>
   <path d="M321.3000,520.2000L321.3000,514.0800"/>
   <path d="M474.3000,91.8000L474.3000,97.9200"/>
   <path d="M474.3000,520.2000L474.3000,514.0800"/>
   <path d="M627.3000,91.8000L627.3000,97.9200"/>
   <path d="M627.3000,520.2000L627.3000,514.0800"/>
   <path d="M91.8000,91.8000L91.8000,104.0400"/>
   <path d="M91.8000,520.2000L91.8000,507.9600"/>
   <path d="M244.8000,91.8000L244.8000,104.0400"/>
   <path d="M244.8000,520.2000L244.8000,507.9600"/>
   <path d="M397.8000,91.8000L397.8000,104.0400"/>
   <path d="M397.8000,520.2000L397.8000,507.9600"/>
   <path d="M550.8000,91.8000L550.8000,104.0400"/>
   <path d="M550.8000,520.2000L550.8000,507.9600"/>
   <path d="M703.8000,91.8000L703.8000,104.0400"/>
   <path d="M703.8000,520.2000L703.8000,507.9600"/>
  </g>
  <g style="fill:#000000; fill-rule:nonzero">
   <text   style="font-family:'Times','Nimbus Roman'; font-style:normal; font-weight:normal; font-size:612.0000" transform="matrix(0.0280,0.0000,-0.0000,-0.0280,87.8000,74.6800)">0</text>
   <text   style="font-family:'Times','Nimbus Roman'; font-style:normal; font-weight:normal; font-size:612.0000" transform="matrix(0.0280,0.0000,-0.0000,-0.0280,236.3000,74.6800)">20</text>
   <text   style="font-family:'Times','Nimbus Roman'; font-style:normal; font-weight:normal; font-size:612.0000" transform="matrix(0.0280,0.0000,-0.0000,-0.0280,389.3000,74.6800)">40</text>
   <text   style="font-family:'Times','Nimbus Roman'; font-style:normal; font-weight:normal; font-size:612.0000" transform="matrix(0.0280,0.0000,-0.0000,-0.0280,542.3000,73.6800)">60</text>
   <text   style="font-family:'Times','Nimbus Roman'; font-style:normal; font-weight:normal; font-size:612.0000" transform="matrix(0.0280,0.0000,-0.0000,-0.0280,695.3000,74.6800)">80</text>
   <text   style="font-family:'Times','Nimbus Roman'; font-style:normal; font-weight:normal; font-size:612.0000" transform="matrix(0.0280,0.0000,-0.0000,-0.0280,370.3000,54.5600)">Residue</text>
  </g>
  <g style="fill:none; stroke:#000000; stroke-width:  0.9180; stroke-linecap:butt; stroke-linejoin:miter; stroke-dasharray:none">
   <path d="M91.8000,91.8000L91.8000,520.2000"/>
   <path d="M703.8000,91.8000L703.8000,520.2000"/>
   <path d="M91.8000,134.6400L97.9200,134.6400"/>
   <path d="M703.8000,134.6400L697.6800,134.6400"/>
   <path d="M91.8000,220.3200L97.9200,220.3200"/>
   <path d="M703.8000,220.3200L697.6800,220.3200"/>
   <path d="M91.8000,306.0000L97.9200,306.0000"/>
   <path d="M703.8000,306.0000L697.6800,306.0000"/>
   <path d="M91.8000,391.6800L97.9200,391.6800"/>
   <path d="M703.8000,391.6800L697.6800,391.6800"/>
   <path d="M91.8000,477.3600L97.9200,477.3600"/>
   <path d="M703.8000,477.3600L697.6800,477.3600"/>
   <path d="M91.8000,91.8000L104.0400,91.8000"/>
   <path d="M703.8000,91.8000L691.5600,91.8000"/>
   <path d="M91.8000,177.4800L104.0400,177.4800"/>
   <path d="M703.8000,177.4800L691.5600,177.4800"/>
   <path d="M91.8000,263.1600L104.0400,263.1600"/>
   <path d="M703.8000,263.1600L691.5600,263.1600"/>
   <path d="M91.8000,348.8400L104.0400,348.8400"/>
   <path d="M703.8000,348.8400L691.5600,348.8400"/>
   <path d="M91.8000,434.5200L104.0400,434.5200"/>
   <path d="M703.8000,434.5200L691.5600,434.5200"/>
   <path d="M91.8000,520.2000L104.0400,520.2000"/>
   <path d="M703.8000,520.2000L691.5600,520.2000"/>
  </g>
  <g style="fill:#000000; fill-rule:nonzero">
   <text   style="font-family:'Times','Nimbus Roman'; font-style:normal; font-weight:normal; font-size:612.0000" transform="matrix(0.0280,0.0000,-0.0000,-0.0280,77.6800,86.3000)">0</text>
   <text   style="font-family:'Times','Nimbus Roman'; font-style:normal; font-weight:normal; font-size:612.0000" transform="matrix(0.0280,0.0000,-0.0000,-0.0280,78.6800,171.4800)">1</text>
   <text   style="font-family:'Times','Nimbus Roman'; font-style:normal; font-weight:normal; font-size:612.0000" transform="matrix(0.0280,0.0000,-0.0000,-0.0280,77.6800,257.6600)">2</text>
   <text   style="font-family:'Times','Nimbus Roman'; font-style:normal; font-weight:normal; font-size:612.0000" transform="matrix(0.0280,0.0000,-0.0000,-0.0280,78.6800,343.3400)">3</text>
   <text   style="font-family:'Times','Nimbus Roman'; font-style:normal; font-weight:normal; font-size:612.0000" transform="matrix(0.0280,0.0000,-0.0000,-0.0280,77.6800,429.0200)">4</text>
   <text   style="font-family:'Times','Nimbus Roman'; font-style:normal; font-weight:normal; font-size:612.0000" transform="matrix(0.0280,0.0000,-0.0000,-0.0280,77.6800,514.2000)">5</text>
   <text   style="font-family:'Times','Nimbus Roman'; font-style:normal; font-weight:normal; font-size:612.0000" transform="matrix(0.0000,0.0280,0.0280,-0.0000,71.5600,283.0000)">RMSF</text>
  </g>
  <g style="fill:none; stroke:#000000; stroke-width:  0.9180; stroke-linecap:butt; stroke-linejoin:miter; stroke-dasharray:none">
   <path d="M91.8000,91.8000L91.8000,520.2000L703.8000,520.2000L703.8000,91.8000z"/>
  </g>
  <g style="fill:#000000; fill-rule:nonzero">
   <text   style="font-family:'Times','Nimbus Roman'; font-style:normal; font-weight:normal; font-size:612.0000" transform="matrix(0.0420,0.0000,-0.0000,-0.0420,187.8000,562.9200)">Equilibriation of Ubiquitin in Water Box</text>
   <text   style="font-family:'Times','Nimbus Roman'; font-style:normal; font-weight:normal; font-size:612.0000" transform="matrix(0.0280,0.0000,-0.0000,-0.0280,159.8000,536.4400)">RMSF of each residue (Periodic, minimized 20ps, eqilibriated 200ps)</text>
  </g>
 </g>
</svg>
