<?xml version="1.0" encoding="ISO-8859-1"?>
<!DOCTYPE svg PUBLIC "-//W3C//DTD SVG 1.0//EN" "http://www.w3.org/TR/2001/REC-SVG-20010904/DTD/svg10.dtd">
<!-- generated by Grace-5.1.25 -->
<svg xml:space="preserve" width="11.0000in" height="8.5000in" viewBox="0.0000 0.0000 792.0000 612.0000">
 <g transform="translate(0,612.0000) scale(1,-1)">
 <desc></desc>
  <g style="fill:#FFFFFF; fill-rule:nonzero">
   <path  d="M0.0000,0.0000L0.0000,612.0000L792.0000,612.0000L792.0000,0.0000z"/>
  </g>
  <g style="fill:none; stroke:#000000; stroke-width:  0.9180; stroke-linecap:butt; stroke-linejoin:miter; stroke-dasharray:none">
   <path d="M91.8000,91.8003L94.0950,91.8004L96.3900,91.8005L98.6850,91.8007L100.9800,91.8008L103.2750,91.8010L105.5700,91.8012L107.8650,91.8015L110.1600,91.8019L112.4550,91.8023
            L114.7500,91.8028L117.0450,91.8034L119.3400,91.8041L121.6350,91.8050L123.9300,91.8061L126.2250,91.8074L128.5200,91.8089L130.8150,91.8108L133.1100,91.8130L135.4050,91.8156
            L137.7000,91.8188L139.9950,91.8225L142.2900,91.8269L144.5850,91.8321L146.8800,91.8383L149.1750,91.8455L151.4700,91.8541L153.7650,91.8642L156.0600,91.8759L158.3550,91.8897
            L160.6500,91.9058L162.9450,91.9246L165.2400,91.9465L167.5350,91.9719L169.8300,92.0013L172.1250,92.0354L174.4200,92.0748L176.7150,92.1202L179.0100,92.1724L181.3050,92.2324
            L183.6000,92.3012L185.8950,92.3800L188.1900,92.4699L190.4850,92.5724L192.7800,92.6891L195.0750,92.8216L197.3700,92.9718L199.6650,93.1417L201.9600,93.3336L204.2550,93.5499
            L206.5500,93.7932L208.8450,94.0663L211.1400,94.3724L213.4350,94.7148L215.7300,95.0969L218.0250,95.5226L220.3200,95.9959L222.6150,96.5211L224.9100,97.1028L227.2050,97.7458
            L229.5000,98.4552L231.7950,99.2361L234.0900,100.0941L236.3850,101.0351L238.6800,102.0648L240.9750,103.1894L243.2700,104.4151L245.5650,105.7483L247.8600,107.1956L250.1550,108.7633
            L252.4500,110.4580L254.7450,112.2861L257.0400,114.2542L259.3350,116.3683L261.6300,118.6345L263.9250,121.0586L266.2200,123.6460L268.5150,126.4016L270.8100,129.3300L273.1050,132.4352
            L275.4000,135.7205L277.6950,139.1885L279.9900,142.8411L282.2850,146.6792L284.5800,150.7028L286.8750,154.9111L289.1700,159.3019L291.4650,163.8722L293.7600,168.6175L296.0550,173.5322
            L298.3500,178.6096L300.6450,183.8414L302.9400,189.2181L305.2350,194.7288L307.5300,200.3613L309.8250,206.1021L312.1200,211.9364L314.4150,217.8480L316.7100,223.8195L319.0050,229.8324
            L321.3000,235.8672L323.5950,241.9033L325.8900,247.9192L328.1850,253.8927L330.4800,259.8008L332.7750,265.6202L335.0700,271.3272L337.3650,276.8978L339.6600,282.3079L341.9550,287.5338
            L344.2500,292.5519L346.5450,297.3391L348.8400,301.8730L351.1350,306.1320L353.4300,310.0955L355.7250,313.7440L358.0200,317.0595L360.3150,320.0252L362.6100,322.6263L364.9050,324.8493
            L367.2000,326.6829L369.4950,328.1175L371.7900,329.1457L374.0850,329.7621L376.3800,329.9635L378.6750,329.7488L380.9700,329.1192L383.2650,328.0780L385.5600,326.6305L387.8550,324.7844
            L390.1500,322.5491L392.4450,319.9362L394.7400,316.9591L397.0350,313.6327L399.3300,309.9739L401.6250,306.0007L403.9200,301.7326L406.2150,297.1903L408.5100,292.3954L410.8050,287.3703
            L413.1000,282.1382L415.3950,276.7225L417.6900,271.1473L419.9850,265.4363L422.2800,259.6137L424.5750,253.7031L426.8700,247.7280L429.1650,241.7111L431.4600,235.6747L433.7550,229.6403
            L436.0500,223.6284L438.3450,217.6585L440.6400,211.7491L442.9350,205.9176L445.2300,200.1800L447.5250,194.5512L449.8200,189.0445L452.1150,183.6723L454.4100,178.4453L456.7050,173.3730
            L459.0000,168.4635L461.2950,163.7237L463.5900,159.1591L465.8850,154.7741L468.1800,150.5717L470.4750,146.5539L472.7700,142.7218L475.0650,139.0751L477.3600,135.6130L479.6550,132.3335
            L481.9500,129.2340L484.2450,126.3111L486.5400,123.5609L488.8350,120.9788L491.1300,118.5599L493.4250,116.2986L495.7200,114.1892L498.0150,112.2257L500.3100,110.4019L502.6050,108.7114
            L504.9000,107.1476L507.1950,105.7041L509.4900,104.3744L511.7850,103.1520L514.0800,102.0305L516.3750,101.0037L518.6700,100.0655L520.9650,99.2100L523.2600,98.4315L525.5550,97.7243
            L527.8500,97.0834L530.1450,96.5035L532.4400,95.9800L534.7350,95.5083L537.0300,95.0840L539.3250,94.7032L541.6200,94.3621L543.9150,94.0571L546.2100,93.7850L548.5050,93.5426
            L550.8000,93.3271"/>
   <path d="M91.8000,91.8000L91.8000,91.8000L94.0950,91.8000L94.0950,91.8000L96.3900,91.8000L96.3900,91.8000L98.6850,91.8000L98.6850,91.8000L100.9800,91.8000L100.9800,91.8000
            L103.2750,91.8000L103.2750,91.8000L105.5700,91.8000L105.5700,91.8000L107.8650,91.8000L107.8650,91.8000L110.1600,91.8000L110.1600,91.8000L112.4550,91.8000L112.4550,91.8000
            L114.7500,91.8000L114.7500,91.8000L117.0450,91.8000L117.0450,91.8000L119.3400,91.8000L119.3400,91.8000L121.6350,91.8000L121.6350,91.8000L123.9300,91.8000L123.9300,91.8000
            L126.2250,91.8000L126.2250,91.8000L128.5200,91.8000L128.5200,91.8000L130.8150,91.8000L130.8150,91.8000L133.1100,91.8000L133.1100,91.8000L135.4050,91.8000L135.4050,91.8000
            L137.7000,91.8000L137.7000,91.8000L139.9950,91.8000L139.9950,91.8000L142.2900,91.8000L142.2900,91.8000L144.5850,91.8000L144.5850,91.8000L146.8800,91.8000L146.8800,91.8000
            L149.1750,91.8000L149.1750,91.8000L151.4700,91.8000L151.4700,91.8000L153.7650,91.8000L153.7650,91.8000L156.0600,91.8000L156.0600,91.8000L158.3550,91.8000L158.3550,91.8000
            L160.6500,91.8000L160.6500,91.8000L162.9450,91.8000L162.9450,91.8000L165.2400,91.8000L165.2400,91.8000L167.5350,91.8000L167.5350,91.8000L169.8300,91.8000L169.8300,91.8000
            L172.1250,91.8000L172.1250,91.8000L174.4200,91.8000L174.4200,95.3691L176.7150,95.3691L176.7150,91.8000L179.0100,91.8000L179.0100,91.8000L181.3050,91.8000L181.3050,91.8000
            L183.6000,91.8000L183.6000,91.8000L185.8950,91.8000L185.8950,91.8000L188.1900,91.8000L188.1900,91.8000L190.4850,91.8000L190.4850,91.8000L192.7800,91.8000L192.7800,91.8000
            L195.0750,91.8000L195.0750,91.8000L197.3700,91.8000L197.3700,91.8000L199.6650,91.8000L199.6650,91.8000L201.9600,91.8000L201.9600,95.3691L204.2550,95.3691L204.2550,95.3691
            L206.5500,95.3691L206.5500,91.8000L208.8450,91.8000L208.8450,91.8000L211.1400,91.8000L211.1400,91.8000L213.4350,91.8000L213.4350,95.3691L215.7300,95.3691L215.7300,91.8000
            L218.0250,91.8000L218.0250,91.8000L220.3200,91.8000L220.3200,95.3691L222.6150,95.3691L222.6150,95.3691L224.9100,95.3691L224.9100,98.9382L227.2050,98.9382L227.2050,98.9382
            L229.5000,98.9382L229.5000,98.9382L231.7950,98.9382L231.7950,95.3691L234.0900,95.3691L234.0900,91.8000L236.3850,91.8000L236.3850,102.5073L238.6800,102.5073L238.6800,98.9382
            L240.9750,98.9382L240.9750,98.9382L243.2700,98.9382L243.2700,106.0764L245.5650,106.0764L245.5650,106.0764L247.8600,106.0764L247.8600,109.6455L250.1550,109.6455L250.1550,113.2146
            L252.4500,113.2146L252.4500,106.0764L254.7450,106.0764L254.7450,102.5073L257.0400,102.5073L257.0400,113.2146L259.3350,113.2146L259.3350,123.9220L261.6300,123.9220L261.6300,102.5073
            L263.9250,102.5073L263.9250,116.7838L266.2200,116.7838L266.2200,109.6455L268.5150,109.6455L268.5150,127.4911L270.8100,127.4911L270.8100,127.4911L273.1050,127.4911L273.1050,131.0602
            L275.4000,131.0602L275.4000,159.6130L277.6950,159.6130L277.6950,152.4748L279.9900,152.4748L279.9900,152.4748L282.2850,152.4748L282.2850,152.4748L284.5800,152.4748L284.5800,152.4748
            L286.8750,152.4748L286.8750,152.4748L289.1700,152.4748L289.1700,152.4748L291.4650,152.4748L291.4650,145.3366L293.7600,145.3366L293.7600,181.0277L296.0550,181.0277L296.0550,152.4748
            L298.3500,152.4748L298.3500,173.8895L300.6450,173.8895L300.6450,209.5806L302.9400,209.5806L302.9400,177.4586L305.2350,177.4586L305.2350,206.0114L307.5300,206.0114L307.5300,216.7188
            L309.8250,216.7188L309.8250,241.7025L312.1200,241.7025L312.1200,198.8732L314.4150,198.8732L314.4150,191.7350L316.7100,191.7350L316.7100,227.4261L319.0050,227.4261L319.0050,259.5481
            L321.3000,259.5481L321.3000,263.1172L323.5950,263.1172L323.5950,213.1497L325.8900,213.1497L325.8900,273.8245L328.1850,273.8245L328.1850,295.2391L330.4800,295.2391L330.4800,280.9627
            L332.7750,280.9627L332.7750,277.3936L335.0700,277.3936L335.0700,234.5643L337.3650,234.5643L337.3650,280.9627L339.6600,280.9627L339.6600,295.2391L341.9550,295.2391L341.9550,334.4993
            L344.2500,334.4993L344.2500,305.9465L346.5450,305.9465L346.5450,302.3774L348.8400,302.3774L348.8400,309.5156L351.1350,309.5156L351.1350,352.3449L353.4300,352.3449L353.4300,270.2554
            L355.7250,270.2554L355.7250,313.0847L358.0200,313.0847L358.0200,320.2229L360.3150,320.2229L360.3150,288.1009L362.6100,288.1009L362.6100,363.0522L364.9050,363.0522L364.9050,341.6375
            L367.2000,341.6375L367.2000,380.8977L369.4950,380.8977L369.4950,313.0847L371.7900,313.0847L371.7900,334.4993L374.0850,334.4993L374.0850,341.6375L376.3800,341.6375L376.3800,327.3611
            L378.6750,327.3611L378.6750,330.9302L380.9700,330.9302L380.9700,284.5318L383.2650,284.5318L383.2650,348.7758L385.5600,348.7758L385.5600,273.8245L387.8550,273.8245L387.8550,313.0847
            L390.1500,313.0847L390.1500,341.6375L392.4450,341.6375L392.4450,330.9302L394.7400,330.9302L394.7400,298.8082L397.0350,298.8082L397.0350,298.8082L399.3300,298.8082L399.3300,295.2391
            L401.6250,295.2391L401.6250,277.3936L403.9200,277.3936L403.9200,298.8082L406.2150,298.8082L406.2150,280.9627L408.5100,280.9627L408.5100,259.5481L410.8050,259.5481L410.8050,245.2716
            L413.1000,245.2716L413.1000,280.9627L415.3950,280.9627L415.3950,277.3936L417.6900,277.3936L417.6900,270.2554L419.9850,270.2554L419.9850,288.1009L422.2800,288.1009L422.2800,277.3936
            L424.5750,277.3936L424.5750,248.8407L426.8700,248.8407L426.8700,238.1334L429.1650,238.1334L429.1650,270.2554L431.4600,270.2554L431.4600,238.1334L433.7550,238.1334L433.7550,198.8732
            L436.0500,198.8732L436.0500,202.4423L438.3450,202.4423L438.3450,202.4423L440.6400,202.4423L440.6400,227.4261L442.9350,227.4261L442.9350,209.5806L445.2300,209.5806L445.2300,198.8732
            L447.5250,198.8732L447.5250,213.1497L449.8200,213.1497L449.8200,163.1822L452.1150,163.1822L452.1150,184.5968L454.4100,184.5968L454.4100,202.4423L456.7050,202.4423L456.7050,145.3366
            L459.0000,145.3366L459.0000,195.3041L461.2950,195.3041L461.2950,191.7350L463.5900,191.7350L463.5900,156.0439L465.8850,156.0439L465.8850,134.6293L468.1800,134.6293L468.1800,156.0439
            L470.4750,156.0439L470.4750,152.4748L472.7700,152.4748L472.7700,134.6293L475.0650,134.6293L475.0650,123.9220L477.3600,123.9220L477.3600,109.6455L479.6550,109.6455L479.6550,148.9057
            L481.9500,148.9057L481.9500,127.4911L484.2450,127.4911L484.2450,131.0602L486.5400,131.0602L486.5400,106.0764L488.8350,106.0764L488.8350,120.3529L491.1300,120.3529L491.1300,120.3529
            L493.4250,120.3529L493.4250,109.6455L495.7200,109.6455L495.7200,113.2146L498.0150,113.2146L498.0150,109.6455L500.3100,109.6455L500.3100,113.2146L502.6050,113.2146L502.6050,98.9382
            L504.9000,98.9382L504.9000,106.0764L507.1950,106.0764L507.1950,95.3691L509.4900,95.3691L509.4900,98.9382L511.7850,98.9382L511.7850,102.5073L514.0800,102.5073L514.0800,102.5073
            L516.3750,102.5073L516.3750,98.9382L518.6700,98.9382L518.6700,102.5073L520.9650,102.5073L520.9650,98.9382L523.2600,98.9382L523.2600,98.9382L525.5550,98.9382L525.5550,95.3691
            L527.8500,95.3691L527.8500,95.3691L530.1450,95.3691L530.1450,98.9382L532.4400,98.9382L532.4400,102.5073L534.7350,102.5073L534.7350,95.3691L537.0300,95.3691L537.0300,95.3691
            L539.3250,95.3691L539.3250,109.6455L541.6200,109.6455L541.6200,91.8000L543.9150,91.8000L543.9150,91.8000L546.2100,91.8000L546.2100,91.8000L548.5050,91.8000L548.5050,95.3691
            L550.8000,95.3691"/>
   <path d="M91.8000,91.8000L91.8000,91.8000"/>
   <path d="M94.0950,91.8000L94.0950,91.8000"/>
   <path d="M96.3900,91.8000L96.3900,91.8000"/>
   <path d="M98.6850,91.8000L98.6850,91.8000"/>
   <path d="M100.9800,91.8000L100.9800,91.8000"/>
   <path d="M103.2750,91.8000L103.2750,91.8000"/>
   <path d="M105.5700,91.8000L105.5700,91.8000"/>
   <path d="M107.8650,91.8000L107.8650,91.8000"/>
   <path d="M110.1600,91.8000L110.1600,91.8000"/>
   <path d="M112.4550,91.8000L112.4550,91.8000"/>
   <path d="M114.7500,91.8000L114.7500,91.8000"/>
   <path d="M117.0450,91.8000L117.0450,91.8000"/>
   <path d="M119.3400,91.8000L119.3400,91.8000"/>
   <path d="M121.6350,91.8000L121.6350,91.8000"/>
   <path d="M123.9300,91.8000L123.9300,91.8000"/>
   <path d="M126.2250,91.8000L126.2250,91.8000"/>
   <path d="M128.5200,91.8000L128.5200,91.8000"/>
   <path d="M130.8150,91.8000L130.8150,91.8000"/>
   <path d="M133.1100,91.8000L133.1100,91.8000"/>
   <path d="M135.4050,91.8000L135.4050,91.8000"/>
   <path d="M137.7000,91.8000L137.7000,91.8000"/>
   <path d="M139.9950,91.8000L139.9950,91.8000"/>
   <path d="M142.2900,91.8000L142.2900,91.8000"/>
   <path d="M144.5850,91.8000L144.5850,91.8000"/>
   <path d="M146.8800,91.8000L146.8800,91.8000"/>
   <path d="M149.1750,91.8000L149.1750,91.8000"/>
   <path d="M151.4700,91.8000L151.4700,91.8000"/>
   <path d="M153.7650,91.8000L153.7650,91.8000"/>
   <path d="M156.0600,91.8000L156.0600,91.8000"/>
   <path d="M158.3550,91.8000L158.3550,91.8000"/>
   <path d="M160.6500,91.8000L160.6500,91.8000"/>
   <path d="M162.9450,91.8000L162.9450,91.8000"/>
   <path d="M165.2400,91.8000L165.2400,91.8000"/>
   <path d="M167.5350,91.8000L167.5350,91.8000"/>
   <path d="M169.8300,91.8000L169.8300,91.8000"/>
   <path d="M172.1250,91.8000L172.1250,91.8000"/>
   <path d="M174.4200,91.8000L174.4200,91.8000"/>
   <path d="M176.7150,91.8000L176.7150,95.3691"/>
   <path d="M179.0100,91.8000L179.0100,91.8000"/>
   <path d="M181.3050,91.8000L181.3050,91.8000"/>
   <path d="M183.6000,91.8000L183.6000,91.8000"/>
   <path d="M185.8950,91.8000L185.8950,91.8000"/>
   <path d="M188.1900,91.8000L188.1900,91.8000"/>
   <path d="M190.4850,91.8000L190.4850,91.8000"/>
   <path d="M192.7800,91.8000L192.7800,91.8000"/>
   <path d="M195.0750,91.8000L195.0750,91.8000"/>
   <path d="M197.3700,91.8000L197.3700,91.8000"/>
   <path d="M199.6650,91.8000L199.6650,91.8000"/>
   <path d="M201.9600,91.8000L201.9600,91.8000"/>
   <path d="M204.2550,91.8000L204.2550,95.3691"/>
   <path d="M206.5500,91.8000L206.5500,95.3691"/>
   <path d="M208.8450,91.8000L208.8450,91.8000"/>
   <path d="M211.1400,91.8000L211.1400,91.8000"/>
   <path d="M213.4350,91.8000L213.4350,91.8000"/>
   <path d="M215.7300,91.8000L215.7300,95.3691"/>
   <path d="M218.0250,91.8000L218.0250,91.8000"/>
   <path d="M220.3200,91.8000L220.3200,91.8000"/>
   <path d="M222.6150,91.8000L222.6150,95.3691"/>
   <path d="M224.9100,91.8000L224.9100,95.3691"/>
   <path d="M227.2050,91.8000L227.2050,98.9382"/>
   <path d="M229.5000,91.8000L229.5000,98.9382"/>
   <path d="M231.7950,91.8000L231.7950,98.9382"/>
   <path d="M234.0900,91.8000L234.0900,95.3691"/>
   <path d="M236.3850,91.8000L236.3850,91.8000"/>
   <path d="M238.6800,91.8000L238.6800,102.5073"/>
   <path d="M240.9750,91.8000L240.9750,98.9382"/>
   <path d="M243.2700,91.8000L243.2700,98.9382"/>
   <path d="M245.5650,91.8000L245.5650,106.0764"/>
   <path d="M247.8600,91.8000L247.8600,106.0764"/>
   <path d="M250.1550,91.8000L250.1550,109.6455"/>
   <path d="M252.4500,91.8000L252.4500,113.2146"/>
   <path d="M254.7450,91.8000L254.7450,106.0764"/>
   <path d="M257.0400,91.8000L257.0400,102.5073"/>
   <path d="M259.3350,91.8000L259.3350,113.2146"/>
   <path d="M261.6300,91.8000L261.6300,123.9220"/>
   <path d="M263.9250,91.8000L263.9250,102.5073"/>
   <path d="M266.2200,91.8000L266.2200,116.7838"/>
   <path d="M268.5150,91.8000L268.5150,109.6455"/>
   <path d="M270.8100,91.8000L270.8100,127.4911"/>
   <path d="M273.1050,91.8000L273.1050,127.4911"/>
   <path d="M275.4000,91.8000L275.4000,131.0602"/>
   <path d="M277.6950,91.8000L277.6950,159.6130"/>
   <path d="M279.9900,91.8000L279.9900,152.4748"/>
   <path d="M282.2850,91.8000L282.2850,152.4748"/>
   <path d="M284.5800,91.8000L284.5800,152.4748"/>
   <path d="M286.8750,91.8000L286.8750,152.4748"/>
   <path d="M289.1700,91.8000L289.1700,152.4748"/>
   <path d="M291.4650,91.8000L291.4650,152.4748"/>
   <path d="M293.7600,91.8000L293.7600,145.3366"/>
   <path d="M296.0550,91.8000L296.0550,181.0277"/>
   <path d="M298.3500,91.8000L298.3500,152.4748"/>
   <path d="M300.6450,91.8000L300.6450,173.8895"/>
   <path d="M302.9400,91.8000L302.9400,209.5806"/>
   <path d="M305.2350,91.8000L305.2350,177.4586"/>
   <path d="M307.5300,91.8000L307.5300,206.0114"/>
   <path d="M309.8250,91.8000L309.8250,216.7188"/>
   <path d="M312.1200,91.8000L312.1200,241.7025"/>
   <path d="M314.4150,91.8000L314.4150,198.8732"/>
   <path d="M316.7100,91.8000L316.7100,191.7350"/>
   <path d="M319.0050,91.8000L319.0050,227.4261"/>
   <path d="M321.3000,91.8000L321.3000,259.5481"/>
   <path d="M323.5950,91.8000L323.5950,263.1172"/>
   <path d="M325.8900,91.8000L325.8900,213.1497"/>
   <path d="M328.1850,91.8000L328.1850,273.8245"/>
   <path d="M330.4800,91.8000L330.4800,295.2391"/>
   <path d="M332.7750,91.8000L332.7750,280.9627"/>
   <path d="M335.0700,91.8000L335.0700,277.3936"/>
   <path d="M337.3650,91.8000L337.3650,234.5643"/>
   <path d="M339.6600,91.8000L339.6600,280.9627"/>
   <path d="M341.9550,91.8000L341.9550,295.2391"/>
   <path d="M344.2500,91.8000L344.2500,334.4993"/>
   <path d="M346.5450,91.8000L346.5450,305.9465"/>
   <path d="M348.8400,91.8000L348.8400,302.3774"/>
   <path d="M351.1350,91.8000L351.1350,309.5156"/>
   <path d="M353.4300,91.8000L353.4300,352.3449"/>
   <path d="M355.7250,91.8000L355.7250,270.2554"/>
   <path d="M358.0200,91.8000L358.0200,313.0847"/>
   <path d="M360.3150,91.8000L360.3150,320.2229"/>
   <path d="M362.6100,91.8000L362.6100,288.1009"/>
   <path d="M364.9050,91.8000L364.9050,363.0522"/>
   <path d="M367.2000,91.8000L367.2000,341.6375"/>
   <path d="M369.4950,91.8000L369.4950,380.8977"/>
   <path d="M371.7900,91.8000L371.7900,313.0847"/>
   <path d="M374.0850,91.8000L374.0850,334.4993"/>
   <path d="M376.3800,91.8000L376.3800,341.6375"/>
   <path d="M378.6750,91.8000L378.6750,327.3611"/>
   <path d="M380.9700,91.8000L380.9700,330.9302"/>
   <path d="M383.2650,91.8000L383.2650,284.5318"/>
   <path d="M385.5600,91.8000L385.5600,348.7758"/>
   <path d="M387.8550,91.8000L387.8550,273.8245"/>
   <path d="M390.1500,91.8000L390.1500,313.0847"/>
   <path d="M392.4450,91.8000L392.4450,341.6375"/>
   <path d="M394.7400,91.8000L394.7400,330.9302"/>
   <path d="M397.0350,91.8000L397.0350,298.8082"/>
   <path d="M399.3300,91.8000L399.3300,298.8082"/>
   <path d="M401.6250,91.8000L401.6250,295.2391"/>
   <path d="M403.9200,91.8000L403.9200,277.3936"/>
   <path d="M406.2150,91.8000L406.2150,298.8082"/>
   <path d="M408.5100,91.8000L408.5100,280.9627"/>
   <path d="M410.8050,91.8000L410.8050,259.5481"/>
   <path d="M413.1000,91.8000L413.1000,245.2716"/>
   <path d="M415.3950,91.8000L415.3950,280.9627"/>
   <path d="M417.6900,91.8000L417.6900,277.3936"/>
   <path d="M419.9850,91.8000L419.9850,270.2554"/>
   <path d="M422.2800,91.8000L422.2800,288.1009"/>
   <path d="M424.5750,91.8000L424.5750,277.3936"/>
   <path d="M426.8700,91.8000L426.8700,248.8407"/>
   <path d="M429.1650,91.8000L429.1650,238.1334"/>
   <path d="M431.4600,91.8000L431.4600,270.2554"/>
   <path d="M433.7550,91.8000L433.7550,238.1334"/>
   <path d="M436.0500,91.8000L436.0500,198.8732"/>
   <path d="M438.3450,91.8000L438.3450,202.4423"/>
   <path d="M440.6400,91.8000L440.6400,202.4423"/>
   <path d="M442.9350,91.8000L442.9350,227.4261"/>
   <path d="M445.2300,91.8000L445.2300,209.5806"/>
   <path d="M447.5250,91.8000L447.5250,198.8732"/>
   <path d="M449.8200,91.8000L449.8200,213.1497"/>
   <path d="M452.1150,91.8000L452.1150,163.1822"/>
   <path d="M454.4100,91.8000L454.4100,184.5968"/>
   <path d="M456.7050,91.8000L456.7050,202.4423"/>
   <path d="M459.0000,91.8000L459.0000,145.3366"/>
   <path d="M461.2950,91.8000L461.2950,195.3041"/>
   <path d="M463.5900,91.8000L463.5900,191.7350"/>
   <path d="M465.8850,91.8000L465.8850,156.0439"/>
   <path d="M468.1800,91.8000L468.1800,134.6293"/>
   <path d="M470.4750,91.8000L470.4750,156.0439"/>
   <path d="M472.7700,91.8000L472.7700,152.4748"/>
   <path d="M475.0650,91.8000L475.0650,134.6293"/>
   <path d="M477.3600,91.8000L477.3600,123.9220"/>
   <path d="M479.6550,91.8000L479.6550,109.6455"/>
   <path d="M481.9500,91.8000L481.9500,148.9057"/>
   <path d="M484.2450,91.8000L484.2450,127.4911"/>
   <path d="M486.5400,91.8000L486.5400,131.0602"/>
   <path d="M488.8350,91.8000L488.8350,106.0764"/>
   <path d="M491.1300,91.8000L491.1300,120.3529"/>
   <path d="M493.4250,91.8000L493.4250,120.3529"/>
   <path d="M495.7200,91.8000L495.7200,109.6455"/>
   <path d="M498.0150,91.8000L498.0150,113.2146"/>
   <path d="M500.3100,91.8000L500.3100,109.6455"/>
   <path d="M502.6050,91.8000L502.6050,113.2146"/>
   <path d="M504.9000,91.8000L504.9000,98.9382"/>
   <path d="M507.1950,91.8000L507.1950,106.0764"/>
   <path d="M509.4900,91.8000L509.4900,95.3691"/>
   <path d="M511.7850,91.8000L511.7850,98.9382"/>
   <path d="M514.0800,91.8000L514.0800,102.5073"/>
   <path d="M516.3750,91.8000L516.3750,102.5073"/>
   <path d="M518.6700,91.8000L518.6700,98.9382"/>
   <path d="M520.9650,91.8000L520.9650,102.5073"/>
   <path d="M523.2600,91.8000L523.2600,98.9382"/>
   <path d="M525.5550,91.8000L525.5550,98.9382"/>
   <path d="M527.8500,91.8000L527.8500,95.3691"/>
   <path d="M530.1450,91.8000L530.1450,95.3691"/>
   <path d="M532.4400,91.8000L532.4400,98.9382"/>
   <path d="M534.7350,91.8000L534.7350,102.5073"/>
   <path d="M537.0300,91.8000L537.0300,95.3691"/>
   <path d="M539.3250,91.8000L539.3250,95.3691"/>
   <path d="M541.6200,91.8000L541.6200,109.6455"/>
   <path d="M543.9150,91.8000L543.9150,91.8000"/>
   <path d="M546.2100,91.8000L546.2100,91.8000"/>
   <path d="M548.5050,91.8000L548.5050,91.8000"/>
   <path d="M550.8000,91.8000L550.8000,95.3691"/>
   <path d="M91.8000,91.8000L703.8000,91.8000"/>
   <path d="M91.8000,520.2000L703.8000,520.2000"/>
   <path d="M168.3000,91.8000L168.3000,97.9200"/>
   <path d="M168.3000,520.2000L168.3000,514.0800"/>
   <path d="M321.3000,91.8000L321.3000,97.9200"/>
   <path d="M321.3000,520.2000L321.3000,514.0800"/>
   <path d="M474.3000,91.8000L474.3000,97.9200"/>
   <path d="M474.3000,520.2000L474.3000,514.0800"/>
   <path d="M627.3000,91.8000L627.3000,97.9200"/>
   <path d="M627.3000,520.2000L627.3000,514.0800"/>
   <path d="M91.8000,91.8000L91.8000,104.0400"/>
   <path d="M91.8000,520.2000L91.8000,507.9600"/>
   <path d="M244.8000,91.8000L244.8000,104.0400"/>
   <path d="M244.8000,520.2000L244.8000,507.9600"/>
   <path d="M397.8000,91.8000L397.8000,104.0400"/>
   <path d="M397.8000,520.2000L397.8000,507.9600"/>
   <path d="M550.8000,91.8000L550.8000,104.0400"/>
   <path d="M550.8000,520.2000L550.8000,507.9600"/>
   <path d="M703.8000,91.8000L703.8000,104.0400"/>
   <path d="M703.8000,520.2000L703.8000,507.9600"/>
  </g>
  <g style="fill:#000000; fill-rule:nonzero">
   <text   style="font-family:'Times','Nimbus Roman'; font-style:normal; font-weight:normal; font-size:612.0000" transform="matrix(0.0280,0.0000,-0.0000,-0.0280,79.3000,73.6800)">290</text>
   <text   style="font-family:'Times','Nimbus Roman'; font-style:normal; font-weight:normal; font-size:612.0000" transform="matrix(0.0280,0.0000,-0.0000,-0.0280,232.3000,73.6800)">300</text>
   <text   style="font-family:'Times','Nimbus Roman'; font-style:normal; font-weight:normal; font-size:612.0000" transform="matrix(0.0280,0.0000,-0.0000,-0.0280,385.3000,73.6800)">310</text>
   <text   style="font-family:'Times','Nimbus Roman'; font-style:normal; font-weight:normal; font-size:612.0000" transform="matrix(0.0280,0.0000,-0.0000,-0.0280,538.3000,73.6800)">320</text>
   <text   style="font-family:'Times','Nimbus Roman'; font-style:normal; font-weight:normal; font-size:612.0000" transform="matrix(0.0280,0.0000,-0.0000,-0.0280,691.3000,73.6800)">330</text>
   <text   style="font-family:'Times','Nimbus Roman'; font-style:normal; font-weight:normal; font-size:612.0000" transform="matrix(0.0280,0.0000,-0.0000,-0.0280,340.3000,54.5600)">Temperature (K)</text>
  </g>
  <g style="fill:none; stroke:#000000; stroke-width:  0.9180; stroke-linecap:butt; stroke-linejoin:miter; stroke-dasharray:none">
   <path d="M91.8000,91.8000L91.8000,520.2000"/>
   <path d="M703.8000,91.8000L703.8000,520.2000"/>
   <path d="M91.8000,145.3500L97.9200,145.3500"/>
   <path d="M703.8000,145.3500L697.6800,145.3500"/>
   <path d="M91.8000,252.4500L97.9200,252.4500"/>
   <path d="M703.8000,252.4500L697.6800,252.4500"/>
   <path d="M91.8000,359.5500L97.9200,359.5500"/>
   <path d="M703.8000,359.5500L697.6800,359.5500"/>
   <path d="M91.8000,466.6500L97.9200,466.6500"/>
   <path d="M703.8000,466.6500L697.6800,466.6500"/>
   <path d="M91.8000,91.8000L104.0400,91.8000"/>
   <path d="M703.8000,91.8000L691.5600,91.8000"/>
   <path d="M91.8000,198.9000L104.0400,198.9000"/>
   <path d="M703.8000,198.9000L691.5600,198.9000"/>
   <path d="M91.8000,306.0000L104.0400,306.0000"/>
   <path d="M703.8000,306.0000L691.5600,306.0000"/>
   <path d="M91.8000,413.1000L104.0400,413.1000"/>
   <path d="M703.8000,413.1000L691.5600,413.1000"/>
   <path d="M91.8000,520.2000L104.0400,520.2000"/>
   <path d="M703.8000,520.2000L691.5600,520.2000"/>
  </g>
  <g style="fill:#000000; fill-rule:nonzero">
   <text   style="font-family:'Times','Nimbus Roman'; font-style:normal; font-weight:normal; font-size:612.0000" transform="matrix(0.0280,0.0000,-0.0000,-0.0280,77.6800,85.8000)">0</text>
   <text   style="font-family:'Times','Nimbus Roman'; font-style:normal; font-weight:normal; font-size:612.0000" transform="matrix(0.0280,0.0000,-0.0000,-0.0280,56.6800,192.9000)">0.05</text>
   <text   style="font-family:'Times','Nimbus Roman'; font-style:normal; font-weight:normal; font-size:612.0000" transform="matrix(0.0280,0.0000,-0.0000,-0.0280,65.6800,300.0000)">0.1</text>
   <text   style="font-family:'Times','Nimbus Roman'; font-style:normal; font-weight:normal; font-size:612.0000" transform="matrix(0.0280,0.0000,-0.0000,-0.0280,56.6800,407.1000)">0.15</text>
   <text   style="font-family:'Times','Nimbus Roman'; font-style:normal; font-weight:normal; font-size:612.0000" transform="matrix(0.0280,0.0000,-0.0000,-0.0280,63.6800,514.2000)">0.2</text>
   <text   style="font-family:'Times','Nimbus Roman'; font-style:normal; font-weight:normal; font-size:612.0000" transform="matrix(0.0000,0.0280,0.0280,-0.0000,46.5600,235.0000)">Relatiove Frequency</text>
  </g>
  <g style="fill:none; stroke:#000000; stroke-width:  0.9180; stroke-linecap:butt; stroke-linejoin:miter; stroke-dasharray:none">
   <path d="M91.8000,91.8000L91.8000,520.2000L703.8000,520.2000L703.8000,91.8000z"/>
  </g>
  <g style="fill:#000000; fill-rule:nonzero">
   <text   style="font-family:'Times','Nimbus Roman'; font-style:normal; font-weight:normal; font-size:612.0000" transform="matrix(0.0420,0.0000,-0.0000,-0.0420,184.8000,562.9200)">Ubiquition in Water Box (Periodic, NPT)</text>
   <text   style="font-family:'Times','Nimbus Roman'; font-style:normal; font-weight:normal; font-size:612.0000" transform="matrix(0.0280,0.0000,-0.0000,-0.0280,239.8000,536.4400)">Temeprature distribution for last 4000 Frames</text>
  </g>
 </g>
</svg>
