<?xml version="1.0" encoding="ISO-8859-1"?>
<!DOCTYPE svg PUBLIC "-//W3C//DTD SVG 1.0//EN" "http://www.w3.org/TR/2001/REC-SVG-20010904/DTD/svg10.dtd">
<!-- generated by Grace-5.1.25 -->
<svg xml:space="preserve" width="11.0000in" height="8.5000in" viewBox="0.0000 0.0000 792.0000 612.0000">
 <g transform="translate(0,612.0000) scale(1,-1)">
  <g style="fill:#FFFFFF; fill-rule:nonzero">
   <path  d="M0.0000,0.0000L0.0000,612.0000L792.0000,612.0000L792.0000,0.0000z"/>
  </g>
  <g style="fill:none; stroke:#000000; stroke-width:  0.9180; stroke-linecap:butt; stroke-linejoin:miter; stroke-dasharray:none">
   <path d="M91.7388,91.8000L91.8000,91.8000L91.8000,91.8000L94.2480,91.8000L94.2480,91.8000L96.6960,91.8000L96.6960,91.8000L99.1440,91.8000L99.1440,91.8000L101.5920,91.8000
            L101.5920,91.8000L104.0400,91.8000L104.0400,91.8000L106.4880,91.8000L106.4880,91.8000L108.9360,91.8000L108.9360,91.8000L111.3840,91.8000L111.3840,91.8000L113.8320,91.8000
            L113.8320,91.8000L116.2800,91.8000L116.2800,91.8000L118.7280,91.8000L118.7280,91.8000L121.1760,91.8000L121.1760,91.8000L123.6240,91.8000L123.6240,91.8000L126.0720,91.8000
            L126.0720,91.8000L128.5200,91.8000L128.5200,91.8000L130.9680,91.8000L130.9680,91.8000L133.4160,91.8000L133.4160,91.8000L135.8640,91.8000L135.8640,91.8000L138.3120,91.8000
            L138.3120,91.8000L140.7600,91.8000L140.7600,91.9785L143.2080,91.9785L143.2080,91.8000L145.6560,91.8000L145.6560,91.8000L148.1040,91.8000L148.1040,91.8000L150.5520,91.8000
            L150.5520,91.8000L153.0000,91.8000L153.0000,91.8000L155.4480,91.8000L155.4480,91.9785L157.8960,91.9785L157.8960,91.9785L160.3440,91.9785L160.3440,91.9785L162.7920,91.9785
            L162.7920,92.1570L165.2400,92.1570L165.2400,92.1570L167.6880,92.1570L167.6880,91.9785L170.1360,91.9785L170.1360,91.9785L172.5840,91.9785L172.5840,91.8000L175.0320,91.8000
            L175.0320,92.1570L177.4800,92.1570L177.4800,92.6925L179.9280,92.6925L179.9280,91.9785L182.3760,91.9785L182.3760,92.3355L184.8240,92.3355L184.8240,92.3355L187.2720,92.3355
            L187.2720,92.8710L189.7200,92.8710L189.7200,92.3355L192.1680,92.3355L192.1680,93.0495L194.6160,93.0495L194.6160,92.1570L197.0640,92.1570L197.0640,92.5140L199.5120,92.5140
            L199.5120,93.7635L201.9600,93.7635L201.9600,93.9420L204.4080,93.9420L204.4080,94.2990L206.8560,94.2990L206.8560,93.4065L209.3040,93.4065L209.3040,93.7635L211.7520,93.7635
            L211.7520,93.4065L214.2000,93.4065L214.2000,95.0130L216.6480,95.0130L216.6480,94.1205L219.0960,94.1205L219.0960,95.9055L221.5440,95.9055L221.5440,96.0840L223.9920,96.0840
            L223.9920,95.1915L226.4400,95.1915L226.4400,96.4410L228.8880,96.4410L228.8880,97.5119L231.3360,97.5119L231.3360,95.0130L233.7840,95.0130L233.7840,97.5119L236.2320,97.5119
            L236.2320,96.7980L238.6800,96.7980L238.6800,100.3679L241.1280,100.3679L241.1280,102.3314L243.5760,102.3314L243.5760,100.5464L246.0240,100.5464L246.0240,100.0109L248.4720,100.0109
            L248.4720,102.8669L250.9200,102.8669L250.9200,102.3314L253.3680,102.3314L253.3680,103.0454L255.8160,103.0454L255.8160,105.1874L258.2640,105.1874L258.2640,106.7939L260.7120,106.7939
            L260.7120,109.2928L263.1600,109.2928L263.1600,107.6863L265.6080,107.6863L265.6080,114.2908L268.0560,114.2908L268.0560,112.8628L270.5040,112.8628L270.5040,116.9682L272.9520,116.9682
            L272.9520,123.5727L275.4000,123.5727L275.4000,121.0737L277.8480,121.0737L277.8480,124.8222L280.2960,124.8222L280.2960,127.6781L282.7440,127.6781L282.7440,128.3921L285.1920,128.3921
            L285.1920,135.5321L287.6400,135.5321L287.6400,142.1365L290.0880,142.1365L290.0880,142.1365L292.5360,142.1365L292.5360,148.2054L294.9840,148.2054L294.9840,154.8099L297.4320,154.8099
            L297.4320,157.4873L299.8800,157.4873L299.8800,163.5563L302.3280,163.5563L302.3280,163.3778L304.7760,163.3778L304.7760,176.0512L307.2240,176.0512L307.2240,181.5846L309.6720,181.5846
            L309.6720,189.7955L312.1200,189.7955L312.1200,189.7955L314.5680,189.7955L314.5680,193.7225L317.0160,193.7225L317.0160,211.3938L319.4640,211.3938L319.4640,205.6819L321.9120,205.6819
            L321.9120,216.5703L324.3600,216.5703L324.3600,225.3167L326.8080,225.3167L326.8080,223.3532L329.2560,223.3532L329.2560,242.2740L331.7040,242.2740L331.7040,237.9900L334.1520,237.9900
            L334.1520,263.6938L336.6000,263.6938L336.6000,269.7627L339.0480,269.7627L339.0480,274.2252L341.4960,274.2252L341.4960,286.1846L343.9440,286.1846L343.9440,284.5781L346.3920,284.5781
            L346.3920,305.6409L348.8400,305.6409L348.8400,304.7484L351.2880,304.7484L351.2880,303.1419L353.7360,303.1419L353.7360,325.0972L356.1840,325.0972L356.1840,329.2026L358.6320,329.2026
            L358.6320,334.2006L361.0800,334.2006L361.0800,340.4480L363.5280,340.4480L363.5280,341.6975L365.9760,341.6975L365.9760,350.4439L368.4240,350.4439L368.4240,363.8313L370.8720,363.8313
            L370.8720,359.7258L373.3200,359.7258L373.3200,385.9651L375.7680,385.9651L375.7680,381.8596L378.2160,381.8596L378.2160,388.2855L380.6640,388.2855L380.6640,391.3200L383.1120,391.3200
            L383.1120,391.8555L385.5600,391.8555L385.5600,384.8941L388.0080,384.8941L388.0080,390.6060L390.4560,390.6060L390.4560,391.8555L392.9040,391.8555L392.9040,389.1780L395.3520,389.1780
            L395.3520,385.7866L397.8000,385.7866L397.8000,395.4255L400.2480,395.4255L400.2480,398.2814L402.6960,398.2814L402.6960,398.6384L405.1440,398.6384L405.1440,390.6060L407.5920,390.6060
            L407.5920,388.2855L410.0400,388.2855L410.0400,392.7480L412.4880,392.7480L412.4880,393.8190L414.9360,393.8190L414.9360,386.5006L417.3840,386.5006L417.3840,375.4337L419.8320,375.4337
            L419.8320,376.8616L422.2800,376.8616L422.2800,375.2552L424.7280,375.2552L424.7280,359.1903L427.1760,359.1903L427.1760,364.1883L429.6240,364.1883L429.6240,347.9449L432.0720,347.9449
            L432.0720,344.3750L434.5200,344.3750L434.5200,325.6327L436.9680,325.6327L436.9680,328.4886L439.4160,328.4886L439.4160,324.7402L441.8640,324.7402L441.8640,314.9228L444.3120,314.9228
            L444.3120,303.6774L446.7600,303.6774L446.7600,299.3934L449.2080,299.3934L449.2080,289.5760L451.6560,289.5760L451.6560,276.0102L454.1040,276.0102L454.1040,286.0061L456.5520,286.0061
            L456.5520,269.9412L459.0000,269.9412L459.0000,253.6979L461.4480,253.6979L461.4480,245.8440L463.8960,245.8440L463.8960,241.7385L466.3440,241.7385L466.3440,229.9576L468.7920,229.9576
            L468.7920,225.1382L471.2400,225.1382L471.2400,215.6778L473.6880,215.6778L473.6880,215.4993L476.1360,215.4993L476.1360,197.2924L478.5840,197.2924L478.5840,199.0774L481.0320,199.0774
            L481.0320,179.7996L483.4800,179.7996L483.4800,181.4061L485.9280,181.4061L485.9280,180.1566L488.3760,180.1566L488.3760,169.4467L490.8240,169.4467L490.8240,165.5198L493.2720,165.5198
            L493.2720,169.0897L495.7200,169.0897L495.7200,154.0959L498.1680,154.0959L498.1680,147.6699L500.6160,147.6699L500.6160,141.7795L503.0640,141.7795L503.0640,141.9580L505.5120,141.9580
            L505.5120,140.7085L507.9600,140.7085L507.9600,134.6396L510.4080,134.6396L510.4080,128.9276L512.8560,128.9276L512.8560,124.1082L515.3040,124.1082L515.3040,124.1082L517.7520,124.1082
            L517.7520,119.4672L520.2000,119.4672L520.2000,121.0737L522.6480,121.0737L522.6480,117.8607L525.0960,117.8607L525.0960,115.1833L527.5440,115.1833L527.5440,112.1488L529.9920,112.1488
            L529.9920,106.7939L532.4400,106.7939L532.4400,109.2928L534.8880,109.2928L534.8880,105.9014L537.3360,105.9014L537.3360,106.4369L539.7840,106.4369L539.7840,106.0799L542.2320,106.0799
            L542.2320,105.3659L544.6800,105.3659L544.6800,103.2239L547.1280,103.2239L547.1280,103.5809L549.5760,103.5809L549.5760,101.0819L552.0240,101.0819L552.0240,100.7249L554.4720,100.7249
            L554.4720,97.6904L556.9200,97.6904L556.9200,97.6904L559.3680,97.6904L559.3680,97.1549L561.8160,97.1549L561.8160,96.4410L564.2640,96.4410L564.2640,96.9764L566.7120,96.9764
            L566.7120,97.1549L569.1600,97.1549L569.1600,98.4044L571.6080,98.4044L571.6080,95.7270L574.0560,95.7270L574.0560,95.1915L576.5040,95.1915L576.5040,95.1915L578.9520,95.1915
            L578.9520,95.5485L581.4000,95.5485L581.4000,93.4065L583.8480,93.4065L583.8480,95.0130L586.2960,95.0130L586.2960,94.6560L588.7440,94.6560L588.7440,95.3700L591.1920,95.3700
            L591.1920,92.8710L593.6400,92.8710L593.6400,94.2990L596.0880,94.2990L596.0880,93.7635L598.5360,93.7635L598.5360,93.7635L600.9840,93.7635L600.9840,93.2280L603.4320,93.2280
            L603.4320,92.5140L605.8800,92.5140L605.8800,93.9420L608.3280,93.9420L608.3280,92.8710L610.7760,92.8710L610.7760,93.2280L613.2240,93.2280L613.2240,94.1205L615.6720,94.1205
            L615.6720,93.0495L618.1200,93.0495L618.1200,92.6925L620.5680,92.6925L620.5680,92.5140L623.0160,92.5140L623.0160,93.2280L625.4640,93.2280L625.4640,92.8710L627.9120,92.8710
            L627.9120,92.1570L630.3600,92.1570L630.3600,92.1570L632.8080,92.1570L632.8080,92.6925L635.2560,92.6925L635.2560,93.0495L637.7040,93.0495L637.7040,92.8710L640.1520,92.8710
            L640.1520,93.2280L642.6000,93.2280L642.6000,92.6925L645.0480,92.6925L645.0480,93.4065L647.4960,93.4065L647.4960,93.4065L649.9440,93.4065L649.9440,92.6925L652.3920,92.6925
            L652.3920,93.0495L654.8400,93.0495L654.8400,92.6925L657.2880,92.6925L657.2880,92.8710L659.7360,92.8710L659.7360,92.5140L662.1840,92.5140L662.1840,92.3355L664.6320,92.3355
            L664.6320,91.9785L667.0800,91.9785L667.0800,93.2280L669.5280,93.2280L669.5280,92.3355L671.9760,92.3355L671.9760,92.1570L674.4240,92.1570L674.4240,93.2280L676.8720,93.2280
            L676.8720,92.6925L679.3200,92.6925L679.3200,92.6925L681.7680,92.6925L681.7680,93.0495L684.2160,93.0495L684.2160,92.8710L686.6640,92.8710L686.6640,92.6925L689.1120,92.6925
            L689.1120,92.8710L691.5600,92.8710L691.5600,92.8710L694.0080,92.8710L694.0080,93.7635L696.4560,93.7635L696.4560,92.6925L698.9040,92.6925L698.9040,92.5140L701.3520,92.5140
            L701.3520,92.3355L703.8000,92.3355L703.8000,93.0495L703.8612,93.0495"/>
   <path d="M91.8000,91.8000L91.8000,91.8000"/>
   <path d="M94.2480,91.8000L94.2480,91.8000"/>
   <path d="M96.6960,91.8000L96.6960,91.8000"/>
   <path d="M99.1440,91.8000L99.1440,91.8000"/>
   <path d="M101.5920,91.8000L101.5920,91.8000"/>
   <path d="M104.0400,91.8000L104.0400,91.8000"/>
   <path d="M106.4880,91.8000L106.4880,91.8000"/>
   <path d="M108.9360,91.8000L108.9360,91.8000"/>
   <path d="M111.3840,91.8000L111.3840,91.8000"/>
   <path d="M113.8320,91.8000L113.8320,91.8000"/>
   <path d="M116.2800,91.8000L116.2800,91.8000"/>
   <path d="M118.7280,91.8000L118.7280,91.8000"/>
   <path d="M121.1760,91.8000L121.1760,91.8000"/>
   <path d="M123.6240,91.8000L123.6240,91.8000"/>
   <path d="M126.0720,91.8000L126.0720,91.8000"/>
   <path d="M128.5200,91.8000L128.5200,91.8000"/>
   <path d="M130.9680,91.8000L130.9680,91.8000"/>
   <path d="M133.4160,91.8000L133.4160,91.8000"/>
   <path d="M135.8640,91.8000L135.8640,91.8000"/>
   <path d="M138.3120,91.8000L138.3120,91.8000"/>
   <path d="M140.7600,91.8000L140.7600,91.8000"/>
   <path d="M143.2080,91.8000L143.2080,91.9785"/>
   <path d="M145.6560,91.8000L145.6560,91.8000"/>
   <path d="M148.1040,91.8000L148.1040,91.8000"/>
   <path d="M150.5520,91.8000L150.5520,91.8000"/>
   <path d="M153.0000,91.8000L153.0000,91.8000"/>
   <path d="M155.4480,91.8000L155.4480,91.8000"/>
   <path d="M157.8960,91.8000L157.8960,91.9785"/>
   <path d="M160.3440,91.8000L160.3440,91.9785"/>
   <path d="M162.7920,91.8000L162.7920,91.9785"/>
   <path d="M165.2400,91.8000L165.2400,92.1570"/>
   <path d="M167.6880,91.8000L167.6880,92.1570"/>
   <path d="M170.1360,91.8000L170.1360,91.9785"/>
   <path d="M172.5840,91.8000L172.5840,91.9785"/>
   <path d="M175.0320,91.8000L175.0320,91.8000"/>
   <path d="M177.4800,91.8000L177.4800,92.1570"/>
   <path d="M179.9280,91.8000L179.9280,92.6925"/>
   <path d="M182.3760,91.8000L182.3760,91.9785"/>
   <path d="M184.8240,91.8000L184.8240,92.3355"/>
   <path d="M187.2720,91.8000L187.2720,92.3355"/>
   <path d="M189.7200,91.8000L189.7200,92.8710"/>
   <path d="M192.1680,91.8000L192.1680,92.3355"/>
   <path d="M194.6160,91.8000L194.6160,93.0495"/>
   <path d="M197.0640,91.8000L197.0640,92.1570"/>
   <path d="M199.5120,91.8000L199.5120,92.5140"/>
   <path d="M201.9600,91.8000L201.9600,93.7635"/>
   <path d="M204.4080,91.8000L204.4080,93.9420"/>
   <path d="M206.8560,91.8000L206.8560,94.2990"/>
   <path d="M209.3040,91.8000L209.3040,93.4065"/>
   <path d="M211.7520,91.8000L211.7520,93.7635"/>
   <path d="M214.2000,91.8000L214.2000,93.4065"/>
   <path d="M216.6480,91.8000L216.6480,95.0130"/>
   <path d="M219.0960,91.8000L219.0960,94.1205"/>
   <path d="M221.5440,91.8000L221.5440,95.9055"/>
   <path d="M223.9920,91.8000L223.9920,96.0840"/>
   <path d="M226.4400,91.8000L226.4400,95.1915"/>
   <path d="M228.8880,91.8000L228.8880,96.4410"/>
   <path d="M231.3360,91.8000L231.3360,97.5119"/>
   <path d="M233.7840,91.8000L233.7840,95.0130"/>
   <path d="M236.2320,91.8000L236.2320,97.5119"/>
   <path d="M238.6800,91.8000L238.6800,96.7980"/>
   <path d="M241.1280,91.8000L241.1280,100.3679"/>
   <path d="M243.5760,91.8000L243.5760,102.3314"/>
   <path d="M246.0240,91.8000L246.0240,100.5464"/>
   <path d="M248.4720,91.8000L248.4720,100.0109"/>
   <path d="M250.9200,91.8000L250.9200,102.8669"/>
   <path d="M253.3680,91.8000L253.3680,102.3314"/>
   <path d="M255.8160,91.8000L255.8160,103.0454"/>
   <path d="M258.2640,91.8000L258.2640,105.1874"/>
   <path d="M260.7120,91.8000L260.7120,106.7939"/>
   <path d="M263.1600,91.8000L263.1600,109.2928"/>
   <path d="M265.6080,91.8000L265.6080,107.6863"/>
   <path d="M268.0560,91.8000L268.0560,114.2908"/>
   <path d="M270.5040,91.8000L270.5040,112.8628"/>
   <path d="M272.9520,91.8000L272.9520,116.9682"/>
   <path d="M275.4000,91.8000L275.4000,123.5727"/>
   <path d="M277.8480,91.8000L277.8480,121.0737"/>
   <path d="M280.2960,91.8000L280.2960,124.8222"/>
   <path d="M282.7440,91.8000L282.7440,127.6781"/>
   <path d="M285.1920,91.8000L285.1920,128.3921"/>
   <path d="M287.6400,91.8000L287.6400,135.5321"/>
   <path d="M290.0880,91.8000L290.0880,142.1365"/>
   <path d="M292.5360,91.8000L292.5360,142.1365"/>
   <path d="M294.9840,91.8000L294.9840,148.2054"/>
   <path d="M297.4320,91.8000L297.4320,154.8099"/>
   <path d="M299.8800,91.8000L299.8800,157.4873"/>
   <path d="M302.3280,91.8000L302.3280,163.5563"/>
   <path d="M304.7760,91.8000L304.7760,163.3778"/>
   <path d="M307.2240,91.8000L307.2240,176.0512"/>
   <path d="M309.6720,91.8000L309.6720,181.5846"/>
   <path d="M312.1200,91.8000L312.1200,189.7955"/>
   <path d="M314.5680,91.8000L314.5680,189.7955"/>
   <path d="M317.0160,91.8000L317.0160,193.7225"/>
   <path d="M319.4640,91.8000L319.4640,211.3938"/>
   <path d="M321.9120,91.8000L321.9120,205.6819"/>
   <path d="M324.3600,91.8000L324.3600,216.5703"/>
   <path d="M326.8080,91.8000L326.8080,225.3167"/>
   <path d="M329.2560,91.8000L329.2560,223.3532"/>
   <path d="M331.7040,91.8000L331.7040,242.2740"/>
   <path d="M334.1520,91.8000L334.1520,237.9900"/>
   <path d="M336.6000,91.8000L336.6000,263.6938"/>
   <path d="M339.0480,91.8000L339.0480,269.7627"/>
   <path d="M341.4960,91.8000L341.4960,274.2252"/>
   <path d="M343.9440,91.8000L343.9440,286.1846"/>
   <path d="M346.3920,91.8000L346.3920,284.5781"/>
   <path d="M348.8400,91.8000L348.8400,305.6409"/>
   <path d="M351.2880,91.8000L351.2880,304.7484"/>
   <path d="M353.7360,91.8000L353.7360,303.1419"/>
   <path d="M356.1840,91.8000L356.1840,325.0972"/>
   <path d="M358.6320,91.8000L358.6320,329.2026"/>
   <path d="M361.0800,91.8000L361.0800,334.2006"/>
   <path d="M363.5280,91.8000L363.5280,340.4480"/>
   <path d="M365.9760,91.8000L365.9760,341.6975"/>
   <path d="M368.4240,91.8000L368.4240,350.4439"/>
   <path d="M370.8720,91.8000L370.8720,363.8313"/>
   <path d="M373.3200,91.8000L373.3200,359.7258"/>
   <path d="M375.7680,91.8000L375.7680,385.9651"/>
   <path d="M378.2160,91.8000L378.2160,381.8596"/>
   <path d="M380.6640,91.8000L380.6640,388.2855"/>
   <path d="M383.1120,91.8000L383.1120,391.3200"/>
   <path d="M385.5600,91.8000L385.5600,391.8555"/>
   <path d="M388.0080,91.8000L388.0080,384.8941"/>
   <path d="M390.4560,91.8000L390.4560,390.6060"/>
   <path d="M392.9040,91.8000L392.9040,391.8555"/>
   <path d="M395.3520,91.8000L395.3520,389.1780"/>
   <path d="M397.8000,91.8000L397.8000,385.7866"/>
   <path d="M400.2480,91.8000L400.2480,395.4255"/>
   <path d="M402.6960,91.8000L402.6960,398.2814"/>
   <path d="M405.1440,91.8000L405.1440,398.6384"/>
   <path d="M407.5920,91.8000L407.5920,390.6060"/>
   <path d="M410.0400,91.8000L410.0400,388.2855"/>
   <path d="M412.4880,91.8000L412.4880,392.7480"/>
   <path d="M414.9360,91.8000L414.9360,393.8190"/>
   <path d="M417.3840,91.8000L417.3840,386.5006"/>
   <path d="M419.8320,91.8000L419.8320,375.4337"/>
   <path d="M422.2800,91.8000L422.2800,376.8616"/>
   <path d="M424.7280,91.8000L424.7280,375.2552"/>
   <path d="M427.1760,91.8000L427.1760,359.1903"/>
   <path d="M429.6240,91.8000L429.6240,364.1883"/>
   <path d="M432.0720,91.8000L432.0720,347.9449"/>
   <path d="M434.5200,91.8000L434.5200,344.3750"/>
   <path d="M436.9680,91.8000L436.9680,325.6327"/>
   <path d="M439.4160,91.8000L439.4160,328.4886"/>
   <path d="M441.8640,91.8000L441.8640,324.7402"/>
   <path d="M444.3120,91.8000L444.3120,314.9228"/>
   <path d="M446.7600,91.8000L446.7600,303.6774"/>
   <path d="M449.2080,91.8000L449.2080,299.3934"/>
   <path d="M451.6560,91.8000L451.6560,289.5760"/>
   <path d="M454.1040,91.8000L454.1040,276.0102"/>
   <path d="M456.5520,91.8000L456.5520,286.0061"/>
   <path d="M459.0000,91.8000L459.0000,269.9412"/>
   <path d="M461.4480,91.8000L461.4480,253.6979"/>
   <path d="M463.8960,91.8000L463.8960,245.8440"/>
   <path d="M466.3440,91.8000L466.3440,241.7385"/>
   <path d="M468.7920,91.8000L468.7920,229.9576"/>
   <path d="M471.2400,91.8000L471.2400,225.1382"/>
   <path d="M473.6880,91.8000L473.6880,215.6778"/>
   <path d="M476.1360,91.8000L476.1360,215.4993"/>
   <path d="M478.5840,91.8000L478.5840,197.2924"/>
   <path d="M481.0320,91.8000L481.0320,199.0774"/>
   <path d="M483.4800,91.8000L483.4800,179.7996"/>
   <path d="M485.9280,91.8000L485.9280,181.4061"/>
   <path d="M488.3760,91.8000L488.3760,180.1566"/>
   <path d="M490.8240,91.8000L490.8240,169.4467"/>
   <path d="M493.2720,91.8000L493.2720,165.5198"/>
   <path d="M495.7200,91.8000L495.7200,169.0897"/>
   <path d="M498.1680,91.8000L498.1680,154.0959"/>
   <path d="M500.6160,91.8000L500.6160,147.6699"/>
   <path d="M503.0640,91.8000L503.0640,141.7795"/>
   <path d="M505.5120,91.8000L505.5120,141.9580"/>
   <path d="M507.9600,91.8000L507.9600,140.7085"/>
   <path d="M510.4080,91.8000L510.4080,134.6396"/>
   <path d="M512.8560,91.8000L512.8560,128.9276"/>
   <path d="M515.3040,91.8000L515.3040,124.1082"/>
   <path d="M517.7520,91.8000L517.7520,124.1082"/>
   <path d="M520.2000,91.8000L520.2000,119.4672"/>
   <path d="M522.6480,91.8000L522.6480,121.0737"/>
   <path d="M525.0960,91.8000L525.0960,117.8607"/>
   <path d="M527.5440,91.8000L527.5440,115.1833"/>
   <path d="M529.9920,91.8000L529.9920,112.1488"/>
   <path d="M532.4400,91.8000L532.4400,106.7939"/>
   <path d="M534.8880,91.8000L534.8880,109.2928"/>
   <path d="M537.3360,91.8000L537.3360,105.9014"/>
   <path d="M539.7840,91.8000L539.7840,106.4369"/>
   <path d="M542.2320,91.8000L542.2320,106.0799"/>
   <path d="M544.6800,91.8000L544.6800,105.3659"/>
   <path d="M547.1280,91.8000L547.1280,103.2239"/>
   <path d="M549.5760,91.8000L549.5760,103.5809"/>
   <path d="M552.0240,91.8000L552.0240,101.0819"/>
   <path d="M554.4720,91.8000L554.4720,100.7249"/>
   <path d="M556.9200,91.8000L556.9200,97.6904"/>
   <path d="M559.3680,91.8000L559.3680,97.6904"/>
   <path d="M561.8160,91.8000L561.8160,97.1549"/>
   <path d="M564.2640,91.8000L564.2640,96.4410"/>
   <path d="M566.7120,91.8000L566.7120,96.9764"/>
   <path d="M569.1600,91.8000L569.1600,97.1549"/>
   <path d="M571.6080,91.8000L571.6080,98.4044"/>
   <path d="M574.0560,91.8000L574.0560,95.7270"/>
   <path d="M576.5040,91.8000L576.5040,95.1915"/>
   <path d="M578.9520,91.8000L578.9520,95.1915"/>
   <path d="M581.4000,91.8000L581.4000,95.5485"/>
   <path d="M583.8480,91.8000L583.8480,93.4065"/>
   <path d="M586.2960,91.8000L586.2960,95.0130"/>
   <path d="M588.7440,91.8000L588.7440,94.6560"/>
   <path d="M591.1920,91.8000L591.1920,95.3700"/>
   <path d="M593.6400,91.8000L593.6400,92.8710"/>
   <path d="M596.0880,91.8000L596.0880,94.2990"/>
   <path d="M598.5360,91.8000L598.5360,93.7635"/>
   <path d="M600.9840,91.8000L600.9840,93.7635"/>
   <path d="M603.4320,91.8000L603.4320,93.2280"/>
   <path d="M605.8800,91.8000L605.8800,92.5140"/>
   <path d="M608.3280,91.8000L608.3280,93.9420"/>
   <path d="M610.7760,91.8000L610.7760,92.8710"/>
   <path d="M613.2240,91.8000L613.2240,93.2280"/>
   <path d="M615.6720,91.8000L615.6720,94.1205"/>
   <path d="M618.1200,91.8000L618.1200,93.0495"/>
   <path d="M620.5680,91.8000L620.5680,92.6925"/>
   <path d="M623.0160,91.8000L623.0160,92.5140"/>
   <path d="M625.4640,91.8000L625.4640,93.2280"/>
   <path d="M627.9120,91.8000L627.9120,92.8710"/>
   <path d="M630.3600,91.8000L630.3600,92.1570"/>
   <path d="M632.8080,91.8000L632.8080,92.1570"/>
   <path d="M635.2560,91.8000L635.2560,92.6925"/>
   <path d="M637.7040,91.8000L637.7040,93.0495"/>
   <path d="M640.1520,91.8000L640.1520,92.8710"/>
   <path d="M642.6000,91.8000L642.6000,93.2280"/>
   <path d="M645.0480,91.8000L645.0480,92.6925"/>
   <path d="M647.4960,91.8000L647.4960,93.4065"/>
   <path d="M649.9440,91.8000L649.9440,93.4065"/>
   <path d="M652.3920,91.8000L652.3920,92.6925"/>
   <path d="M654.8400,91.8000L654.8400,93.0495"/>
   <path d="M657.2880,91.8000L657.2880,92.6925"/>
   <path d="M659.7360,91.8000L659.7360,92.8710"/>
   <path d="M662.1840,91.8000L662.1840,92.5140"/>
   <path d="M664.6320,91.8000L664.6320,92.3355"/>
   <path d="M667.0800,91.8000L667.0800,91.9785"/>
   <path d="M669.5280,91.8000L669.5280,93.2280"/>
   <path d="M671.9760,91.8000L671.9760,92.3355"/>
   <path d="M674.4240,91.8000L674.4240,92.1570"/>
   <path d="M676.8720,91.8000L676.8720,93.2280"/>
   <path d="M679.3200,91.8000L679.3200,92.6925"/>
   <path d="M681.7680,91.8000L681.7680,92.6925"/>
   <path d="M684.2160,91.8000L684.2160,93.0495"/>
   <path d="M686.6640,91.8000L686.6640,92.8710"/>
   <path d="M689.1120,91.8000L689.1120,92.6925"/>
   <path d="M691.5600,91.8000L691.5600,92.8710"/>
   <path d="M694.0080,91.8000L694.0080,92.8710"/>
   <path d="M696.4560,91.8000L696.4560,93.7635"/>
   <path d="M698.9040,91.8000L698.9040,92.6925"/>
   <path d="M701.3520,91.8000L701.3520,92.5140"/>
   <path d="M703.8000,91.8000L703.8000,92.3355"/>
  </g>
  <g style="fill:none; stroke:#00FF00; stroke-width:  0.9180; stroke-linecap:butt; stroke-linejoin:miter; stroke-dasharray:none">
   <path d="M91.7388,91.8001L91.8000,91.8001L94.2480,91.8002L96.6960,91.8002L99.1440,91.8003L101.5920,91.8003L104.0400,91.8004L106.4880,91.8005L108.9360,91.8006L111.3840,91.8008
            L113.8320,91.8010L116.2800,91.8012L118.7280,91.8015L121.1760,91.8019L123.6240,91.8023L126.0720,91.8029L128.5200,91.8036L130.9680,91.8044L133.4160,91.8053L135.8640,91.8065
            L138.3120,91.8080L140.7600,91.8097L143.2080,91.8118L145.6560,91.8143L148.1040,91.8174L150.5520,91.8210L153.0000,91.8253L155.4480,91.8305L157.8960,91.8367L160.3440,91.8440
            L162.7920,91.8527L165.2400,91.8631L167.6880,91.8753L170.1360,91.8897L172.5840,91.9066L175.0320,91.9265L177.4800,91.9499L179.9280,91.9773L182.3760,92.0092L184.8240,92.0465
            L187.2720,92.0898L189.7200,92.1401L192.1680,92.1985L194.6160,92.2659L197.0640,92.3438L199.5120,92.4335L201.9600,92.5367L204.4080,92.6550L206.8560,92.7905L209.3040,92.9454
            L211.7520,93.1220L214.2000,93.3229L216.6480,93.5512L219.0960,93.8099L221.5440,94.1026L223.9920,94.4330L226.4400,94.8051L228.8880,95.2235L231.3360,95.6929L233.7840,96.2184
            L236.2320,96.8055L238.6800,97.4601L241.1280,98.1884L243.5760,98.9969L246.0240,99.8928L248.4720,100.8831L250.9200,101.9758L253.3680,103.1786L255.8160,104.5000L258.2640,105.9485
            L260.7120,107.5328L263.1600,109.2620L265.6080,111.1451L268.0560,113.1915L270.5040,115.4104L272.9520,117.8109L275.4000,120.4022L277.8480,123.1932L280.2960,126.1923L282.7440,129.4079
            L285.1920,132.8477L287.6400,136.5186L290.0880,140.4273L292.5360,144.5792L294.9840,148.9791L297.4320,153.6304L299.8800,158.5358L302.3280,163.6963L304.7760,169.1118L307.2240,174.7805
            L309.6720,180.6992L312.1200,186.8628L314.5680,193.2647L317.0160,199.8962L319.4640,206.7468L321.9120,213.8042L324.3600,221.0541L326.8080,228.4799L329.2560,236.0635L331.7040,243.7846
            L334.1520,251.6210L336.6000,259.5487L339.0480,267.5422L341.4960,275.5740L343.9440,283.6154L346.3920,291.6362L348.8400,299.6050L351.2880,307.4896L353.7360,315.2568L356.1840,322.8730
            L358.6320,330.3043L361.0800,337.5165L363.5280,344.4759L365.9760,351.1490L368.4240,357.5030L370.8720,363.5063L373.3200,369.1284L375.7680,374.3401L378.2160,379.1142L380.6640,383.4254
            L383.1120,387.2507L385.5600,390.5692L388.0080,393.3629L390.4560,395.6165L392.9040,397.3174L395.3520,398.4563L397.8000,399.0267L400.2480,399.0256L402.6960,398.4529L405.1440,397.3119
            L407.5920,395.6088L410.0400,393.3531L412.4880,390.5573L414.9360,387.2368L417.3840,383.4097L419.8320,379.0965L422.2800,374.3207L424.7280,369.1073L427.1760,363.4838L429.6240,357.4790
            L432.0720,351.1237L434.5200,344.4494L436.9680,337.4890L439.4160,330.2758L441.8640,322.8438L444.3120,315.2269L446.7600,307.4592L449.2080,299.5742L451.6560,291.6051L454.1040,283.5842
            L456.5520,275.5428L459.0000,267.5111L461.4480,259.5178L463.8960,251.5904L466.3440,243.7544L468.7920,236.0338L471.2400,228.4508L473.6880,221.0256L476.1360,213.7765L478.5840,206.7198
            L481.0320,199.8700L483.4800,193.2394L485.9280,186.8384L488.3760,180.6757L490.8240,174.7580L493.2720,169.0903L495.7200,163.6758L498.1680,158.5163L500.6160,153.6119L503.0640,148.9615
            L505.5120,144.5626L507.9600,140.4117L510.4080,136.5039L512.8560,132.8339L515.3040,129.3950L517.7520,126.1803L520.2000,123.1819L522.6480,120.3918L525.0960,117.8013L527.5440,115.4014
            L529.9920,113.1833L532.4400,111.1375L534.8880,109.2550L537.3360,107.5264L539.7840,105.9426L542.2320,104.4946L544.6800,103.1737L547.1280,101.9713L549.5760,100.8791L552.0240,99.8891
            L554.4720,98.9936L556.9200,98.1854L559.3680,97.4574L561.8160,96.8031L564.2640,96.2162L566.7120,95.6910L569.1600,95.2218L571.6080,94.8036L574.0560,94.4316L576.5040,94.1014
            L578.9520,93.8089L581.4000,93.5503L583.8480,93.3221L586.2960,93.1212L588.7440,92.9447L591.1920,92.7900L593.6400,92.6545L596.0880,92.5363L598.5360,92.4332L600.9840,92.3435
            L603.4320,92.2657L605.8800,92.1982L608.3280,92.1399L610.7760,92.0896L613.2240,92.0463L615.6720,92.0091L618.1200,91.9771L620.5680,91.9498L623.0160,91.9265L625.4640,91.9065
            L627.9120,91.8896L630.3600,91.8752L632.8080,91.8630L635.2560,91.8527L637.7040,91.8440L640.1520,91.8367L642.6000,91.8305L645.0480,91.8253L647.4960,91.8210L649.9440,91.8173
            L652.3920,91.8143L654.8400,91.8118L657.2880,91.8097L659.7360,91.8080L662.1840,91.8065L664.6320,91.8053L667.0800,91.8044L669.5280,91.8035L671.9760,91.8029L674.4240,91.8023
            L676.8720,91.8019L679.3200,91.8015L681.7680,91.8012L684.2160,91.8010L686.6640,91.8008L689.1120,91.8006L691.5600,91.8005L694.0080,91.8004L696.4560,91.8003L698.9040,91.8003
            L701.3520,91.8002L703.8000,91.8002L703.8612,91.8002"/>
  </g>
  <g style="fill:none; stroke:#000000; stroke-width:  0.9180; stroke-linecap:butt; stroke-linejoin:miter; stroke-dasharray:none">
   <path d="M91.8000,91.8000L703.8000,91.8000"/>
   <path d="M91.8000,520.2000L703.8000,520.2000"/>
   <path d="M168.3000,91.8000L168.3000,97.9200"/>
   <path d="M168.3000,520.2000L168.3000,514.0800"/>
   <path d="M321.3000,91.8000L321.3000,97.9200"/>
   <path d="M321.3000,520.2000L321.3000,514.0800"/>
   <path d="M474.3000,91.8000L474.3000,97.9200"/>
   <path d="M474.3000,520.2000L474.3000,514.0800"/>
   <path d="M627.3000,91.8000L627.3000,97.9200"/>
   <path d="M627.3000,520.2000L627.3000,514.0800"/>
   <path d="M91.8000,91.8000L91.8000,104.0400"/>
   <path d="M91.8000,520.2000L91.8000,507.9600"/>
   <path d="M244.8000,91.8000L244.8000,104.0400"/>
   <path d="M244.8000,520.2000L244.8000,507.9600"/>
   <path d="M397.8000,91.8000L397.8000,104.0400"/>
   <path d="M397.8000,520.2000L397.8000,507.9600"/>
   <path d="M550.8000,91.8000L550.8000,104.0400"/>
   <path d="M550.8000,520.2000L550.8000,507.9600"/>
   <path d="M703.8000,91.8000L703.8000,104.0400"/>
   <path d="M703.8000,520.2000L703.8000,507.9600"/>
  </g>
  <g style="fill:#000000; fill-rule:nonzero">
   <text   style="font-family:'Times','Nimbus Roman'; font-style:normal; font-weight:normal; font-size:612.0000" transform="matrix(0.0280,0.0000,-0.0000,-0.0280,79.3000,74.6800)">290</text>
   <text   style="font-family:'Times','Nimbus Roman'; font-style:normal; font-weight:normal; font-size:612.0000" transform="matrix(0.0280,0.0000,-0.0000,-0.0280,232.3000,74.6800)">300</text>
   <text   style="font-family:'Times','Nimbus Roman'; font-style:normal; font-weight:normal; font-size:612.0000" transform="matrix(0.0280,0.0000,-0.0000,-0.0280,385.3000,73.6800)">310</text>
   <text   style="font-family:'Times','Nimbus Roman'; font-style:normal; font-weight:normal; font-size:612.0000" transform="matrix(0.0280,0.0000,-0.0000,-0.0280,538.3000,74.6800)">320</text>
   <text   style="font-family:'Times','Nimbus Roman'; font-style:normal; font-weight:normal; font-size:612.0000" transform="matrix(0.0280,0.0000,-0.0000,-0.0280,691.3000,74.6800)">330</text>
   <text   style="font-family:'Times','Nimbus Roman'; font-style:normal; font-weight:normal; font-size:612.0000" transform="matrix(0.0280,0.0000,-0.0000,-0.0280,340.3000,55.5600)">Temperature (K)</text>
  </g>
  <g style="fill:none; stroke:#000000; stroke-width:  0.9180; stroke-linecap:butt; stroke-linejoin:miter; stroke-dasharray:none">
   <path d="M91.8000,91.8000L91.8000,520.2000"/>
   <path d="M703.8000,91.8000L703.8000,520.2000"/>
   <path d="M91.8000,101.3200L97.9200,101.3200"/>
   <path d="M703.8000,101.3200L697.6800,101.3200"/>
   <path d="M91.8000,110.8400L97.9200,110.8400"/>
   <path d="M703.8000,110.8400L697.6800,110.8400"/>
   <path d="M91.8000,120.3600L97.9200,120.3600"/>
   <path d="M703.8000,120.3600L697.6800,120.3600"/>
   <path d="M91.8000,129.8800L97.9200,129.8800"/>
   <path d="M703.8000,129.8800L697.6800,129.8800"/>
   <path d="M91.8000,139.4000L97.9200,139.4000"/>
   <path d="M703.8000,139.4000L697.6800,139.4000"/>
   <path d="M91.8000,158.4400L97.9200,158.4400"/>
   <path d="M703.8000,158.4400L697.6800,158.4400"/>
   <path d="M91.8000,167.9600L97.9200,167.9600"/>
   <path d="M703.8000,167.9600L697.6800,167.9600"/>
   <path d="M91.8000,177.4800L97.9200,177.4800"/>
   <path d="M703.8000,177.4800L697.6800,177.4800"/>
   <path d="M91.8000,187.0000L97.9200,187.0000"/>
   <path d="M703.8000,187.0000L697.6800,187.0000"/>
   <path d="M91.8000,196.5200L97.9200,196.5200"/>
   <path d="M703.8000,196.5200L697.6800,196.5200"/>
   <path d="M91.8000,215.5600L97.9200,215.5600"/>
   <path d="M703.8000,215.5600L697.6800,215.5600"/>
   <path d="M91.8000,225.0800L97.9200,225.0800"/>
   <path d="M703.8000,225.0800L697.6800,225.0800"/>
   <path d="M91.8000,234.6000L97.9200,234.6000"/>
   <path d="M703.8000,234.6000L697.6800,234.6000"/>
   <path d="M91.8000,244.1200L97.9200,244.1200"/>
   <path d="M703.8000,244.1200L697.6800,244.1200"/>
   <path d="M91.8000,253.6400L97.9200,253.6400"/>
   <path d="M703.8000,253.6400L697.6800,253.6400"/>
   <path d="M91.8000,272.6800L97.9200,272.6800"/>
   <path d="M703.8000,272.6800L697.6800,272.6800"/>
   <path d="M91.8000,282.2000L97.9200,282.2000"/>
   <path d="M703.8000,282.2000L697.6800,282.2000"/>
   <path d="M91.8000,291.7200L97.9200,291.7200"/>
   <path d="M703.8000,291.7200L697.6800,291.7200"/>
   <path d="M91.8000,301.2400L97.9200,301.2400"/>
   <path d="M703.8000,301.2400L697.6800,301.2400"/>
   <path d="M91.8000,310.7600L97.9200,310.7600"/>
   <path d="M703.8000,310.7600L697.6800,310.7600"/>
   <path d="M91.8000,329.8000L97.9200,329.8000"/>
   <path d="M703.8000,329.8000L697.6800,329.8000"/>
   <path d="M91.8000,339.3200L97.9200,339.3200"/>
   <path d="M703.8000,339.3200L697.6800,339.3200"/>
   <path d="M91.8000,348.8400L97.9200,348.8400"/>
   <path d="M703.8000,348.8400L697.6800,348.8400"/>
   <path d="M91.8000,358.3600L97.9200,358.3600"/>
   <path d="M703.8000,358.3600L697.6800,358.3600"/>
   <path d="M91.8000,367.8800L97.9200,367.8800"/>
   <path d="M703.8000,367.8800L697.6800,367.8800"/>
   <path d="M91.8000,386.9200L97.9200,386.9200"/>
   <path d="M703.8000,386.9200L697.6800,386.9200"/>
   <path d="M91.8000,396.4400L97.9200,396.4400"/>
   <path d="M703.8000,396.4400L697.6800,396.4400"/>
   <path d="M91.8000,405.9600L97.9200,405.9600"/>
   <path d="M703.8000,405.9600L697.6800,405.9600"/>
   <path d="M91.8000,415.4800L97.9200,415.4800"/>
   <path d="M703.8000,415.4800L697.6800,415.4800"/>
   <path d="M91.8000,425.0000L97.9200,425.0000"/>
   <path d="M703.8000,425.0000L697.6800,425.0000"/>
   <path d="M91.8000,444.0400L97.9200,444.0400"/>
   <path d="M703.8000,444.0400L697.6800,444.0400"/>
   <path d="M91.8000,453.5600L97.9200,453.5600"/>
   <path d="M703.8000,453.5600L697.6800,453.5600"/>
   <path d="M91.8000,463.0800L97.9200,463.0800"/>
   <path d="M703.8000,463.0800L697.6800,463.0800"/>
   <path d="M91.8000,472.6000L97.9200,472.6000"/>
   <path d="M703.8000,472.6000L697.6800,472.6000"/>
   <path d="M91.8000,482.1200L97.9200,482.1200"/>
   <path d="M703.8000,482.1200L697.6800,482.1200"/>
   <path d="M91.8000,501.1600L97.9200,501.1600"/>
   <path d="M703.8000,501.1600L697.6800,501.1600"/>
   <path d="M91.8000,510.6800L97.9200,510.6800"/>
   <path d="M703.8000,510.6800L697.6800,510.6800"/>
   <path d="M91.8000,91.8000L104.0400,91.8000"/>
   <path d="M703.8000,91.8000L691.5600,91.8000"/>
   <path d="M91.8000,148.9200L104.0400,148.9200"/>
   <path d="M703.8000,148.9200L691.5600,148.9200"/>
   <path d="M91.8000,206.0400L104.0400,206.0400"/>
   <path d="M703.8000,206.0400L691.5600,206.0400"/>
   <path d="M91.8000,263.1600L104.0400,263.1600"/>
   <path d="M703.8000,263.1600L691.5600,263.1600"/>
   <path d="M91.8000,320.2800L104.0400,320.2800"/>
   <path d="M703.8000,320.2800L691.5600,320.2800"/>
   <path d="M91.8000,377.4000L104.0400,377.4000"/>
   <path d="M703.8000,377.4000L691.5600,377.4000"/>
   <path d="M91.8000,434.5200L104.0400,434.5200"/>
   <path d="M703.8000,434.5200L691.5600,434.5200"/>
   <path d="M91.8000,491.6400L104.0400,491.6400"/>
   <path d="M703.8000,491.6400L691.5600,491.6400"/>
  </g>
  <g style="fill:#000000; fill-rule:nonzero">
   <text   style="font-family:'Times','Nimbus Roman'; font-style:normal; font-weight:normal; font-size:612.0000" transform="matrix(0.0280,0.0000,-0.0000,-0.0280,77.6800,86.3000)">0</text>
   <text   style="font-family:'Times','Nimbus Roman'; font-style:normal; font-weight:normal; font-size:612.0000" transform="matrix(0.0280,0.0000,-0.0000,-0.0280,56.6800,143.4200)">0.02</text>
   <text   style="font-family:'Times','Nimbus Roman'; font-style:normal; font-weight:normal; font-size:612.0000" transform="matrix(0.0280,0.0000,-0.0000,-0.0280,56.6800,200.5400)">0.04</text>
   <text   style="font-family:'Times','Nimbus Roman'; font-style:normal; font-weight:normal; font-size:612.0000" transform="matrix(0.0280,0.0000,-0.0000,-0.0280,56.6800,257.1600)">0.06</text>
   <text   style="font-family:'Times','Nimbus Roman'; font-style:normal; font-weight:normal; font-size:612.0000" transform="matrix(0.0280,0.0000,-0.0000,-0.0280,57.6800,314.7800)">0.08</text>
   <text   style="font-family:'Times','Nimbus Roman'; font-style:normal; font-weight:normal; font-size:612.0000" transform="matrix(0.0280,0.0000,-0.0000,-0.0280,65.6800,371.4000)">0.1</text>
   <text   style="font-family:'Times','Nimbus Roman'; font-style:normal; font-weight:normal; font-size:612.0000" transform="matrix(0.0280,0.0000,-0.0000,-0.0280,56.6800,428.5200)">0.12</text>
   <text   style="font-family:'Times','Nimbus Roman'; font-style:normal; font-weight:normal; font-size:612.0000" transform="matrix(0.0280,0.0000,-0.0000,-0.0280,56.6800,485.6400)">0.14</text>
   <text   style="font-family:'Times','Nimbus Roman'; font-style:normal; font-weight:normal; font-size:612.0000" transform="matrix(0.0000,0.0280,0.0280,-0.0000,46.5600,239.5000)">Relative Frequency</text>
  </g>
  <g style="fill:none; stroke:#000000; stroke-width:  0.9180; stroke-linecap:butt; stroke-linejoin:miter; stroke-dasharray:none">
   <path d="M91.8000,91.8000L91.8000,520.2000L703.8000,520.2000L703.8000,91.8000z"/>
  </g>
  <g style="fill:#000000; fill-rule:nonzero">
   <text   style="font-family:'Times','Nimbus Roman'; font-style:normal; font-weight:normal; font-size:612.0000" transform="matrix(0.0420,0.0000,-0.0000,-0.0420,202.8000,582.6240)">T Fluctuation in Constant Force SMD</text>
   <text   style="font-family:'Times','Nimbus Roman'; font-style:normal; font-weight:normal; font-size:612.0000" transform="matrix(0.0280,0.0000,-0.0000,-0.0280,124.3000,552.5760)">Unfolding of Ubiquitin in Water Box (Periodic, 1fs/step, 800pN, Langevin ON) </text>
   <text   style="font-family:'Times','Nimbus Roman'; font-style:normal; font-weight:normal; font-size:612.0000" transform="matrix(0.0280,0.0000,-0.0000,-0.0280,124.3000,535.4400)"> (Gaussian Fit mean: 310.08 K, std dev: 3.70)</text>
  </g>
 </g>
</svg>
