<?xml version="1.0" encoding="ISO-8859-1"?>
<!DOCTYPE svg PUBLIC "-//W3C//DTD SVG 1.0//EN" "http://www.w3.org/TR/2001/REC-SVG-20010904/DTD/svg10.dtd">
<!-- generated by Grace-5.1.25 -->
<svg xml:space="preserve" width="11.0000in" height="8.5000in" viewBox="0.0000 0.0000 792.0000 612.0000">
 <g transform="translate(0,612.0000) scale(1,-1)">
 <desc></desc>
  <g style="fill:#FFFFFF; fill-rule:nonzero">
   <path  d="M0.0000,0.0000L0.0000,612.0000L792.0000,612.0000L792.0000,0.0000z"/>
  </g>
  <g style="fill:none; stroke:#000000; stroke-width:  0.9180; stroke-linecap:butt; stroke-linejoin:miter; stroke-dasharray:none">
   <path d="M99.4500,189.6258L107.1000,249.2110L114.7500,166.0640L122.4000,168.3322L130.0500,152.0522L137.7000,197.3644L145.3500,186.7529L153.0000,232.3417L160.6500,257.0604L168.3000,269.9762
            L175.9500,205.1402L183.6000,206.5753L191.2500,214.0587L198.9000,206.5371L206.5500,193.7945L214.2000,216.2736L221.8500,189.3137L229.5000,230.0553L237.1500,177.9700L244.8000,195.2438
            L252.4500,198.1748L260.1000,177.7724L267.7500,171.2450L275.4000,205.7617L283.0500,220.1793L290.7000,167.2145L298.3500,160.3070L306.0000,181.3299L313.6500,190.3466L321.3000,162.0794
            L328.9500,175.4505L336.6000,252.2265L344.2500,215.9835L351.9000,208.0729L359.5500,167.8748L367.2000,163.6134L374.8500,182.0239L382.5000,186.2258L390.1500,244.3191L397.8000,263.6370
            L405.4500,146.9633L413.1000,211.8098L420.7500,151.5864L428.4000,160.5005L436.0500,182.0672L443.7000,175.8036L451.3500,215.9445L459.0000,181.0976L466.6500,224.1726L474.3000,157.2549
            L481.9500,215.1432L489.6000,221.8622L497.2500,209.0460L504.9000,187.9684L512.5500,162.4594L520.2000,174.0000L527.8500,164.4670L535.5000,174.4200L543.1500,163.2319L550.8000,189.5004
            L558.4500,149.0543L566.1000,222.5000L573.7500,184.8920L581.4000,219.2714L589.0500,174.0351L596.7000,172.1415L604.3500,148.5708L612.0000,186.1112L619.6500,152.0322L627.3000,157.6884
            L634.9500,236.1175L642.6000,242.2237L650.2500,263.8461L657.9000,291.0026L665.5500,365.5351L673.2000,492.0475"/>
   <path d="M91.8000,91.8000L703.8000,91.8000"/>
   <path d="M91.8000,520.2000L703.8000,520.2000"/>
   <path d="M168.3000,91.8000L168.3000,97.9200"/>
   <path d="M168.3000,520.2000L168.3000,514.0800"/>
   <path d="M321.3000,91.8000L321.3000,97.9200"/>
   <path d="M321.3000,520.2000L321.3000,514.0800"/>
   <path d="M474.3000,91.8000L474.3000,97.9200"/>
   <path d="M474.3000,520.2000L474.3000,514.0800"/>
   <path d="M627.3000,91.8000L627.3000,97.9200"/>
   <path d="M627.3000,520.2000L627.3000,514.0800"/>
   <path d="M91.8000,91.8000L91.8000,104.0400"/>
   <path d="M91.8000,520.2000L91.8000,507.9600"/>
   <path d="M244.8000,91.8000L244.8000,104.0400"/>
   <path d="M244.8000,520.2000L244.8000,507.9600"/>
   <path d="M397.8000,91.8000L397.8000,104.0400"/>
   <path d="M397.8000,520.2000L397.8000,507.9600"/>
   <path d="M550.8000,91.8000L550.8000,104.0400"/>
   <path d="M550.8000,520.2000L550.8000,507.9600"/>
   <path d="M703.8000,91.8000L703.8000,104.0400"/>
   <path d="M703.8000,520.2000L703.8000,507.9600"/>
  </g>
  <g style="fill:#000000; fill-rule:nonzero">
   <text   style="font-family:'Times','Nimbus Roman'; font-style:normal; font-weight:normal; font-size:612.0000" transform="matrix(0.0280,0.0000,-0.0000,-0.0280,87.8000,73.6800)">0</text>
   <text   style="font-family:'Times','Nimbus Roman'; font-style:normal; font-weight:normal; font-size:612.0000" transform="matrix(0.0280,0.0000,-0.0000,-0.0280,236.3000,73.6800)">20</text>
   <text   style="font-family:'Times','Nimbus Roman'; font-style:normal; font-weight:normal; font-size:612.0000" transform="matrix(0.0280,0.0000,-0.0000,-0.0280,389.3000,73.6800)">40</text>
   <text   style="font-family:'Times','Nimbus Roman'; font-style:normal; font-weight:normal; font-size:612.0000" transform="matrix(0.0280,0.0000,-0.0000,-0.0280,542.3000,73.6800)">60</text>
   <text   style="font-family:'Times','Nimbus Roman'; font-style:normal; font-weight:normal; font-size:612.0000" transform="matrix(0.0280,0.0000,-0.0000,-0.0280,695.3000,73.6800)">80</text>
   <text   style="font-family:'Times','Nimbus Roman'; font-style:normal; font-weight:normal; font-size:612.0000" transform="matrix(0.0280,0.0000,-0.0000,-0.0280,370.3000,55.5600)">Residue</text>
  </g>
  <g style="fill:none; stroke:#000000; stroke-width:  0.9180; stroke-linecap:butt; stroke-linejoin:miter; stroke-dasharray:none">
   <path d="M91.8000,91.8000L91.8000,520.2000"/>
   <path d="M703.8000,91.8000L703.8000,520.2000"/>
   <path d="M91.8000,145.3500L97.9200,145.3500"/>
   <path d="M703.8000,145.3500L697.6800,145.3500"/>
   <path d="M91.8000,252.4500L97.9200,252.4500"/>
   <path d="M703.8000,252.4500L697.6800,252.4500"/>
   <path d="M91.8000,359.5500L97.9200,359.5500"/>
   <path d="M703.8000,359.5500L697.6800,359.5500"/>
   <path d="M91.8000,466.6500L97.9200,466.6500"/>
   <path d="M703.8000,466.6500L697.6800,466.6500"/>
   <path d="M91.8000,91.8000L104.0400,91.8000"/>
   <path d="M703.8000,91.8000L691.5600,91.8000"/>
   <path d="M91.8000,198.9000L104.0400,198.9000"/>
   <path d="M703.8000,198.9000L691.5600,198.9000"/>
   <path d="M91.8000,306.0000L104.0400,306.0000"/>
   <path d="M703.8000,306.0000L691.5600,306.0000"/>
   <path d="M91.8000,413.1000L104.0400,413.1000"/>
   <path d="M703.8000,413.1000L691.5600,413.1000"/>
   <path d="M91.8000,520.2000L104.0400,520.2000"/>
   <path d="M703.8000,520.2000L691.5600,520.2000"/>
  </g>
  <g style="fill:#000000; fill-rule:nonzero">
   <text   style="font-family:'Times','Nimbus Roman'; font-style:normal; font-weight:normal; font-size:612.0000" transform="matrix(0.0280,0.0000,-0.0000,-0.0280,77.6800,85.8000)">0</text>
   <text   style="font-family:'Times','Nimbus Roman'; font-style:normal; font-weight:normal; font-size:612.0000" transform="matrix(0.0280,0.0000,-0.0000,-0.0280,78.6800,192.9000)">1</text>
   <text   style="font-family:'Times','Nimbus Roman'; font-style:normal; font-weight:normal; font-size:612.0000" transform="matrix(0.0280,0.0000,-0.0000,-0.0280,76.6800,300.0000)">2</text>
   <text   style="font-family:'Times','Nimbus Roman'; font-style:normal; font-weight:normal; font-size:612.0000" transform="matrix(0.0280,0.0000,-0.0000,-0.0280,77.6800,407.1000)">3</text>
   <text   style="font-family:'Times','Nimbus Roman'; font-style:normal; font-weight:normal; font-size:612.0000" transform="matrix(0.0280,0.0000,-0.0000,-0.0280,77.6800,514.2000)">4</text>
   <text   style="font-family:'Times','Nimbus Roman'; font-style:normal; font-weight:normal; font-size:612.0000" transform="matrix(0.0000,0.0280,0.0280,-0.0000,70.5600,283.0000)">RMSF</text>
  </g>
  <g style="fill:none; stroke:#000000; stroke-width:  0.9180; stroke-linecap:butt; stroke-linejoin:miter; stroke-dasharray:none">
   <path d="M91.8000,91.8000L91.8000,520.2000L703.8000,520.2000L703.8000,91.8000z"/>
  </g>
  <g style="fill:#000000; fill-rule:nonzero">
   <text   style="font-family:'Times','Nimbus Roman'; font-style:normal; font-weight:normal; font-size:612.0000" transform="matrix(0.0420,0.0000,-0.0000,-0.0420,172.3000,562.9200)">Ubiquitin in a Water Sphere (Non-Periodic)</text>
   <text   style="font-family:'Times','Nimbus Roman'; font-style:normal; font-weight:normal; font-size:612.0000" transform="matrix(0.0280,0.0000,-0.0000,-0.0280,317.8000,532.4400)">RMSF for each residue</text>
  </g>
 </g>
</svg>
