<?xml version="1.0" encoding="ISO-8859-1"?>
<!DOCTYPE svg PUBLIC "-//W3C//DTD SVG 1.0//EN" "http://www.w3.org/TR/2001/REC-SVG-20010904/DTD/svg10.dtd">
<!-- generated by Grace-5.1.25 -->
<svg xml:space="preserve" width="11.0000in" height="8.5000in" viewBox="0.0000 0.0000 792.0000 612.0000">
 <g transform="translate(0,612.0000) scale(1,-1)">
  <g style="fill:#FFFFFF; fill-rule:nonzero">
   <path  d="M0.0000,0.0000L0.0000,612.0000L792.0000,612.0000L792.0000,0.0000z"/>
  </g>
  <g style="fill:none; stroke:#FF0000; stroke-width:  0.9180; stroke-linecap:butt; stroke-linejoin:miter; stroke-dasharray:none">
   <path d="M91.8000,91.8000L91.8000,297.1598L99.4500,297.1598L99.4500,414.4215L107.1000,414.4215L107.1000,446.6229L114.7500,446.6229L114.7500,461.8122L122.4000,461.8122L122.4000,413.8139
            L130.0500,413.8139L130.0500,408.9533L137.7000,408.9533L137.7000,376.1443L145.3500,376.1443L145.3500,367.6383L153.0000,367.6383L153.0000,323.2855L160.6500,323.2855L160.6500,291.6916
            L168.3000,291.6916L168.3000,285.0083L175.9500,285.0083L175.9500,257.0600L183.6000,257.0600L183.6000,252.8070L191.2500,252.8070L191.2500,218.7828L198.9000,218.7828L198.9000,185.9739
            L206.5500,185.9739L206.5500,182.3284L214.2000,182.3284L214.2000,160.4558L221.8500,160.4558L221.8500,159.2406L229.5000,159.2406L229.5000,151.3422L237.1500,151.3422L237.1500,144.0513
            L244.8000,144.0513L244.8000,134.3301L252.4500,134.3301L252.4500,127.0393L260.1000,127.0393L260.1000,119.7484L267.7500,119.7484L267.7500,122.1787L275.4000,122.1787L275.4000,117.3181
            L283.0500,117.3181L283.0500,119.7484L290.7000,119.7484L290.7000,116.1029L298.3500,116.1029L298.3500,106.9893L306.0000,106.9893L306.0000,99.6985L313.6500,99.6985L313.6500,104.5590
            L321.3000,104.5590L321.3000,102.7363L328.9500,102.7363L328.9500,100.9136L336.6000,100.9136L336.6000,97.8757L344.2500,97.8757L344.2500,100.3060L351.9000,100.3060L351.9000,96.6606
            L359.5500,96.6606L359.5500,96.0530L367.2000,96.0530L367.2000,94.8379L374.8500,94.8379L374.8500,95.4454L382.5000,95.4454L382.5000,94.8379L390.1500,94.8379L390.1500,95.4454
            L397.8000,95.4454L397.8000,94.2303L405.4500,94.2303L405.4500,94.8379L413.1000,94.8379L413.1000,92.4076L420.7500,92.4076L420.7500,93.0151L428.4000,93.0151L428.4000,93.0151
            L436.0500,93.0151L436.0500,93.0151L443.7000,93.0151L443.7000,91.8000L451.3500,91.8000L451.3500,93.6227L459.0000,93.6227L459.0000,92.4076L466.6500,92.4076L466.6500,92.4076
            L474.3000,92.4076L474.3000,91.8000L481.9500,91.8000L481.9500,91.8000L489.6000,91.8000L489.6000,91.8000L497.2500,91.8000L497.2500,91.8000L504.9000,91.8000L504.9000,91.8000
            L512.5500,91.8000L512.5500,92.4076L520.2000,92.4076L520.2000,91.8000L527.8500,91.8000L527.8500,91.8000L535.5000,91.8000L535.5000,91.8000L543.1500,91.8000L543.1500,91.8000
            L550.8000,91.8000L550.8000,91.8000L558.4500,91.8000L558.4500,91.8000L566.1000,91.8000L566.1000,91.8000L573.7500,91.8000L573.7500,91.8000L581.4000,91.8000L581.4000,91.8000
            L589.0500,91.8000L589.0500,91.8000L596.7000,91.8000L596.7000,91.8000L604.3500,91.8000L604.3500,91.8000L612.0000,91.8000L612.0000,91.8000L619.6500,91.8000L619.6500,91.8000
            L627.3000,91.8000L627.3000,91.8000L634.9500,91.8000L634.9500,91.8000L642.6000,91.8000L642.6000,91.8000L650.2500,91.8000L650.2500,91.8000L657.9000,91.8000L657.9000,91.8000
            L665.5500,91.8000L665.5500,91.8000L673.2000,91.8000L673.2000,92.4076L680.8500,92.4076L680.8500,91.8000L688.5000,91.8000L688.5000,91.8000L696.1500,91.8000L696.1500,91.8000
            L703.8000,91.8000L703.8000,91.8000L703.8612,91.8000"/>
   <path d="M91.8000,91.8000L91.8000,91.8000"/>
   <path d="M99.4500,91.8000L99.4500,297.1598"/>
   <path d="M107.1000,91.8000L107.1000,414.4215"/>
   <path d="M114.7500,91.8000L114.7500,446.6229"/>
   <path d="M122.4000,91.8000L122.4000,461.8122"/>
   <path d="M130.0500,91.8000L130.0500,413.8139"/>
   <path d="M137.7000,91.8000L137.7000,408.9533"/>
   <path d="M145.3500,91.8000L145.3500,376.1443"/>
   <path d="M153.0000,91.8000L153.0000,367.6383"/>
   <path d="M160.6500,91.8000L160.6500,323.2855"/>
   <path d="M168.3000,91.8000L168.3000,291.6916"/>
   <path d="M175.9500,91.8000L175.9500,285.0083"/>
   <path d="M183.6000,91.8000L183.6000,257.0600"/>
   <path d="M191.2500,91.8000L191.2500,252.8070"/>
   <path d="M198.9000,91.8000L198.9000,218.7828"/>
   <path d="M206.5500,91.8000L206.5500,185.9739"/>
   <path d="M214.2000,91.8000L214.2000,182.3284"/>
   <path d="M221.8500,91.8000L221.8500,160.4558"/>
   <path d="M229.5000,91.8000L229.5000,159.2406"/>
   <path d="M237.1500,91.8000L237.1500,151.3422"/>
   <path d="M244.8000,91.8000L244.8000,144.0513"/>
   <path d="M252.4500,91.8000L252.4500,134.3301"/>
   <path d="M260.1000,91.8000L260.1000,127.0393"/>
   <path d="M267.7500,91.8000L267.7500,119.7484"/>
   <path d="M275.4000,91.8000L275.4000,122.1787"/>
   <path d="M283.0500,91.8000L283.0500,117.3181"/>
   <path d="M290.7000,91.8000L290.7000,119.7484"/>
   <path d="M298.3500,91.8000L298.3500,116.1029"/>
   <path d="M306.0000,91.8000L306.0000,106.9893"/>
   <path d="M313.6500,91.8000L313.6500,99.6985"/>
   <path d="M321.3000,91.8000L321.3000,104.5590"/>
   <path d="M328.9500,91.8000L328.9500,102.7363"/>
   <path d="M336.6000,91.8000L336.6000,100.9136"/>
   <path d="M344.2500,91.8000L344.2500,97.8757"/>
   <path d="M351.9000,91.8000L351.9000,100.3060"/>
   <path d="M359.5500,91.8000L359.5500,96.6606"/>
   <path d="M367.2000,91.8000L367.2000,96.0530"/>
   <path d="M374.8500,91.8000L374.8500,94.8379"/>
   <path d="M382.5000,91.8000L382.5000,95.4454"/>
   <path d="M390.1500,91.8000L390.1500,94.8379"/>
   <path d="M397.8000,91.8000L397.8000,95.4454"/>
   <path d="M405.4500,91.8000L405.4500,94.2303"/>
   <path d="M413.1000,91.8000L413.1000,94.8379"/>
   <path d="M420.7500,91.8000L420.7500,92.4076"/>
   <path d="M428.4000,91.8000L428.4000,93.0151"/>
   <path d="M436.0500,91.8000L436.0500,93.0151"/>
   <path d="M443.7000,91.8000L443.7000,93.0151"/>
   <path d="M451.3500,91.8000L451.3500,91.8000"/>
   <path d="M459.0000,91.8000L459.0000,93.6227"/>
   <path d="M466.6500,91.8000L466.6500,92.4076"/>
   <path d="M474.3000,91.8000L474.3000,92.4076"/>
   <path d="M481.9500,91.8000L481.9500,91.8000"/>
   <path d="M489.6000,91.8000L489.6000,91.8000"/>
   <path d="M497.2500,91.8000L497.2500,91.8000"/>
   <path d="M504.9000,91.8000L504.9000,91.8000"/>
   <path d="M512.5500,91.8000L512.5500,91.8000"/>
   <path d="M520.2000,91.8000L520.2000,92.4076"/>
   <path d="M527.8500,91.8000L527.8500,91.8000"/>
   <path d="M535.5000,91.8000L535.5000,91.8000"/>
   <path d="M543.1500,91.8000L543.1500,91.8000"/>
   <path d="M550.8000,91.8000L550.8000,91.8000"/>
   <path d="M558.4500,91.8000L558.4500,91.8000"/>
   <path d="M566.1000,91.8000L566.1000,91.8000"/>
   <path d="M573.7500,91.8000L573.7500,91.8000"/>
   <path d="M581.4000,91.8000L581.4000,91.8000"/>
   <path d="M589.0500,91.8000L589.0500,91.8000"/>
   <path d="M596.7000,91.8000L596.7000,91.8000"/>
   <path d="M604.3500,91.8000L604.3500,91.8000"/>
   <path d="M612.0000,91.8000L612.0000,91.8000"/>
   <path d="M619.6500,91.8000L619.6500,91.8000"/>
   <path d="M627.3000,91.8000L627.3000,91.8000"/>
   <path d="M634.9500,91.8000L634.9500,91.8000"/>
   <path d="M642.6000,91.8000L642.6000,91.8000"/>
   <path d="M650.2500,91.8000L650.2500,91.8000"/>
   <path d="M657.9000,91.8000L657.9000,91.8000"/>
   <path d="M665.5500,91.8000L665.5500,91.8000"/>
   <path d="M673.2000,91.8000L673.2000,91.8000"/>
   <path d="M680.8500,91.8000L680.8500,92.4076"/>
   <path d="M688.5000,91.8000L688.5000,91.8000"/>
   <path d="M696.1500,91.8000L696.1500,91.8000"/>
   <path d="M703.8000,91.8000L703.8000,91.8000"/>
  </g>
  <g style="fill:none; stroke:#000000; stroke-width:  0.9180; stroke-linecap:butt; stroke-linejoin:miter; stroke-dasharray:none">
   <path d="M91.8000,91.8000L99.4500,363.2609L107.1000,417.7859L114.7500,430.8166L122.4000,424.2045L130.0500,407.3720L137.7000,385.3389L145.3500,361.0251L153.0000,336.1926L160.6500,311.9106
            L168.3000,288.8136L175.9500,267.2563L183.6000,247.4109L191.2500,229.3300L198.9000,212.9899L206.5500,198.3184L214.2000,185.2148L221.8500,173.5629L229.5000,163.2406L237.1500,154.1249
            L244.8000,146.0971L252.4500,139.0441L260.1000,132.8607L267.7500,127.4496L275.4000,122.7224L283.0500,118.5987L290.7000,115.0064L298.3500,111.8807L306.0000,109.1641L313.6500,106.8055
            L321.3000,104.7595L328.9500,102.9863L336.6000,101.4506L344.2500,100.1217L351.9000,98.9725L359.5500,97.9794L367.2000,97.1215L374.8500,96.3810L382.5000,95.7421L390.1500,95.1912
            L397.8000,94.7162L405.4500,94.3070L413.1000,93.9546L420.7500,93.6512L428.4000,93.3901L436.0500,93.1655L443.7000,92.9723L451.3500,92.8062L459.0000,92.6634L466.6500,92.5408
            L474.3000,92.4354L481.9500,92.3449L489.6000,92.2672L497.2500,92.2005L504.9000,92.1433L512.5500,92.0942L520.2000,92.0521L527.8500,92.0159L535.5000,91.9850L543.1500,91.9584
            L550.8000,91.9356L558.4500,91.9161L566.1000,91.8994L573.7500,91.8851L581.4000,91.8728L589.0500,91.8623L596.7000,91.8533L604.3500,91.8456L612.0000,91.8390L619.6500,91.8334
            L627.3000,91.8286L634.9500,91.8244L642.6000,91.8209L650.2500,91.8179L657.9000,91.8153L665.5500,91.8130L673.2000,91.8112L680.8500,91.8095L688.5000,91.8081L696.1500,91.8070
            L703.8000,91.8059L703.8612,91.8059"/>
   <path d="M91.8000,91.8000L703.8000,91.8000"/>
   <path d="M91.8000,520.2000L703.8000,520.2000"/>
   <path d="M168.3000,91.8000L168.3000,97.9200"/>
   <path d="M168.3000,520.2000L168.3000,514.0800"/>
   <path d="M321.3000,91.8000L321.3000,97.9200"/>
   <path d="M321.3000,520.2000L321.3000,514.0800"/>
   <path d="M474.3000,91.8000L474.3000,97.9200"/>
   <path d="M474.3000,520.2000L474.3000,514.0800"/>
   <path d="M627.3000,91.8000L627.3000,97.9200"/>
   <path d="M627.3000,520.2000L627.3000,514.0800"/>
   <path d="M91.8000,91.8000L91.8000,104.0400"/>
   <path d="M91.8000,520.2000L91.8000,507.9600"/>
   <path d="M244.8000,91.8000L244.8000,104.0400"/>
   <path d="M244.8000,520.2000L244.8000,507.9600"/>
   <path d="M397.8000,91.8000L397.8000,104.0400"/>
   <path d="M397.8000,520.2000L397.8000,507.9600"/>
   <path d="M550.8000,91.8000L550.8000,104.0400"/>
   <path d="M550.8000,520.2000L550.8000,507.9600"/>
   <path d="M703.8000,91.8000L703.8000,104.0400"/>
   <path d="M703.8000,520.2000L703.8000,507.9600"/>
  </g>
  <g style="fill:#000000; fill-rule:nonzero">
   <text   style="font-family:'Times','Nimbus Roman'; font-style:normal; font-weight:normal; font-size:612.0000" transform="matrix(0.0280,0.0000,-0.0000,-0.0280,87.8000,74.6800)">0</text>
   <text   style="font-family:'Times','Nimbus Roman'; font-style:normal; font-weight:normal; font-size:612.0000" transform="matrix(0.0280,0.0000,-0.0000,-0.0280,240.8000,74.6800)">2</text>
   <text   style="font-family:'Times','Nimbus Roman'; font-style:normal; font-weight:normal; font-size:612.0000" transform="matrix(0.0280,0.0000,-0.0000,-0.0280,393.8000,74.6800)">4</text>
   <text   style="font-family:'Times','Nimbus Roman'; font-style:normal; font-weight:normal; font-size:612.0000" transform="matrix(0.0280,0.0000,-0.0000,-0.0280,546.8000,73.6800)">6</text>
   <text   style="font-family:'Times','Nimbus Roman'; font-style:normal; font-weight:normal; font-size:612.0000" transform="matrix(0.0280,0.0000,-0.0000,-0.0280,700.3000,74.6800)">8</text>
   <text   style="font-family:'Times','Nimbus Roman'; font-style:normal; font-weight:normal; font-size:612.0000" transform="matrix(0.0280,0.0000,-0.0000,-0.0280,308.3000,54.5600)">Kinetic Energy (kcal/mol)</text>
  </g>
  <g style="fill:none; stroke:#000000; stroke-width:  0.9180; stroke-linecap:butt; stroke-linejoin:miter; stroke-dasharray:none">
   <path d="M91.8000,91.8000L91.8000,520.2000"/>
   <path d="M703.8000,91.8000L703.8000,520.2000"/>
   <path d="M91.8000,134.6400L97.9200,134.6400"/>
   <path d="M703.8000,134.6400L697.6800,134.6400"/>
   <path d="M91.8000,220.3200L97.9200,220.3200"/>
   <path d="M703.8000,220.3200L697.6800,220.3200"/>
   <path d="M91.8000,306.0000L97.9200,306.0000"/>
   <path d="M703.8000,306.0000L697.6800,306.0000"/>
   <path d="M91.8000,391.6800L97.9200,391.6800"/>
   <path d="M703.8000,391.6800L697.6800,391.6800"/>
   <path d="M91.8000,477.3600L97.9200,477.3600"/>
   <path d="M703.8000,477.3600L697.6800,477.3600"/>
   <path d="M91.8000,91.8000L104.0400,91.8000"/>
   <path d="M703.8000,91.8000L691.5600,91.8000"/>
   <path d="M91.8000,177.4800L104.0400,177.4800"/>
   <path d="M703.8000,177.4800L691.5600,177.4800"/>
   <path d="M91.8000,263.1600L104.0400,263.1600"/>
   <path d="M703.8000,263.1600L691.5600,263.1600"/>
   <path d="M91.8000,348.8400L104.0400,348.8400"/>
   <path d="M703.8000,348.8400L691.5600,348.8400"/>
   <path d="M91.8000,434.5200L104.0400,434.5200"/>
   <path d="M703.8000,434.5200L691.5600,434.5200"/>
   <path d="M91.8000,520.2000L104.0400,520.2000"/>
   <path d="M703.8000,520.2000L691.5600,520.2000"/>
  </g>
  <g style="fill:#000000; fill-rule:nonzero">
   <text   style="font-family:'Times','Nimbus Roman'; font-style:normal; font-weight:normal; font-size:612.0000" transform="matrix(0.0280,0.0000,-0.0000,-0.0280,77.6800,86.3000)">0</text>
   <text   style="font-family:'Times','Nimbus Roman'; font-style:normal; font-weight:normal; font-size:612.0000" transform="matrix(0.0280,0.0000,-0.0000,-0.0280,64.6800,171.9800)">0.2</text>
   <text   style="font-family:'Times','Nimbus Roman'; font-style:normal; font-weight:normal; font-size:612.0000" transform="matrix(0.0280,0.0000,-0.0000,-0.0280,64.6800,257.6600)">0.4</text>
   <text   style="font-family:'Times','Nimbus Roman'; font-style:normal; font-weight:normal; font-size:612.0000" transform="matrix(0.0280,0.0000,-0.0000,-0.0280,64.6800,342.8400)">0.6</text>
   <text   style="font-family:'Times','Nimbus Roman'; font-style:normal; font-weight:normal; font-size:612.0000" transform="matrix(0.0280,0.0000,-0.0000,-0.0280,65.6800,429.0200)">0.8</text>
   <text   style="font-family:'Times','Nimbus Roman'; font-style:normal; font-weight:normal; font-size:612.0000" transform="matrix(0.0280,0.0000,-0.0000,-0.0280,78.6800,514.2000)">1</text>
   <text   style="font-family:'Times','Nimbus Roman'; font-style:normal; font-weight:normal; font-size:612.0000" transform="matrix(0.0000,0.0280,0.0280,-0.0000,54.5600,239.5000)">Relative Frequency</text>
  </g>
  <g style="fill:none; stroke:#000000; stroke-width:  0.9180; stroke-linecap:butt; stroke-linejoin:miter; stroke-dasharray:none">
   <path d="M91.8000,91.8000L91.8000,520.2000L703.8000,520.2000L703.8000,91.8000z"/>
  </g>
  <g style="fill:#000000; fill-rule:nonzero">
   <text   style="font-family:'Times','Nimbus Roman'; font-style:normal; font-weight:normal; font-size:612.0000" transform="matrix(0.0420,0.0000,-0.0000,-0.0420,94.3000,562.9200)">Maxwell Distribution for Ubiquitin in Water Sphere (NPT)</text>
   <text   style="font-family:'Times','Nimbus Roman'; font-style:normal; font-weight:normal; font-size:612.0000" transform="matrix(0.0280,0.0000,-0.0000,-0.0280,128.3000,536.4400)">Kinetic Energy distribution of the last frame (Maxwell K.E fit Temp: 307.8 K)</text>
  </g>
 </g>
</svg>
