<?xml version="1.0" encoding="ISO-8859-1"?>
<!DOCTYPE svg PUBLIC "-//W3C//DTD SVG 1.0//EN" "http://www.w3.org/TR/2001/REC-SVG-20010904/DTD/svg10.dtd">
<!-- generated by Grace-5.1.25 -->
<svg xml:space="preserve" width="11.0000in" height="8.5000in" viewBox="0.0000 0.0000 792.0000 612.0000">
 <g transform="translate(0,612.0000) scale(1,-1)">
 <desc></desc>
  <g style="fill:#FFFFFF; fill-rule:nonzero">
   <path  d="M0.0000,0.0000L0.0000,612.0000L792.0000,612.0000L792.0000,0.0000z"/>
  </g>
  <g style="fill:none; stroke:#000000; stroke-width:  0.9180; stroke-linecap:butt; stroke-linejoin:miter; stroke-dasharray:none">
   <path d="M168.3000,91.8000L168.3000,91.8000L172.8900,91.8000L172.8900,91.8000L177.4800,91.8000L177.4800,91.8000L182.0700,91.8000L182.0700,91.8000L186.6600,91.8000L186.6600,91.8000
            L191.2500,91.8000L191.2500,91.8000L195.8400,91.8000L195.8400,91.8000L200.4300,91.8000L200.4300,91.8000L205.0200,91.8000L205.0200,91.8000L209.6100,91.8000L209.6100,91.8000
            L214.2000,91.8000L214.2000,98.9400L218.7900,98.9400L218.7900,95.3700L223.3800,95.3700L223.3800,91.8000L227.9700,91.8000L227.9700,91.8000L232.5600,91.8000L232.5600,95.3700
            L237.1500,95.3700L237.1500,95.3700L241.7400,95.3700L241.7400,98.9400L246.3300,98.9400L246.3300,95.3700L250.9200,95.3700L250.9200,116.7900L255.5100,116.7900L255.5100,106.0800
            L260.1000,106.0800L260.1000,102.5100L264.6900,102.5100L264.6900,113.2200L269.2800,113.2200L269.2800,106.0800L273.8700,106.0800L273.8700,116.7900L278.4600,116.7900L278.4600,131.0700
            L283.0500,131.0700L283.0500,138.2100L287.6400,138.2100L287.6400,120.3600L292.2300,120.3600L292.2300,163.2000L296.8200,163.2000L296.8200,152.4900L301.4100,152.4900L301.4100,127.5000
            L306.0000,127.5000L306.0000,159.6300L310.5900,159.6300L310.5900,152.4900L315.1800,152.4900L315.1800,177.4800L319.7700,177.4800L319.7700,191.7600L324.3600,191.7600L324.3600,181.0500
            L328.9500,181.0500L328.9500,177.4800L333.5400,177.4800L333.5400,188.1900L338.1300,188.1900L338.1300,188.1900L342.7200,188.1900L342.7200,220.3200L347.3100,220.3200L347.3100,223.8900
            L351.9000,223.8900L351.9000,248.8800L356.4900,248.8800L356.4900,238.1700L361.0800,238.1700L361.0800,273.8700L365.6700,273.8700L365.6700,284.5800L370.2600,284.5800L370.2600,241.7400
            L374.8500,241.7400L374.8500,316.7100L379.4400,316.7100L379.4400,284.5800L384.0300,284.5800L384.0300,270.3000L388.6200,270.3000L388.6200,306.0000L393.2100,306.0000L393.2100,234.6000
            L397.8000,234.6000L397.8000,313.1400L402.3900,313.1400L402.3900,320.2800L406.9800,320.2800L406.9800,334.5600L411.5700,334.5600L411.5700,259.5900L416.1600,259.5900L416.1600,291.7200
            L420.7500,291.7200L420.7500,298.8600L425.3400,298.8600L425.3400,245.3100L429.9300,245.3100L429.9300,270.3000L434.5200,270.3000L434.5200,256.0200L439.1100,256.0200L439.1100,256.0200
            L443.7000,256.0200L443.7000,284.5800L448.2900,284.5800L448.2900,248.8800L452.8800,248.8800L452.8800,216.7500L457.4700,216.7500L457.4700,238.1700L462.0600,238.1700L462.0600,184.6200
            L466.6500,184.6200L466.6500,234.6000L471.2400,234.6000L471.2400,198.9000L475.8300,198.9000L475.8300,209.6100L480.4200,209.6100L480.4200,170.3400L485.0100,170.3400L485.0100,181.0500
            L489.6000,181.0500L489.6000,141.7800L494.1900,141.7800L494.1900,134.6400L498.7800,134.6400L498.7800,166.7700L503.3700,166.7700L503.3700,166.7700L507.9600,166.7700L507.9600,145.3500
            L512.5500,145.3500L512.5500,148.9200L517.1400,148.9200L517.1400,152.4900L521.7300,152.4900L521.7300,145.3500L526.3200,145.3500L526.3200,138.2100L530.9100,138.2100L530.9100,123.9300
            L535.5000,123.9300L535.5000,148.9200L540.0900,148.9200L540.0900,106.0800L544.6800,106.0800L544.6800,123.9300L549.2700,123.9300L549.2700,98.9400L553.8600,98.9400L553.8600,127.5000
            L558.4500,127.5000L558.4500,113.2200L563.0400,113.2200L563.0400,109.6500L567.6300,109.6500L567.6300,98.9400L572.2200,98.9400L572.2200,109.6500L576.8100,109.6500L576.8100,91.8000
            L581.4000,91.8000L581.4000,95.3700L585.9900,95.3700L585.9900,98.9400L590.5800,98.9400L590.5800,95.3700L595.1700,95.3700L595.1700,95.3700L599.7600,95.3700L599.7600,102.5100
            L604.3500,102.5100L604.3500,98.9400L608.9400,98.9400L608.9400,95.3700L613.5300,95.3700L613.5300,98.9400L618.1200,98.9400L618.1200,91.8000L622.7100,91.8000L622.7100,98.9400
            L627.3000,98.9400"/>
   <path d="M168.3000,91.8000L168.3000,91.8000"/>
   <path d="M172.8900,91.8000L172.8900,91.8000"/>
   <path d="M177.4800,91.8000L177.4800,91.8000"/>
   <path d="M182.0700,91.8000L182.0700,91.8000"/>
   <path d="M186.6600,91.8000L186.6600,91.8000"/>
   <path d="M191.2500,91.8000L191.2500,91.8000"/>
   <path d="M195.8400,91.8000L195.8400,91.8000"/>
   <path d="M200.4300,91.8000L200.4300,91.8000"/>
   <path d="M205.0200,91.8000L205.0200,91.8000"/>
   <path d="M209.6100,91.8000L209.6100,91.8000"/>
   <path d="M214.2000,91.8000L214.2000,91.8000"/>
   <path d="M218.7900,91.8000L218.7900,98.9400"/>
   <path d="M223.3800,91.8000L223.3800,95.3700"/>
   <path d="M227.9700,91.8000L227.9700,91.8000"/>
   <path d="M232.5600,91.8000L232.5600,91.8000"/>
   <path d="M237.1500,91.8000L237.1500,95.3700"/>
   <path d="M241.7400,91.8000L241.7400,95.3700"/>
   <path d="M246.3300,91.8000L246.3300,98.9400"/>
   <path d="M250.9200,91.8000L250.9200,95.3700"/>
   <path d="M255.5100,91.8000L255.5100,116.7900"/>
   <path d="M260.1000,91.8000L260.1000,106.0800"/>
   <path d="M264.6900,91.8000L264.6900,102.5100"/>
   <path d="M269.2800,91.8000L269.2800,113.2200"/>
   <path d="M273.8700,91.8000L273.8700,106.0800"/>
   <path d="M278.4600,91.8000L278.4600,116.7900"/>
   <path d="M283.0500,91.8000L283.0500,131.0700"/>
   <path d="M287.6400,91.8000L287.6400,138.2100"/>
   <path d="M292.2300,91.8000L292.2300,120.3600"/>
   <path d="M296.8200,91.8000L296.8200,163.2000"/>
   <path d="M301.4100,91.8000L301.4100,152.4900"/>
   <path d="M306.0000,91.8000L306.0000,127.5000"/>
   <path d="M310.5900,91.8000L310.5900,159.6300"/>
   <path d="M315.1800,91.8000L315.1800,152.4900"/>
   <path d="M319.7700,91.8000L319.7700,177.4800"/>
   <path d="M324.3600,91.8000L324.3600,191.7600"/>
   <path d="M328.9500,91.8000L328.9500,181.0500"/>
   <path d="M333.5400,91.8000L333.5400,177.4800"/>
   <path d="M338.1300,91.8000L338.1300,188.1900"/>
   <path d="M342.7200,91.8000L342.7200,188.1900"/>
   <path d="M347.3100,91.8000L347.3100,220.3200"/>
   <path d="M351.9000,91.8000L351.9000,223.8900"/>
   <path d="M356.4900,91.8000L356.4900,248.8800"/>
   <path d="M361.0800,91.8000L361.0800,238.1700"/>
   <path d="M365.6700,91.8000L365.6700,273.8700"/>
   <path d="M370.2600,91.8000L370.2600,284.5800"/>
   <path d="M374.8500,91.8000L374.8500,241.7400"/>
   <path d="M379.4400,91.8000L379.4400,316.7100"/>
   <path d="M384.0300,91.8000L384.0300,284.5800"/>
   <path d="M388.6200,91.8000L388.6200,270.3000"/>
   <path d="M393.2100,91.8000L393.2100,306.0000"/>
   <path d="M397.8000,91.8000L397.8000,234.6000"/>
   <path d="M402.3900,91.8000L402.3900,313.1400"/>
   <path d="M406.9800,91.8000L406.9800,320.2800"/>
   <path d="M411.5700,91.8000L411.5700,334.5600"/>
   <path d="M416.1600,91.8000L416.1600,259.5900"/>
   <path d="M420.7500,91.8000L420.7500,291.7200"/>
   <path d="M425.3400,91.8000L425.3400,298.8600"/>
   <path d="M429.9300,91.8000L429.9300,245.3100"/>
   <path d="M434.5200,91.8000L434.5200,270.3000"/>
   <path d="M439.1100,91.8000L439.1100,256.0200"/>
   <path d="M443.7000,91.8000L443.7000,256.0200"/>
   <path d="M448.2900,91.8000L448.2900,284.5800"/>
   <path d="M452.8800,91.8000L452.8800,248.8800"/>
   <path d="M457.4700,91.8000L457.4700,216.7500"/>
   <path d="M462.0600,91.8000L462.0600,238.1700"/>
   <path d="M466.6500,91.8000L466.6500,184.6200"/>
   <path d="M471.2400,91.8000L471.2400,234.6000"/>
   <path d="M475.8300,91.8000L475.8300,198.9000"/>
   <path d="M480.4200,91.8000L480.4200,209.6100"/>
   <path d="M485.0100,91.8000L485.0100,170.3400"/>
   <path d="M489.6000,91.8000L489.6000,181.0500"/>
   <path d="M494.1900,91.8000L494.1900,141.7800"/>
   <path d="M498.7800,91.8000L498.7800,134.6400"/>
   <path d="M503.3700,91.8000L503.3700,166.7700"/>
   <path d="M507.9600,91.8000L507.9600,166.7700"/>
   <path d="M512.5500,91.8000L512.5500,145.3500"/>
   <path d="M517.1400,91.8000L517.1400,148.9200"/>
   <path d="M521.7300,91.8000L521.7300,152.4900"/>
   <path d="M526.3200,91.8000L526.3200,145.3500"/>
   <path d="M530.9100,91.8000L530.9100,138.2100"/>
   <path d="M535.5000,91.8000L535.5000,123.9300"/>
   <path d="M540.0900,91.8000L540.0900,148.9200"/>
   <path d="M544.6800,91.8000L544.6800,106.0800"/>
   <path d="M549.2700,91.8000L549.2700,123.9300"/>
   <path d="M553.8600,91.8000L553.8600,98.9400"/>
   <path d="M558.4500,91.8000L558.4500,127.5000"/>
   <path d="M563.0400,91.8000L563.0400,113.2200"/>
   <path d="M567.6300,91.8000L567.6300,109.6500"/>
   <path d="M572.2200,91.8000L572.2200,98.9400"/>
   <path d="M576.8100,91.8000L576.8100,109.6500"/>
   <path d="M581.4000,91.8000L581.4000,91.8000"/>
   <path d="M585.9900,91.8000L585.9900,95.3700"/>
   <path d="M590.5800,91.8000L590.5800,98.9400"/>
   <path d="M595.1700,91.8000L595.1700,95.3700"/>
   <path d="M599.7600,91.8000L599.7600,95.3700"/>
   <path d="M604.3500,91.8000L604.3500,102.5100"/>
   <path d="M608.9400,91.8000L608.9400,98.9400"/>
   <path d="M613.5300,91.8000L613.5300,95.3700"/>
   <path d="M618.1200,91.8000L618.1200,98.9400"/>
   <path d="M622.7100,91.8000L622.7100,91.8000"/>
   <path d="M627.3000,91.8000L627.3000,98.9400"/>
   <path d="M168.3000,92.0417L172.8900,92.1121L177.4800,92.2010L182.0700,92.3126L186.6600,92.4521L191.2500,92.6255L195.8400,92.8398L200.4300,93.1033L205.0200,93.4254L209.6100,93.8172
            L214.2000,94.2910L218.7900,94.8609L223.3800,95.5426L227.9700,96.3535L232.5600,97.3128L237.1500,98.4411L241.7400,99.7609L246.3300,101.2958L250.9200,103.0706L255.5100,105.1110
            L260.1000,107.4432L264.6900,110.0931L269.2800,113.0863L273.8700,116.4467L278.4600,120.1967L283.0500,124.3556L287.6400,128.9391L292.2300,133.9586L296.8200,139.4200L301.4100,145.3231
            L306.0000,151.6607L310.5900,158.4179L315.1800,165.5715L319.7700,173.0896L324.3600,180.9313L328.9500,189.0465L333.5400,197.3763L338.1300,205.8532L342.7200,214.4019L347.3100,222.9401
            L351.9000,231.3798L356.4900,239.6286L361.0800,247.5911L365.6700,255.1713L370.2600,262.2737L374.8500,268.8059L379.4400,274.6802L384.0300,279.8158L388.6200,284.1405L393.2100,287.5923
            L397.8000,290.1212L402.3900,291.6902L406.9800,292.2760L411.5700,291.8700L416.1600,290.4782L420.7500,288.1211L425.3400,284.8334L429.9300,280.6629L434.5200,275.6694L439.1100,269.9234
            L443.7000,263.5043L448.2900,256.4986L452.8800,248.9981L457.4700,241.0978L462.0600,232.8939L466.6500,224.4819L471.2400,215.9549L475.8300,207.4018L480.4200,198.9060L485.0100,190.5443
            L489.6000,182.3855L494.1900,174.4902L498.7800,166.9100L503.3700,159.6876L507.9600,152.8565L512.5500,146.4414L517.1400,140.4587L521.7300,134.9169L526.3200,129.8175L530.9100,125.1555
            L535.5000,120.9207L540.0900,117.0978L544.6800,113.6682L549.2700,110.6102L553.8600,107.8998L558.4500,105.5119L563.0400,103.4204L567.6300,101.5993L572.2200,100.0228L576.8100,98.6658
            L581.4000,97.5044L585.9900,96.5160L590.5800,95.6797L595.1700,94.9759L599.7600,94.3869L604.3500,93.8967L608.9400,93.4910L613.5300,93.1571L618.1200,92.8837L622.7100,92.6611
            L627.3000,92.4809"/>
   <path d="M91.8000,91.8000L703.8000,91.8000"/>
   <path d="M91.8000,520.2000L703.8000,520.2000"/>
   <path d="M168.3000,91.8000L168.3000,97.9200"/>
   <path d="M168.3000,520.2000L168.3000,514.0800"/>
   <path d="M321.3000,91.8000L321.3000,97.9200"/>
   <path d="M321.3000,520.2000L321.3000,514.0800"/>
   <path d="M474.3000,91.8000L474.3000,97.9200"/>
   <path d="M474.3000,520.2000L474.3000,514.0800"/>
   <path d="M627.3000,91.8000L627.3000,97.9200"/>
   <path d="M627.3000,520.2000L627.3000,514.0800"/>
   <path d="M91.8000,91.8000L91.8000,104.0400"/>
   <path d="M91.8000,520.2000L91.8000,507.9600"/>
   <path d="M244.8000,91.8000L244.8000,104.0400"/>
   <path d="M244.8000,520.2000L244.8000,507.9600"/>
   <path d="M397.8000,91.8000L397.8000,104.0400"/>
   <path d="M397.8000,520.2000L397.8000,507.9600"/>
   <path d="M550.8000,91.8000L550.8000,104.0400"/>
   <path d="M550.8000,520.2000L550.8000,507.9600"/>
   <path d="M703.8000,91.8000L703.8000,104.0400"/>
   <path d="M703.8000,520.2000L703.8000,507.9600"/>
  </g>
  <g style="fill:#000000; fill-rule:nonzero">
   <text   style="font-family:'Times','Nimbus Roman'; font-style:normal; font-weight:normal; font-size:612.0000" transform="matrix(0.0280,0.0000,-0.0000,-0.0280,76.3000,74.6800)">-900</text>
   <text   style="font-family:'Times','Nimbus Roman'; font-style:normal; font-weight:normal; font-size:612.0000" transform="matrix(0.0280,0.0000,-0.0000,-0.0280,229.3000,74.6800)">-800</text>
   <text   style="font-family:'Times','Nimbus Roman'; font-style:normal; font-weight:normal; font-size:612.0000" transform="matrix(0.0280,0.0000,-0.0000,-0.0280,382.3000,74.6800)">-700</text>
   <text   style="font-family:'Times','Nimbus Roman'; font-style:normal; font-weight:normal; font-size:612.0000" transform="matrix(0.0280,0.0000,-0.0000,-0.0280,535.3000,73.6800)">-600</text>
   <text   style="font-family:'Times','Nimbus Roman'; font-style:normal; font-weight:normal; font-size:612.0000" transform="matrix(0.0280,0.0000,-0.0000,-0.0280,688.3000,73.6800)">-500</text>
   <text   style="font-family:'Times','Nimbus Roman'; font-style:normal; font-weight:normal; font-size:612.0000" transform="matrix(0.0280,0.0000,-0.0000,-0.0280,335.8000,55.5600)">Energy (kcal/mol)</text>
  </g>
  <g style="fill:none; stroke:#000000; stroke-width:  0.9180; stroke-linecap:butt; stroke-linejoin:miter; stroke-dasharray:none">
   <path d="M91.8000,91.8000L91.8000,520.2000"/>
   <path d="M703.8000,91.8000L703.8000,520.2000"/>
   <path d="M91.8000,145.3500L97.9200,145.3500"/>
   <path d="M703.8000,145.3500L697.6800,145.3500"/>
   <path d="M91.8000,252.4500L97.9200,252.4500"/>
   <path d="M703.8000,252.4500L697.6800,252.4500"/>
   <path d="M91.8000,359.5500L97.9200,359.5500"/>
   <path d="M703.8000,359.5500L697.6800,359.5500"/>
   <path d="M91.8000,466.6500L97.9200,466.6500"/>
   <path d="M703.8000,466.6500L697.6800,466.6500"/>
   <path d="M91.8000,91.8000L104.0400,91.8000"/>
   <path d="M703.8000,91.8000L691.5600,91.8000"/>
   <path d="M91.8000,198.9000L104.0400,198.9000"/>
   <path d="M703.8000,198.9000L691.5600,198.9000"/>
   <path d="M91.8000,306.0000L104.0400,306.0000"/>
   <path d="M703.8000,306.0000L691.5600,306.0000"/>
   <path d="M91.8000,413.1000L104.0400,413.1000"/>
   <path d="M703.8000,413.1000L691.5600,413.1000"/>
   <path d="M91.8000,520.2000L104.0400,520.2000"/>
   <path d="M703.8000,520.2000L691.5600,520.2000"/>
  </g>
  <g style="fill:#000000; fill-rule:nonzero">
   <text   style="font-family:'Times','Nimbus Roman'; font-style:normal; font-weight:normal; font-size:612.0000" transform="matrix(0.0280,0.0000,-0.0000,-0.0280,77.6800,86.3000)">0</text>
   <text   style="font-family:'Times','Nimbus Roman'; font-style:normal; font-weight:normal; font-size:612.0000" transform="matrix(0.0280,0.0000,-0.0000,-0.0280,47.6800,192.9000)">0.005</text>
   <text   style="font-family:'Times','Nimbus Roman'; font-style:normal; font-weight:normal; font-size:612.0000" transform="matrix(0.0280,0.0000,-0.0000,-0.0280,57.6800,300.0000)">0.01</text>
   <text   style="font-family:'Times','Nimbus Roman'; font-style:normal; font-weight:normal; font-size:612.0000" transform="matrix(0.0280,0.0000,-0.0000,-0.0280,47.6800,407.1000)">0.015</text>
   <text   style="font-family:'Times','Nimbus Roman'; font-style:normal; font-weight:normal; font-size:612.0000" transform="matrix(0.0280,0.0000,-0.0000,-0.0280,56.6800,514.7000)">0.02</text>
   <text   style="font-family:'Times','Nimbus Roman'; font-style:normal; font-weight:normal; font-size:612.0000" transform="matrix(0.0000,0.0280,0.0280,-0.0000,37.5600,239.5000)">Relative Frequency</text>
  </g>
  <g style="fill:none; stroke:#000000; stroke-width:  0.9180; stroke-linecap:butt; stroke-linejoin:miter; stroke-dasharray:none">
   <path d="M91.8000,91.8000L91.8000,520.2000L703.8000,520.2000L703.8000,91.8000z"/>
  </g>
  <g style="fill:#000000; fill-rule:nonzero">
   <text   style="font-family:'Times','Nimbus Roman'; font-style:normal; font-weight:normal; font-size:612.0000" transform="matrix(0.0420,0.0000,-0.0000,-0.0420,294.3000,562.9200)">Energy Fluctuations</text>
   <text   style="font-family:'Times','Nimbus Roman'; font-style:normal; font-weight:normal; font-size:612.0000" transform="matrix(0.0280,0.0000,-0.0000,-0.0280,99.3000,536.4400)">Ubiqutin in Water Sphere (NVT) (Gaussian fit mean: -693.72, std_dev: 42.62, R: 0.97)</text>
  </g>
 </g>
</svg>
